<svg xmlns="http://www.w3.org/2000/svg" width="760" height="380" viewBox="0 0 760 380" font-family="Segoe UI, Arial, sans-serif">
<rect width="760" height="380" fill="#ffffff"/>
<text x="380" y="28" text-anchor="middle" font-size="18" font-weight="bold" fill="#1a1a1a">L3 honest disclosure: gate-gap persists on the null corpus</text>
<text x="40" y="324" font-size="12" fill="#333">CE</text>
<line x1="90" y1="242.0" x2="730" y2="242.0" stroke="#c0504d" stroke-dasharray="5 4" stroke-width="1"/>
<text x="730" y="238.0" text-anchor="end" font-size="10.5" fill="#c0504d">real unigram 3.557</text>
<line x1="90" y1="179.1" x2="730" y2="179.1" stroke="#4f81bd" stroke-dasharray="5 4" stroke-width="1"/>
<text x="730" y="175.1" text-anchor="end" font-size="10.5" fill="#4f81bd">null unigram 3.649</text>
<rect x="120" y="242.1" width="46" height="57.9" fill="#c0504d"/>
<text x="143.0" y="237.1" text-anchor="middle" font-size="10" fill="#c0504d">3.557</text>
<rect x="172" y="73.7" width="46" height="226.3" fill="#4f81bd"/>
<text x="195.0" y="68.7" text-anchor="middle" font-size="10" fill="#4f81bd">3.802</text>
<text x="169.0" y="318" text-anchor="middle" font-size="12.5" fill="#333">inf</text>
<rect x="270" y="259.9" width="46" height="40.1" fill="#c0504d"/>
<text x="293.0" y="254.9" text-anchor="middle" font-size="10" fill="#c0504d">3.531</text>
<rect x="322" y="92.8" width="46" height="207.2" fill="#4f81bd"/>
<text x="345.0" y="87.8" text-anchor="middle" font-size="10" fill="#4f81bd">3.774</text>
<text x="319.0" y="318" text-anchor="middle" font-size="12.5" fill="#333">two</text>
<rect x="420" y="271.6" width="46" height="28.4" fill="#c0504d"/>
<text x="443.0" y="266.6" text-anchor="middle" font-size="10" fill="#c0504d">3.514</text>
<rect x="472" y="105.3" width="46" height="194.7" fill="#4f81bd"/>
<text x="495.0" y="100.3" text-anchor="middle" font-size="10" fill="#4f81bd">3.756</text>
<text x="469.0" y="318" text-anchor="middle" font-size="12.5" fill="#333">sdp</text>
<rect x="570" y="286.3" width="46" height="13.7" fill="#c0504d"/>
<text x="593.0" y="281.3" text-anchor="middle" font-size="10" fill="#c0504d">3.493</text>
<rect x="622" y="177.0" width="46" height="123.0" fill="#4f81bd"/>
<text x="645.0" y="172.0" text-anchor="middle" font-size="10" fill="#4f81bd">3.652</text>
<text x="619.0" y="318" text-anchor="middle" font-size="12.5" fill="#333">none</text>
<rect x="120" y="40" width="12" height="12" fill="#c0504d"/><text x="136" y="50" font-size="11" fill="#333">real corpus</text>
<rect x="230" y="40" width="12" height="12" fill="#4f81bd"/><text x="246" y="50" font-size="11" fill="#333">null (shuffled) corpus</text>
<text x="90" y="366" font-size="11" fill="#666">lower CE = better. Gate ordering inf&gt;two&gt;sdp persists on the null (gap ~107% of real on the CE scale) =&gt; evolvability, not language learning.</text></svg>
