<svg xmlns="http://www.w3.org/2000/svg" viewBox="0 0 880 320" width="880" height="320" role="img">
<desc>かみくだき版マスコット: 獅子舞が読者の頭を噛んで「理解」のご利益を授ける (ko)</desc>
<rect x="0" y="0" width="880" height="320" rx="14" fill="#fffdf8"/>

<!-- 地面の影 -->
<ellipse cx="160" cy="298" rx="70" ry="9" fill="#e8e2d4" opacity="0.7"/>
<ellipse cx="330" cy="302" rx="95" ry="9" fill="#e8e2d4" opacity="0.7"/>

<!-- 読者 (頭の上半分は獅子の口の中) -->
<g>
  <circle cx="158" cy="170" r="31" fill="#fbd7b5"/>
  <path d="M127 165 q-3 26 8 32 q4 -16 2 -30 Z" fill="#8d6748"/>
  <path d="M189 165 q3 26 -8 32 q-4 -16 -2 -30 Z" fill="#8d6748"/>
  <path d="M138 180 q6 6 12 0" stroke="#5b4632" stroke-width="2.4" fill="none" stroke-linecap="round"/>
  <path d="M166 180 q6 6 12 0" stroke="#5b4632" stroke-width="2.4" fill="none" stroke-linecap="round"/>
  <path d="M151 196 q7 5 14 0" stroke="#c96f63" stroke-width="2.4" fill="none" stroke-linecap="round"/>
  <ellipse cx="134" cy="191" rx="7" ry="4.5" fill="#f5a8a0" opacity="0.6"/>
  <ellipse cx="182" cy="191" rx="7" ry="4.5" fill="#f5a8a0" opacity="0.6"/>
  <path d="M126 205 q-8 4 -9 22 l0 32 q0 6 7 6 l68 0 q7 0 7 -6 l0 -32 q-1 -18 -9 -22 q-32 10 -64 0 Z" fill="#87a9d6"/>
  <path d="M122 212 q-12 18 -2 32 q6 7 14 2 l10 -14" fill="none" stroke="#87a9d6" stroke-width="13" stroke-linecap="round"/>
  <path d="M194 212 q12 18 2 32 q-6 7 -14 2 l-10 -14" fill="none" stroke="#87a9d6" stroke-width="13" stroke-linecap="round"/>
  <circle cx="143" cy="245" r="6.5" fill="#fbd7b5"/>
  <circle cx="173" cy="245" r="6.5" fill="#fbd7b5"/>
  <g transform="rotate(-5 158 252)">
    <rect x="132" y="238" width="52" height="30" rx="3" fill="#ffffff" stroke="#ddd5c2" stroke-width="1.4"/>
    <text x="158" y="258" text-anchor="middle" font-family="'Hiragino Sans','Noto Sans CJK JP','Yu Gothic',Meiryo,sans-serif" font-size="13" font-weight="bold" fill="#6b6b6b">난해</text>
  </g>
  <rect x="133" y="263" width="22" height="28" rx="6" fill="#5a6e8c"/>
  <rect x="161" y="263" width="22" height="28" rx="6" fill="#5a6e8c"/>
  <rect x="129" y="288" width="28" height="10" rx="5" fill="#8a8378"/>
  <rect x="159" y="288" width="28" height="10" rx="5" fill="#8a8378"/>
</g>

<!-- 獅子の幕 (緑 + 唐草, 演者なし = 神霊のみ)。頭の後ろから右下へ流れる -->
<path d="M200 80 Q320 56 396 128 Q442 180 432 240 q-4 28 -26 36
         q-14 14 -32 6 q-10 16 -30 8 q-12 14 -30 6 q-14 12 -32 3 q-18 8 -28 -8
         Q222 282 210 210 Q202 140 200 80 Z" fill="#4caf50" stroke="#3a8c3f" stroke-width="2"/>
<g transform="translate(275,185) scale(1.0)"><path d="M0 0 q14 -12 21 1 q6 12 -8 15 q-11 2 -12 -8 q0 -7 7 -8" stroke="#ffffff" stroke-width="3" fill="none" opacity="0.95" stroke-linecap="round"/></g><g transform="translate(330,215) scale(1.15)"><path d="M0 0 q14 -12 21 1 q6 12 -8 15 q-11 2 -12 -8 q0 -7 7 -8" stroke="#ffffff" stroke-width="3" fill="none" opacity="0.95" stroke-linecap="round"/></g><g transform="translate(380,185) scale(0.9)"><path d="M0 0 q14 -12 21 1 q6 12 -8 15 q-11 2 -12 -8 q0 -7 7 -8" stroke="#ffffff" stroke-width="3" fill="none" opacity="0.95" stroke-linecap="round"/></g><g transform="translate(300,250) scale(0.95)"><path d="M0 0 q14 -12 21 1 q6 12 -8 15 q-11 2 -12 -8 q0 -7 7 -8" stroke="#ffffff" stroke-width="3" fill="none" opacity="0.95" stroke-linecap="round"/></g><g transform="translate(360,262) scale(0.8)"><path d="M0 0 q14 -12 21 1 q6 12 -8 15 q-11 2 -12 -8 q0 -7 7 -8" stroke="#ffffff" stroke-width="3" fill="none" opacity="0.95" stroke-linecap="round"/></g>
<!-- 幕の口元の白いふち (頭の右縁に沿う) -->
<circle cx="231" cy="87" r="11" fill="#ffffff"/>
<circle cx="241" cy="107" r="11" fill="#ffffff"/>
<circle cx="245" cy="128" r="11" fill="#ffffff"/>
<circle cx="243" cy="149" r="11" fill="#ffffff"/>

<!-- 獅子の頭 (読者の頭に覆いかぶさる) -->
<g>
  <ellipse cx="176" cy="108" rx="64" ry="50" fill="#d83b3b" stroke="#b32d2d" stroke-width="2"/>
  <circle cx="124" cy="70" r="13" fill="#e8b33a" stroke="#c79427" stroke-width="2"/>
  <circle cx="228" cy="70" r="13" fill="#e8b33a" stroke="#c79427" stroke-width="2"/>
  <path d="M136 76 q12 -10 24 -2 q-4 10 -16 9 q-8 0 -8 -7" fill="#2b2b2b"/>
  <path d="M216 76 q-12 -10 -24 -2 q4 10 16 9 q8 0 8 -7" fill="#2b2b2b"/>
  <path d="M170 62 q12 -7 15 6 q2 11 -10 11 q-9 0 -8 -8" stroke="#2b2b2b" stroke-width="3" fill="none"/>
  <circle cx="150" cy="96" r="13" fill="#fffef5"/>
  <circle cx="202" cy="96" r="13" fill="#fffef5"/>
  <circle cx="151" cy="101" r="5.5" fill="#222"/>
  <circle cx="203" cy="101" r="5.5" fill="#222"/>
  <circle cx="153" cy="98" r="1.8" fill="#fff"/>
  <circle cx="205" cy="98" r="1.8" fill="#fff"/>
  <ellipse cx="176" cy="122" rx="11" ry="8" fill="#e8b33a" stroke="#c79427" stroke-width="1.6"/>
  <path d="M112 140 q64 14 128 0 l0 8 q-64 14 -128 0 Z" fill="#e8b33a"/>
  <polygon points="122,146 131.5,166 141,146" fill="#fffef5" stroke="#ece4d0" stroke-width="1.2"/><polygon points="141,146 150.5,166 160,146" fill="#fffef5" stroke="#ece4d0" stroke-width="1.2"/><polygon points="160,146 169.5,166 179,146" fill="#fffef5" stroke="#ece4d0" stroke-width="1.2"/><polygon points="179,146 188.5,166 198,146" fill="#fffef5" stroke="#ece4d0" stroke-width="1.2"/><polygon points="198,146 207.5,166 217,146" fill="#fffef5" stroke="#ece4d0" stroke-width="1.2"/><polygon points="217,146 226.5,166 236,146" fill="#fffef5" stroke="#ece4d0" stroke-width="1.2"/>
</g>

<!-- 神霊オーブ (AI に宿った神, 微細回路入り) -->
<g>
  <circle cx="262" cy="42" r="15" fill="#f6d365" opacity="0.32"/>
  <path d="M262 28 q6 -11 1 -20 q-5 8 -9 11 q5 3 8 9" fill="#f6d365" opacity="0.75"/>
  <circle cx="262" cy="42" r="8.5" fill="#f0b429" stroke="#d4920a" stroke-width="1.5"/>
  <circle cx="259" cy="40" r="1.3" fill="#fff"/><circle cx="265" cy="43" r="1.3" fill="#fff"/><circle cx="261" cy="46" r="1.3" fill="#fff"/>
  <line x1="259" y1="40" x2="265" y2="43" stroke="#fff" stroke-width="0.8"/>
  <line x1="265" y1="43" x2="261" y2="46" stroke="#fff" stroke-width="0.8"/>
</g>
<!-- ご利益スパークル -->
<polygon points="104,76 107,84 115,87 107,90 104,98 101,90 93,87 101,84" fill="#f0b429" opacity="0.9"/>
<polygon points="92,140 94,145 99,147 94,149 92,154 90,149 85,147 90,145" fill="#f0b429" opacity="0.85"/>

<g>
  <text x="465" y="118" font-family="'Hiragino Sans','Noto Sans CJK JP','Yu Gothic',Meiryo,sans-serif" font-size="38" font-weight="bold" fill="#b3322e">쉬운 설명판</text>
  <rect x="465" y="132" width="180" height="5" rx="2.5" fill="#e8b33a"/>
  <text x="465" y="172" font-family="'Hiragino Sans','Noto Sans CJK JP','Yu Gothic',Meiryo,sans-serif" font-size="19" fill="#3a3a3a">어려운 부분은 사자탈이 꼭꼭 씹어서</text><text x="465" y="199" font-family="'Hiragino Sans','Noto Sans CJK JP','Yu Gothic',Meiryo,sans-serif" font-size="19" fill="#3a3a3a">전해 드립니다.</text>
  <text x="465" y="247" font-family="'Hiragino Sans','Noto Sans CJK JP','Yu Gothic',Meiryo,sans-serif" font-size="14.5" fill="#7a6f5d">사자탈에 물리면 복이 온다고 하지요 —</text><text x="465" y="271" font-family="'Hiragino Sans','Noto Sans CJK JP','Yu Gothic',Meiryo,sans-serif" font-size="14.5" fill="#7a6f5d">이 사자에게 물린 독자에게는 「이해」라는 복이 옵니다.</text>
  <text x="465" y="296" font-family="'Hiragino Sans','Noto Sans CJK JP','Yu Gothic',Meiryo,sans-serif" font-size="12.5" fill="#a89f8d">FullSense KB・쉬운 설명 시리즈</text>
</g>
</svg>
