<svg xmlns="http://www.w3.org/2000/svg" viewBox="0 0 1000 560" font-family="'Segoe UI','Noto Sans CJK KR','Malgun Gothic',sans-serif">
  <defs>
    <marker id="ah" viewBox="0 0 10 10" refX="8" refY="5" markerWidth="7" markerHeight="7" orient="auto-start-reverse">
      <path d="M0 0 L10 5 L0 10 z" fill="#5b6b8c"/>
    </marker>
    <style>
      .ttl{font-size:25px;font-weight:700;fill:#1f2a44}
      .sub{font-size:14px;fill:#5b6b8c}
      .panel{font-size:18px;font-weight:700;fill:#26324f}
      .lbl{font-size:13px;fill:#3a4868}
      .sm{font-size:12px;fill:#6b7894}
      .glyph{font-size:18px;font-weight:700}
      .cap{font-size:16px;font-weight:700;fill:#26324f}
    </style>
  </defs>

  <rect x="0" y="0" width="1000" height="560" fill="#f6f8fc"/>
  <text class="ttl" x="40" y="46">같은 사상 J를 두 개의 자로 검증한다</text>
  <text class="sub" x="40" y="70">회전 + 수축 선형 사상 J를, 둥근 자(2노름)와 기울어진 타원(SDP의 Lyapunov P)으로 측정</text>

  <!-- ===================== LEFT PANEL : 2-norm ball ===================== -->
  <g transform="translate(40,96)">
    <rect x="0" y="0" width="440" height="356" rx="12" fill="#ffffff" stroke="#d7deec" stroke-width="1.5"/>
    <text class="panel" x="22" y="34">둥근 자: 2노름 단위구</text>
    <text class="sm" x="22" y="56">최대 특이값 &lt; 1 을 요구 — ||J||₂ &gt; 1 이면 기각</text>

    <!-- coordinate frame -->
    <g transform="translate(220,210)">
      <line x1="-170" y1="0" x2="170" y2="0" stroke="#c5cee0" stroke-width="1.2"/>
      <line x1="0" y1="120" x2="0" y2="-150" stroke="#c5cee0" stroke-width="1.2"/>
      <text class="sm" x="156" y="18">x₁</text>
      <text class="sm" x="8" y="-138">x₂</text>

      <!-- unit ball (the measuring stick, static) -->
      <circle cx="0" cy="0" r="120" fill="#dfe6f5" fill-opacity="0.45" stroke="#8a99bd" stroke-width="2" stroke-dasharray="6 5"/>
      <text class="sm" x="86" y="-86" fill="#5b6b8c">단위구 r=1</text>

      <!-- mapped circle -->
      <g>
        <ellipse cx="0" cy="0" rx="138" ry="96" fill="#9aa9cf" fill-opacity="0.30" stroke="#3a4f86" stroke-width="2.6" transform="rotate(-32)">
          <animateTransform attributeName="transform" type="rotate" from="0" to="-32" dur="1.5s" fill="freeze"/>
        </ellipse>
      </g>

      <!-- violation highlight -->
      <g>
        <circle cx="-117" cy="73" r="6" fill="none" stroke="#b2622c" stroke-width="2.4"/>
        <line x1="-117" y1="73" x2="-150" y2="94" stroke="#b2622c" stroke-width="1.6"/>
        <text class="glyph" x="-205" y="112" fill="#b2622c">바깥으로 돌출</text>
      </g>
      <g>
        <circle cx="117" cy="-73" r="6" fill="none" stroke="#b2622c" stroke-width="2.4"/>
      </g>

      <!-- J arrow -->
      <text class="lbl" x="-150" y="-126" fill="#3a4f86">J를 1회 적용</text>
      <path d="M-100 -132 q 70 -22 132 6" fill="none" stroke="#5b6b8c" stroke-width="1.6" marker-end="url(#ah)"/>
    </g>

    <!-- verdict -->
    <g transform="translate(22,318)">
      <rect x="0" y="-22" width="396" height="32" rx="8" fill="#f0e7dd" stroke="#cdb59a" stroke-width="1.2"/>
      <text class="glyph" x="14" y="0" fill="#9c5a23">✗ 기각</text>
      <text class="lbl" x="88" y="0">사상 후의 구가 단위구를 벗어남 → 수축을 증명 불가</text>
    </g>
  </g>

  <!-- ===================== RIGHT PANEL : tilted ellipse (SDP) ===================== -->
  <g transform="translate(520,96)">
    <rect x="0" y="0" width="440" height="356" rx="12" fill="#ffffff" stroke="#d7deec" stroke-width="1.5"/>
    <text class="panel" x="22" y="34">기울어진 타원: SDP의 Lyapunov P</text>
    <text class="sm" x="22" y="56">비단위 P를 하나 찾는다 — JᵀPJ ≺ P 를 만족하면 증명</text>

    <g transform="translate(220,210)">
      <line x1="-170" y1="0" x2="170" y2="0" stroke="#c5cee0" stroke-width="1.2"/>
      <line x1="0" y1="120" x2="0" y2="-150" stroke="#c5cee0" stroke-width="1.2"/>
      <text class="sm" x="156" y="18">x₁</text>
      <text class="sm" x="8" y="-138">x₂</text>

      <!-- the Lyapunov level set -->
      <ellipse cx="0" cy="0" rx="150" ry="92" fill="#e0ecf2" fill-opacity="0.45" stroke="#3d8197" stroke-width="2.4" transform="rotate(34)"/>
      <text class="sm" x="58" y="-104" fill="#3d8197" transform="rotate(34)">타원 xᵀPx=1</text>

      <!-- mapped ellipse: strictly INSIDE -->
      <ellipse cx="0" cy="0" rx="150" ry="92" fill="#3d8197" fill-opacity="0.22" stroke="#27617a" stroke-width="2.6" transform="rotate(34) scale(0.74)">
        <animateTransform attributeName="transform" type="scale" additive="sum" from="1" to="0.74" dur="1.5s" fill="freeze"/>
      </ellipse>

      <!-- gap arrows -->
      <g stroke="#27617a" stroke-width="1.4" fill="none">
        <path d="M0 0 L150 0" transform="rotate(34)" stroke-dasharray="3 4" opacity="0.5"/>
      </g>
      <g transform="rotate(34)">
        <line x1="111" y1="0" x2="146" y2="0" stroke="#27617a" stroke-width="1.6" marker-end="url(#ah)"/>
      </g>
      <text class="lbl" x="86" y="84" fill="#27617a">엄격히 내부</text>

      <!-- J arrow -->
      <text class="lbl" x="-150" y="-126" fill="#27617a">J를 1회 적용</text>
      <path d="M-100 -132 q 70 -22 132 6" fill="none" stroke="#5b6b8c" stroke-width="1.6" marker-end="url(#ah)"/>
    </g>

    <!-- verdict -->
    <g transform="translate(22,318)">
      <rect x="0" y="-22" width="396" height="32" rx="8" fill="#dde9ee" stroke="#9bc2cf" stroke-width="1.2"/>
      <text class="glyph" x="14" y="0" fill="#27617a">✓ 증명</text>
      <text class="lbl" x="88" y="0">사상 후의 타원이 자기 자신에 들어감 → 수축 증명 (CLARABEL)</text>
    </g>
  </g>

  <!-- caption -->
  <text class="cap" x="500" y="500" text-anchor="middle">같은 사상을, 둥근 자(2노름)는 잘못 기각, 기울어진 타원(SDP)은 올바로 증명</text>
  <text class="sm" x="500" y="526" text-anchor="middle">2노름 누적 137 건; common Lyapunov 의 quadratic SDP 가 +149 = 286 건 (300 건 중 95.3%)</text>
  <text class="sm" x="500" y="546" text-anchor="middle">llcore / FullSense — CPU-only, on-prem, $0 — n=2 결합 기질, seed=2024</text>
</svg>
