<svg xmlns="http://www.w3.org/2000/svg" width="900" height="430" viewBox="0 0 900 430" font-family="system-ui, sans-serif" role="img" aria-label="docs/research/ 目录结构图">
  <defs>
    <style>
      .root  { fill: #1f2a44; }
      .roott { fill: #ffffff; font-weight: 700; font-size: 16px; }
      .file  { fill: #eef3fb; stroke: #4a6fa5; stroke-width: 1.5; }
      .fname { fill: #1f2a44; font-weight: 600; font-size: 14px; font-family: "SFMono-Regular", Consolas, "Liberation Mono", Menlo, monospace; }
      .fdesc { fill: #51607a; font-size: 13px; }
      .conn  { stroke: #9bb0d0; stroke-width: 1.5; fill: none; }
      .hub   { fill: #c8932a; font-size: 12px; font-weight: 600; }
    </style>
  </defs>

  <rect x="0" y="0" width="900" height="430" fill="#fbfcfe"/>

  <rect class="root" x="28" y="20" width="220" height="40" rx="8"/>
  <text class="roott" x="50" y="45">docs/research/</text>

  <path class="conn" d="M 60 60 L 60 392"/>

  <path class="conn" d="M 60 92 L 96 92"/>
  <rect class="file" x="96" y="74" width="780" height="36" rx="6"/>
  <text class="fname" x="112" y="97">index.md</text>
  <text class="fdesc" x="360" y="97">参照中枢 (Reference hub)</text>

  <path class="conn" d="M 60 138 L 96 138"/>
  <rect class="file" x="96" y="120" width="780" height="36" rx="6"/>
  <text class="fname" x="112" y="143">lleval_sota.md</text>
  <text class="fdesc" x="360" y="143">10 framework 比较 + 4 gap</text>

  <path class="conn" d="M 60 184 L 96 184"/>
  <rect class="file" x="96" y="166" width="780" height="36" rx="6"/>
  <text class="fname" x="112" y="189">llgrow_prior_art.md</text>
  <text class="fdesc" x="360" y="189">Growth Automation 先行例</text>

  <path class="conn" d="M 60 230 L 96 230"/>
  <rect class="file" x="96" y="212" width="780" height="36" rx="6"/>
  <text class="fname" x="112" y="235">cognitive_mesh_vs_sota.md</text>
  <text class="fdesc" x="360" y="235">COG-MESH 的相关研究</text>

  <path class="conn" d="M 60 276 L 96 276"/>
  <rect class="file" x="96" y="258" width="780" height="36" rx="6"/>
  <text class="fname" x="112" y="281">llcraft_sota.md</text>
  <text class="fdesc" x="360" y="281">llcraft 候选的 SOTA</text>

  <path class="conn" d="M 60 322 L 96 322"/>
  <rect class="file" x="96" y="304" width="780" height="36" rx="6"/>
  <text class="fname" x="112" y="327">llrisk_prior_art.md</text>
  <text class="fdesc" x="360" y="327">llrisk (Tonic Risk) 先行例</text>

  <path class="conn" d="M 60 368 L 96 368"/>
  <rect class="file" x="96" y="350" width="780" height="36" rx="6"/>
  <text class="fname" x="112" y="373">llgov_sota.md</text>
  <text class="fdesc" x="360" y="373">llgov (governance) SOTA</text>

  <text class="hub" x="28" y="416">自主 agent 可在 1 秒内查询 SOTA / prior-art 的研究中枢</text>
</svg>
