<svg xmlns="http://www.w3.org/2000/svg" width="940" height="540" viewBox="0 0 940 540" font-family="ui-sans-serif,Segoe UI,sans-serif">
<rect width="940" height="540" fill="#0b1020"/>
<text x="70" y="32" fill="#e5e7eb" font-size="20" font-weight="700">llive persona evolution — founder-lineage dominance</text>
<text x="70" y="52" fill="#c2410c" font-size="13" font-weight="600">PROXY fitness — NOT real LLM eval  ·  full-population bloodline share  ·  gens=151  pop=24  seed=0</text>
<text x="70" y="74" fill="#9ca3af" font-size="12">share of population by root-founder bloodline  ·  rolling window=9</text>
<line x1="70" y1="484.0" x2="770" y2="484.0" stroke="#1f2937" stroke-width="1"/>
<text x="62" y="488.0" fill="#6b7280" font-size="10" text-anchor="end">0%</text>
<line x1="70" y1="384.0" x2="770" y2="384.0" stroke="#1f2937" stroke-width="1"/>
<text x="62" y="388.0" fill="#6b7280" font-size="10" text-anchor="end">25%</text>
<line x1="70" y1="284.0" x2="770" y2="284.0" stroke="#1f2937" stroke-width="1"/>
<text x="62" y="288.0" fill="#6b7280" font-size="10" text-anchor="end">50%</text>
<line x1="70" y1="184.0" x2="770" y2="184.0" stroke="#1f2937" stroke-width="1"/>
<text x="62" y="188.0" fill="#6b7280" font-size="10" text-anchor="end">75%</text>
<line x1="70" y1="84.0" x2="770" y2="84.0" stroke="#1f2937" stroke-width="1"/>
<text x="62" y="88.0" fill="#6b7280" font-size="10" text-anchor="end">100%</text>
<clipPath id="revealdom"><rect x="70" y="0" width="700" height="540"><animate attributeName="width" from="0" to="700" dur="3.4s" fill="freeze"/></rect></clipPath>
<g clip-path="url(#revealdom)">
<polygon points="70.0,414.0 74.7,420.1 79.3,422.1 84.0,425.7 88.7,426.6 93.3,421.0 98.0,426.6 102.7,432.1 107.3,441.4 112.0,439.6 116.7,432.1 121.3,430.3 126.0,432.1 130.7,434.0 135.3,435.9 140.0,435.9 144.7,430.3 149.3,428.4 154.0,435.9 158.7,445.1 163.3,450.7 168.0,450.7 172.7,445.1 177.3,447.0 182.0,441.4 186.7,445.1 191.3,445.1 196.0,443.3 200.7,443.3 205.3,439.6 210.0,439.6 214.7,437.7 219.3,426.6 224.0,422.9 228.7,419.2 233.3,417.3 238.0,419.2 242.7,419.2 247.3,421.0 252.0,419.2 256.7,426.6 261.3,439.6 266.0,445.1 270.7,448.8 275.3,456.2 280.0,452.5 284.7,452.5 289.3,454.4 294.0,450.7 298.7,447.0 303.3,443.3 308.0,445.1 312.7,445.1 317.3,445.1 322.0,443.3 326.7,435.9 331.3,424.7 336.0,430.3 340.7,435.9 345.3,432.1 350.0,434.0 354.7,435.9 359.3,428.4 364.0,428.4 368.7,434.0 373.3,443.3 378.0,439.6 382.7,439.6 387.3,447.0 392.0,443.3 396.7,443.3 401.3,448.8 406.0,448.8 410.7,450.7 415.3,452.5 420.0,450.7 424.7,450.7 429.3,441.4 434.0,441.4 438.7,441.4 443.3,443.3 448.0,448.8 452.7,445.1 457.3,434.0 462.0,432.1 466.7,421.0 471.3,417.3 476.0,404.4 480.7,395.1 485.3,384.0 490.0,382.1 494.7,385.9 499.3,393.3 504.0,395.1 508.7,402.5 513.3,411.8 518.0,419.2 522.7,426.6 527.3,432.1 532.0,426.6 536.7,426.6 541.3,426.6 546.0,419.2 550.7,415.5 555.3,413.6 560.0,422.9 564.7,422.9 569.3,426.6 574.0,428.4 578.7,424.7 583.3,422.9 588.0,434.0 592.7,439.6 597.3,445.1 602.0,443.3 606.7,437.7 611.3,439.6 616.0,445.1 620.7,448.8 625.3,454.4 630.0,452.5 634.7,450.7 639.3,448.8 644.0,450.7 648.7,458.1 653.3,454.4 658.0,454.4 662.7,454.4 667.3,454.4 672.0,454.4 676.7,447.0 681.3,437.7 686.0,435.9 690.7,435.9 695.3,439.6 700.0,437.7 704.7,437.7 709.3,430.3 714.0,428.4 718.7,432.1 723.3,437.7 728.0,437.7 732.7,432.1 737.3,432.1 742.0,434.0 746.7,426.6 751.3,430.3 756.0,431.9 760.7,436.4 765.3,439.6 770.0,437.3 770.0,484.0 765.3,484.0 760.7,484.0 756.0,484.0 751.3,484.0 746.7,484.0 742.0,484.0 737.3,484.0 732.7,484.0 728.0,484.0 723.3,484.0 718.7,484.0 714.0,484.0 709.3,484.0 704.7,484.0 700.0,484.0 695.3,484.0 690.7,484.0 686.0,484.0 681.3,484.0 676.7,484.0 672.0,484.0 667.3,484.0 662.7,484.0 658.0,484.0 653.3,484.0 648.7,484.0 644.0,484.0 639.3,484.0 634.7,484.0 630.0,484.0 625.3,484.0 620.7,484.0 616.0,484.0 611.3,484.0 606.7,484.0 602.0,484.0 597.3,484.0 592.7,484.0 588.0,484.0 583.3,484.0 578.7,484.0 574.0,484.0 569.3,484.0 564.7,484.0 560.0,484.0 555.3,484.0 550.7,484.0 546.0,484.0 541.3,484.0 536.7,484.0 532.0,484.0 527.3,484.0 522.7,484.0 518.0,484.0 513.3,484.0 508.7,484.0 504.0,484.0 499.3,484.0 494.7,484.0 490.0,484.0 485.3,484.0 480.7,484.0 476.0,484.0 471.3,484.0 466.7,484.0 462.0,484.0 457.3,484.0 452.7,484.0 448.0,484.0 443.3,484.0 438.7,484.0 434.0,484.0 429.3,484.0 424.7,484.0 420.0,484.0 415.3,484.0 410.7,484.0 406.0,484.0 401.3,484.0 396.7,484.0 392.0,484.0 387.3,484.0 382.7,484.0 378.0,484.0 373.3,484.0 368.7,484.0 364.0,484.0 359.3,484.0 354.7,484.0 350.0,484.0 345.3,484.0 340.7,484.0 336.0,484.0 331.3,484.0 326.7,484.0 322.0,484.0 317.3,484.0 312.7,484.0 308.0,484.0 303.3,484.0 298.7,484.0 294.0,484.0 289.3,484.0 284.7,484.0 280.0,484.0 275.3,484.0 270.7,484.0 266.0,484.0 261.3,484.0 256.7,484.0 252.0,484.0 247.3,484.0 242.7,484.0 238.0,484.0 233.3,484.0 228.7,484.0 224.0,484.0 219.3,484.0 214.7,484.0 210.0,484.0 205.3,484.0 200.7,484.0 196.0,484.0 191.3,484.0 186.7,484.0 182.0,484.0 177.3,484.0 172.7,484.0 168.0,484.0 163.3,484.0 158.7,484.0 154.0,484.0 149.3,484.0 144.7,484.0 140.0,484.0 135.3,484.0 130.7,484.0 126.0,484.0 121.3,484.0 116.7,484.0 112.0,484.0 107.3,484.0 102.7,484.0 98.0,484.0 93.3,484.0 88.7,484.0 84.0,484.0 79.3,484.0 74.7,484.0 70.0,484.0" fill="#60a5fa" fill-opacity="0.85"/>
<polygon points="70.0,357.3 74.7,364.6 79.3,365.0 84.0,369.4 88.7,363.6 93.3,354.4 98.0,354.4 102.7,361.8 107.3,378.4 112.0,382.1 116.7,371.0 121.3,369.2 126.0,369.2 130.7,378.4 135.3,382.1 140.0,387.7 144.7,380.3 149.3,378.4 154.0,382.1 158.7,389.6 163.3,397.0 168.0,402.5 172.7,400.7 177.3,404.4 182.0,397.0 186.7,400.7 191.3,400.7 196.0,406.2 200.7,409.9 205.3,406.2 210.0,402.5 214.7,395.1 219.3,382.1 224.0,378.4 228.7,371.0 233.3,361.8 238.0,350.7 242.7,347.0 247.3,347.0 252.0,345.1 256.7,352.5 261.3,361.8 266.0,369.2 270.7,378.4 275.3,389.6 280.0,400.7 284.7,408.1 289.3,415.5 294.0,413.6 298.7,415.5 303.3,417.3 308.0,419.2 312.7,419.2 317.3,421.0 322.0,419.2 326.7,411.8 331.3,398.8 336.0,402.5 340.7,398.8 345.3,389.6 350.0,389.6 354.7,391.4 359.3,385.9 364.0,385.9 368.7,393.3 373.3,402.5 378.0,402.5 382.7,404.4 387.3,406.2 392.0,406.2 396.7,406.2 401.3,408.1 406.0,402.5 410.7,402.5 415.3,402.5 420.0,398.8 424.7,402.5 429.3,404.4 434.0,398.8 438.7,397.0 443.3,400.7 448.0,406.2 452.7,398.8 457.3,389.6 462.0,385.9 466.7,372.9 471.3,363.6 476.0,354.4 480.7,345.1 485.3,334.0 490.0,337.7 494.7,345.1 499.3,354.4 504.0,354.4 508.7,358.1 513.3,367.3 518.0,376.6 522.7,385.9 527.3,393.3 532.0,387.7 536.7,389.6 541.3,384.0 546.0,382.1 550.7,387.7 555.3,389.6 560.0,398.8 564.7,393.3 569.3,395.1 574.0,397.0 578.7,393.3 583.3,397.0 588.0,408.1 592.7,413.6 597.3,415.5 602.0,411.8 606.7,402.5 611.3,406.2 616.0,408.1 620.7,408.1 625.3,408.1 630.0,404.4 634.7,402.5 639.3,404.4 644.0,402.5 648.7,419.2 653.3,411.8 658.0,415.5 662.7,419.2 667.3,419.2 672.0,421.0 676.7,411.8 681.3,393.3 686.0,393.3 690.7,378.4 695.3,380.3 700.0,378.4 704.7,378.4 709.3,372.9 714.0,361.8 718.7,358.1 723.3,371.0 728.0,374.7 732.7,378.4 737.3,382.1 742.0,374.7 746.7,361.8 751.3,369.2 756.0,375.7 760.7,386.4 765.3,389.6 770.0,380.7 770.0,437.3 765.3,439.6 760.7,436.4 756.0,431.9 751.3,430.3 746.7,426.6 742.0,434.0 737.3,432.1 732.7,432.1 728.0,437.7 723.3,437.7 718.7,432.1 714.0,428.4 709.3,430.3 704.7,437.7 700.0,437.7 695.3,439.6 690.7,435.9 686.0,435.9 681.3,437.7 676.7,447.0 672.0,454.4 667.3,454.4 662.7,454.4 658.0,454.4 653.3,454.4 648.7,458.1 644.0,450.7 639.3,448.8 634.7,450.7 630.0,452.5 625.3,454.4 620.7,448.8 616.0,445.1 611.3,439.6 606.7,437.7 602.0,443.3 597.3,445.1 592.7,439.6 588.0,434.0 583.3,422.9 578.7,424.7 574.0,428.4 569.3,426.6 564.7,422.9 560.0,422.9 555.3,413.6 550.7,415.5 546.0,419.2 541.3,426.6 536.7,426.6 532.0,426.6 527.3,432.1 522.7,426.6 518.0,419.2 513.3,411.8 508.7,402.5 504.0,395.1 499.3,393.3 494.7,385.9 490.0,382.1 485.3,384.0 480.7,395.1 476.0,404.4 471.3,417.3 466.7,421.0 462.0,432.1 457.3,434.0 452.7,445.1 448.0,448.8 443.3,443.3 438.7,441.4 434.0,441.4 429.3,441.4 424.7,450.7 420.0,450.7 415.3,452.5 410.7,450.7 406.0,448.8 401.3,448.8 396.7,443.3 392.0,443.3 387.3,447.0 382.7,439.6 378.0,439.6 373.3,443.3 368.7,434.0 364.0,428.4 359.3,428.4 354.7,435.9 350.0,434.0 345.3,432.1 340.7,435.9 336.0,430.3 331.3,424.7 326.7,435.9 322.0,443.3 317.3,445.1 312.7,445.1 308.0,445.1 303.3,443.3 298.7,447.0 294.0,450.7 289.3,454.4 284.7,452.5 280.0,452.5 275.3,456.2 270.7,448.8 266.0,445.1 261.3,439.6 256.7,426.6 252.0,419.2 247.3,421.0 242.7,419.2 238.0,419.2 233.3,417.3 228.7,419.2 224.0,422.9 219.3,426.6 214.7,437.7 210.0,439.6 205.3,439.6 200.7,443.3 196.0,443.3 191.3,445.1 186.7,445.1 182.0,441.4 177.3,447.0 172.7,445.1 168.0,450.7 163.3,450.7 158.7,445.1 154.0,435.9 149.3,428.4 144.7,430.3 140.0,435.9 135.3,435.9 130.7,434.0 126.0,432.1 121.3,430.3 116.7,432.1 112.0,439.6 107.3,441.4 102.7,432.1 98.0,426.6 93.3,421.0 88.7,426.6 84.0,425.7 79.3,422.1 74.7,420.1 70.0,414.0" fill="#f472b6" fill-opacity="0.85"/>
<polygon points="70.0,324.0 74.7,328.4 79.3,331.6 84.0,331.9 88.7,328.4 93.3,315.5 98.0,317.3 102.7,311.8 107.3,317.3 112.0,313.6 116.7,300.7 121.3,297.0 126.0,291.4 130.7,291.4 135.3,289.6 140.0,287.7 144.7,293.3 149.3,300.7 154.0,300.7 158.7,304.4 163.3,300.7 168.0,300.7 172.7,304.4 177.3,313.6 182.0,319.2 186.7,317.3 191.3,308.1 196.0,311.8 200.7,315.5 205.3,319.2 210.0,322.9 214.7,317.3 219.3,304.4 224.0,297.0 228.7,291.4 233.3,293.3 238.0,293.3 242.7,291.4 247.3,295.1 252.0,293.3 256.7,287.7 261.3,293.3 266.0,289.6 270.7,298.8 275.3,309.9 280.0,324.7 284.7,337.7 289.3,345.1 294.0,352.5 298.7,367.3 303.3,374.7 308.0,384.0 312.7,384.0 317.3,378.4 322.0,376.6 326.7,367.3 331.3,356.2 336.0,354.4 340.7,350.7 345.3,343.3 350.0,348.8 354.7,350.7 359.3,348.8 364.0,348.8 368.7,356.2 373.3,352.5 378.0,350.7 382.7,345.1 387.3,339.6 392.0,332.1 396.7,324.7 401.3,328.4 406.0,319.2 410.7,317.3 415.3,319.2 420.0,321.0 424.7,334.0 429.3,343.3 434.0,341.4 438.7,345.1 443.3,350.7 448.0,358.1 452.7,350.7 457.3,348.8 462.0,343.3 466.7,330.3 471.3,317.3 476.0,313.6 480.7,309.9 485.3,298.8 490.0,300.7 494.7,306.2 499.3,317.3 504.0,321.0 508.7,321.0 513.3,335.9 518.0,345.1 522.7,350.7 527.3,356.2 532.0,354.4 536.7,356.2 541.3,348.8 546.0,347.0 550.7,354.4 555.3,350.7 560.0,359.9 564.7,352.5 569.3,354.4 574.0,356.2 578.7,358.1 583.3,361.8 588.0,369.2 592.7,374.7 597.3,380.3 602.0,376.6 606.7,372.9 611.3,372.9 616.0,374.7 620.7,376.6 625.3,380.3 630.0,378.4 634.7,378.4 639.3,376.6 644.0,372.9 648.7,385.9 653.3,384.0 658.0,384.0 662.7,385.9 667.3,382.1 672.0,384.0 676.7,372.9 681.3,356.2 686.0,350.7 690.7,337.7 695.3,334.0 700.0,335.9 704.7,335.9 709.3,322.9 714.0,313.6 718.7,311.8 723.3,324.7 728.0,334.0 732.7,339.6 737.3,334.0 742.0,321.0 746.7,309.9 751.3,315.5 756.0,317.3 760.7,322.1 765.3,320.1 770.0,304.0 770.0,380.7 765.3,389.6 760.7,386.4 756.0,375.7 751.3,369.2 746.7,361.8 742.0,374.7 737.3,382.1 732.7,378.4 728.0,374.7 723.3,371.0 718.7,358.1 714.0,361.8 709.3,372.9 704.7,378.4 700.0,378.4 695.3,380.3 690.7,378.4 686.0,393.3 681.3,393.3 676.7,411.8 672.0,421.0 667.3,419.2 662.7,419.2 658.0,415.5 653.3,411.8 648.7,419.2 644.0,402.5 639.3,404.4 634.7,402.5 630.0,404.4 625.3,408.1 620.7,408.1 616.0,408.1 611.3,406.2 606.7,402.5 602.0,411.8 597.3,415.5 592.7,413.6 588.0,408.1 583.3,397.0 578.7,393.3 574.0,397.0 569.3,395.1 564.7,393.3 560.0,398.8 555.3,389.6 550.7,387.7 546.0,382.1 541.3,384.0 536.7,389.6 532.0,387.7 527.3,393.3 522.7,385.9 518.0,376.6 513.3,367.3 508.7,358.1 504.0,354.4 499.3,354.4 494.7,345.1 490.0,337.7 485.3,334.0 480.7,345.1 476.0,354.4 471.3,363.6 466.7,372.9 462.0,385.9 457.3,389.6 452.7,398.8 448.0,406.2 443.3,400.7 438.7,397.0 434.0,398.8 429.3,404.4 424.7,402.5 420.0,398.8 415.3,402.5 410.7,402.5 406.0,402.5 401.3,408.1 396.7,406.2 392.0,406.2 387.3,406.2 382.7,404.4 378.0,402.5 373.3,402.5 368.7,393.3 364.0,385.9 359.3,385.9 354.7,391.4 350.0,389.6 345.3,389.6 340.7,398.8 336.0,402.5 331.3,398.8 326.7,411.8 322.0,419.2 317.3,421.0 312.7,419.2 308.0,419.2 303.3,417.3 298.7,415.5 294.0,413.6 289.3,415.5 284.7,408.1 280.0,400.7 275.3,389.6 270.7,378.4 266.0,369.2 261.3,361.8 256.7,352.5 252.0,345.1 247.3,347.0 242.7,347.0 238.0,350.7 233.3,361.8 228.7,371.0 224.0,378.4 219.3,382.1 214.7,395.1 210.0,402.5 205.3,406.2 200.7,409.9 196.0,406.2 191.3,400.7 186.7,400.7 182.0,397.0 177.3,404.4 172.7,400.7 168.0,402.5 163.3,397.0 158.7,389.6 154.0,382.1 149.3,378.4 144.7,380.3 140.0,387.7 135.3,382.1 130.7,378.4 126.0,369.2 121.3,369.2 116.7,371.0 112.0,382.1 107.3,378.4 102.7,361.8 98.0,354.4 93.3,354.4 88.7,363.6 84.0,369.4 79.3,365.0 74.7,364.6 70.0,357.3" fill="#34d399" fill-opacity="0.85"/>
<polygon points="70.0,297.3 74.7,297.9 79.3,293.5 84.0,290.2 88.7,291.4 93.3,278.4 98.0,278.4 102.7,272.9 107.3,274.7 112.0,271.0 116.7,261.8 121.3,261.8 126.0,258.1 130.7,245.1 135.3,237.7 140.0,239.6 144.7,248.8 149.3,259.9 154.0,256.2 158.7,259.9 163.3,254.4 168.0,250.7 172.7,250.7 177.3,254.4 182.0,259.9 186.7,254.4 191.3,243.3 196.0,243.3 200.7,243.3 205.3,252.5 210.0,263.6 214.7,271.0 219.3,267.3 224.0,259.9 228.7,256.2 233.3,259.9 238.0,267.3 242.7,267.3 247.3,265.5 252.0,261.8 256.7,258.1 261.3,261.8 266.0,258.1 270.7,267.3 275.3,272.9 280.0,287.7 284.7,302.5 289.3,313.6 294.0,322.9 298.7,335.9 303.3,348.8 308.0,358.1 312.7,359.9 317.3,359.9 322.0,356.2 326.7,347.0 331.3,337.7 336.0,335.9 340.7,326.6 345.3,311.8 350.0,300.7 354.7,289.6 359.3,274.7 364.0,274.7 368.7,278.4 373.3,274.7 378.0,271.0 382.7,269.2 387.3,269.2 392.0,269.2 396.7,265.5 401.3,276.6 406.0,263.6 410.7,254.4 415.3,250.7 420.0,243.3 424.7,248.8 429.3,256.2 434.0,263.6 438.7,274.7 443.3,282.1 448.0,295.1 452.7,298.8 457.3,302.5 462.0,308.1 466.7,306.2 471.3,291.4 476.0,282.1 480.7,280.3 485.3,269.2 490.0,269.2 494.7,269.2 499.3,278.4 504.0,278.4 508.7,276.6 513.3,295.1 518.0,304.4 522.7,300.7 527.3,297.0 532.0,293.3 536.7,298.8 541.3,293.3 546.0,287.7 550.7,291.4 555.3,274.7 560.0,272.9 564.7,271.0 569.3,280.3 574.0,285.9 578.7,287.7 583.3,287.7 588.0,302.5 592.7,308.1 597.3,319.2 602.0,328.4 606.7,326.6 611.3,332.1 616.0,326.6 620.7,330.3 625.3,337.7 630.0,334.0 634.7,334.0 639.3,339.6 644.0,339.6 648.7,352.5 653.3,350.7 658.0,358.1 662.7,350.7 667.3,343.3 672.0,339.6 676.7,334.0 681.3,317.3 686.0,311.8 690.7,300.7 695.3,297.0 700.0,295.1 704.7,297.0 709.3,285.9 714.0,284.0 718.7,282.1 723.3,295.1 728.0,302.5 732.7,308.1 737.3,300.7 742.0,291.4 746.7,285.9 751.3,291.4 756.0,292.3 760.7,295.9 765.3,292.3 770.0,277.3 770.0,304.0 765.3,320.1 760.7,322.1 756.0,317.3 751.3,315.5 746.7,309.9 742.0,321.0 737.3,334.0 732.7,339.6 728.0,334.0 723.3,324.7 718.7,311.8 714.0,313.6 709.3,322.9 704.7,335.9 700.0,335.9 695.3,334.0 690.7,337.7 686.0,350.7 681.3,356.2 676.7,372.9 672.0,384.0 667.3,382.1 662.7,385.9 658.0,384.0 653.3,384.0 648.7,385.9 644.0,372.9 639.3,376.6 634.7,378.4 630.0,378.4 625.3,380.3 620.7,376.6 616.0,374.7 611.3,372.9 606.7,372.9 602.0,376.6 597.3,380.3 592.7,374.7 588.0,369.2 583.3,361.8 578.7,358.1 574.0,356.2 569.3,354.4 564.7,352.5 560.0,359.9 555.3,350.7 550.7,354.4 546.0,347.0 541.3,348.8 536.7,356.2 532.0,354.4 527.3,356.2 522.7,350.7 518.0,345.1 513.3,335.9 508.7,321.0 504.0,321.0 499.3,317.3 494.7,306.2 490.0,300.7 485.3,298.8 480.7,309.9 476.0,313.6 471.3,317.3 466.7,330.3 462.0,343.3 457.3,348.8 452.7,350.7 448.0,358.1 443.3,350.7 438.7,345.1 434.0,341.4 429.3,343.3 424.7,334.0 420.0,321.0 415.3,319.2 410.7,317.3 406.0,319.2 401.3,328.4 396.7,324.7 392.0,332.1 387.3,339.6 382.7,345.1 378.0,350.7 373.3,352.5 368.7,356.2 364.0,348.8 359.3,348.8 354.7,350.7 350.0,348.8 345.3,343.3 340.7,350.7 336.0,354.4 331.3,356.2 326.7,367.3 322.0,376.6 317.3,378.4 312.7,384.0 308.0,384.0 303.3,374.7 298.7,367.3 294.0,352.5 289.3,345.1 284.7,337.7 280.0,324.7 275.3,309.9 270.7,298.8 266.0,289.6 261.3,293.3 256.7,287.7 252.0,293.3 247.3,295.1 242.7,291.4 238.0,293.3 233.3,293.3 228.7,291.4 224.0,297.0 219.3,304.4 214.7,317.3 210.0,322.9 205.3,319.2 200.7,315.5 196.0,311.8 191.3,308.1 186.7,317.3 182.0,319.2 177.3,313.6 172.7,304.4 168.0,300.7 163.3,300.7 158.7,304.4 154.0,300.7 149.3,300.7 144.7,293.3 140.0,287.7 135.3,289.6 130.7,291.4 126.0,291.4 121.3,297.0 116.7,300.7 112.0,313.6 107.3,317.3 102.7,311.8 98.0,317.3 93.3,315.5 88.7,328.4 84.0,331.9 79.3,331.6 74.7,328.4 70.0,324.0" fill="#fbbf24" fill-opacity="0.85"/>
<polygon points="70.0,264.0 74.7,267.3 79.3,265.0 84.0,259.0 88.7,256.2 93.3,235.9 98.0,234.0 102.7,221.0 107.3,217.3 112.0,213.6 116.7,202.5 121.3,202.5 126.0,202.5 130.7,195.1 135.3,193.3 140.0,198.8 144.7,208.1 149.3,221.0 154.0,217.3 158.7,219.2 163.3,211.8 168.0,209.9 172.7,209.9 177.3,211.8 182.0,219.2 186.7,221.0 191.3,209.9 196.0,208.1 200.7,204.4 205.3,202.5 210.0,208.1 214.7,211.8 219.3,206.2 224.0,193.3 228.7,182.1 233.3,178.4 238.0,180.3 242.7,187.7 247.3,197.0 252.0,193.3 256.7,189.6 261.3,191.4 266.0,198.8 270.7,208.1 275.3,219.2 280.0,230.3 284.7,237.7 289.3,248.8 294.0,259.9 298.7,269.2 303.3,289.6 308.0,297.0 312.7,302.5 317.3,298.8 322.0,302.5 326.7,300.7 331.3,287.7 336.0,276.6 340.7,274.7 345.3,256.2 350.0,243.3 354.7,230.3 359.3,221.0 364.0,206.2 368.7,195.1 373.3,187.7 378.0,191.4 382.7,180.3 387.3,180.3 392.0,182.1 396.7,182.1 401.3,197.0 406.0,202.5 410.7,204.4 415.3,209.9 420.0,204.4 424.7,217.3 429.3,219.2 434.0,219.2 438.7,222.9 443.3,217.3 448.0,211.8 452.7,208.1 457.3,211.8 462.0,211.8 466.7,211.8 471.3,206.2 476.0,202.5 480.7,200.7 485.3,198.8 490.0,208.1 494.7,215.5 499.3,221.0 504.0,224.7 508.7,222.9 513.3,239.6 518.0,250.7 522.7,250.7 527.3,248.8 532.0,254.4 536.7,263.6 541.3,259.9 546.0,258.1 550.7,259.9 555.3,245.1 560.0,245.1 564.7,247.0 569.3,258.1 574.0,259.9 578.7,261.8 583.3,263.6 588.0,278.4 592.7,285.9 597.3,297.0 602.0,302.5 606.7,302.5 611.3,308.1 616.0,302.5 620.7,306.2 625.3,308.1 630.0,298.8 634.7,293.3 639.3,289.6 644.0,289.6 648.7,295.1 653.3,287.7 658.0,289.6 662.7,271.0 667.3,263.6 672.0,261.8 676.7,259.9 681.3,247.0 686.0,237.7 690.7,232.1 695.3,228.4 700.0,228.4 704.7,235.9 709.3,228.4 714.0,230.3 718.7,228.4 723.3,243.3 728.0,256.2 732.7,261.8 737.3,258.1 742.0,250.7 746.7,248.8 751.3,252.5 756.0,250.7 760.7,253.0 765.3,250.7 770.0,234.0 770.0,277.3 765.3,292.3 760.7,295.9 756.0,292.3 751.3,291.4 746.7,285.9 742.0,291.4 737.3,300.7 732.7,308.1 728.0,302.5 723.3,295.1 718.7,282.1 714.0,284.0 709.3,285.9 704.7,297.0 700.0,295.1 695.3,297.0 690.7,300.7 686.0,311.8 681.3,317.3 676.7,334.0 672.0,339.6 667.3,343.3 662.7,350.7 658.0,358.1 653.3,350.7 648.7,352.5 644.0,339.6 639.3,339.6 634.7,334.0 630.0,334.0 625.3,337.7 620.7,330.3 616.0,326.6 611.3,332.1 606.7,326.6 602.0,328.4 597.3,319.2 592.7,308.1 588.0,302.5 583.3,287.7 578.7,287.7 574.0,285.9 569.3,280.3 564.7,271.0 560.0,272.9 555.3,274.7 550.7,291.4 546.0,287.7 541.3,293.3 536.7,298.8 532.0,293.3 527.3,297.0 522.7,300.7 518.0,304.4 513.3,295.1 508.7,276.6 504.0,278.4 499.3,278.4 494.7,269.2 490.0,269.2 485.3,269.2 480.7,280.3 476.0,282.1 471.3,291.4 466.7,306.2 462.0,308.1 457.3,302.5 452.7,298.8 448.0,295.1 443.3,282.1 438.7,274.7 434.0,263.6 429.3,256.2 424.7,248.8 420.0,243.3 415.3,250.7 410.7,254.4 406.0,263.6 401.3,276.6 396.7,265.5 392.0,269.2 387.3,269.2 382.7,269.2 378.0,271.0 373.3,274.7 368.7,278.4 364.0,274.7 359.3,274.7 354.7,289.6 350.0,300.7 345.3,311.8 340.7,326.6 336.0,335.9 331.3,337.7 326.7,347.0 322.0,356.2 317.3,359.9 312.7,359.9 308.0,358.1 303.3,348.8 298.7,335.9 294.0,322.9 289.3,313.6 284.7,302.5 280.0,287.7 275.3,272.9 270.7,267.3 266.0,258.1 261.3,261.8 256.7,258.1 252.0,261.8 247.3,265.5 242.7,267.3 238.0,267.3 233.3,259.9 228.7,256.2 224.0,259.9 219.3,267.3 214.7,271.0 210.0,263.6 205.3,252.5 200.7,243.3 196.0,243.3 191.3,243.3 186.7,254.4 182.0,259.9 177.3,254.4 172.7,250.7 168.0,250.7 163.3,254.4 158.7,259.9 154.0,256.2 149.3,259.9 144.7,248.8 140.0,239.6 135.3,237.7 130.7,245.1 126.0,258.1 121.3,261.8 116.7,261.8 112.0,271.0 107.3,274.7 102.7,272.9 98.0,278.4 93.3,278.4 88.7,291.4 84.0,290.2 79.3,293.5 74.7,297.9 70.0,297.3" fill="#a78bfa" fill-opacity="0.85"/>
<polygon points="70.0,224.0 74.7,214.6 79.3,207.8 84.0,196.5 88.7,187.7 93.3,163.6 98.0,161.8 102.7,154.4 107.3,147.0 112.0,143.3 116.7,143.3 121.3,148.8 126.0,158.1 130.7,158.1 135.3,154.4 140.0,159.9 144.7,167.3 149.3,185.9 154.0,185.9 158.7,187.7 163.3,182.1 168.0,180.3 172.7,182.1 177.3,184.0 182.0,191.4 186.7,197.0 191.3,182.1 196.0,180.3 200.7,176.6 205.3,172.9 210.0,172.9 214.7,178.4 219.3,174.7 224.0,159.9 228.7,148.8 233.3,145.1 238.0,147.0 242.7,154.4 247.3,159.9 252.0,156.2 256.7,150.7 261.3,154.4 266.0,163.6 270.7,172.9 275.3,187.7 280.0,197.0 284.7,198.8 289.3,211.8 294.0,228.4 298.7,235.9 303.3,248.8 308.0,248.8 312.7,254.4 317.3,245.1 322.0,247.0 326.7,241.4 331.3,221.0 336.0,209.9 340.7,211.8 345.3,200.7 350.0,195.1 354.7,182.1 359.3,176.6 364.0,163.6 368.7,161.8 373.3,163.6 378.0,158.1 382.7,147.0 387.3,143.3 392.0,145.1 396.7,137.7 401.3,139.6 406.0,141.4 410.7,139.6 415.3,147.0 420.0,150.7 424.7,161.8 429.3,169.2 434.0,167.3 438.7,171.0 443.3,180.3 448.0,180.3 452.7,180.3 457.3,182.1 462.0,178.4 466.7,174.7 471.3,163.6 476.0,159.9 480.7,159.9 485.3,156.2 490.0,161.8 494.7,165.5 499.3,169.2 504.0,171.0 508.7,171.0 513.3,184.0 518.0,187.7 522.7,189.6 527.3,184.0 532.0,178.4 536.7,178.4 541.3,171.0 546.0,165.5 550.7,169.2 555.3,163.6 560.0,159.9 564.7,158.1 569.3,171.0 574.0,187.7 578.7,195.1 583.3,206.2 588.0,230.3 592.7,237.7 597.3,248.8 602.0,267.3 606.7,274.7 611.3,280.3 616.0,271.0 620.7,276.6 625.3,274.7 630.0,265.5 634.7,258.1 639.3,254.4 644.0,248.8 648.7,245.1 653.3,235.9 658.0,234.0 662.7,219.2 667.3,208.1 672.0,206.2 676.7,208.1 681.3,195.1 686.0,189.6 690.7,193.3 695.3,195.1 700.0,198.8 704.7,204.4 709.3,202.5 714.0,200.7 718.7,198.8 723.3,213.6 728.0,224.7 732.7,226.6 737.3,222.9 742.0,219.2 746.7,221.0 751.3,224.7 756.0,225.7 760.7,226.9 765.3,222.9 770.0,210.7 770.0,234.0 765.3,250.7 760.7,253.0 756.0,250.7 751.3,252.5 746.7,248.8 742.0,250.7 737.3,258.1 732.7,261.8 728.0,256.2 723.3,243.3 718.7,228.4 714.0,230.3 709.3,228.4 704.7,235.9 700.0,228.4 695.3,228.4 690.7,232.1 686.0,237.7 681.3,247.0 676.7,259.9 672.0,261.8 667.3,263.6 662.7,271.0 658.0,289.6 653.3,287.7 648.7,295.1 644.0,289.6 639.3,289.6 634.7,293.3 630.0,298.8 625.3,308.1 620.7,306.2 616.0,302.5 611.3,308.1 606.7,302.5 602.0,302.5 597.3,297.0 592.7,285.9 588.0,278.4 583.3,263.6 578.7,261.8 574.0,259.9 569.3,258.1 564.7,247.0 560.0,245.1 555.3,245.1 550.7,259.9 546.0,258.1 541.3,259.9 536.7,263.6 532.0,254.4 527.3,248.8 522.7,250.7 518.0,250.7 513.3,239.6 508.7,222.9 504.0,224.7 499.3,221.0 494.7,215.5 490.0,208.1 485.3,198.8 480.7,200.7 476.0,202.5 471.3,206.2 466.7,211.8 462.0,211.8 457.3,211.8 452.7,208.1 448.0,211.8 443.3,217.3 438.7,222.9 434.0,219.2 429.3,219.2 424.7,217.3 420.0,204.4 415.3,209.9 410.7,204.4 406.0,202.5 401.3,197.0 396.7,182.1 392.0,182.1 387.3,180.3 382.7,180.3 378.0,191.4 373.3,187.7 368.7,195.1 364.0,206.2 359.3,221.0 354.7,230.3 350.0,243.3 345.3,256.2 340.7,274.7 336.0,276.6 331.3,287.7 326.7,300.7 322.0,302.5 317.3,298.8 312.7,302.5 308.0,297.0 303.3,289.6 298.7,269.2 294.0,259.9 289.3,248.8 284.7,237.7 280.0,230.3 275.3,219.2 270.7,208.1 266.0,198.8 261.3,191.4 256.7,189.6 252.0,193.3 247.3,197.0 242.7,187.7 238.0,180.3 233.3,178.4 228.7,182.1 224.0,193.3 219.3,206.2 214.7,211.8 210.0,208.1 205.3,202.5 200.7,204.4 196.0,208.1 191.3,209.9 186.7,221.0 182.0,219.2 177.3,211.8 172.7,209.9 168.0,209.9 163.3,211.8 158.7,219.2 154.0,217.3 149.3,221.0 144.7,208.1 140.0,198.8 135.3,193.3 130.7,195.1 126.0,202.5 121.3,202.5 116.7,202.5 112.0,213.6 107.3,217.3 102.7,221.0 98.0,234.0 93.3,235.9 88.7,256.2 84.0,259.0 79.3,265.0 74.7,267.3 70.0,264.0" fill="#fb7185" fill-opacity="0.85"/>
<polygon points="70.0,164.0 74.7,153.4 79.3,153.0 84.0,146.5 88.7,141.4 93.3,115.5 98.0,117.3 102.7,113.6 107.3,113.6 112.0,111.8 116.7,117.3 121.3,117.3 126.0,119.2 130.7,119.2 135.3,117.3 140.0,122.9 144.7,134.0 149.3,150.7 154.0,156.2 158.7,158.1 163.3,156.2 168.0,156.2 172.7,158.1 177.3,159.9 182.0,161.8 186.7,158.1 191.3,143.3 196.0,137.7 200.7,130.3 205.3,126.6 210.0,128.4 214.7,130.3 219.3,126.6 224.0,117.3 228.7,115.5 233.3,113.6 238.0,115.5 242.7,119.2 247.3,121.0 252.0,117.3 256.7,113.6 261.3,113.6 266.0,117.3 270.7,121.0 275.3,132.1 280.0,132.1 284.7,128.4 289.3,132.1 294.0,135.9 298.7,137.7 303.3,137.7 308.0,134.0 312.7,128.4 317.3,117.3 322.0,119.2 326.7,119.2 331.3,113.6 336.0,113.6 340.7,115.5 345.3,115.5 350.0,119.2 354.7,122.9 359.3,122.9 364.0,119.2 368.7,119.2 373.3,121.0 378.0,121.0 382.7,117.3 387.3,117.3 392.0,113.6 396.7,106.2 401.3,106.2 406.0,108.1 410.7,111.8 415.3,111.8 420.0,109.9 424.7,109.9 429.3,115.5 434.0,119.2 438.7,122.9 443.3,126.6 448.0,128.4 452.7,124.7 457.3,128.4 462.0,126.6 466.7,126.6 471.3,119.2 476.0,115.5 480.7,115.5 485.3,119.2 490.0,124.7 494.7,132.1 499.3,139.6 504.0,145.1 508.7,150.7 513.3,159.9 518.0,161.8 522.7,163.6 527.3,158.1 532.0,150.7 536.7,147.0 541.3,137.7 546.0,132.1 550.7,135.9 555.3,134.0 560.0,132.1 564.7,126.6 569.3,124.7 574.0,124.7 578.7,121.0 583.3,117.3 588.0,121.0 592.7,115.5 597.3,115.5 602.0,121.0 606.7,122.9 611.3,128.4 616.0,132.1 620.7,135.9 625.3,141.4 630.0,145.1 634.7,152.5 639.3,158.1 644.0,161.8 648.7,163.6 653.3,163.6 658.0,161.8 662.7,161.8 667.3,156.2 672.0,148.8 676.7,147.0 681.3,135.9 686.0,134.0 690.7,139.6 695.3,135.9 700.0,132.1 704.7,128.4 709.3,128.4 714.0,134.0 718.7,126.6 723.3,128.4 728.0,121.0 732.7,113.6 737.3,111.8 742.0,111.8 746.7,113.6 751.3,115.5 756.0,111.1 760.7,110.2 765.3,109.0 770.0,110.7 770.0,210.7 765.3,222.9 760.7,226.9 756.0,225.7 751.3,224.7 746.7,221.0 742.0,219.2 737.3,222.9 732.7,226.6 728.0,224.7 723.3,213.6 718.7,198.8 714.0,200.7 709.3,202.5 704.7,204.4 700.0,198.8 695.3,195.1 690.7,193.3 686.0,189.6 681.3,195.1 676.7,208.1 672.0,206.2 667.3,208.1 662.7,219.2 658.0,234.0 653.3,235.9 648.7,245.1 644.0,248.8 639.3,254.4 634.7,258.1 630.0,265.5 625.3,274.7 620.7,276.6 616.0,271.0 611.3,280.3 606.7,274.7 602.0,267.3 597.3,248.8 592.7,237.7 588.0,230.3 583.3,206.2 578.7,195.1 574.0,187.7 569.3,171.0 564.7,158.1 560.0,159.9 555.3,163.6 550.7,169.2 546.0,165.5 541.3,171.0 536.7,178.4 532.0,178.4 527.3,184.0 522.7,189.6 518.0,187.7 513.3,184.0 508.7,171.0 504.0,171.0 499.3,169.2 494.7,165.5 490.0,161.8 485.3,156.2 480.7,159.9 476.0,159.9 471.3,163.6 466.7,174.7 462.0,178.4 457.3,182.1 452.7,180.3 448.0,180.3 443.3,180.3 438.7,171.0 434.0,167.3 429.3,169.2 424.7,161.8 420.0,150.7 415.3,147.0 410.7,139.6 406.0,141.4 401.3,139.6 396.7,137.7 392.0,145.1 387.3,143.3 382.7,147.0 378.0,158.1 373.3,163.6 368.7,161.8 364.0,163.6 359.3,176.6 354.7,182.1 350.0,195.1 345.3,200.7 340.7,211.8 336.0,209.9 331.3,221.0 326.7,241.4 322.0,247.0 317.3,245.1 312.7,254.4 308.0,248.8 303.3,248.8 298.7,235.9 294.0,228.4 289.3,211.8 284.7,198.8 280.0,197.0 275.3,187.7 270.7,172.9 266.0,163.6 261.3,154.4 256.7,150.7 252.0,156.2 247.3,159.9 242.7,154.4 238.0,147.0 233.3,145.1 228.7,148.8 224.0,159.9 219.3,174.7 214.7,178.4 210.0,172.9 205.3,172.9 200.7,176.6 196.0,180.3 191.3,182.1 186.7,197.0 182.0,191.4 177.3,184.0 172.7,182.1 168.0,180.3 163.3,182.1 158.7,187.7 154.0,185.9 149.3,185.9 144.7,167.3 140.0,159.9 135.3,154.4 130.7,158.1 126.0,158.1 121.3,148.8 116.7,143.3 112.0,143.3 107.3,147.0 102.7,154.4 98.0,161.8 93.3,163.6 88.7,187.7 84.0,196.5 79.3,207.8 74.7,214.6 70.0,224.0" fill="#22d3ee" fill-opacity="0.85"/>
<polygon points="70.0,137.3 74.7,128.4 79.3,122.1 84.0,117.3 88.7,113.6 93.3,84.0 98.0,84.0 102.7,84.0 107.3,84.0 112.0,84.0 116.7,84.0 121.3,84.0 126.0,84.0 130.7,84.0 135.3,84.0 140.0,84.0 144.7,84.0 149.3,84.0 154.0,84.0 158.7,84.0 163.3,84.0 168.0,84.0 172.7,84.0 177.3,84.0 182.0,84.0 186.7,84.0 191.3,84.0 196.0,84.0 200.7,84.0 205.3,84.0 210.0,84.0 214.7,84.0 219.3,84.0 224.0,84.0 228.7,84.0 233.3,84.0 238.0,84.0 242.7,84.0 247.3,84.0 252.0,84.0 256.7,84.0 261.3,84.0 266.0,84.0 270.7,84.0 275.3,84.0 280.0,84.0 284.7,84.0 289.3,84.0 294.0,84.0 298.7,84.0 303.3,84.0 308.0,84.0 312.7,84.0 317.3,84.0 322.0,84.0 326.7,84.0 331.3,84.0 336.0,84.0 340.7,84.0 345.3,84.0 350.0,84.0 354.7,84.0 359.3,84.0 364.0,84.0 368.7,84.0 373.3,84.0 378.0,84.0 382.7,84.0 387.3,84.0 392.0,84.0 396.7,84.0 401.3,84.0 406.0,84.0 410.7,84.0 415.3,84.0 420.0,84.0 424.7,84.0 429.3,84.0 434.0,84.0 438.7,84.0 443.3,84.0 448.0,84.0 452.7,84.0 457.3,84.0 462.0,84.0 466.7,84.0 471.3,84.0 476.0,84.0 480.7,84.0 485.3,84.0 490.0,84.0 494.7,84.0 499.3,84.0 504.0,84.0 508.7,84.0 513.3,84.0 518.0,84.0 522.7,84.0 527.3,84.0 532.0,84.0 536.7,84.0 541.3,84.0 546.0,84.0 550.7,84.0 555.3,84.0 560.0,84.0 564.7,84.0 569.3,84.0 574.0,84.0 578.7,84.0 583.3,84.0 588.0,84.0 592.7,84.0 597.3,84.0 602.0,84.0 606.7,84.0 611.3,84.0 616.0,84.0 620.7,84.0 625.3,84.0 630.0,84.0 634.7,84.0 639.3,84.0 644.0,84.0 648.7,84.0 653.3,84.0 658.0,84.0 662.7,84.0 667.3,84.0 672.0,84.0 676.7,84.0 681.3,84.0 686.0,84.0 690.7,84.0 695.3,84.0 700.0,84.0 704.7,84.0 709.3,84.0 714.0,84.0 718.7,84.0 723.3,84.0 728.0,84.0 732.7,84.0 737.3,84.0 742.0,84.0 746.7,84.0 751.3,84.0 756.0,84.0 760.7,84.0 765.3,84.0 770.0,84.0 770.0,110.7 765.3,109.0 760.7,110.2 756.0,111.1 751.3,115.5 746.7,113.6 742.0,111.8 737.3,111.8 732.7,113.6 728.0,121.0 723.3,128.4 718.7,126.6 714.0,134.0 709.3,128.4 704.7,128.4 700.0,132.1 695.3,135.9 690.7,139.6 686.0,134.0 681.3,135.9 676.7,147.0 672.0,148.8 667.3,156.2 662.7,161.8 658.0,161.8 653.3,163.6 648.7,163.6 644.0,161.8 639.3,158.1 634.7,152.5 630.0,145.1 625.3,141.4 620.7,135.9 616.0,132.1 611.3,128.4 606.7,122.9 602.0,121.0 597.3,115.5 592.7,115.5 588.0,121.0 583.3,117.3 578.7,121.0 574.0,124.7 569.3,124.7 564.7,126.6 560.0,132.1 555.3,134.0 550.7,135.9 546.0,132.1 541.3,137.7 536.7,147.0 532.0,150.7 527.3,158.1 522.7,163.6 518.0,161.8 513.3,159.9 508.7,150.7 504.0,145.1 499.3,139.6 494.7,132.1 490.0,124.7 485.3,119.2 480.7,115.5 476.0,115.5 471.3,119.2 466.7,126.6 462.0,126.6 457.3,128.4 452.7,124.7 448.0,128.4 443.3,126.6 438.7,122.9 434.0,119.2 429.3,115.5 424.7,109.9 420.0,109.9 415.3,111.8 410.7,111.8 406.0,108.1 401.3,106.2 396.7,106.2 392.0,113.6 387.3,117.3 382.7,117.3 378.0,121.0 373.3,121.0 368.7,119.2 364.0,119.2 359.3,122.9 354.7,122.9 350.0,119.2 345.3,115.5 340.7,115.5 336.0,113.6 331.3,113.6 326.7,119.2 322.0,119.2 317.3,117.3 312.7,128.4 308.0,134.0 303.3,137.7 298.7,137.7 294.0,135.9 289.3,132.1 284.7,128.4 280.0,132.1 275.3,132.1 270.7,121.0 266.0,117.3 261.3,113.6 256.7,113.6 252.0,117.3 247.3,121.0 242.7,119.2 238.0,115.5 233.3,113.6 228.7,115.5 224.0,117.3 219.3,126.6 214.7,130.3 210.0,128.4 205.3,126.6 200.7,130.3 196.0,137.7 191.3,143.3 186.7,158.1 182.0,161.8 177.3,159.9 172.7,158.1 168.0,156.2 163.3,156.2 158.7,158.1 154.0,156.2 149.3,150.7 144.7,134.0 140.0,122.9 135.3,117.3 130.7,119.2 126.0,119.2 121.3,117.3 116.7,117.3 112.0,111.8 107.3,113.6 102.7,113.6 98.0,117.3 93.3,115.5 88.7,141.4 84.0,146.5 79.3,153.0 74.7,153.4 70.0,164.0" fill="#a3e635" fill-opacity="0.85"/>
<polygon points="70.0,84.0 74.7,84.0 79.3,84.0 84.0,84.0 88.7,84.0 93.3,84.0 98.0,84.0 102.7,84.0 107.3,84.0 112.0,84.0 116.7,84.0 121.3,84.0 126.0,84.0 130.7,84.0 135.3,84.0 140.0,84.0 144.7,84.0 149.3,84.0 154.0,84.0 158.7,84.0 163.3,84.0 168.0,84.0 172.7,84.0 177.3,84.0 182.0,84.0 186.7,84.0 191.3,84.0 196.0,84.0 200.7,84.0 205.3,84.0 210.0,84.0 214.7,84.0 219.3,84.0 224.0,84.0 228.7,84.0 233.3,84.0 238.0,84.0 242.7,84.0 247.3,84.0 252.0,84.0 256.7,84.0 261.3,84.0 266.0,84.0 270.7,84.0 275.3,84.0 280.0,84.0 284.7,84.0 289.3,84.0 294.0,84.0 298.7,84.0 303.3,84.0 308.0,84.0 312.7,84.0 317.3,84.0 322.0,84.0 326.7,84.0 331.3,84.0 336.0,84.0 340.7,84.0 345.3,84.0 350.0,84.0 354.7,84.0 359.3,84.0 364.0,84.0 368.7,84.0 373.3,84.0 378.0,84.0 382.7,84.0 387.3,84.0 392.0,84.0 396.7,84.0 401.3,84.0 406.0,84.0 410.7,84.0 415.3,84.0 420.0,84.0 424.7,84.0 429.3,84.0 434.0,84.0 438.7,84.0 443.3,84.0 448.0,84.0 452.7,84.0 457.3,84.0 462.0,84.0 466.7,84.0 471.3,84.0 476.0,84.0 480.7,84.0 485.3,84.0 490.0,84.0 494.7,84.0 499.3,84.0 504.0,84.0 508.7,84.0 513.3,84.0 518.0,84.0 522.7,84.0 527.3,84.0 532.0,84.0 536.7,84.0 541.3,84.0 546.0,84.0 550.7,84.0 555.3,84.0 560.0,84.0 564.7,84.0 569.3,84.0 574.0,84.0 578.7,84.0 583.3,84.0 588.0,84.0 592.7,84.0 597.3,84.0 602.0,84.0 606.7,84.0 611.3,84.0 616.0,84.0 620.7,84.0 625.3,84.0 630.0,84.0 634.7,84.0 639.3,84.0 644.0,84.0 648.7,84.0 653.3,84.0 658.0,84.0 662.7,84.0 667.3,84.0 672.0,84.0 676.7,84.0 681.3,84.0 686.0,84.0 690.7,84.0 695.3,84.0 700.0,84.0 704.7,84.0 709.3,84.0 714.0,84.0 718.7,84.0 723.3,84.0 728.0,84.0 732.7,84.0 737.3,84.0 742.0,84.0 746.7,84.0 751.3,84.0 756.0,84.0 760.7,84.0 765.3,84.0 770.0,84.0 770.0,84.0 765.3,84.0 760.7,84.0 756.0,84.0 751.3,84.0 746.7,84.0 742.0,84.0 737.3,84.0 732.7,84.0 728.0,84.0 723.3,84.0 718.7,84.0 714.0,84.0 709.3,84.0 704.7,84.0 700.0,84.0 695.3,84.0 690.7,84.0 686.0,84.0 681.3,84.0 676.7,84.0 672.0,84.0 667.3,84.0 662.7,84.0 658.0,84.0 653.3,84.0 648.7,84.0 644.0,84.0 639.3,84.0 634.7,84.0 630.0,84.0 625.3,84.0 620.7,84.0 616.0,84.0 611.3,84.0 606.7,84.0 602.0,84.0 597.3,84.0 592.7,84.0 588.0,84.0 583.3,84.0 578.7,84.0 574.0,84.0 569.3,84.0 564.7,84.0 560.0,84.0 555.3,84.0 550.7,84.0 546.0,84.0 541.3,84.0 536.7,84.0 532.0,84.0 527.3,84.0 522.7,84.0 518.0,84.0 513.3,84.0 508.7,84.0 504.0,84.0 499.3,84.0 494.7,84.0 490.0,84.0 485.3,84.0 480.7,84.0 476.0,84.0 471.3,84.0 466.7,84.0 462.0,84.0 457.3,84.0 452.7,84.0 448.0,84.0 443.3,84.0 438.7,84.0 434.0,84.0 429.3,84.0 424.7,84.0 420.0,84.0 415.3,84.0 410.7,84.0 406.0,84.0 401.3,84.0 396.7,84.0 392.0,84.0 387.3,84.0 382.7,84.0 378.0,84.0 373.3,84.0 368.7,84.0 364.0,84.0 359.3,84.0 354.7,84.0 350.0,84.0 345.3,84.0 340.7,84.0 336.0,84.0 331.3,84.0 326.7,84.0 322.0,84.0 317.3,84.0 312.7,84.0 308.0,84.0 303.3,84.0 298.7,84.0 294.0,84.0 289.3,84.0 284.7,84.0 280.0,84.0 275.3,84.0 270.7,84.0 266.0,84.0 261.3,84.0 256.7,84.0 252.0,84.0 247.3,84.0 242.7,84.0 238.0,84.0 233.3,84.0 228.7,84.0 224.0,84.0 219.3,84.0 214.7,84.0 210.0,84.0 205.3,84.0 200.7,84.0 196.0,84.0 191.3,84.0 186.7,84.0 182.0,84.0 177.3,84.0 172.7,84.0 168.0,84.0 163.3,84.0 158.7,84.0 154.0,84.0 149.3,84.0 144.7,84.0 140.0,84.0 135.3,84.0 130.7,84.0 126.0,84.0 121.3,84.0 116.7,84.0 112.0,84.0 107.3,84.0 102.7,84.0 98.0,84.0 93.3,84.0 88.7,113.6 84.0,117.3 79.3,122.1 74.7,128.4 70.0,137.3" fill="#475569" fill-opacity="0.85"/>
</g>
<text x="70.0" y="502.0" fill="#6b7280" font-size="10" text-anchor="middle">0</text>
<text x="247.3" y="502.0" fill="#6b7280" font-size="10" text-anchor="middle">38</text>
<text x="420.0" y="502.0" fill="#6b7280" font-size="10" text-anchor="middle">75</text>
<text x="592.7" y="502.0" fill="#6b7280" font-size="10" text-anchor="middle">112</text>
<text x="770.0" y="502.0" fill="#6b7280" font-size="10" text-anchor="middle">150</text>
<text x="420" y="524" fill="#9ca3af" font-size="12" text-anchor="middle">generation</text>
<rect x="786" y="75" width="12" height="12" fill="#22d3ee" fill-opacity="0.85"/>
<text x="804" y="85" fill="#cbd5e1" font-size="11">von-neumann 25%</text>
<rect x="786" y="94" width="12" height="12" fill="#34d399" fill-opacity="0.85"/>
<text x="804" y="104" fill="#cbd5e1" font-size="11">millidge 19%</text>
<rect x="786" y="113" width="12" height="12" fill="#f472b6" fill-opacity="0.85"/>
<text x="804" y="123" fill="#cbd5e1" font-size="11">friston 14%</text>
<rect x="786" y="132" width="12" height="12" fill="#60a5fa" fill-opacity="0.85"/>
<text x="804" y="142" fill="#cbd5e1" font-size="11">furuse-kazufumi 12%</text>
<rect x="786" y="151" width="12" height="12" fill="#a78bfa" fill-opacity="0.85"/>
<text x="804" y="161" fill="#cbd5e1" font-size="11">oka-kiyoshi 11%</text>
<rect x="786" y="170" width="12" height="12" fill="#fbbf24" fill-opacity="0.85"/>
<text x="804" y="180" fill="#cbd5e1" font-size="11">isomura-takuya 7%</text>
<rect x="786" y="189" width="12" height="12" fill="#a3e635" fill-opacity="0.85"/>
<text x="804" y="199" fill="#cbd5e1" font-size="11">feynman 7%</text>
<rect x="786" y="208" width="12" height="12" fill="#fb7185" fill-opacity="0.85"/>
<text x="804" y="218" fill="#cbd5e1" font-size="11">grothendieck 6%</text>
<rect x="786" y="227" width="12" height="12" fill="#475569" fill-opacity="0.85"/>
<text x="804" y="237" fill="#cbd5e1" font-size="11">(random) 0%</text>
</svg>