<svg xmlns="http://www.w3.org/2000/svg" width="900" height="460" viewBox="0 0 900 460" font-family="ui-sans-serif,Segoe UI,sans-serif">
<rect width="900" height="460" fill="#0b1020"/>
<text x="70" y="30" fill="#e5e7eb" font-size="20" font-weight="700">lldarwin — LLM 苦手軸スコアの進化 (per-axis)</text>
<text x="70" y="50" fill="#c2410c" font-size="12" font-weight="600">PROXY (genome 振る舞い代理) ·  fitness=pressure-proxy  ·  model=n/a  ·  snapshots=5 (gen 0–100)</text>
<clipPath id="reveal"><rect x="70" y="0" width="630" height="460"><animate attributeName="width" from="0" to="630" dur="4.0s" fill="freeze"/></rect></clipPath>
<text x="70" y="62" fill="#9ca3af" font-size="12">axis mean score (0–1)</text>
<line x1="70" y1="400.0" x2="700" y2="400.0" stroke="#1f2937" stroke-width="1"/>
<text x="62" y="404.0" fill="#6b7280" font-size="10" text-anchor="end">0.00</text>
<line x1="70" y1="317.5" x2="700" y2="317.5" stroke="#1f2937" stroke-width="1"/>
<text x="62" y="321.5" fill="#6b7280" font-size="10" text-anchor="end">0.25</text>
<line x1="70" y1="235.0" x2="700" y2="235.0" stroke="#1f2937" stroke-width="1"/>
<text x="62" y="239.0" fill="#6b7280" font-size="10" text-anchor="end">0.50</text>
<line x1="70" y1="152.5" x2="700" y2="152.5" stroke="#1f2937" stroke-width="1"/>
<text x="62" y="156.5" fill="#6b7280" font-size="10" text-anchor="end">0.75</text>
<line x1="70" y1="70.0" x2="700" y2="70.0" stroke="#1f2937" stroke-width="1"/>
<text x="62" y="74.0" fill="#6b7280" font-size="10" text-anchor="end">1.00</text>
<text x="70.0" y="418.0" fill="#6b7280" font-size="10" text-anchor="middle">0</text>
<text x="227.5" y="418.0" fill="#6b7280" font-size="10" text-anchor="middle">25</text>
<text x="385.0" y="418.0" fill="#6b7280" font-size="10" text-anchor="middle">50</text>
<text x="542.5" y="418.0" fill="#6b7280" font-size="10" text-anchor="middle">75</text>
<text x="700.0" y="418.0" fill="#6b7280" font-size="10" text-anchor="middle">100</text>
<text x="385" y="438" fill="#9ca3af" font-size="12" text-anchor="middle">generation</text>
<g clip-path="url(#reveal)">
<polyline points="70.0,179.1 227.5,101.0 385.0,100.7 542.5,100.1 700.0,101.7" fill="none" stroke="#f87171" stroke-width="2.5"/>
<polyline points="70.0,216.1 227.5,95.3 385.0,95.6 542.5,95.2 700.0,95.7" fill="none" stroke="#fbbf24" stroke-width="2.5"/>
<polyline points="70.0,207.0 227.5,113.9 385.0,112.2 542.5,113.4 700.0,111.6" fill="none" stroke="#34d399" stroke-width="2.5"/>
<polyline points="70.0,190.0 227.5,91.6 385.0,96.3 542.5,93.7 700.0,92.4" fill="none" stroke="#60a5fa" stroke-width="2.5"/>
<polyline points="70.0,188.8 227.5,94.0 385.0,94.5 542.5,93.9 700.0,95.9" fill="none" stroke="#a78bfa" stroke-width="2.5"/>
</g>
<rect x="716" y="67" width="14" height="4" fill="#f87171"/>
<text x="736" y="74" fill="#cbd5e1" font-size="11">calibration</text>
<rect x="716" y="85" width="14" height="4" fill="#fbbf24"/>
<text x="736" y="92" fill="#cbd5e1" font-size="11">context_management</text>
<rect x="716" y="103" width="14" height="4" fill="#34d399"/>
<text x="736" y="110" fill="#cbd5e1" font-size="11">multistep_robustness</text>
<rect x="716" y="121" width="14" height="4" fill="#60a5fa"/>
<text x="736" y="128" fill="#cbd5e1" font-size="11">polysemy_wsd</text>
<rect x="716" y="139" width="14" height="4" fill="#a78bfa"/>
<text x="736" y="146" fill="#cbd5e1" font-size="11">typo_robustness</text>
</svg>