<svg xmlns="http://www.w3.org/2000/svg" width="820" height="420" viewBox="0 0 820 420" font-family="ui-sans-serif,Segoe UI,sans-serif">
<rect width="820" height="420" fill="#0b1020"/>
<text x="70" y="30" fill="#e5e7eb" font-size="20" font-weight="700">lldarwin Stage1 — novelty rescues behavioral diversity</text>
<text x="70" y="50" fill="#c2410c" font-size="12" font-weight="600">PROXY (rich-proxy, 8 founders, 150 gens) ·  diversity_l2 ·  baseline collapses / novelty sustains (+109%)</text>
<clipPath id="rv"><rect x="70" y="0" width="570" height="420"><animate attributeName="width" from="0" to="570" dur="3.5s" fill="freeze"/></rect></clipPath>
<line x1="70" y1="364.0" x2="640" y2="364.0" stroke="#1f2937"/>
<text x="62" y="368.0" fill="#6b7280" font-size="10" text-anchor="end">0.0</text>
<line x1="70" y1="291.0" x2="640" y2="291.0" stroke="#1f2937"/>
<text x="62" y="295.0" fill="#6b7280" font-size="10" text-anchor="end">7.0</text>
<line x1="70" y1="218.0" x2="640" y2="218.0" stroke="#1f2937"/>
<text x="62" y="222.0" fill="#6b7280" font-size="10" text-anchor="end">14.0</text>
<line x1="70" y1="145.0" x2="640" y2="145.0" stroke="#1f2937"/>
<text x="62" y="149.0" fill="#6b7280" font-size="10" text-anchor="end">21.1</text>
<line x1="70" y1="72.0" x2="640" y2="72.0" stroke="#1f2937"/>
<text x="62" y="76.0" fill="#6b7280" font-size="10" text-anchor="end">28.1</text>
<text x="70.0" y="382.0" fill="#6b7280" font-size="10" text-anchor="middle">0</text>
<text x="355.0" y="382.0" fill="#6b7280" font-size="10" text-anchor="middle">75</text>
<text x="640.0" y="382.0" fill="#6b7280" font-size="10" text-anchor="middle">150</text>
<text x="355" y="402" fill="#9ca3af" font-size="12" text-anchor="middle">generation</text>
<g clip-path="url(#rv)">
<polyline points="70.0,72.0 165.0,256.4 260.0,321.2 355.0,343.7 450.0,357.0 545.0,324.7 640.0,355.4" fill="none" stroke="#f87171" stroke-width="2.5"/>
<polyline points="70.0,72.0 165.0,197.6 260.0,271.8 355.0,159.3 450.0,295.8 545.0,226.5 640.0,242.1" fill="none" stroke="#22d3ee" stroke-width="2.5"/>
</g>
<rect x="656" y="69" width="14" height="4" fill="#f87171"/><text x="676" y="76" fill="#cbd5e1" font-size="11">baseline (collapse)</text>
<rect x="656" y="87" width="14" height="4" fill="#22d3ee"/><text x="676" y="94" fill="#cbd5e1" font-size="11">+novelty (sustained)</text>
</svg>