<svg xmlns="http://www.w3.org/2000/svg" width="940" height="540" viewBox="0 0 940 540" font-family="ui-sans-serif,Segoe UI,sans-serif">
<rect width="940" height="540" fill="#0b1020"/>
<text x="70" y="32" fill="#e5e7eb" font-size="20" font-weight="700">llive persona evolution — founder-lineage dominance</text>
<text x="70" y="52" fill="#c2410c" font-size="13" font-weight="600">PROXY fitness — NOT real LLM eval  ·  full-population bloodline share  ·  gens=151  pop=24  seed=0</text>
<text x="70" y="74" fill="#9ca3af" font-size="12">share of population by root-founder bloodline  ·  rolling window=9</text>
<line x1="70" y1="484.0" x2="770" y2="484.0" stroke="#1f2937" stroke-width="1"/>
<text x="62" y="488.0" fill="#6b7280" font-size="10" text-anchor="end">0%</text>
<line x1="70" y1="384.0" x2="770" y2="384.0" stroke="#1f2937" stroke-width="1"/>
<text x="62" y="388.0" fill="#6b7280" font-size="10" text-anchor="end">25%</text>
<line x1="70" y1="284.0" x2="770" y2="284.0" stroke="#1f2937" stroke-width="1"/>
<text x="62" y="288.0" fill="#6b7280" font-size="10" text-anchor="end">50%</text>
<line x1="70" y1="184.0" x2="770" y2="184.0" stroke="#1f2937" stroke-width="1"/>
<text x="62" y="188.0" fill="#6b7280" font-size="10" text-anchor="end">75%</text>
<line x1="70" y1="84.0" x2="770" y2="84.0" stroke="#1f2937" stroke-width="1"/>
<text x="62" y="88.0" fill="#6b7280" font-size="10" text-anchor="end">100%</text>
<clipPath id="revealdom"><rect x="70" y="0" width="700" height="540"><animate attributeName="width" from="0" to="700" dur="3.4s" fill="freeze"/></rect></clipPath>
<g clip-path="url(#revealdom)">
<polygon points="70.0,400.7 74.7,389.6 79.3,372.1 84.0,350.7 88.7,341.4 93.3,311.8 98.0,293.3 102.7,259.9 107.3,235.9 112.0,209.9 116.7,189.6 121.3,171.0 126.0,165.5 130.7,154.4 135.3,156.2 140.0,156.2 144.7,172.9 149.3,191.4 154.0,202.5 158.7,221.0 163.3,237.7 168.0,258.1 172.7,261.8 177.3,269.2 182.0,269.2 186.7,258.1 191.3,258.1 196.0,248.8 200.7,228.4 205.3,215.5 210.0,197.0 214.7,195.1 219.3,185.9 224.0,172.9 228.7,171.0 233.3,167.3 238.0,171.0 242.7,172.9 247.3,180.3 252.0,198.8 256.7,204.4 261.3,211.8 266.0,215.5 270.7,222.9 275.3,221.0 280.0,221.0 284.7,224.7 289.3,217.3 294.0,193.3 298.7,185.9 303.3,178.4 308.0,180.3 312.7,169.2 317.3,159.9 322.0,148.8 326.7,141.4 331.3,143.3 336.0,145.1 340.7,143.3 345.3,137.7 350.0,134.0 354.7,137.7 359.3,135.9 364.0,141.4 368.7,143.3 373.3,148.8 378.0,152.5 382.7,156.2 387.3,156.2 392.0,161.8 396.7,161.8 401.3,163.6 406.0,163.6 410.7,163.6 415.3,154.4 420.0,150.7 424.7,148.8 429.3,154.4 434.0,154.4 438.7,156.2 443.3,152.5 448.0,147.0 452.7,145.1 457.3,152.5 462.0,152.5 466.7,150.7 471.3,143.3 476.0,132.1 480.7,130.3 485.3,132.1 490.0,145.1 494.7,150.7 499.3,156.2 504.0,174.7 508.7,202.5 513.3,226.6 518.0,254.4 522.7,278.4 527.3,315.5 532.0,341.4 536.7,367.3 541.3,387.7 546.0,404.4 550.7,409.9 555.3,411.8 560.0,408.1 564.7,406.2 569.3,393.3 574.0,391.4 578.7,391.4 583.3,393.3 588.0,395.1 592.7,393.3 597.3,400.7 602.0,413.6 606.7,419.2 611.3,424.7 616.0,424.7 620.7,426.6 625.3,419.2 630.0,415.5 634.7,417.3 639.3,408.1 644.0,395.1 648.7,389.6 653.3,393.3 658.0,395.1 662.7,395.1 667.3,393.3 672.0,384.0 676.7,369.2 681.3,367.3 686.0,369.2 690.7,358.1 695.3,343.3 700.0,330.3 704.7,311.8 709.3,300.7 714.0,282.1 718.7,278.4 723.3,261.8 728.0,254.4 732.7,261.8 737.3,259.9 742.0,239.6 746.7,224.7 751.3,219.2 756.0,223.6 760.7,215.0 765.3,220.1 770.0,210.7 770.0,484.0 765.3,484.0 760.7,484.0 756.0,484.0 751.3,484.0 746.7,484.0 742.0,484.0 737.3,484.0 732.7,484.0 728.0,484.0 723.3,484.0 718.7,484.0 714.0,484.0 709.3,484.0 704.7,484.0 700.0,484.0 695.3,484.0 690.7,484.0 686.0,484.0 681.3,484.0 676.7,484.0 672.0,484.0 667.3,484.0 662.7,484.0 658.0,484.0 653.3,484.0 648.7,484.0 644.0,484.0 639.3,484.0 634.7,484.0 630.0,484.0 625.3,484.0 620.7,484.0 616.0,484.0 611.3,484.0 606.7,484.0 602.0,484.0 597.3,484.0 592.7,484.0 588.0,484.0 583.3,484.0 578.7,484.0 574.0,484.0 569.3,484.0 564.7,484.0 560.0,484.0 555.3,484.0 550.7,484.0 546.0,484.0 541.3,484.0 536.7,484.0 532.0,484.0 527.3,484.0 522.7,484.0 518.0,484.0 513.3,484.0 508.7,484.0 504.0,484.0 499.3,484.0 494.7,484.0 490.0,484.0 485.3,484.0 480.7,484.0 476.0,484.0 471.3,484.0 466.7,484.0 462.0,484.0 457.3,484.0 452.7,484.0 448.0,484.0 443.3,484.0 438.7,484.0 434.0,484.0 429.3,484.0 424.7,484.0 420.0,484.0 415.3,484.0 410.7,484.0 406.0,484.0 401.3,484.0 396.7,484.0 392.0,484.0 387.3,484.0 382.7,484.0 378.0,484.0 373.3,484.0 368.7,484.0 364.0,484.0 359.3,484.0 354.7,484.0 350.0,484.0 345.3,484.0 340.7,484.0 336.0,484.0 331.3,484.0 326.7,484.0 322.0,484.0 317.3,484.0 312.7,484.0 308.0,484.0 303.3,484.0 298.7,484.0 294.0,484.0 289.3,484.0 284.7,484.0 280.0,484.0 275.3,484.0 270.7,484.0 266.0,484.0 261.3,484.0 256.7,484.0 252.0,484.0 247.3,484.0 242.7,484.0 238.0,484.0 233.3,484.0 228.7,484.0 224.0,484.0 219.3,484.0 214.7,484.0 210.0,484.0 205.3,484.0 200.7,484.0 196.0,484.0 191.3,484.0 186.7,484.0 182.0,484.0 177.3,484.0 172.7,484.0 168.0,484.0 163.3,484.0 158.7,484.0 154.0,484.0 149.3,484.0 144.7,484.0 140.0,484.0 135.3,484.0 130.7,484.0 126.0,484.0 121.3,484.0 116.7,484.0 112.0,484.0 107.3,484.0 102.7,484.0 98.0,484.0 93.3,484.0 88.7,484.0 84.0,484.0 79.3,484.0 74.7,484.0 70.0,484.0" fill="#60a5fa" fill-opacity="0.85"/>
<polygon points="70.0,344.0 74.7,322.9 79.3,310.2 84.0,292.3 88.7,274.7 93.3,234.0 98.0,200.7 102.7,167.3 107.3,150.7 112.0,130.3 116.7,115.5 121.3,98.8 126.0,89.6 130.7,84.0 135.3,84.0 140.0,84.0 144.7,84.0 149.3,84.0 154.0,84.0 158.7,84.0 163.3,84.0 168.0,84.0 172.7,84.0 177.3,84.0 182.0,84.0 186.7,84.0 191.3,84.0 196.0,84.0 200.7,84.0 205.3,84.0 210.0,84.0 214.7,84.0 219.3,84.0 224.0,84.0 228.7,84.0 233.3,84.0 238.0,84.0 242.7,84.0 247.3,84.0 252.0,84.0 256.7,84.0 261.3,84.0 266.0,84.0 270.7,84.0 275.3,84.0 280.0,84.0 284.7,84.0 289.3,84.0 294.0,84.0 298.7,84.0 303.3,84.0 308.0,84.0 312.7,84.0 317.3,84.0 322.0,84.0 326.7,84.0 331.3,84.0 336.0,84.0 340.7,84.0 345.3,84.0 350.0,84.0 354.7,84.0 359.3,84.0 364.0,84.0 368.7,84.0 373.3,84.0 378.0,84.0 382.7,84.0 387.3,84.0 392.0,84.0 396.7,84.0 401.3,84.0 406.0,84.0 410.7,84.0 415.3,84.0 420.0,84.0 424.7,84.0 429.3,84.0 434.0,84.0 438.7,84.0 443.3,84.0 448.0,84.0 452.7,84.0 457.3,84.0 462.0,84.0 466.7,84.0 471.3,84.0 476.0,84.0 480.7,84.0 485.3,84.0 490.0,84.0 494.7,84.0 499.3,84.0 504.0,84.0 508.7,84.0 513.3,84.0 518.0,84.0 522.7,84.0 527.3,84.0 532.0,84.0 536.7,84.0 541.3,84.0 546.0,84.0 550.7,84.0 555.3,84.0 560.0,84.0 564.7,84.0 569.3,84.0 574.0,84.0 578.7,84.0 583.3,84.0 588.0,84.0 592.7,84.0 597.3,84.0 602.0,84.0 606.7,84.0 611.3,84.0 616.0,84.0 620.7,84.0 625.3,84.0 630.0,84.0 634.7,84.0 639.3,84.0 644.0,84.0 648.7,84.0 653.3,84.0 658.0,84.0 662.7,84.0 667.3,84.0 672.0,84.0 676.7,84.0 681.3,84.0 686.0,84.0 690.7,84.0 695.3,84.0 700.0,84.0 704.7,84.0 709.3,84.0 714.0,84.0 718.7,84.0 723.3,84.0 728.0,84.0 732.7,84.0 737.3,84.0 742.0,84.0 746.7,84.0 751.3,84.0 756.0,84.0 760.7,84.0 765.3,84.0 770.0,84.0 770.0,210.7 765.3,220.1 760.7,215.0 756.0,223.6 751.3,219.2 746.7,224.7 742.0,239.6 737.3,259.9 732.7,261.8 728.0,254.4 723.3,261.8 718.7,278.4 714.0,282.1 709.3,300.7 704.7,311.8 700.0,330.3 695.3,343.3 690.7,358.1 686.0,369.2 681.3,367.3 676.7,369.2 672.0,384.0 667.3,393.3 662.7,395.1 658.0,395.1 653.3,393.3 648.7,389.6 644.0,395.1 639.3,408.1 634.7,417.3 630.0,415.5 625.3,419.2 620.7,426.6 616.0,424.7 611.3,424.7 606.7,419.2 602.0,413.6 597.3,400.7 592.7,393.3 588.0,395.1 583.3,393.3 578.7,391.4 574.0,391.4 569.3,393.3 564.7,406.2 560.0,408.1 555.3,411.8 550.7,409.9 546.0,404.4 541.3,387.7 536.7,367.3 532.0,341.4 527.3,315.5 522.7,278.4 518.0,254.4 513.3,226.6 508.7,202.5 504.0,174.7 499.3,156.2 494.7,150.7 490.0,145.1 485.3,132.1 480.7,130.3 476.0,132.1 471.3,143.3 466.7,150.7 462.0,152.5 457.3,152.5 452.7,145.1 448.0,147.0 443.3,152.5 438.7,156.2 434.0,154.4 429.3,154.4 424.7,148.8 420.0,150.7 415.3,154.4 410.7,163.6 406.0,163.6 401.3,163.6 396.7,161.8 392.0,161.8 387.3,156.2 382.7,156.2 378.0,152.5 373.3,148.8 368.7,143.3 364.0,141.4 359.3,135.9 354.7,137.7 350.0,134.0 345.3,137.7 340.7,143.3 336.0,145.1 331.3,143.3 326.7,141.4 322.0,148.8 317.3,159.9 312.7,169.2 308.0,180.3 303.3,178.4 298.7,185.9 294.0,193.3 289.3,217.3 284.7,224.7 280.0,221.0 275.3,221.0 270.7,222.9 266.0,215.5 261.3,211.8 256.7,204.4 252.0,198.8 247.3,180.3 242.7,172.9 238.0,171.0 233.3,167.3 228.7,171.0 224.0,172.9 219.3,185.9 214.7,195.1 210.0,197.0 205.3,215.5 200.7,228.4 196.0,248.8 191.3,258.1 186.7,258.1 182.0,269.2 177.3,269.2 172.7,261.8 168.0,258.1 163.3,237.7 158.7,221.0 154.0,202.5 149.3,191.4 144.7,172.9 140.0,156.2 135.3,156.2 130.7,154.4 126.0,165.5 121.3,171.0 116.7,189.6 112.0,209.9 107.3,235.9 102.7,259.9 98.0,293.3 93.3,311.8 88.7,341.4 84.0,350.7 79.3,372.1 74.7,389.6 70.0,400.7" fill="#f472b6" fill-opacity="0.85"/>
<polygon points="70.0,320.7 74.7,303.4 79.3,293.5 84.0,277.8 88.7,261.8 93.3,222.9 98.0,198.8 102.7,167.3 107.3,150.7 112.0,130.3 116.7,115.5 121.3,98.8 126.0,89.6 130.7,84.0 135.3,84.0 140.0,84.0 144.7,84.0 149.3,84.0 154.0,84.0 158.7,84.0 163.3,84.0 168.0,84.0 172.7,84.0 177.3,84.0 182.0,84.0 186.7,84.0 191.3,84.0 196.0,84.0 200.7,84.0 205.3,84.0 210.0,84.0 214.7,84.0 219.3,84.0 224.0,84.0 228.7,84.0 233.3,84.0 238.0,84.0 242.7,84.0 247.3,84.0 252.0,84.0 256.7,84.0 261.3,84.0 266.0,84.0 270.7,84.0 275.3,84.0 280.0,84.0 284.7,84.0 289.3,84.0 294.0,84.0 298.7,84.0 303.3,84.0 308.0,84.0 312.7,84.0 317.3,84.0 322.0,84.0 326.7,84.0 331.3,84.0 336.0,84.0 340.7,84.0 345.3,84.0 350.0,84.0 354.7,84.0 359.3,84.0 364.0,84.0 368.7,84.0 373.3,84.0 378.0,84.0 382.7,84.0 387.3,84.0 392.0,84.0 396.7,84.0 401.3,84.0 406.0,84.0 410.7,84.0 415.3,84.0 420.0,84.0 424.7,84.0 429.3,84.0 434.0,84.0 438.7,84.0 443.3,84.0 448.0,84.0 452.7,84.0 457.3,84.0 462.0,84.0 466.7,84.0 471.3,84.0 476.0,84.0 480.7,84.0 485.3,84.0 490.0,84.0 494.7,84.0 499.3,84.0 504.0,84.0 508.7,84.0 513.3,84.0 518.0,84.0 522.7,84.0 527.3,84.0 532.0,84.0 536.7,84.0 541.3,84.0 546.0,84.0 550.7,84.0 555.3,84.0 560.0,84.0 564.7,84.0 569.3,84.0 574.0,84.0 578.7,84.0 583.3,84.0 588.0,84.0 592.7,84.0 597.3,84.0 602.0,84.0 606.7,84.0 611.3,84.0 616.0,84.0 620.7,84.0 625.3,84.0 630.0,84.0 634.7,84.0 639.3,84.0 644.0,84.0 648.7,84.0 653.3,84.0 658.0,84.0 662.7,84.0 667.3,84.0 672.0,84.0 676.7,84.0 681.3,84.0 686.0,84.0 690.7,84.0 695.3,84.0 700.0,84.0 704.7,84.0 709.3,84.0 714.0,84.0 718.7,84.0 723.3,84.0 728.0,84.0 732.7,84.0 737.3,84.0 742.0,84.0 746.7,84.0 751.3,84.0 756.0,84.0 760.7,84.0 765.3,84.0 770.0,84.0 770.0,84.0 765.3,84.0 760.7,84.0 756.0,84.0 751.3,84.0 746.7,84.0 742.0,84.0 737.3,84.0 732.7,84.0 728.0,84.0 723.3,84.0 718.7,84.0 714.0,84.0 709.3,84.0 704.7,84.0 700.0,84.0 695.3,84.0 690.7,84.0 686.0,84.0 681.3,84.0 676.7,84.0 672.0,84.0 667.3,84.0 662.7,84.0 658.0,84.0 653.3,84.0 648.7,84.0 644.0,84.0 639.3,84.0 634.7,84.0 630.0,84.0 625.3,84.0 620.7,84.0 616.0,84.0 611.3,84.0 606.7,84.0 602.0,84.0 597.3,84.0 592.7,84.0 588.0,84.0 583.3,84.0 578.7,84.0 574.0,84.0 569.3,84.0 564.7,84.0 560.0,84.0 555.3,84.0 550.7,84.0 546.0,84.0 541.3,84.0 536.7,84.0 532.0,84.0 527.3,84.0 522.7,84.0 518.0,84.0 513.3,84.0 508.7,84.0 504.0,84.0 499.3,84.0 494.7,84.0 490.0,84.0 485.3,84.0 480.7,84.0 476.0,84.0 471.3,84.0 466.7,84.0 462.0,84.0 457.3,84.0 452.7,84.0 448.0,84.0 443.3,84.0 438.7,84.0 434.0,84.0 429.3,84.0 424.7,84.0 420.0,84.0 415.3,84.0 410.7,84.0 406.0,84.0 401.3,84.0 396.7,84.0 392.0,84.0 387.3,84.0 382.7,84.0 378.0,84.0 373.3,84.0 368.7,84.0 364.0,84.0 359.3,84.0 354.7,84.0 350.0,84.0 345.3,84.0 340.7,84.0 336.0,84.0 331.3,84.0 326.7,84.0 322.0,84.0 317.3,84.0 312.7,84.0 308.0,84.0 303.3,84.0 298.7,84.0 294.0,84.0 289.3,84.0 284.7,84.0 280.0,84.0 275.3,84.0 270.7,84.0 266.0,84.0 261.3,84.0 256.7,84.0 252.0,84.0 247.3,84.0 242.7,84.0 238.0,84.0 233.3,84.0 228.7,84.0 224.0,84.0 219.3,84.0 214.7,84.0 210.0,84.0 205.3,84.0 200.7,84.0 196.0,84.0 191.3,84.0 186.7,84.0 182.0,84.0 177.3,84.0 172.7,84.0 168.0,84.0 163.3,84.0 158.7,84.0 154.0,84.0 149.3,84.0 144.7,84.0 140.0,84.0 135.3,84.0 130.7,84.0 126.0,89.6 121.3,98.8 116.7,115.5 112.0,130.3 107.3,150.7 102.7,167.3 98.0,200.7 93.3,234.0 88.7,274.7 84.0,292.3 79.3,310.2 74.7,322.9 70.0,344.0" fill="#34d399" fill-opacity="0.85"/>
<polygon points="70.0,297.3 74.7,284.0 79.3,276.9 84.0,263.2 88.7,248.8 93.3,211.8 98.0,191.4 102.7,165.5 107.3,150.7 112.0,130.3 116.7,115.5 121.3,98.8 126.0,89.6 130.7,84.0 135.3,84.0 140.0,84.0 144.7,84.0 149.3,84.0 154.0,84.0 158.7,84.0 163.3,84.0 168.0,84.0 172.7,84.0 177.3,84.0 182.0,84.0 186.7,84.0 191.3,84.0 196.0,84.0 200.7,84.0 205.3,84.0 210.0,84.0 214.7,84.0 219.3,84.0 224.0,84.0 228.7,84.0 233.3,84.0 238.0,84.0 242.7,84.0 247.3,84.0 252.0,84.0 256.7,84.0 261.3,84.0 266.0,84.0 270.7,84.0 275.3,84.0 280.0,84.0 284.7,84.0 289.3,84.0 294.0,84.0 298.7,84.0 303.3,84.0 308.0,84.0 312.7,84.0 317.3,84.0 322.0,84.0 326.7,84.0 331.3,84.0 336.0,84.0 340.7,84.0 345.3,84.0 350.0,84.0 354.7,84.0 359.3,84.0 364.0,84.0 368.7,84.0 373.3,84.0 378.0,84.0 382.7,84.0 387.3,84.0 392.0,84.0 396.7,84.0 401.3,84.0 406.0,84.0 410.7,84.0 415.3,84.0 420.0,84.0 424.7,84.0 429.3,84.0 434.0,84.0 438.7,84.0 443.3,84.0 448.0,84.0 452.7,84.0 457.3,84.0 462.0,84.0 466.7,84.0 471.3,84.0 476.0,84.0 480.7,84.0 485.3,84.0 490.0,84.0 494.7,84.0 499.3,84.0 504.0,84.0 508.7,84.0 513.3,84.0 518.0,84.0 522.7,84.0 527.3,84.0 532.0,84.0 536.7,84.0 541.3,84.0 546.0,84.0 550.7,84.0 555.3,84.0 560.0,84.0 564.7,84.0 569.3,84.0 574.0,84.0 578.7,84.0 583.3,84.0 588.0,84.0 592.7,84.0 597.3,84.0 602.0,84.0 606.7,84.0 611.3,84.0 616.0,84.0 620.7,84.0 625.3,84.0 630.0,84.0 634.7,84.0 639.3,84.0 644.0,84.0 648.7,84.0 653.3,84.0 658.0,84.0 662.7,84.0 667.3,84.0 672.0,84.0 676.7,84.0 681.3,84.0 686.0,84.0 690.7,84.0 695.3,84.0 700.0,84.0 704.7,84.0 709.3,84.0 714.0,84.0 718.7,84.0 723.3,84.0 728.0,84.0 732.7,84.0 737.3,84.0 742.0,84.0 746.7,84.0 751.3,84.0 756.0,84.0 760.7,84.0 765.3,84.0 770.0,84.0 770.0,84.0 765.3,84.0 760.7,84.0 756.0,84.0 751.3,84.0 746.7,84.0 742.0,84.0 737.3,84.0 732.7,84.0 728.0,84.0 723.3,84.0 718.7,84.0 714.0,84.0 709.3,84.0 704.7,84.0 700.0,84.0 695.3,84.0 690.7,84.0 686.0,84.0 681.3,84.0 676.7,84.0 672.0,84.0 667.3,84.0 662.7,84.0 658.0,84.0 653.3,84.0 648.7,84.0 644.0,84.0 639.3,84.0 634.7,84.0 630.0,84.0 625.3,84.0 620.7,84.0 616.0,84.0 611.3,84.0 606.7,84.0 602.0,84.0 597.3,84.0 592.7,84.0 588.0,84.0 583.3,84.0 578.7,84.0 574.0,84.0 569.3,84.0 564.7,84.0 560.0,84.0 555.3,84.0 550.7,84.0 546.0,84.0 541.3,84.0 536.7,84.0 532.0,84.0 527.3,84.0 522.7,84.0 518.0,84.0 513.3,84.0 508.7,84.0 504.0,84.0 499.3,84.0 494.7,84.0 490.0,84.0 485.3,84.0 480.7,84.0 476.0,84.0 471.3,84.0 466.7,84.0 462.0,84.0 457.3,84.0 452.7,84.0 448.0,84.0 443.3,84.0 438.7,84.0 434.0,84.0 429.3,84.0 424.7,84.0 420.0,84.0 415.3,84.0 410.7,84.0 406.0,84.0 401.3,84.0 396.7,84.0 392.0,84.0 387.3,84.0 382.7,84.0 378.0,84.0 373.3,84.0 368.7,84.0 364.0,84.0 359.3,84.0 354.7,84.0 350.0,84.0 345.3,84.0 340.7,84.0 336.0,84.0 331.3,84.0 326.7,84.0 322.0,84.0 317.3,84.0 312.7,84.0 308.0,84.0 303.3,84.0 298.7,84.0 294.0,84.0 289.3,84.0 284.7,84.0 280.0,84.0 275.3,84.0 270.7,84.0 266.0,84.0 261.3,84.0 256.7,84.0 252.0,84.0 247.3,84.0 242.7,84.0 238.0,84.0 233.3,84.0 228.7,84.0 224.0,84.0 219.3,84.0 214.7,84.0 210.0,84.0 205.3,84.0 200.7,84.0 196.0,84.0 191.3,84.0 186.7,84.0 182.0,84.0 177.3,84.0 172.7,84.0 168.0,84.0 163.3,84.0 158.7,84.0 154.0,84.0 149.3,84.0 144.7,84.0 140.0,84.0 135.3,84.0 130.7,84.0 126.0,89.6 121.3,98.8 116.7,115.5 112.0,130.3 107.3,150.7 102.7,167.3 98.0,198.8 93.3,222.9 88.7,261.8 84.0,277.8 79.3,293.5 74.7,303.4 70.0,320.7" fill="#fbbf24" fill-opacity="0.85"/>
<polygon points="70.0,270.7 74.7,261.8 79.3,257.8 84.0,246.5 88.7,234.0 93.3,198.8 98.0,189.6 102.7,165.5 107.3,150.7 112.0,130.3 116.7,115.5 121.3,98.8 126.0,89.6 130.7,84.0 135.3,84.0 140.0,84.0 144.7,84.0 149.3,84.0 154.0,84.0 158.7,84.0 163.3,84.0 168.0,84.0 172.7,84.0 177.3,84.0 182.0,84.0 186.7,84.0 191.3,84.0 196.0,84.0 200.7,84.0 205.3,84.0 210.0,84.0 214.7,84.0 219.3,84.0 224.0,84.0 228.7,84.0 233.3,84.0 238.0,84.0 242.7,84.0 247.3,84.0 252.0,84.0 256.7,84.0 261.3,84.0 266.0,84.0 270.7,84.0 275.3,84.0 280.0,84.0 284.7,84.0 289.3,84.0 294.0,84.0 298.7,84.0 303.3,84.0 308.0,84.0 312.7,84.0 317.3,84.0 322.0,84.0 326.7,84.0 331.3,84.0 336.0,84.0 340.7,84.0 345.3,84.0 350.0,84.0 354.7,84.0 359.3,84.0 364.0,84.0 368.7,84.0 373.3,84.0 378.0,84.0 382.7,84.0 387.3,84.0 392.0,84.0 396.7,84.0 401.3,84.0 406.0,84.0 410.7,84.0 415.3,84.0 420.0,84.0 424.7,84.0 429.3,84.0 434.0,84.0 438.7,84.0 443.3,84.0 448.0,84.0 452.7,84.0 457.3,84.0 462.0,84.0 466.7,84.0 471.3,84.0 476.0,84.0 480.7,84.0 485.3,84.0 490.0,84.0 494.7,84.0 499.3,84.0 504.0,84.0 508.7,84.0 513.3,84.0 518.0,84.0 522.7,84.0 527.3,84.0 532.0,84.0 536.7,84.0 541.3,84.0 546.0,84.0 550.7,84.0 555.3,84.0 560.0,84.0 564.7,84.0 569.3,84.0 574.0,84.0 578.7,84.0 583.3,84.0 588.0,84.0 592.7,84.0 597.3,84.0 602.0,84.0 606.7,84.0 611.3,84.0 616.0,84.0 620.7,84.0 625.3,84.0 630.0,84.0 634.7,84.0 639.3,84.0 644.0,84.0 648.7,84.0 653.3,84.0 658.0,84.0 662.7,84.0 667.3,84.0 672.0,84.0 676.7,84.0 681.3,84.0 686.0,84.0 690.7,84.0 695.3,84.0 700.0,84.0 704.7,84.0 709.3,84.0 714.0,84.0 718.7,84.0 723.3,84.0 728.0,84.0 732.7,84.0 737.3,84.0 742.0,84.0 746.7,84.0 751.3,84.0 756.0,84.0 760.7,84.0 765.3,84.0 770.0,84.0 770.0,84.0 765.3,84.0 760.7,84.0 756.0,84.0 751.3,84.0 746.7,84.0 742.0,84.0 737.3,84.0 732.7,84.0 728.0,84.0 723.3,84.0 718.7,84.0 714.0,84.0 709.3,84.0 704.7,84.0 700.0,84.0 695.3,84.0 690.7,84.0 686.0,84.0 681.3,84.0 676.7,84.0 672.0,84.0 667.3,84.0 662.7,84.0 658.0,84.0 653.3,84.0 648.7,84.0 644.0,84.0 639.3,84.0 634.7,84.0 630.0,84.0 625.3,84.0 620.7,84.0 616.0,84.0 611.3,84.0 606.7,84.0 602.0,84.0 597.3,84.0 592.7,84.0 588.0,84.0 583.3,84.0 578.7,84.0 574.0,84.0 569.3,84.0 564.7,84.0 560.0,84.0 555.3,84.0 550.7,84.0 546.0,84.0 541.3,84.0 536.7,84.0 532.0,84.0 527.3,84.0 522.7,84.0 518.0,84.0 513.3,84.0 508.7,84.0 504.0,84.0 499.3,84.0 494.7,84.0 490.0,84.0 485.3,84.0 480.7,84.0 476.0,84.0 471.3,84.0 466.7,84.0 462.0,84.0 457.3,84.0 452.7,84.0 448.0,84.0 443.3,84.0 438.7,84.0 434.0,84.0 429.3,84.0 424.7,84.0 420.0,84.0 415.3,84.0 410.7,84.0 406.0,84.0 401.3,84.0 396.7,84.0 392.0,84.0 387.3,84.0 382.7,84.0 378.0,84.0 373.3,84.0 368.7,84.0 364.0,84.0 359.3,84.0 354.7,84.0 350.0,84.0 345.3,84.0 340.7,84.0 336.0,84.0 331.3,84.0 326.7,84.0 322.0,84.0 317.3,84.0 312.7,84.0 308.0,84.0 303.3,84.0 298.7,84.0 294.0,84.0 289.3,84.0 284.7,84.0 280.0,84.0 275.3,84.0 270.7,84.0 266.0,84.0 261.3,84.0 256.7,84.0 252.0,84.0 247.3,84.0 242.7,84.0 238.0,84.0 233.3,84.0 228.7,84.0 224.0,84.0 219.3,84.0 214.7,84.0 210.0,84.0 205.3,84.0 200.7,84.0 196.0,84.0 191.3,84.0 186.7,84.0 182.0,84.0 177.3,84.0 172.7,84.0 168.0,84.0 163.3,84.0 158.7,84.0 154.0,84.0 149.3,84.0 144.7,84.0 140.0,84.0 135.3,84.0 130.7,84.0 126.0,89.6 121.3,98.8 116.7,115.5 112.0,130.3 107.3,150.7 102.7,165.5 98.0,191.4 93.3,211.8 88.7,248.8 84.0,263.2 79.3,276.9 74.7,284.0 70.0,297.3" fill="#a78bfa" fill-opacity="0.85"/>
<polygon points="70.0,230.7 74.7,228.4 79.3,229.2 84.0,221.5 88.7,211.8 93.3,178.4 98.0,171.0 102.7,156.2 107.3,145.1 112.0,130.3 116.7,115.5 121.3,98.8 126.0,89.6 130.7,84.0 135.3,84.0 140.0,84.0 144.7,84.0 149.3,84.0 154.0,84.0 158.7,84.0 163.3,84.0 168.0,84.0 172.7,84.0 177.3,84.0 182.0,84.0 186.7,84.0 191.3,84.0 196.0,84.0 200.7,84.0 205.3,84.0 210.0,84.0 214.7,84.0 219.3,84.0 224.0,84.0 228.7,84.0 233.3,84.0 238.0,84.0 242.7,84.0 247.3,84.0 252.0,84.0 256.7,84.0 261.3,84.0 266.0,84.0 270.7,84.0 275.3,84.0 280.0,84.0 284.7,84.0 289.3,84.0 294.0,84.0 298.7,84.0 303.3,84.0 308.0,84.0 312.7,84.0 317.3,84.0 322.0,84.0 326.7,84.0 331.3,84.0 336.0,84.0 340.7,84.0 345.3,84.0 350.0,84.0 354.7,84.0 359.3,84.0 364.0,84.0 368.7,84.0 373.3,84.0 378.0,84.0 382.7,84.0 387.3,84.0 392.0,84.0 396.7,84.0 401.3,84.0 406.0,84.0 410.7,84.0 415.3,84.0 420.0,84.0 424.7,84.0 429.3,84.0 434.0,84.0 438.7,84.0 443.3,84.0 448.0,84.0 452.7,84.0 457.3,84.0 462.0,84.0 466.7,84.0 471.3,84.0 476.0,84.0 480.7,84.0 485.3,84.0 490.0,84.0 494.7,84.0 499.3,84.0 504.0,84.0 508.7,84.0 513.3,84.0 518.0,84.0 522.7,84.0 527.3,84.0 532.0,84.0 536.7,84.0 541.3,84.0 546.0,84.0 550.7,84.0 555.3,84.0 560.0,84.0 564.7,84.0 569.3,84.0 574.0,84.0 578.7,84.0 583.3,84.0 588.0,84.0 592.7,84.0 597.3,84.0 602.0,84.0 606.7,84.0 611.3,84.0 616.0,84.0 620.7,84.0 625.3,84.0 630.0,84.0 634.7,84.0 639.3,84.0 644.0,84.0 648.7,84.0 653.3,84.0 658.0,84.0 662.7,84.0 667.3,84.0 672.0,84.0 676.7,84.0 681.3,84.0 686.0,84.0 690.7,84.0 695.3,84.0 700.0,84.0 704.7,84.0 709.3,84.0 714.0,84.0 718.7,84.0 723.3,84.0 728.0,84.0 732.7,84.0 737.3,84.0 742.0,84.0 746.7,84.0 751.3,84.0 756.0,84.0 760.7,84.0 765.3,84.0 770.0,84.0 770.0,84.0 765.3,84.0 760.7,84.0 756.0,84.0 751.3,84.0 746.7,84.0 742.0,84.0 737.3,84.0 732.7,84.0 728.0,84.0 723.3,84.0 718.7,84.0 714.0,84.0 709.3,84.0 704.7,84.0 700.0,84.0 695.3,84.0 690.7,84.0 686.0,84.0 681.3,84.0 676.7,84.0 672.0,84.0 667.3,84.0 662.7,84.0 658.0,84.0 653.3,84.0 648.7,84.0 644.0,84.0 639.3,84.0 634.7,84.0 630.0,84.0 625.3,84.0 620.7,84.0 616.0,84.0 611.3,84.0 606.7,84.0 602.0,84.0 597.3,84.0 592.7,84.0 588.0,84.0 583.3,84.0 578.7,84.0 574.0,84.0 569.3,84.0 564.7,84.0 560.0,84.0 555.3,84.0 550.7,84.0 546.0,84.0 541.3,84.0 536.7,84.0 532.0,84.0 527.3,84.0 522.7,84.0 518.0,84.0 513.3,84.0 508.7,84.0 504.0,84.0 499.3,84.0 494.7,84.0 490.0,84.0 485.3,84.0 480.7,84.0 476.0,84.0 471.3,84.0 466.7,84.0 462.0,84.0 457.3,84.0 452.7,84.0 448.0,84.0 443.3,84.0 438.7,84.0 434.0,84.0 429.3,84.0 424.7,84.0 420.0,84.0 415.3,84.0 410.7,84.0 406.0,84.0 401.3,84.0 396.7,84.0 392.0,84.0 387.3,84.0 382.7,84.0 378.0,84.0 373.3,84.0 368.7,84.0 364.0,84.0 359.3,84.0 354.7,84.0 350.0,84.0 345.3,84.0 340.7,84.0 336.0,84.0 331.3,84.0 326.7,84.0 322.0,84.0 317.3,84.0 312.7,84.0 308.0,84.0 303.3,84.0 298.7,84.0 294.0,84.0 289.3,84.0 284.7,84.0 280.0,84.0 275.3,84.0 270.7,84.0 266.0,84.0 261.3,84.0 256.7,84.0 252.0,84.0 247.3,84.0 242.7,84.0 238.0,84.0 233.3,84.0 228.7,84.0 224.0,84.0 219.3,84.0 214.7,84.0 210.0,84.0 205.3,84.0 200.7,84.0 196.0,84.0 191.3,84.0 186.7,84.0 182.0,84.0 177.3,84.0 172.7,84.0 168.0,84.0 163.3,84.0 158.7,84.0 154.0,84.0 149.3,84.0 144.7,84.0 140.0,84.0 135.3,84.0 130.7,84.0 126.0,89.6 121.3,98.8 116.7,115.5 112.0,130.3 107.3,150.7 102.7,165.5 98.0,189.6 93.3,198.8 88.7,234.0 84.0,246.5 79.3,257.8 74.7,261.8 70.0,270.7" fill="#fb7185" fill-opacity="0.85"/>
<polygon points="70.0,167.3 74.7,156.2 79.3,145.9 84.0,138.2 88.7,132.1 93.3,100.7 98.0,98.8 102.7,93.3 107.3,91.4 112.0,85.9 116.7,84.0 121.3,84.0 126.0,84.0 130.7,84.0 135.3,84.0 140.0,84.0 144.7,84.0 149.3,84.0 154.0,84.0 158.7,84.0 163.3,84.0 168.0,84.0 172.7,84.0 177.3,84.0 182.0,84.0 186.7,84.0 191.3,84.0 196.0,84.0 200.7,84.0 205.3,84.0 210.0,84.0 214.7,84.0 219.3,84.0 224.0,84.0 228.7,84.0 233.3,84.0 238.0,84.0 242.7,84.0 247.3,84.0 252.0,84.0 256.7,84.0 261.3,84.0 266.0,84.0 270.7,84.0 275.3,84.0 280.0,84.0 284.7,84.0 289.3,84.0 294.0,84.0 298.7,84.0 303.3,84.0 308.0,84.0 312.7,84.0 317.3,84.0 322.0,84.0 326.7,84.0 331.3,84.0 336.0,84.0 340.7,84.0 345.3,84.0 350.0,84.0 354.7,84.0 359.3,84.0 364.0,84.0 368.7,84.0 373.3,84.0 378.0,84.0 382.7,84.0 387.3,84.0 392.0,84.0 396.7,84.0 401.3,84.0 406.0,84.0 410.7,84.0 415.3,84.0 420.0,84.0 424.7,84.0 429.3,84.0 434.0,84.0 438.7,84.0 443.3,84.0 448.0,84.0 452.7,84.0 457.3,84.0 462.0,84.0 466.7,84.0 471.3,84.0 476.0,84.0 480.7,84.0 485.3,84.0 490.0,84.0 494.7,84.0 499.3,84.0 504.0,84.0 508.7,84.0 513.3,84.0 518.0,84.0 522.7,84.0 527.3,84.0 532.0,84.0 536.7,84.0 541.3,84.0 546.0,84.0 550.7,84.0 555.3,84.0 560.0,84.0 564.7,84.0 569.3,84.0 574.0,84.0 578.7,84.0 583.3,84.0 588.0,84.0 592.7,84.0 597.3,84.0 602.0,84.0 606.7,84.0 611.3,84.0 616.0,84.0 620.7,84.0 625.3,84.0 630.0,84.0 634.7,84.0 639.3,84.0 644.0,84.0 648.7,84.0 653.3,84.0 658.0,84.0 662.7,84.0 667.3,84.0 672.0,84.0 676.7,84.0 681.3,84.0 686.0,84.0 690.7,84.0 695.3,84.0 700.0,84.0 704.7,84.0 709.3,84.0 714.0,84.0 718.7,84.0 723.3,84.0 728.0,84.0 732.7,84.0 737.3,84.0 742.0,84.0 746.7,84.0 751.3,84.0 756.0,84.0 760.7,84.0 765.3,84.0 770.0,84.0 770.0,84.0 765.3,84.0 760.7,84.0 756.0,84.0 751.3,84.0 746.7,84.0 742.0,84.0 737.3,84.0 732.7,84.0 728.0,84.0 723.3,84.0 718.7,84.0 714.0,84.0 709.3,84.0 704.7,84.0 700.0,84.0 695.3,84.0 690.7,84.0 686.0,84.0 681.3,84.0 676.7,84.0 672.0,84.0 667.3,84.0 662.7,84.0 658.0,84.0 653.3,84.0 648.7,84.0 644.0,84.0 639.3,84.0 634.7,84.0 630.0,84.0 625.3,84.0 620.7,84.0 616.0,84.0 611.3,84.0 606.7,84.0 602.0,84.0 597.3,84.0 592.7,84.0 588.0,84.0 583.3,84.0 578.7,84.0 574.0,84.0 569.3,84.0 564.7,84.0 560.0,84.0 555.3,84.0 550.7,84.0 546.0,84.0 541.3,84.0 536.7,84.0 532.0,84.0 527.3,84.0 522.7,84.0 518.0,84.0 513.3,84.0 508.7,84.0 504.0,84.0 499.3,84.0 494.7,84.0 490.0,84.0 485.3,84.0 480.7,84.0 476.0,84.0 471.3,84.0 466.7,84.0 462.0,84.0 457.3,84.0 452.7,84.0 448.0,84.0 443.3,84.0 438.7,84.0 434.0,84.0 429.3,84.0 424.7,84.0 420.0,84.0 415.3,84.0 410.7,84.0 406.0,84.0 401.3,84.0 396.7,84.0 392.0,84.0 387.3,84.0 382.7,84.0 378.0,84.0 373.3,84.0 368.7,84.0 364.0,84.0 359.3,84.0 354.7,84.0 350.0,84.0 345.3,84.0 340.7,84.0 336.0,84.0 331.3,84.0 326.7,84.0 322.0,84.0 317.3,84.0 312.7,84.0 308.0,84.0 303.3,84.0 298.7,84.0 294.0,84.0 289.3,84.0 284.7,84.0 280.0,84.0 275.3,84.0 270.7,84.0 266.0,84.0 261.3,84.0 256.7,84.0 252.0,84.0 247.3,84.0 242.7,84.0 238.0,84.0 233.3,84.0 228.7,84.0 224.0,84.0 219.3,84.0 214.7,84.0 210.0,84.0 205.3,84.0 200.7,84.0 196.0,84.0 191.3,84.0 186.7,84.0 182.0,84.0 177.3,84.0 172.7,84.0 168.0,84.0 163.3,84.0 158.7,84.0 154.0,84.0 149.3,84.0 144.7,84.0 140.0,84.0 135.3,84.0 130.7,84.0 126.0,89.6 121.3,98.8 116.7,115.5 112.0,130.3 107.3,145.1 102.7,156.2 98.0,171.0 93.3,178.4 88.7,211.8 84.0,221.5 79.3,229.2 74.7,228.4 70.0,230.7" fill="#22d3ee" fill-opacity="0.85"/>
<polygon points="70.0,137.3 74.7,128.4 79.3,122.1 84.0,117.3 88.7,113.6 93.3,84.0 98.0,84.0 102.7,84.0 107.3,84.0 112.0,84.0 116.7,84.0 121.3,84.0 126.0,84.0 130.7,84.0 135.3,84.0 140.0,84.0 144.7,84.0 149.3,84.0 154.0,84.0 158.7,84.0 163.3,84.0 168.0,84.0 172.7,84.0 177.3,84.0 182.0,84.0 186.7,84.0 191.3,84.0 196.0,84.0 200.7,84.0 205.3,84.0 210.0,84.0 214.7,84.0 219.3,84.0 224.0,84.0 228.7,84.0 233.3,84.0 238.0,84.0 242.7,84.0 247.3,84.0 252.0,84.0 256.7,84.0 261.3,84.0 266.0,84.0 270.7,84.0 275.3,84.0 280.0,84.0 284.7,84.0 289.3,84.0 294.0,84.0 298.7,84.0 303.3,84.0 308.0,84.0 312.7,84.0 317.3,84.0 322.0,84.0 326.7,84.0 331.3,84.0 336.0,84.0 340.7,84.0 345.3,84.0 350.0,84.0 354.7,84.0 359.3,84.0 364.0,84.0 368.7,84.0 373.3,84.0 378.0,84.0 382.7,84.0 387.3,84.0 392.0,84.0 396.7,84.0 401.3,84.0 406.0,84.0 410.7,84.0 415.3,84.0 420.0,84.0 424.7,84.0 429.3,84.0 434.0,84.0 438.7,84.0 443.3,84.0 448.0,84.0 452.7,84.0 457.3,84.0 462.0,84.0 466.7,84.0 471.3,84.0 476.0,84.0 480.7,84.0 485.3,84.0 490.0,84.0 494.7,84.0 499.3,84.0 504.0,84.0 508.7,84.0 513.3,84.0 518.0,84.0 522.7,84.0 527.3,84.0 532.0,84.0 536.7,84.0 541.3,84.0 546.0,84.0 550.7,84.0 555.3,84.0 560.0,84.0 564.7,84.0 569.3,84.0 574.0,84.0 578.7,84.0 583.3,84.0 588.0,84.0 592.7,84.0 597.3,84.0 602.0,84.0 606.7,84.0 611.3,84.0 616.0,84.0 620.7,84.0 625.3,84.0 630.0,84.0 634.7,84.0 639.3,84.0 644.0,84.0 648.7,84.0 653.3,84.0 658.0,84.0 662.7,84.0 667.3,84.0 672.0,84.0 676.7,84.0 681.3,84.0 686.0,84.0 690.7,84.0 695.3,84.0 700.0,84.0 704.7,84.0 709.3,84.0 714.0,84.0 718.7,84.0 723.3,84.0 728.0,84.0 732.7,84.0 737.3,84.0 742.0,84.0 746.7,84.0 751.3,84.0 756.0,84.0 760.7,84.0 765.3,84.0 770.0,84.0 770.0,84.0 765.3,84.0 760.7,84.0 756.0,84.0 751.3,84.0 746.7,84.0 742.0,84.0 737.3,84.0 732.7,84.0 728.0,84.0 723.3,84.0 718.7,84.0 714.0,84.0 709.3,84.0 704.7,84.0 700.0,84.0 695.3,84.0 690.7,84.0 686.0,84.0 681.3,84.0 676.7,84.0 672.0,84.0 667.3,84.0 662.7,84.0 658.0,84.0 653.3,84.0 648.7,84.0 644.0,84.0 639.3,84.0 634.7,84.0 630.0,84.0 625.3,84.0 620.7,84.0 616.0,84.0 611.3,84.0 606.7,84.0 602.0,84.0 597.3,84.0 592.7,84.0 588.0,84.0 583.3,84.0 578.7,84.0 574.0,84.0 569.3,84.0 564.7,84.0 560.0,84.0 555.3,84.0 550.7,84.0 546.0,84.0 541.3,84.0 536.7,84.0 532.0,84.0 527.3,84.0 522.7,84.0 518.0,84.0 513.3,84.0 508.7,84.0 504.0,84.0 499.3,84.0 494.7,84.0 490.0,84.0 485.3,84.0 480.7,84.0 476.0,84.0 471.3,84.0 466.7,84.0 462.0,84.0 457.3,84.0 452.7,84.0 448.0,84.0 443.3,84.0 438.7,84.0 434.0,84.0 429.3,84.0 424.7,84.0 420.0,84.0 415.3,84.0 410.7,84.0 406.0,84.0 401.3,84.0 396.7,84.0 392.0,84.0 387.3,84.0 382.7,84.0 378.0,84.0 373.3,84.0 368.7,84.0 364.0,84.0 359.3,84.0 354.7,84.0 350.0,84.0 345.3,84.0 340.7,84.0 336.0,84.0 331.3,84.0 326.7,84.0 322.0,84.0 317.3,84.0 312.7,84.0 308.0,84.0 303.3,84.0 298.7,84.0 294.0,84.0 289.3,84.0 284.7,84.0 280.0,84.0 275.3,84.0 270.7,84.0 266.0,84.0 261.3,84.0 256.7,84.0 252.0,84.0 247.3,84.0 242.7,84.0 238.0,84.0 233.3,84.0 228.7,84.0 224.0,84.0 219.3,84.0 214.7,84.0 210.0,84.0 205.3,84.0 200.7,84.0 196.0,84.0 191.3,84.0 186.7,84.0 182.0,84.0 177.3,84.0 172.7,84.0 168.0,84.0 163.3,84.0 158.7,84.0 154.0,84.0 149.3,84.0 144.7,84.0 140.0,84.0 135.3,84.0 130.7,84.0 126.0,84.0 121.3,84.0 116.7,84.0 112.0,85.9 107.3,91.4 102.7,93.3 98.0,98.8 93.3,100.7 88.7,132.1 84.0,138.2 79.3,145.9 74.7,156.2 70.0,167.3" fill="#a3e635" fill-opacity="0.85"/>
<polygon points="70.0,84.0 74.7,84.0 79.3,84.0 84.0,84.0 88.7,84.0 93.3,84.0 98.0,84.0 102.7,84.0 107.3,84.0 112.0,84.0 116.7,84.0 121.3,84.0 126.0,84.0 130.7,84.0 135.3,84.0 140.0,84.0 144.7,84.0 149.3,84.0 154.0,84.0 158.7,84.0 163.3,84.0 168.0,84.0 172.7,84.0 177.3,84.0 182.0,84.0 186.7,84.0 191.3,84.0 196.0,84.0 200.7,84.0 205.3,84.0 210.0,84.0 214.7,84.0 219.3,84.0 224.0,84.0 228.7,84.0 233.3,84.0 238.0,84.0 242.7,84.0 247.3,84.0 252.0,84.0 256.7,84.0 261.3,84.0 266.0,84.0 270.7,84.0 275.3,84.0 280.0,84.0 284.7,84.0 289.3,84.0 294.0,84.0 298.7,84.0 303.3,84.0 308.0,84.0 312.7,84.0 317.3,84.0 322.0,84.0 326.7,84.0 331.3,84.0 336.0,84.0 340.7,84.0 345.3,84.0 350.0,84.0 354.7,84.0 359.3,84.0 364.0,84.0 368.7,84.0 373.3,84.0 378.0,84.0 382.7,84.0 387.3,84.0 392.0,84.0 396.7,84.0 401.3,84.0 406.0,84.0 410.7,84.0 415.3,84.0 420.0,84.0 424.7,84.0 429.3,84.0 434.0,84.0 438.7,84.0 443.3,84.0 448.0,84.0 452.7,84.0 457.3,84.0 462.0,84.0 466.7,84.0 471.3,84.0 476.0,84.0 480.7,84.0 485.3,84.0 490.0,84.0 494.7,84.0 499.3,84.0 504.0,84.0 508.7,84.0 513.3,84.0 518.0,84.0 522.7,84.0 527.3,84.0 532.0,84.0 536.7,84.0 541.3,84.0 546.0,84.0 550.7,84.0 555.3,84.0 560.0,84.0 564.7,84.0 569.3,84.0 574.0,84.0 578.7,84.0 583.3,84.0 588.0,84.0 592.7,84.0 597.3,84.0 602.0,84.0 606.7,84.0 611.3,84.0 616.0,84.0 620.7,84.0 625.3,84.0 630.0,84.0 634.7,84.0 639.3,84.0 644.0,84.0 648.7,84.0 653.3,84.0 658.0,84.0 662.7,84.0 667.3,84.0 672.0,84.0 676.7,84.0 681.3,84.0 686.0,84.0 690.7,84.0 695.3,84.0 700.0,84.0 704.7,84.0 709.3,84.0 714.0,84.0 718.7,84.0 723.3,84.0 728.0,84.0 732.7,84.0 737.3,84.0 742.0,84.0 746.7,84.0 751.3,84.0 756.0,84.0 760.7,84.0 765.3,84.0 770.0,84.0 770.0,84.0 765.3,84.0 760.7,84.0 756.0,84.0 751.3,84.0 746.7,84.0 742.0,84.0 737.3,84.0 732.7,84.0 728.0,84.0 723.3,84.0 718.7,84.0 714.0,84.0 709.3,84.0 704.7,84.0 700.0,84.0 695.3,84.0 690.7,84.0 686.0,84.0 681.3,84.0 676.7,84.0 672.0,84.0 667.3,84.0 662.7,84.0 658.0,84.0 653.3,84.0 648.7,84.0 644.0,84.0 639.3,84.0 634.7,84.0 630.0,84.0 625.3,84.0 620.7,84.0 616.0,84.0 611.3,84.0 606.7,84.0 602.0,84.0 597.3,84.0 592.7,84.0 588.0,84.0 583.3,84.0 578.7,84.0 574.0,84.0 569.3,84.0 564.7,84.0 560.0,84.0 555.3,84.0 550.7,84.0 546.0,84.0 541.3,84.0 536.7,84.0 532.0,84.0 527.3,84.0 522.7,84.0 518.0,84.0 513.3,84.0 508.7,84.0 504.0,84.0 499.3,84.0 494.7,84.0 490.0,84.0 485.3,84.0 480.7,84.0 476.0,84.0 471.3,84.0 466.7,84.0 462.0,84.0 457.3,84.0 452.7,84.0 448.0,84.0 443.3,84.0 438.7,84.0 434.0,84.0 429.3,84.0 424.7,84.0 420.0,84.0 415.3,84.0 410.7,84.0 406.0,84.0 401.3,84.0 396.7,84.0 392.0,84.0 387.3,84.0 382.7,84.0 378.0,84.0 373.3,84.0 368.7,84.0 364.0,84.0 359.3,84.0 354.7,84.0 350.0,84.0 345.3,84.0 340.7,84.0 336.0,84.0 331.3,84.0 326.7,84.0 322.0,84.0 317.3,84.0 312.7,84.0 308.0,84.0 303.3,84.0 298.7,84.0 294.0,84.0 289.3,84.0 284.7,84.0 280.0,84.0 275.3,84.0 270.7,84.0 266.0,84.0 261.3,84.0 256.7,84.0 252.0,84.0 247.3,84.0 242.7,84.0 238.0,84.0 233.3,84.0 228.7,84.0 224.0,84.0 219.3,84.0 214.7,84.0 210.0,84.0 205.3,84.0 200.7,84.0 196.0,84.0 191.3,84.0 186.7,84.0 182.0,84.0 177.3,84.0 172.7,84.0 168.0,84.0 163.3,84.0 158.7,84.0 154.0,84.0 149.3,84.0 144.7,84.0 140.0,84.0 135.3,84.0 130.7,84.0 126.0,84.0 121.3,84.0 116.7,84.0 112.0,84.0 107.3,84.0 102.7,84.0 98.0,84.0 93.3,84.0 88.7,113.6 84.0,117.3 79.3,122.1 74.7,128.4 70.0,137.3" fill="#475569" fill-opacity="0.85"/>
</g>
<text x="70.0" y="502.0" fill="#6b7280" font-size="10" text-anchor="middle">0</text>
<text x="247.3" y="502.0" fill="#6b7280" font-size="10" text-anchor="middle">38</text>
<text x="420.0" y="502.0" fill="#6b7280" font-size="10" text-anchor="middle">75</text>
<text x="592.7" y="502.0" fill="#6b7280" font-size="10" text-anchor="middle">112</text>
<text x="770.0" y="502.0" fill="#6b7280" font-size="10" text-anchor="middle">150</text>
<text x="420" y="524" fill="#9ca3af" font-size="12" text-anchor="middle">generation</text>
<rect x="786" y="75" width="12" height="12" fill="#60a5fa" fill-opacity="0.85"/>
<text x="804" y="85" fill="#cbd5e1" font-size="11">furuse-kazufumi 68%</text>
<rect x="786" y="94" width="12" height="12" fill="#f472b6" fill-opacity="0.85"/>
<text x="804" y="104" fill="#cbd5e1" font-size="11">friston 32%</text>
<rect x="786" y="113" width="12" height="12" fill="#34d399" fill-opacity="0.85"/>
<text x="804" y="123" fill="#cbd5e1" font-size="11">millidge 0%</text>
<rect x="786" y="132" width="12" height="12" fill="#fbbf24" fill-opacity="0.85"/>
<text x="804" y="142" fill="#cbd5e1" font-size="11">isomura-takuya 0%</text>
<rect x="786" y="151" width="12" height="12" fill="#a78bfa" fill-opacity="0.85"/>
<text x="804" y="161" fill="#cbd5e1" font-size="11">oka-kiyoshi 0%</text>
<rect x="786" y="170" width="12" height="12" fill="#fb7185" fill-opacity="0.85"/>
<text x="804" y="180" fill="#cbd5e1" font-size="11">grothendieck 0%</text>
<rect x="786" y="189" width="12" height="12" fill="#22d3ee" fill-opacity="0.85"/>
<text x="804" y="199" fill="#cbd5e1" font-size="11">von-neumann 0%</text>
<rect x="786" y="208" width="12" height="12" fill="#a3e635" fill-opacity="0.85"/>
<text x="804" y="218" fill="#cbd5e1" font-size="11">feynman 0%</text>
<rect x="786" y="227" width="12" height="12" fill="#475569" fill-opacity="0.85"/>
<text x="804" y="237" fill="#cbd5e1" font-size="11">(random) 0%</text>
</svg>