<svg xmlns="http://www.w3.org/2000/svg" width="920" height="560" viewBox="0 0 920 560" font-family="ui-sans-serif,Segoe UI,sans-serif">
<rect width="920" height="560" fill="#0b1020"/>
<text x="70" y="30" fill="#e5e7eb" font-size="20" font-weight="700">llive persona evolution — status</text>
<text x="70" y="50" fill="#c2410c" font-size="13" font-weight="600">PROXY fitness — NOT real LLM eval  ·  gens=7  pop=24  seed=0</text>
<clipPath id="reveal"><rect x="70" y="0" width="820" height="560"><animate attributeName="width" from="0" to="820" dur="3.2s" fill="freeze"/></rect></clipPath>
<text x="70" y="62" fill="#9ca3af" font-size="12">fitness (0–1)</text>
<line x1="70" y1="320.0" x2="890" y2="320.0" stroke="#1f2937" stroke-width="1"/>
<text x="62" y="324.0" fill="#6b7280" font-size="10" text-anchor="end">0.00</text>
<line x1="70" y1="257.5" x2="890" y2="257.5" stroke="#1f2937" stroke-width="1"/>
<text x="62" y="261.5" fill="#6b7280" font-size="10" text-anchor="end">0.25</text>
<line x1="70" y1="195.0" x2="890" y2="195.0" stroke="#1f2937" stroke-width="1"/>
<text x="62" y="199.0" fill="#6b7280" font-size="10" text-anchor="end">0.50</text>
<line x1="70" y1="132.5" x2="890" y2="132.5" stroke="#1f2937" stroke-width="1"/>
<text x="62" y="136.5" fill="#6b7280" font-size="10" text-anchor="end">0.75</text>
<line x1="70" y1="70.0" x2="890" y2="70.0" stroke="#1f2937" stroke-width="1"/>
<text x="62" y="74.0" fill="#6b7280" font-size="10" text-anchor="end">1.00</text>
<text x="70" y="358" fill="#9ca3af" font-size="12">diversity (L2)</text>
<line x1="70" y1="486.0" x2="890" y2="486.0" stroke="#1f2937" stroke-width="1"/>
<text x="62" y="490.0" fill="#6b7280" font-size="10" text-anchor="end">0.00</text>
<line x1="70" y1="426.0" x2="890" y2="426.0" stroke="#1f2937" stroke-width="1"/>
<text x="62" y="430.0" fill="#6b7280" font-size="10" text-anchor="end">14.05</text>
<line x1="70" y1="366.0" x2="890" y2="366.0" stroke="#1f2937" stroke-width="1"/>
<text x="62" y="370.0" fill="#6b7280" font-size="10" text-anchor="end">28.10</text>
<text x="70.0" y="504.0" fill="#6b7280" font-size="10" text-anchor="middle">0</text>
<text x="277.7" y="504.0" fill="#6b7280" font-size="10" text-anchor="middle">38</text>
<text x="480.0" y="504.0" fill="#6b7280" font-size="10" text-anchor="middle">75</text>
<text x="682.3" y="504.0" fill="#6b7280" font-size="10" text-anchor="middle">112</text>
<text x="890.0" y="504.0" fill="#6b7280" font-size="10" text-anchor="middle">150</text>
<text x="480" y="524" fill="#9ca3af" font-size="12" text-anchor="middle">generation</text>
<g clip-path="url(#reveal)">
<polygon points="70.0,97.2 206.7,96.9 343.3,95.9 480.0,93.7 616.7,95.4 753.3,95.0 890.0,97.0 890.0,112.1 753.3,110.3 616.7,115.1 480.0,110.7 343.3,109.7 206.7,109.8 70.0,147.8" fill="#c2410c" fill-opacity="0.15"/>
<polyline points="70.0,134.3 206.7,103.3 343.3,104.5 480.0,106.2 616.7,109.8 753.3,105.8 890.0,106.5" fill="none" stroke="#60a5fa" stroke-width="1.5" stroke-opacity="0.8"/>
<polyline points="70.0,122.5 206.7,103.3 343.3,102.8 480.0,102.2 616.7,105.2 753.3,102.6 890.0,104.6" fill="none" stroke="#a78bfa" stroke-width="2"/>
<polyline points="70.0,88.8 206.7,88.8 343.3,88.8 480.0,88.8 616.7,88.8 753.3,88.8 890.0,88.8" fill="none" stroke="#c2410c" stroke-width="2.5"/>
<polyline points="70.0,366.0 206.7,441.8 343.3,468.4 480.0,477.7 616.7,483.1 753.3,469.9 890.0,482.5" fill="none" stroke="#22d3ee" stroke-width="2"/>
</g>
<rect x="640" y="68" width="12" height="3" fill="#c2410c"/>
<text x="658" y="74" fill="#9ca3af" font-size="11">best</text>
<rect x="640" y="84" width="12" height="3" fill="#a78bfa"/>
<text x="658" y="90" fill="#9ca3af" font-size="11">mean</text>
<rect x="640" y="100" width="12" height="3" fill="#60a5fa"/>
<text x="658" y="106" fill="#9ca3af" font-size="11">median</text>
<rect x="640" y="116" width="12" height="3" fill="#c2410c"/>
<text x="658" y="122" fill="#9ca3af" font-size="11">±std</text>
<rect x="640" y="132" width="12" height="3" fill="#22d3ee"/>
<text x="658" y="138" fill="#9ca3af" font-size="11">diversity</text>
</svg>