<svg xmlns="http://www.w3.org/2000/svg" width="900" height="720" viewBox="0 0 900 720" font-family="system-ui, sans-serif">
  <rect x="0" y="0" width="900" height="720" rx="14" fill="#f7f9fc" stroke="#c7d2e0" stroke-width="1.5"/>
  <text x="30" y="44" font-size="22" font-weight="700" fill="#1f3a5f">lleval/ repo skeleton 구조</text>
  <text x="30" y="68" font-size="13" fill="#5b6b7d">Apache-2.0 / Python 3.11 — promptfoo 를 wrap (fork 아님)</text>

  <!-- legend -->
  <rect x="640" y="28" width="16" height="16" rx="3" fill="#fde9c7" stroke="#e0a94a" stroke-width="1.2"/>
  <text x="662" y="41" font-size="12" fill="#5b6b7d">디렉터리</text>
  <rect x="640" y="52" width="16" height="16" rx="3" fill="#e6f0fb" stroke="#7aa6d6" stroke-width="1.2"/>
  <text x="662" y="65" font-size="12" fill="#5b6b7d">파일</text>

  <!-- tree guide lines -->
  <g stroke="#b9c4d2" stroke-width="1.4" fill="none">
    <line x1="58" y1="110" x2="58" y2="600"/>
    <line x1="96" y1="230" x2="96" y2="430"/>
    <line x1="134" y1="300" x2="134" y2="350"/>
    <line x1="134" y1="375" x2="134" y2="395"/>
    <line x1="96" y1="510" x2="96" y2="600"/>
  </g>

  <!-- ROOT -->
  <rect x="30" y="92" width="180" height="30" rx="6" fill="#fde9c7" stroke="#e0a94a" stroke-width="1.4"/>
  <text x="44" y="112" font-size="14" font-weight="700" fill="#7a5a16">lleval/</text>

  <!-- L1: pyproject.toml -->
  <line x1="58" y1="148" x2="72" y2="148" stroke="#b9c4d2" stroke-width="1.4"/>
  <rect x="72" y="133" width="150" height="30" rx="6" fill="#e6f0fb" stroke="#7aa6d6" stroke-width="1.2"/>
  <text x="84" y="153" font-size="13" fill="#1f3a5f">pyproject.toml</text>
  <text x="234" y="153" font-size="12" fill="#5b6b7d">Apache-2.0, optional extras: ci/report/trace</text>

  <!-- L1: README.md -->
  <line x1="58" y1="183" x2="72" y2="183" stroke="#b9c4d2" stroke-width="1.4"/>
  <rect x="72" y="168" width="150" height="30" rx="6" fill="#e6f0fb" stroke="#7aa6d6" stroke-width="1.2"/>
  <text x="84" y="188" font-size="13" fill="#1f3a5f">README.md</text>

  <!-- L1: LICENSE -->
  <line x1="58" y1="218" x2="72" y2="218" stroke="#b9c4d2" stroke-width="1.4"/>
  <rect x="72" y="203" width="150" height="30" rx="6" fill="#e6f0fb" stroke="#7aa6d6" stroke-width="1.2"/>
  <text x="84" y="223" font-size="13" fill="#1f3a5f">LICENSE</text>

  <!-- L1: src/lleval/ -->
  <line x1="58" y1="253" x2="72" y2="253" stroke="#b9c4d2" stroke-width="1.4"/>
  <rect x="72" y="238" width="150" height="30" rx="6" fill="#fde9c7" stroke="#e0a94a" stroke-width="1.4"/>
  <text x="84" y="258" font-size="13" font-weight="700" fill="#7a5a16">src/lleval/</text>

  <!-- L2: __init__.py -->
  <line x1="96" y1="283" x2="110" y2="283" stroke="#b9c4d2" stroke-width="1.4"/>
  <rect x="110" y="270" width="160" height="26" rx="6" fill="#e6f0fb" stroke="#7aa6d6" stroke-width="1.2"/>
  <text x="120" y="287" font-size="12.5" fill="#1f3a5f">__init__.py</text>
  <text x="282" y="287" font-size="12" fill="#5b6b7d">public API</text>

  <!-- L2: config.py -->
  <line x1="96" y1="316" x2="110" y2="316" stroke="#b9c4d2" stroke-width="1.4"/>
  <rect x="110" y="303" width="160" height="26" rx="6" fill="#e6f0fb" stroke="#7aa6d6" stroke-width="1.2"/>
  <text x="120" y="320" font-size="12.5" fill="#1f3a5f">config.py</text>
  <text x="282" y="320" font-size="12" fill="#5b6b7d">pydantic Config (5 model)</text>

  <!-- L2: runner.py -->
  <line x1="96" y1="349" x2="110" y2="349" stroke="#b9c4d2" stroke-width="1.4"/>
  <rect x="110" y="336" width="160" height="26" rx="6" fill="#e6f0fb" stroke="#7aa6d6" stroke-width="1.2"/>
  <text x="120" y="353" font-size="12.5" fill="#1f3a5f">runner.py</text>
  <text x="282" y="353" font-size="12" fill="#5b6b7d">ProgressiveMatrixRunner + Bench</text>

  <!-- L2: providers/ -->
  <line x1="96" y1="382" x2="110" y2="382" stroke="#b9c4d2" stroke-width="1.4"/>
  <rect x="110" y="369" width="160" height="26" rx="6" fill="#fde9c7" stroke="#e0a94a" stroke-width="1.4"/>
  <text x="120" y="386" font-size="12.5" font-weight="700" fill="#7a5a16">providers/</text>

  <!-- L3: __init__.py -->
  <line x1="134" y1="414" x2="148" y2="414" stroke="#b9c4d2" stroke-width="1.4"/>
  <rect x="148" y="402" width="170" height="24" rx="6" fill="#eef4fb" stroke="#9ab8dc" stroke-width="1.1"/>
  <text x="158" y="418" font-size="12" fill="#2a4a72">__init__.py</text>

  <!-- L3: promptfoo_yaml.py -->
  <line x1="134" y1="445" x2="148" y2="445" stroke="#b9c4d2" stroke-width="1.4"/>
  <rect x="148" y="433" width="170" height="24" rx="6" fill="#eef4fb" stroke="#9ab8dc" stroke-width="1.1"/>
  <text x="158" y="449" font-size="12" fill="#2a4a72">promptfoo_yaml.py</text>
  <text x="330" y="449" font-size="11.5" fill="#5b6b7d">4 backend 템플릿 (openai/mamba/rwkv/...)</text>

  <!-- L2: analyzer/ -->
  <line x1="96" y1="476" x2="110" y2="476" stroke="#b9c4d2" stroke-width="1.4"/>
  <rect x="110" y="463" width="160" height="26" rx="6" fill="#fde9c7" stroke="#e0a94a" stroke-width="1.4"/>
  <text x="120" y="480" font-size="12.5" font-weight="700" fill="#7a5a16">analyzer/</text>

  <!-- L3: honest_disclosure.py -->
  <line x1="134" y1="476" x2="134" y2="508" stroke="#b9c4d2" stroke-width="1.4"/>
  <line x1="134" y1="508" x2="148" y2="508" stroke="#b9c4d2" stroke-width="1.4"/>
  <rect x="148" y="496" width="200" height="24" rx="6" fill="#eef4fb" stroke="#9ab8dc" stroke-width="1.1"/>
  <text x="158" y="512" font-size="12" fill="#2a4a72">honest_disclosure.py</text>
  <text x="360" y="512" font-size="11.5" fill="#5b6b7d">5+1 축 이상 진단 skeleton</text>

  <!-- L2: report.py -->
  <line x1="96" y1="540" x2="110" y2="540" stroke="#b9c4d2" stroke-width="1.4"/>
  <rect x="110" y="527" width="160" height="26" rx="6" fill="#e6f0fb" stroke="#7aa6d6" stroke-width="1.2"/>
  <text x="120" y="544" font-size="12.5" fill="#1f3a5f">report.py</text>
  <text x="282" y="544" font-size="12" fill="#5b6b7d">markdown + JSON</text>

  <!-- L2: cli.py -->
  <line x1="96" y1="430" x2="96" y2="573" stroke="#b9c4d2" stroke-width="1.4"/>
  <line x1="96" y1="573" x2="110" y2="573" stroke="#b9c4d2" stroke-width="1.4"/>
  <rect x="110" y="560" width="160" height="26" rx="6" fill="#e6f0fb" stroke="#7aa6d6" stroke-width="1.2"/>
  <text x="120" y="577" font-size="12.5" fill="#1f3a5f">cli.py</text>
  <text x="282" y="577" font-size="12" fill="#5b6b7d">`lleval run config.yaml`</text>

  <!-- L1: examples/ -->
  <line x1="58" y1="615" x2="72" y2="615" stroke="#b9c4d2" stroke-width="1.4"/>
  <rect x="72" y="600" width="150" height="30" rx="6" fill="#fde9c7" stroke="#e0a94a" stroke-width="1.4"/>
  <text x="84" y="620" font-size="13" font-weight="700" fill="#7a5a16">examples/</text>

  <!-- L2: basic.yaml -->
  <line x1="96" y1="645" x2="110" y2="645" stroke="#b9c4d2" stroke-width="1.4"/>
  <rect x="110" y="633" width="160" height="24" rx="6" fill="#e6f0fb" stroke="#7aa6d6" stroke-width="1.2"/>
  <text x="120" y="649" font-size="12" fill="#1f3a5f">basic.yaml</text>
  <text x="282" y="649" font-size="11.5" fill="#5b6b7d">1 provider × 1 size × 2 prompts</text>

  <!-- L2: progressive.yaml -->
  <line x1="96" y1="615" x2="96" y2="675" stroke="#b9c4d2" stroke-width="1.4"/>
  <line x1="96" y1="675" x2="110" y2="675" stroke="#b9c4d2" stroke-width="1.4"/>
  <rect x="110" y="663" width="160" height="24" rx="6" fill="#e6f0fb" stroke="#7aa6d6" stroke-width="1.2"/>
  <text x="120" y="679" font-size="12" fill="#1f3a5f">progressive.yaml</text>
  <text x="282" y="679" font-size="11.5" fill="#5b6b7d">1 provider × 5 sizes</text>

  <!-- L2: multi_provider.yaml -->
  <line x1="96" y1="675" x2="96" y2="705" stroke="#b9c4d2" stroke-width="1.4"/>
  <line x1="96" y1="705" x2="110" y2="705" stroke="#b9c4d2" stroke-width="1.4"/>
  <rect x="110" y="693" width="160" height="24" rx="6" fill="#e6f0fb" stroke="#7aa6d6" stroke-width="1.2"/>
  <text x="120" y="709" font-size="12" fill="#1f3a5f">multi_provider.yaml</text>
  <text x="282" y="709" font-size="11.5" fill="#5b6b7d">4 provider (on-prem 3 + cloud 1) × 3 sizes</text>

  <!-- tests/unit/ -->
  <g>
    <rect x="560" y="600" width="310" height="44" rx="8" fill="#dff3e6" stroke="#5cb87f" stroke-width="1.4"/>
    <text x="576" y="620" font-size="13" font-weight="700" fill="#1f6b42">tests/unit/</text>
    <text x="576" y="638" font-size="11.5" fill="#2f7a52">20 건 녹색 (skeleton + providers + examples)</text>
  </g>
  <line x1="222" y1="615" x2="560" y2="622" stroke="#b9c4d2" stroke-width="1.4" stroke-dasharray="4 3"/>
</svg>
