<svg xmlns="http://www.w3.org/2000/svg" viewBox="0 0 960 540" width="960" height="540" font-family="'Segoe UI','Hiragino Kaku Gothic ProN','Noto Sans JP',sans-serif">
  <!-- 静的表示: authored=最終可視。SMIL不使用。赤緑の善悪対比なし。 -->
  <rect width="960" height="540" fill="#f7f9fc"/>

  <rect x="0" y="0" width="960" height="78" fill="#1f2a44"/>
  <text x="40" y="38" fill="#ffffff" font-size="25" font-weight="700">RoPE ＝ 周波数ごとの位相時計 ― 位置を回転で刻む</text>
  <text x="40" y="64" fill="#aebacc" font-size="15">次元のペアごとに回る速さ（周波数）が違い、位置が進むと各時計の針（位相）が進む。</text>

  <text x="294" y="124" fill="#1f2a44" font-size="13" font-weight="700" text-anchor="middle">次元ペア i：高周波（速い針）→ 低周波（遅い針）</text>
  <text x="110" y="181" fill="#41506a" font-size="12" text-anchor="end">位置 m=0</text>
  <text x="110" y="273" fill="#41506a" font-size="12" text-anchor="end">m=1</text>
  <text x="110" y="365" fill="#41506a" font-size="12" text-anchor="end">m=2</text>

  <circle cx="150" cy="176" r="30" fill="#ffffff" stroke="#c9d3e2" stroke-width="2"/>
  <line x1="150" y1="146" x2="150" y2="152" stroke="#c2ccd8" stroke-width="2"/>
  <line x1="150" y1="176" x2="150.00" y2="154.00" stroke="#2f6fb0" stroke-width="2.6"/>
  <circle cx="150" cy="176" r="2.6" fill="#2f6fb0"/>
  <circle cx="246" cy="176" r="30" fill="#ffffff" stroke="#c9d3e2" stroke-width="2"/>
  <line x1="246" y1="146" x2="246" y2="152" stroke="#c2ccd8" stroke-width="2"/>
  <line x1="246" y1="176" x2="246.00" y2="154.00" stroke="#2f6fb0" stroke-width="2.6"/>
  <circle cx="246" cy="176" r="2.6" fill="#2f6fb0"/>
  <circle cx="342" cy="176" r="30" fill="#ffffff" stroke="#c9d3e2" stroke-width="2"/>
  <line x1="342" y1="146" x2="342" y2="152" stroke="#c2ccd8" stroke-width="2"/>
  <line x1="342" y1="176" x2="342.00" y2="154.00" stroke="#2f6fb0" stroke-width="2.6"/>
  <circle cx="342" cy="176" r="2.6" fill="#2f6fb0"/>
  <circle cx="438" cy="176" r="30" fill="#ffffff" stroke="#c9d3e2" stroke-width="2"/>
  <line x1="438" y1="146" x2="438" y2="152" stroke="#c2ccd8" stroke-width="2"/>
  <line x1="438" y1="176" x2="438.00" y2="154.00" stroke="#2f6fb0" stroke-width="2.6"/>
  <circle cx="438" cy="176" r="2.6" fill="#2f6fb0"/>

  <circle cx="150" cy="268" r="30" fill="#ffffff" stroke="#c9d3e2" stroke-width="2"/>
  <line x1="150" y1="238" x2="150" y2="244" stroke="#c2ccd8" stroke-width="2"/>
  <line x1="150" y1="268" x2="170.92" y2="261.20" stroke="#2f6fb0" stroke-width="2.6"/>
  <circle cx="150" cy="268" r="2.6" fill="#2f6fb0"/>
  <circle cx="246" cy="268" r="30" fill="#ffffff" stroke="#c9d3e2" stroke-width="2"/>
  <line x1="246" y1="238" x2="246" y2="244" stroke="#c2ccd8" stroke-width="2"/>
  <line x1="246" y1="268" x2="260.14" y2="251.15" stroke="#2f6fb0" stroke-width="2.6"/>
  <circle cx="246" cy="268" r="2.6" fill="#2f6fb0"/>
  <circle cx="342" cy="268" r="30" fill="#ffffff" stroke="#c9d3e2" stroke-width="2"/>
  <line x1="342" y1="238" x2="342" y2="244" stroke="#c2ccd8" stroke-width="2"/>
  <line x1="342" y1="268" x2="349.52" y2="247.33" stroke="#2f6fb0" stroke-width="2.6"/>
  <circle cx="342" cy="268" r="2.6" fill="#2f6fb0"/>
  <circle cx="438" cy="268" r="30" fill="#ffffff" stroke="#c9d3e2" stroke-width="2"/>
  <line x1="438" y1="238" x2="438" y2="244" stroke="#c2ccd8" stroke-width="2"/>
  <line x1="438" y1="268" x2="441.06" y2="246.21" stroke="#2f6fb0" stroke-width="2.6"/>
  <circle cx="438" cy="268" r="2.6" fill="#2f6fb0"/>

  <circle cx="150" cy="360" r="30" fill="#ffffff" stroke="#c9d3e2" stroke-width="2"/>
  <line x1="150" y1="330" x2="150" y2="336" stroke="#c2ccd8" stroke-width="2"/>
  <line x1="150" y1="360" x2="162.93" y2="377.80" stroke="#2f6fb0" stroke-width="2.6"/>
  <circle cx="150" cy="360" r="2.6" fill="#2f6fb0"/>
  <circle cx="246" cy="360" r="30" fill="#ffffff" stroke="#c9d3e2" stroke-width="2"/>
  <line x1="246" y1="330" x2="246" y2="336" stroke="#c2ccd8" stroke-width="2"/>
  <line x1="246" y1="360" x2="267.67" y2="356.18" stroke="#2f6fb0" stroke-width="2.6"/>
  <circle cx="246" cy="360" r="2.6" fill="#2f6fb0"/>
  <circle cx="342" cy="360" r="30" fill="#ffffff" stroke="#c9d3e2" stroke-width="2"/>
  <line x1="342" y1="330" x2="342" y2="336" stroke="#c2ccd8" stroke-width="2"/>
  <line x1="342" y1="360" x2="356.14" y2="343.15" stroke="#2f6fb0" stroke-width="2.6"/>
  <circle cx="342" cy="360" r="2.6" fill="#2f6fb0"/>
  <circle cx="438" cy="360" r="30" fill="#ffffff" stroke="#c9d3e2" stroke-width="2"/>
  <line x1="438" y1="330" x2="438" y2="336" stroke="#c2ccd8" stroke-width="2"/>
  <line x1="438" y1="360" x2="444.06" y2="338.85" stroke="#2f6fb0" stroke-width="2.6"/>
  <circle cx="438" cy="360" r="2.6" fill="#2f6fb0"/>

  <text x="150" y="410" fill="#6b7688" font-size="11" text-anchor="middle">速い（高周波）</text>
  <text x="438" y="410" fill="#6b7688" font-size="11" text-anchor="middle">遅い（低周波）</text>

  <rect x="500" y="100" width="424" height="306" rx="12" fill="#ffffff" stroke="#c9d3e2" stroke-width="2"/>
  <text x="520" y="132" fill="#1f2a44" font-size="16" font-weight="700">位置を『周波数の位相』で符号化</text>
  <text x="520" y="170" fill="#1f2a44" font-size="15" font-family="'Consolas','SFMono-Regular',monospace">&#969;_i = &#952;^(-2i/d)    (&#952; = 1e6)</text>
  <text x="520" y="210" fill="#41506a" font-size="13">・高周波（速い針）＝近い位置を細かく刻む</text>
  <text x="520" y="240" fill="#41506a" font-size="13">・低周波（遅い針）＝遠くまで位置を取り違えない</text>
  <text x="520" y="270" fill="#41506a" font-size="13">・回すのは Q,K だけ（V は回さない）</text>
  <text x="520" y="308" fill="#2f7f7f" font-size="13" font-weight="700">フーリエの周波数スペクトル（高→低）</text>
  <rect x="522" y="332" width="18" height="60" rx="2" fill="#2f6fb0"/>
  <rect x="550" y="340" width="18" height="52" rx="2" fill="#3075ae"/>
  <rect x="578" y="347" width="18" height="45" rx="2" fill="#327bac"/>
  <rect x="606" y="354" width="18" height="38" rx="2" fill="#3381aa"/>
  <rect x="634" y="360" width="18" height="32" rx="2" fill="#3488a8"/>
  <rect x="662" y="366" width="18" height="26" rx="2" fill="#368ea6"/>
  <rect x="690" y="371" width="18" height="21" rx="2" fill="#3794a4"/>
  <rect x="718" y="375" width="18" height="17" rx="2" fill="#399aa2"/>
  <rect x="746" y="379" width="18" height="13" rx="2" fill="#3aa0a0"/>

  <rect x="36" y="470" width="888" height="34" rx="10" fill="#eef3f0" stroke="#3a6a53" stroke-width="2"/>
  <text x="480" y="492" fill="#1f2a44" font-size="13" text-anchor="middle">位置＝各周波数の位相。内積は相対位置 m&#8722;n だけで決まる（シフト定理）。</text>
  <text x="480" y="526" fill="#6b7688" font-size="13" text-anchor="middle">シリーズ「作って分かった LLM の中身」第2回 ― 位置を回転で刻む</text>
</svg>
