<svg xmlns="http://www.w3.org/2000/svg" xmlns:xlink="http://www.w3.org/1999/xlink" viewBox="0 0 760 2300" role="img" aria-label="AI に秘書を付ける — llive 開発日記 4コマ" style="width:100%;height:auto;max-width:1200px">
  <title>AI に秘書を付ける — llive 開発日記 4コマ</title>
  <defs><clipPath id="cl_21"><rect x="25" y="1188" width="710" height="484"/></clipPath><clipPath id="cl_27"><rect x="25" y="1708" width="710" height="484"/></clipPath></defs>
  <rect width="760" height="2300" fill="#f5efe2"/><g transform="translate(0.00,0.00) scale(1)"><path d="M 24.00,18.00 L 736.00,18.00 L 736.00,118.00 L 24.00,118.00 Z" fill="#2b2317" stroke="none" stroke-width="3" stroke-linejoin="round"/><text font-family="'Yu Gothic','Noto Sans CJK JP',sans-serif" font-size="26" fill="#f7efdd" text-anchor="middle"><tspan x="380.0" y="58.0">AI を『使うだけ』から</tspan><tspan x="380.0" y="98.0">『AI に秘書を付ける』へ</tspan></text></g><g transform="translate(0.00,0.00) scale(1)"><path d="M 20.00,140.00 L 740.00,140.00 L 740.00,640.00 L 20.00,640.00 Z" fill="#ffffff" stroke="#1a1a1a" stroke-width="5" stroke-linejoin="round"/><text font-family="'Yu Gothic','Noto Sans CJK JP',sans-serif" font-size="1" fill="#1a1a1a" text-anchor="middle"><tspan x="0.0" y="0.0"></tspan></text></g><g transform="translate(0.00,0.00) scale(1)"><path d="M 20.00,660.00 L 740.00,660.00 L 740.00,1160.00 L 20.00,1160.00 Z" fill="#ffffff" stroke="#1a1a1a" stroke-width="5" stroke-linejoin="round"/><text font-family="'Yu Gothic','Noto Sans CJK JP',sans-serif" font-size="1" fill="#1a1a1a" text-anchor="middle"><tspan x="0.0" y="0.0"></tspan></text></g><g transform="translate(0.00,0.00) scale(1)"><path d="M 20.00,1180.00 L 740.00,1180.00 L 740.00,1680.00 L 20.00,1680.00 Z" fill="#ffffff" stroke="#1a1a1a" stroke-width="5" stroke-linejoin="round"/><text font-family="'Yu Gothic','Noto Sans CJK JP',sans-serif" font-size="1" fill="#1a1a1a" text-anchor="middle"><tspan x="0.0" y="0.0"></tspan></text></g><g transform="translate(0.00,0.00) scale(1)"><path d="M 20.00,1700.00 L 740.00,1700.00 L 740.00,2200.00 L 20.00,2200.00 Z" fill="#ffffff" stroke="#1a1a1a" stroke-width="5" stroke-linejoin="round"/><text font-family="'Yu Gothic','Noto Sans CJK JP',sans-serif" font-size="1" fill="#1a1a1a" text-anchor="middle"><tspan x="0.0" y="0.0"></tspan></text></g><g transform="translate(0.00,0.00) scale(1)"><path d="M 40.00,160.00 L 720.00,160.00 L 720.00,232.00 L 40.00,232.00 Z" fill="#fffbe8" stroke="#1a1a1a" stroke-width="3" stroke-linejoin="round"/><text font-family="'Yu Gothic','Noto Sans CJK JP',sans-serif" font-size="22" fill="#1a1a1a" text-anchor="middle"><tspan x="380.0" y="203.0">便利な AI、でも実は怖い</tspan></text></g><g transform="translate(0.00,0.00) scale(1)"><path d="M 90.00,361.00 a 62.00,62.00 0 1,0 124.00,0 a 62.00,62.00 0 1,0 -124.00,0 Z" fill="#fbe5e5" stroke="#1a1a1a" stroke-width="3" stroke-linejoin="round"/><text font-family="'Yu Gothic','Noto Sans CJK JP',sans-serif" font-size="19" fill="#1a1a1a" text-anchor="middle"><tspan x="152.0" y="357.0">機密</tspan><tspan x="152.0" y="379.8">情報</tspan></text></g><g transform="translate(0.00,0.00) scale(1)"><path d="M 242.00,361.00 a 62.00,62.00 0 1,0 124.00,0 a 62.00,62.00 0 1,0 -124.00,0 Z" fill="#fbe5e5" stroke="#1a1a1a" stroke-width="3" stroke-linejoin="round"/><text font-family="'Yu Gothic','Noto Sans CJK JP',sans-serif" font-size="19" fill="#1a1a1a" text-anchor="middle"><tspan x="304.0" y="357.0">医療</tspan><tspan x="304.0" y="379.8">記録</tspan></text></g><g transform="translate(0.00,0.00) scale(1)"><path d="M 394.00,361.00 a 62.00,62.00 0 1,0 124.00,0 a 62.00,62.00 0 1,0 -124.00,0 Z" fill="#f7c8c8" stroke="#1a1a1a" stroke-width="3" stroke-linejoin="round"/><text font-family="'Yu Gothic','Noto Sans CJK JP',sans-serif" font-size="19" fill="#1a1a1a" text-anchor="middle"><tspan x="456.0" y="357.0">クラウド</tspan><tspan x="456.0" y="379.8">送信</tspan></text></g><g transform="translate(0.00,0.00) scale(1)"><path d="M 546.00,361.00 a 62.00,62.00 0 1,0 124.00,0 a 62.00,62.00 0 1,0 -124.00,0 Z" fill="#f7c8c8" stroke="#1a1a1a" stroke-width="3" stroke-linejoin="round"/><text font-family="'Yu Gothic','Noto Sans CJK JP',sans-serif" font-size="19" fill="#1a1a1a" text-anchor="middle"><tspan x="608.0" y="357.0">責任</tspan><tspan x="608.0" y="379.8">不明</tspan></text></g><g transform="translate(0.00,0.00) scale(1)"><path d="M 596.68,474.64 a 53.32,53.32 0 1,0 106.64,0 a 53.32,53.32 0 1,0 -106.64,0 Z" fill="#4a3826" stroke="none" stroke-width="2" stroke-linejoin="round"/><path d="M 597.84,492.00 a 42.16,42.16 0 1,0 84.32,0 a 42.16,42.16 0 1,0 -84.32,0 Z" fill="#fbd7b5" stroke="none" stroke-width="2" stroke-linejoin="round"/><path d="M 598.46,461.00 a 18.60,18.60 0 1,0 37.20,0 a 18.60,18.60 0 1,0 -37.20,0 Z" fill="#4a3826" stroke="none" stroke-width="2" stroke-linejoin="round"/><path d="M 622.64,454.80 a 20.46,20.46 0 1,0 40.92,0 a 20.46,20.46 0 1,0 -40.92,0 Z" fill="#4a3826" stroke="none" stroke-width="2" stroke-linejoin="round"/><path d="M 651.16,463.48 a 17.98,17.98 0 1,0 35.96,0 a 17.98,17.98 0 1,0 -35.96,0 Z" fill="#4a3826" stroke="none" stroke-width="2" stroke-linejoin="round"/><path d="M 607.7600000000001 479.6 q 7.4399999999999995 -8 14.879999999999999 -2" fill="none" stroke="#3a2c20" stroke-width="2.5" stroke-linejoin="round" stroke-linecap="round"/><path d="M 639.38 478.98 q 6.2 -6 12.4 -2" fill="none" stroke="#3a2c20" stroke-width="2.25" stroke-linejoin="round" stroke-linecap="round"/><path d="M 612.72,489.52 a 3.72,3.72 0 1,0 7.44,0 a 3.72,3.72 0 1,0 -7.44,0 Z" fill="#3a2c20" stroke="none" stroke-width="2" stroke-linejoin="round"/><path d="M 642.79,489.52 a 3.41,3.41 0 1,0 6.82,0 a 3.41,3.41 0 1,0 -6.82,0 Z" fill="#3a2c20" stroke="none" stroke-width="2" stroke-linejoin="round"/><path d="M 597.84,509.36 a 8.06,9.92 0 1,0 16.12,0 a 8.06,9.92 0 1,0 -16.12,0 Z" fill="#8e3b35" stroke="none" stroke-width="2" stroke-linejoin="round"/><path d="M 631.94 521.76 h 16.12 v 43.4 h -16.12 Z" fill="#fbd7b5" stroke="none" stroke-width="2" stroke-linejoin="round"/><path d="M 587.3 631.5 Q 587.3 554.0 640 550.9 Q 692.7 554.0 692.7 631.5 Z" fill="#5a6e8c" stroke="none" stroke-width="2" stroke-linejoin="round"/><path d="M 630.7 560.2 L 640 575.08 L 649.3 560.2" fill="#ffffff" stroke="none" stroke-width="2" stroke-linejoin="round"/></g><g transform="translate(0.00,0.00) scale(1)"><path d="M 488.28,536.49 C 488.90,538.70 492.18,545.36 491.96,549.80 C 491.75,554.24 490.53,558.81 487.01,563.14 C 483.49,567.46 478.09,571.85 470.83,575.75 C 463.58,579.66 453.45,583.17 443.47,586.55 C 433.50,589.93 422.86,593.21 410.96,596.02 C 399.06,598.84 386.02,601.57 372.09,603.43 C 358.16,605.29 342.53,606.42 327.36,607.18 C 312.19,607.93 296.36,608.23 281.07,607.96 C 265.78,607.70 250.42,606.74 235.60,605.57 C 220.78,604.39 205.50,603.06 192.14,600.92 C 178.78,598.77 166.72,595.72 155.41,592.70 C 144.11,589.67 133.05,586.41 124.30,582.78 C 115.56,579.14 108.88,575.00 102.92,570.88 C 96.97,566.77 91.89,562.48 88.57,558.09 C 85.24,553.71 82.25,549.04 82.96,544.56 C 83.67,540.08 88.42,535.57 92.83,531.22 C 97.24,526.87 101.90,522.40 109.43,518.49 C 116.96,514.58 127.32,510.97 138.01,507.74 C 148.69,504.51 160.90,501.65 173.51,499.11 C 186.12,496.58 199.58,494.23 213.68,492.51 C 227.77,490.79 242.99,489.46 258.08,488.78 C 273.18,488.09 289.09,487.97 304.24,488.41 C 319.40,488.84 334.26,490.16 349.02,491.38 C 363.78,492.60 379.57,493.57 392.81,495.74 C 406.05,497.90 417.23,501.30 428.47,504.38 C 439.70,507.46 454.94,512.58 460.24,514.21 Q 505.24,530.10 567.87,514.01 Q 518.17,511.53 488.28,536.49 Z" fill="#ffffff" stroke="#1a1a1a" stroke-width="3" stroke-linejoin="round"/><text font-family="'Yu Gothic','Noto Sans CJK JP',sans-serif" font-size="24" fill="#1a1a1a" text-anchor="middle"><tspan x="290.0" y="541.4">機密も計算も全部</tspan><tspan x="290.0" y="571.4">クラウド任せで大丈夫?</tspan></text></g><g transform="translate(0.00,0.00) scale(1)"><path d="M 40.00,680.00 L 720.00,680.00 L 720.00,752.00 L 40.00,752.00 Z" fill="#fffbe8" stroke="#1a1a1a" stroke-width="3" stroke-linejoin="round"/><text font-family="'Yu Gothic','Noto Sans CJK JP',sans-serif" font-size="22" fill="#1a1a1a" text-anchor="middle"><tspan x="380.0" y="723.0">そこで llive — AI に秘書を付ける</tspan></text></g><g transform="translate(0.00,0.00) scale(1)"><path d="M 150.00,774.00 L 610.00,774.00 L 610.00,828.00 L 150.00,828.00 Z" fill="#fffbe8" stroke="#1a1a1a" stroke-width="3" stroke-linejoin="round"/><text font-family="'Yu Gothic','Noto Sans CJK JP',sans-serif" font-size="21" fill="#1a1a1a" text-anchor="middle"><tspan x="380.0" y="808.0">上司=人間が指示書</tspan></text></g><g transform="translate(0.00,0.00) scale(1)"><path d="M 368.00,832.00 L 392.00,832.00 L 380.00,850.00 Z" fill="#1a1a1a" stroke="none" stroke-width="3" stroke-linejoin="round"/><text font-family="'Yu Gothic','Noto Sans CJK JP',sans-serif" font-size="1" fill="#1a1a1a" text-anchor="middle"><tspan x="0.0" y="0.0"></tspan></text></g><g transform="translate(0.00,0.00) scale(1)"><path d="M 150.00,854.00 L 610.00,854.00 L 610.00,908.00 L 150.00,908.00 Z" fill="#fffbe8" stroke="#1a1a1a" stroke-width="3" stroke-linejoin="round"/><text font-family="'Yu Gothic','Noto Sans CJK JP',sans-serif" font-size="21" fill="#1a1a1a" text-anchor="middle"><tspan x="380.0" y="888.0">秘書=llive が記憶/監査</tspan></text></g><g transform="translate(0.00,0.00) scale(1)"><path d="M 368.00,912.00 L 392.00,912.00 L 380.00,930.00 Z" fill="#1a1a1a" stroke="none" stroke-width="3" stroke-linejoin="round"/><text font-family="'Yu Gothic','Noto Sans CJK JP',sans-serif" font-size="1" fill="#1a1a1a" text-anchor="middle"><tspan x="0.0" y="0.0"></tspan></text></g><g transform="translate(0.00,0.00) scale(1)"><path d="M 150.00,934.00 L 610.00,934.00 L 610.00,988.00 L 150.00,988.00 Z" fill="#fffbe8" stroke="#1a1a1a" stroke-width="3" stroke-linejoin="round"/><text font-family="'Yu Gothic','Noto Sans CJK JP',sans-serif" font-size="21" fill="#1a1a1a" text-anchor="middle"><tspan x="380.0" y="968.0">AI 本体 Qwen が回答</tspan></text></g><g transform="translate(0.00,0.00) scale(1)"><path d="M 56.68,994.64 a 53.32,53.32 0 1,0 106.64,0 a 53.32,53.32 0 1,0 -106.64,0 Z" fill="#4a3826" stroke="none" stroke-width="2" stroke-linejoin="round"/><path d="M 77.84,1012.00 a 42.16,42.16 0 1,0 84.32,0 a 42.16,42.16 0 1,0 -84.32,0 Z" fill="#fbd7b5" stroke="none" stroke-width="2" stroke-linejoin="round"/><path d="M 124.34,981.00 a 18.60,18.60 0 1,0 37.20,0 a 18.60,18.60 0 1,0 -37.20,0 Z" fill="#4a3826" stroke="none" stroke-width="2" stroke-linejoin="round"/><path d="M 96.44,974.80 a 20.46,20.46 0 1,0 40.92,0 a 20.46,20.46 0 1,0 -40.92,0 Z" fill="#4a3826" stroke="none" stroke-width="2" stroke-linejoin="round"/><path d="M 72.88,983.48 a 17.98,17.98 0 1,0 35.96,0 a 17.98,17.98 0 1,0 -35.96,0 Z" fill="#4a3826" stroke="none" stroke-width="2" stroke-linejoin="round"/><path d="M 139.53 1009.52 q 4.03 4.34 8.06 0" fill="none" stroke="#3a2c20" stroke-width="2.5" stroke-linejoin="round" stroke-linecap="round"/><path d="M 110.39 1009.52 q 3.41 4.34 6.82 0" fill="none" stroke="#3a2c20" stroke-width="2.5" stroke-linejoin="round" stroke-linecap="round"/><path d="M 146.04 1026.88 q 7.4399999999999995 6.2 14.879999999999999 1.24" fill="none" stroke="#8e3b35" stroke-width="2.5" stroke-linejoin="round" stroke-linecap="round"/><path d="M 111.94 1041.76 h 16.12 v 43.4 h -16.12 Z" fill="#fbd7b5" stroke="none" stroke-width="2" stroke-linejoin="round"/><path d="M 67.3 1151.5 Q 67.3 1074.0 120 1070.9 Q 172.7 1074.0 172.7 1151.5 Z" fill="#5a6e8c" stroke="none" stroke-width="2" stroke-linejoin="round"/><path d="M 110.7 1080.2 L 120 1095.08 L 129.3 1080.2" fill="#ffffff" stroke="none" stroke-width="2" stroke-linejoin="round"/></g><g transform="translate(0.00,0.00) scale(1)"><path d="M 298.38,1033.99 C 303.89,1032.39 320.08,1027.51 331.40,1024.40 C 342.71,1021.29 353.11,1017.60 366.26,1015.35 C 379.41,1013.09 395.40,1012.02 410.30,1010.87 C 425.19,1009.71 440.42,1008.68 455.62,1008.42 C 470.82,1008.16 486.16,1008.81 501.48,1009.32 C 516.80,1009.83 533.51,1009.83 547.55,1011.51 C 561.58,1013.18 573.52,1016.62 585.69,1019.38 C 597.87,1022.13 610.27,1024.80 620.60,1028.06 C 630.93,1031.31 639.92,1035.06 647.67,1038.92 C 655.41,1042.77 662.97,1046.90 667.07,1051.18 C 671.18,1055.46 671.13,1060.10 672.28,1064.60 C 673.43,1069.10 676.36,1073.79 673.97,1078.18 C 671.57,1082.57 664.06,1086.80 657.91,1090.94 C 651.76,1095.08 646.09,1099.44 637.09,1103.02 C 628.08,1106.60 615.68,1109.57 603.89,1112.40 C 592.10,1115.23 579.45,1117.69 566.35,1120.01 C 553.24,1122.33 539.78,1124.85 525.26,1126.32 C 510.74,1127.79 494.58,1128.74 479.20,1128.83 C 463.83,1128.91 447.94,1127.91 432.99,1126.85 C 418.05,1125.78 403.63,1124.19 389.54,1122.44 C 375.44,1120.68 361.03,1118.86 348.43,1116.33 C 335.83,1113.80 324.20,1110.62 313.93,1107.26 C 303.67,1103.89 293.47,1100.19 286.85,1096.16 C 280.22,1092.13 277.91,1087.47 274.20,1083.09 C 270.48,1078.70 265.61,1074.34 264.54,1069.87 C 263.48,1065.41 267.27,1058.56 267.81,1056.30 Q 239.32,1031.35 191.68,1034.02 Q 253.74,1050.05 298.38,1033.99 Z" fill="#ffffff" stroke="#1a1a1a" stroke-width="3" stroke-linejoin="round"/><text font-family="'Yu Gothic','Noto Sans CJK JP',sans-serif" font-size="24" fill="#1a1a1a" text-anchor="middle"><tspan x="470.0" y="1061.4">AI 本体じゃなく</tspan><tspan x="470.0" y="1091.4">世話役を作る研究です</tspan></text></g><g transform="translate(0.00,0.00) scale(1)"><path d="M 40.00,1200.00 L 720.00,1200.00 L 720.00,1272.00 L 40.00,1272.00 Z" fill="#fffbe8" stroke="#1a1a1a" stroke-width="3" stroke-linejoin="round"/><text font-family="'Yu Gothic','Noto Sans CJK JP',sans-serif" font-size="22" fill="#1a1a1a" text-anchor="middle"><tspan x="380.0" y="1243.0">ベンチで圧勝!…が変に速い</tspan></text></g><g clip-path="url(#cl_21)"><path d="M 521.6,1372.8 L 1045.4,1384.3 L 1045.5,1371.5 Z" fill="#ffffff"/><path d="M 500.6,1407.2 L 962.1,1515.5 L 964.0,1507.3 Z" fill="#ffffff"/><path d="M 486.5,1425.6 L 946.4,1602.5 L 950.0,1592.7 Z" fill="#ffffff"/><path d="M 498.5,1458.0 L 929.9,1702.8 L 936.7,1690.5 Z" fill="#ffffff"/><path d="M 470.5,1465.2 L 904.8,1787.5 L 913.2,1775.8 Z" fill="#ffffff"/><path d="M 459.7,1472.5 L 860.4,1817.6 L 865.6,1811.4 Z" fill="#ffffff"/><path d="M 449.7,1491.8 L 764.3,1845.0 L 771.3,1838.6 Z" fill="#ffffff"/><path d="M 442.7,1516.1 L 712.2,1905.5 L 720.0,1899.9 Z" fill="#ffffff"/><path d="M 416.0,1513.3 L 655.0,1972.2 L 664.1,1967.3 Z" fill="#ffffff"/><path d="M 389.2,1514.5 L 556.7,2027.8 L 572.0,2022.5 Z" fill="#ffffff"/><path d="M 380.6,1537.8 L 502.2,2061.8 L 513.6,2059.0 Z" fill="#ffffff"/><path d="M 355.6,1518.8 L 402.4,2028.2 L 416.0,2026.7 Z" fill="#ffffff"/><path d="M 334.3,1541.0 L 309.2,2047.2 L 325.5,2047.8 Z" fill="#ffffff"/><path d="M 318.5,1536.4 L 249.1,2020.0 L 261.6,2021.6 Z" fill="#ffffff"/><path d="M 292.2,1540.7 L 142.6,2041.1 L 158.3,2045.6 Z" fill="#ffffff"/><path d="M 276.0,1537.4 L 91.2,2001.4 L 102.5,2005.7 Z" fill="#ffffff"/><path d="M 273.5,1504.9 L 49.7,1946.4 L 56.9,1950.0 Z" fill="#ffffff"/><path d="M 242.3,1504.8 L -71.1,1920.9 L -58.8,1929.9 Z" fill="#ffffff"/><path d="M 195.7,1470.4 L -246.1,1767.8 L -239.6,1777.3 Z" fill="#ffffff"/><path d="M 181.1,1452.5 L -258.5,1670.7 L -252.7,1682.1 Z" fill="#ffffff"/><path d="M 194.5,1429.7 L -284.2,1618.6 L -281.1,1626.1 Z" fill="#ffffff"/><path d="M 166.2,1420.4 L -314.2,1553.9 L -312.5,1559.7 Z" fill="#ffffff"/><path d="M 187.5,1392.8 L -367.1,1467.9 L -366.0,1476.1 Z" fill="#ffffff"/><path d="M 160.8,1369.5 L -336.8,1359.1 L -336.9,1371.7 Z" fill="#ffffff"/><path d="M 163.6,1346.8 L -372.0,1266.3 L -373.9,1279.8 Z" fill="#ffffff"/><path d="M 173.6,1327.9 L -249.4,1211.6 L -252.7,1224.3 Z" fill="#ffffff"/><path d="M 189.0,1309.0 L -287.0,1105.3 L -292.9,1119.5 Z" fill="#ffffff"/><path d="M 177.7,1288.5 L -273.9,1053.8 L -278.1,1062.2 Z" fill="#ffffff"/><path d="M 185.5,1271.3 L -236.8,994.7 L -240.4,1000.4 Z" fill="#ffffff"/><path d="M 227.9,1243.3 L -104.2,855.7 L -113.3,863.6 Z" fill="#ffffff"/><path d="M 243.3,1226.9 L -4.7,845.4 L -15.7,852.8 Z" fill="#ffffff"/><path d="M 252.5,1213.7 L 4.4,760.0 L -2.3,763.7 Z" fill="#ffffff"/><path d="M 289.2,1221.2 L 145.2,770.3 L 129.4,775.7 Z" fill="#ffffff"/><path d="M 305.5,1213.6 L 198.7,690.8 L 183.8,694.0 Z" fill="#ffffff"/><path d="M 323.5,1204.0 L 280.0,691.1 L 265.4,692.5 Z" fill="#ffffff"/><path d="M 367.4,1199.0 L 453.8,710.0 L 437.1,707.4 Z" fill="#ffffff"/><path d="M 383.4,1198.5 L 500.3,758.3 L 488.6,755.3 Z" fill="#ffffff"/><path d="M 391.0,1232.8 L 561.8,784.7 L 552.4,781.3 Z" fill="#ffffff"/><path d="M 406.4,1238.8 L 633.1,797.5 L 625.3,793.6 Z" fill="#ffffff"/><path d="M 424.2,1247.1 L 738.4,793.8 L 729.9,788.1 Z" fill="#ffffff"/><path d="M 452.8,1243.9 L 799.1,862.4 L 790.5,854.7 Z" fill="#ffffff"/><path d="M 485.0,1274.8 L 904.6,1005.1 L 896.8,993.4 Z" fill="#ffffff"/><path d="M 470.5,1300.0 L 888.9,1077.6 L 884.6,1069.6 Z" fill="#ffffff"/><path d="M 475.4,1317.1 L 968.9,1125.5 L 965.6,1117.2 Z" fill="#ffffff"/><path d="M 492.4,1333.0 L 965.9,1220.4 L 963.3,1209.8 Z" fill="#ffffff"/><path d="M 488.4,1357.8 L 1010.2,1319.7 L 1008.8,1303.6 Z" fill="#ffffff"/><path d="M 527.2,1372.8 L 1045.4,1382.2 L 1045.5,1373.7 Z" fill="#2a2417"/><path d="M 505.6,1408.3 L 962.4,1514.1 L 963.7,1508.7 Z" fill="#2a2417"/><path d="M 491.0,1427.3 L 947.0,1600.9 L 949.4,1594.3 Z" fill="#2a2417"/><path d="M 503.4,1460.7 L 931.0,1700.8 L 935.5,1692.5 Z" fill="#2a2417"/><path d="M 474.6,1468.1 L 906.2,1785.5 L 911.8,1777.7 Z" fill="#2a2417"/><path d="M 463.4,1475.7 L 861.2,1816.6 L 864.7,1812.5 Z" fill="#2a2417"/><path d="M 453.1,1495.5 L 765.4,1843.9 L 770.1,1839.7 Z" fill="#2a2417"/><path d="M 445.8,1520.6 L 713.5,1904.6 L 718.7,1900.9 Z" fill="#2a2417"/><path d="M 418.3,1517.7 L 656.5,1971.4 L 662.5,1968.1 Z" fill="#2a2417"/><path d="M 390.7,1518.9 L 559.3,2026.9 L 569.4,2023.4 Z" fill="#2a2417"/><path d="M 381.9,1543.0 L 504.1,2061.3 L 511.7,2059.5 Z" fill="#2a2417"/><path d="M 356.1,1523.4 L 404.7,2027.9 L 413.7,2027.0 Z" fill="#2a2417"/><path d="M 334.1,1546.3 L 311.9,2047.3 L 322.8,2047.7 Z" fill="#2a2417"/><path d="M 317.8,1541.5 L 251.2,2020.2 L 259.6,2021.3 Z" fill="#2a2417"/><path d="M 290.7,1546.0 L 145.2,2041.9 L 155.7,2044.8 Z" fill="#2a2417"/><path d="M 274.1,1542.6 L 93.1,2002.1 L 100.6,2005.0 Z" fill="#2a2417"/><path d="M 271.4,1509.0 L 50.9,1947.0 L 55.7,1949.4 Z" fill="#2a2417"/><path d="M 239.2,1509.0 L -69.1,1922.4 L -60.8,1928.4 Z" fill="#2a2417"/><path d="M 191.3,1473.5 L -245.0,1769.4 L -240.7,1775.7 Z" fill="#2a2417"/><path d="M 176.2,1455.0 L -257.5,1672.6 L -253.6,1680.2 Z" fill="#2a2417"/><path d="M 190.0,1431.6 L -283.7,1619.8 L -281.6,1624.9 Z" fill="#2a2417"/><path d="M 160.8,1422.0 L -313.9,1554.9 L -312.8,1558.8 Z" fill="#2a2417"/><path d="M 182.8,1393.5 L -367.0,1469.3 L -366.2,1474.7 Z" fill="#2a2417"/><path d="M 155.2,1369.5 L -336.9,1361.2 L -336.9,1369.6 Z" fill="#2a2417"/><path d="M 158.1,1346.0 L -372.3,1268.5 L -373.6,1277.6 Z" fill="#2a2417"/><path d="M 168.4,1326.6 L -249.9,1213.8 L -252.1,1222.2 Z" fill="#2a2417"/><path d="M 184.3,1307.1 L -288.0,1107.7 L -291.9,1117.1 Z" fill="#2a2417"/><path d="M 172.7,1286.0 L -274.6,1055.2 L -277.4,1060.8 Z" fill="#2a2417"/><path d="M 180.7,1268.2 L -237.4,995.7 L -239.8,999.4 Z" fill="#2a2417"/><path d="M 224.5,1239.4 L -105.7,857.0 L -111.8,862.3 Z" fill="#2a2417"/><path d="M 240.3,1222.4 L -6.5,846.7 L -13.9,851.6 Z" fill="#2a2417"/><path d="M 249.8,1208.8 L 3.3,760.6 L -1.2,763.1 Z" fill="#2a2417"/><path d="M 287.6,1216.6 L 142.5,771.2 L 132.0,774.8 Z" fill="#2a2417"/><path d="M 304.4,1208.7 L 196.2,691.3 L 186.3,693.5 Z" fill="#2a2417"/><path d="M 322.9,1198.8 L 277.6,691.3 L 267.9,692.3 Z" fill="#2a2417"/><path d="M 368.2,1193.6 L 451.0,709.6 L 439.9,707.8 Z" fill="#2a2417"/><path d="M 384.7,1193.2 L 498.3,757.8 L 490.6,755.8 Z" fill="#2a2417"/><path d="M 392.6,1228.5 L 560.2,784.2 L 554.0,781.8 Z" fill="#2a2417"/><path d="M 408.5,1234.8 L 631.8,796.9 L 626.6,794.2 Z" fill="#2a2417"/><path d="M 426.8,1243.3 L 736.9,792.9 L 731.3,789.0 Z" fill="#2a2417"/><path d="M 456.3,1240.0 L 797.7,861.1 L 791.9,856.0 Z" fill="#2a2417"/><path d="M 489.5,1271.9 L 903.3,1003.2 L 898.1,995.3 Z" fill="#2a2417"/><path d="M 474.5,1297.8 L 888.2,1076.3 L 885.3,1070.9 Z" fill="#2a2417"/><path d="M 479.6,1315.4 L 968.3,1124.1 L 966.1,1118.6 Z" fill="#2a2417"/><path d="M 497.2,1331.8 L 965.5,1218.6 L 963.7,1211.6 Z" fill="#2a2417"/><path d="M 493.0,1357.4 L 1010.0,1317.1 L 1009.0,1306.3 Z" fill="#2a2417"/></g><g transform="translate(0.00,0.00) scale(1)"><path d="M 531.69,1371.00 Q 449.08,1383.99 499.09,1411.82 Q 415.38,1404.50 438.42,1446.77 Q 368.24,1417.84 340.00,1451.97 Q 310.73,1419.54 242.53,1446.03 Q 261.28,1405.99 181.41,1411.69 Q 232.89,1383.76 158.79,1371.00 Q 234.64,1358.45 169.38,1327.22 Q 259.87,1335.39 248.21,1300.34 Q 310.60,1322.23 340.00,1285.17 Q 368.68,1323.43 430.96,1300.98 Q 419.49,1335.67 502.02,1329.43 Q 447.94,1358.15 531.69,1371.00 Z" fill="#ffffff" stroke="#1a1a1a" stroke-width="4" stroke-linejoin="round"/><text font-family="'Yu Gothic','Noto Sans CJK JP',sans-serif" font-size="46" fill="#1a1a1a" text-anchor="middle"><tspan x="340.0" y="1387.1">0.15秒</tspan></text></g><g transform="translate(0.00,0.00) scale(1)"><path d="M 560.00,1282.00 L 716.00,1282.00 L 716.00,1338.00 L 560.00,1338.00 Z" fill="#fffbe8" stroke="#1a1a1a" stroke-width="2" stroke-linejoin="round"/><text font-family="'Yu Gothic','Noto Sans CJK JP',sans-serif" font-size="17" fill="#1a1a1a" text-anchor="middle"><tspan x="638.0" y="1307.0">圧勝!</tspan><tspan x="638.0" y="1329.0">…のはず</tspan></text></g><g transform="translate(0.00,0.00) scale(1)"><path d="M 596.68,1514.64 a 53.32,53.32 0 1,0 106.64,0 a 53.32,53.32 0 1,0 -106.64,0 Z" fill="#4a3826" stroke="none" stroke-width="2" stroke-linejoin="round"/><path d="M 597.84,1532.00 a 42.16,42.16 0 1,0 84.32,0 a 42.16,42.16 0 1,0 -84.32,0 Z" fill="#fbd7b5" stroke="none" stroke-width="2" stroke-linejoin="round"/><path d="M 598.46,1501.00 a 18.60,18.60 0 1,0 37.20,0 a 18.60,18.60 0 1,0 -37.20,0 Z" fill="#4a3826" stroke="none" stroke-width="2" stroke-linejoin="round"/><path d="M 622.64,1494.80 a 20.46,20.46 0 1,0 40.92,0 a 20.46,20.46 0 1,0 -40.92,0 Z" fill="#4a3826" stroke="none" stroke-width="2" stroke-linejoin="round"/><path d="M 651.16,1503.48 a 17.98,17.98 0 1,0 35.96,0 a 17.98,17.98 0 1,0 -35.96,0 Z" fill="#4a3826" stroke="none" stroke-width="2" stroke-linejoin="round"/><path d="M 609.62 1522.08 q 6.82 3.7199999999999998 13.64 1.24" fill="none" stroke="#3a2c20" stroke-width="2.5" stroke-linejoin="round" stroke-linecap="round"/><path d="M 613.03,1530.76 a 3.41,3.41 0 1,0 6.82,0 a 3.41,3.41 0 1,0 -6.82,0 Z" fill="#3a2c20" stroke="none" stroke-width="2" stroke-linejoin="round"/><path d="M 640.62 1519.6 q 5.58 -3.7199999999999998 11.16 1.24" fill="none" stroke="#3a2c20" stroke-width="2.5" stroke-linejoin="round" stroke-linecap="round"/><path d="M 642.79,1530.76 a 3.41,3.41 0 1,0 6.82,0 a 3.41,3.41 0 1,0 -6.82,0 Z" fill="#3a2c20" stroke="none" stroke-width="2" stroke-linejoin="round"/><path d="M 612.72 1550.6 q -4.96 -3.1 -8.68 0 q -3.7199999999999998 3.1 -7.4399999999999995 0" fill="none" stroke="#8e3b35" stroke-width="2.5" stroke-linejoin="round" stroke-linecap="round"/><path d="M 631.94 1561.76 h 16.12 v 43.4 h -16.12 Z" fill="#fbd7b5" stroke="none" stroke-width="2" stroke-linejoin="round"/><path d="M 587.3 1671.5 Q 587.3 1594.0 640 1590.9 Q 692.7 1594.0 692.7 1671.5 Z" fill="#5a6e8c" stroke="none" stroke-width="2" stroke-linejoin="round"/><path d="M 630.7 1600.2 L 640 1615.08 L 649.3 1600.2" fill="#ffffff" stroke="none" stroke-width="2" stroke-linejoin="round"/></g><g transform="translate(700.0,1492.0) rotate(8.1)"><path d="M 0,-12.1 Q 7.9,-1.1 5.9,4.0 A 6.6,6.6 0 1 1 -5.9,4.0 Q -7.9,-1.1 0,-12.1 Z" fill="#7EC8E3" stroke="#5aa8c8" stroke-width="1.5"/><path d="M -1.8,-2.2 q -0.9,4.0 0.4,5.7" stroke="#ffffff" stroke-width="1.8" fill="none" stroke-linecap="round"/></g><g transform="translate(0.00,0.00) scale(1)"><path d="M 494.18,1576.81 C 493.90,1579.08 493.36,1585.92 492.51,1590.44 C 491.66,1594.97 493.13,1599.70 489.06,1603.97 C 484.99,1608.24 475.42,1612.08 468.10,1616.06 C 460.79,1620.03 454.89,1624.41 445.17,1627.83 C 435.44,1631.26 422.31,1634.02 409.75,1636.63 C 397.19,1639.25 383.87,1641.68 369.82,1643.53 C 355.77,1645.39 340.64,1646.89 325.45,1647.76 C 310.27,1648.62 294.10,1649.07 278.71,1648.74 C 263.33,1648.40 247.76,1647.16 233.15,1645.73 C 218.53,1644.31 204.23,1642.42 191.01,1640.18 C 177.78,1637.93 165.32,1635.21 153.80,1632.26 C 142.28,1629.31 130.66,1626.13 121.88,1622.49 C 113.10,1618.85 106.48,1614.59 101.12,1610.41 C 95.76,1606.22 92.20,1601.79 89.71,1597.39 C 87.22,1592.98 85.35,1588.41 86.18,1583.97 C 87.02,1579.52 90.30,1574.99 94.74,1570.71 C 99.17,1566.43 105.08,1562.14 112.77,1558.30 C 120.46,1554.45 130.37,1550.86 140.87,1547.64 C 151.38,1544.42 163.51,1541.65 175.80,1538.96 C 188.10,1536.26 200.56,1533.13 214.67,1531.48 C 228.77,1529.82 245.12,1529.65 260.45,1529.04 C 275.77,1528.42 291.53,1527.34 306.63,1527.77 C 321.72,1528.20 336.32,1530.26 351.04,1531.63 C 365.75,1533.00 381.52,1533.84 394.91,1535.97 C 408.31,1538.10 420.09,1541.32 431.39,1544.41 C 442.70,1547.50 457.51,1552.83 462.74,1554.51 Q 506.59,1570.52 567.69,1555.06 Q 521.71,1552.32 494.18,1576.81 Z" fill="#ffffff" stroke="#1a1a1a" stroke-width="3" stroke-linejoin="round"/><text font-family="'Yu Gothic','Noto Sans CJK JP',sans-serif" font-size="24" fill="#1a1a1a" text-anchor="middle"><tspan x="290.0" y="1581.4">変に高速ですね、</tspan><tspan x="290.0" y="1611.4">何かおかしくない?</tspan></text></g><g clip-path="url(#cl_27)"><path d="M 906.5,2032.5 L 1431.3,2043.4 L 1431.5,2031.2 Z" fill="#ffffff"/><path d="M 875.1,2081.6 L 1339.2,2182.5 L 1340.8,2174.7 Z" fill="#ffffff"/><path d="M 854.6,2107.9 L 1325.4,2275.0 L 1328.6,2265.6 Z" fill="#ffffff"/><path d="M 875.7,2154.6 L 1313.5,2382.4 L 1319.6,2370.4 Z" fill="#ffffff"/><path d="M 834.4,2165.4 L 1292.5,2474.0 L 1300.0,2462.5 Z" fill="#ffffff"/><path d="M 819.1,2176.3 L 1245.9,2507.6 L 1250.6,2501.5 Z" fill="#ffffff"/><path d="M 806.9,2204.8 L 1143.1,2539.5 L 1149.4,2533.0 Z" fill="#ffffff"/><path d="M 800.2,2241.3 L 1093.1,2607.8 L 1100.2,2602.0 Z" fill="#ffffff"/><path d="M 760.9,2238.6 L 1039.2,2684.5 L 1047.5,2679.2 Z" fill="#ffffff"/><path d="M 722.6,2242.5 L 941.4,2752.6 L 955.5,2746.3 Z" fill="#ffffff"/><path d="M 714.3,2278.8 L 887.6,2795.3 L 898.2,2791.6 Z" fill="#ffffff"/><path d="M 675.5,2253.0 L 778.1,2766.7 L 790.9,2763.9 Z" fill="#ffffff"/><path d="M 649.1,2290.0 L 682.8,2799.0 L 698.2,2797.7 Z" fill="#ffffff"/><path d="M 625.9,2285.7 L 616.0,2776.2 L 628.0,2776.3 Z" fill="#ffffff"/><path d="M 589.5,2297.6 L 507.0,2816.4 L 522.3,2818.6 Z" fill="#ffffff"/><path d="M 566.1,2296.3 L 447.6,2780.4 L 458.7,2783.0 Z" fill="#ffffff"/><path d="M 556.8,2247.9 L 396.4,2726.5 L 403.6,2728.9 Z" fill="#ffffff"/><path d="M 512.1,2256.1 L 264.9,2722.5 L 277.9,2729.2 Z" fill="#ffffff"/><path d="M 437.9,2219.8 L 53.7,2595.7 L 61.4,2603.4 Z" fill="#ffffff"/><path d="M 412.5,2198.8 L 24.1,2495.2 L 31.6,2504.8 Z" fill="#ffffff"/><path d="M 426.8,2162.0 L -13.5,2446.3 L -9.3,2452.8 Z" fill="#ffffff"/><path d="M 382.5,2158.3 L -58.9,2385.8 L -56.2,2390.9 Z" fill="#ffffff"/><path d="M 406.7,2112.4 L -135.2,2309.8 L -132.5,2317.1 Z" fill="#ffffff"/><path d="M 359.6,2089.1 L -126.2,2190.0 L -123.6,2201.6 Z" fill="#ffffff"/><path d="M 356.2,2056.6 L -188.3,2103.4 L -187.1,2116.4 Z" fill="#ffffff"/><path d="M 364.4,2027.1 L -67.2,2016.2 L -67.3,2028.7 Z" fill="#ffffff"/><path d="M 380.0,1995.7 L -139.2,1916.6 L -141.2,1931.1 Z" fill="#ffffff"/><path d="M 355.1,1971.2 L -140.3,1859.9 L -142.2,1868.7 Z" fill="#ffffff"/><path d="M 359.2,1944.6 L -118.5,1789.3 L -120.4,1795.4 Z" fill="#ffffff"/><path d="M 408.1,1890.5 L -23.2,1610.0 L -29.3,1619.7 Z" fill="#ffffff"/><path d="M 421.9,1861.5 L 77.9,1572.0 L 69.8,1581.8 Z" fill="#ffffff"/><path d="M 428.5,1839.3 L 56.5,1478.8 L 51.5,1484.1 Z" fill="#ffffff"/><path d="M 483.1,1835.5 L 204.8,1448.5 L 192.1,1458.0 Z" fill="#ffffff"/><path d="M 501.6,1817.7 L 229.5,1346.5 L 217.1,1353.9 Z" fill="#ffffff"/><path d="M 521.1,1795.9 L 311.5,1320.0 L 298.8,1325.8 Z" fill="#ffffff"/><path d="M 577.6,1767.7 L 491.7,1278.5 L 475.9,1281.5 Z" fill="#ffffff"/><path d="M 598.6,1758.9 L 556.1,1312.3 L 544.7,1313.5 Z" fill="#ffffff"/><path d="M 626.2,1804.1 L 626.9,1316.1 L 617.4,1316.2 Z" fill="#ffffff"/><path d="M 649.7,1804.2 L 702.3,1300.3 L 694.1,1299.5 Z" fill="#ffffff"/><path d="M 677.6,1805.7 L 805.2,1251.2 L 795.6,1249.1 Z" fill="#ffffff"/><path d="M 714.2,1784.2 L 891.5,1295.5 L 881.2,1291.9 Z" fill="#ffffff"/><path d="M 773.9,1806.6 L 1052.5,1392.1 L 1041.2,1384.7 Z" fill="#ffffff"/><path d="M 767.5,1850.0 L 1065.7,1472.4 L 1058.8,1467.1 Z" fill="#ffffff"/><path d="M 783.6,1869.6 L 1166.4,1481.2 L 1160.3,1475.3 Z" fill="#ffffff"/><path d="M 815.9,1879.3 L 1203.2,1575.4 L 1196.7,1567.3 Z" fill="#ffffff"/><path d="M 825.0,1914.3 L 1292.0,1649.1 L 1284.2,1635.8 Z" fill="#ffffff"/><path d="M 845.8,1932.8 L 1361.4,1711.1 L 1355.2,1697.2 Z" fill="#ffffff"/><path d="M 861.5,1942.0 L 1278.8,1788.4 L 1276.2,1781.7 Z" fill="#ffffff"/><path d="M 850.3,1972.6 L 1339.0,1849.6 L 1337.4,1843.4 Z" fill="#ffffff"/><path d="M 905.0,2002.3 L 1390.0,1960.3 L 1388.7,1947.6 Z" fill="#ffffff"/><path d="M 915.1,2032.6 L 1431.4,2041.4 L 1431.4,2033.3 Z" fill="#2a2417"/><path d="M 882.7,2083.2 L 1339.5,2181.2 L 1340.6,2176.0 Z" fill="#2a2417"/><path d="M 861.6,2110.3 L 1325.9,2273.5 L 1328.1,2267.2 Z" fill="#2a2417"/><path d="M 883.3,2158.5 L 1314.5,2380.4 L 1318.6,2372.4 Z" fill="#2a2417"/><path d="M 840.8,2169.6 L 1293.8,2472.1 L 1298.8,2464.4 Z" fill="#2a2417"/><path d="M 825.1,2180.8 L 1246.7,2506.6 L 1249.8,2502.5 Z" fill="#2a2417"/><path d="M 812.5,2210.2 L 1144.1,2538.4 L 1148.3,2534.1 Z" fill="#2a2417"/><path d="M 805.6,2247.8 L 1094.2,2606.9 L 1099.0,2603.0 Z" fill="#2a2417"/><path d="M 765.1,2245.1 L 1040.6,2683.6 L 1046.1,2680.1 Z" fill="#2a2417"/><path d="M 725.6,2249.0 L 943.8,2751.5 L 953.1,2747.4 Z" fill="#2a2417"/><path d="M 717.0,2286.4 L 889.4,2794.7 L 896.5,2792.2 Z" fill="#2a2417"/><path d="M 676.9,2259.9 L 780.3,2766.2 L 788.8,2764.4 Z" fill="#2a2417"/><path d="M 649.8,2298.0 L 685.3,2798.8 L 695.7,2797.9 Z" fill="#2a2417"/><path d="M 625.9,2293.6 L 618.0,2776.2 L 626.0,2776.3 Z" fill="#2a2417"/><path d="M 588.3,2305.9 L 509.5,2816.7 L 519.7,2818.2 Z" fill="#2a2417"/><path d="M 564.1,2304.5 L 449.4,2780.8 L 456.8,2782.5 Z" fill="#2a2417"/><path d="M 554.6,2254.6 L 397.6,2726.9 L 402.4,2728.5 Z" fill="#2a2417"/><path d="M 508.5,2263.1 L 267.1,2723.6 L 275.7,2728.1 Z" fill="#2a2417"/><path d="M 432.0,2225.7 L 55.0,2597.0 L 60.1,2602.1 Z" fill="#2a2417"/><path d="M 405.8,2204.0 L 25.4,2496.8 L 30.3,2503.2 Z" fill="#2a2417"/><path d="M 420.6,2166.1 L -12.8,2447.3 L -10.0,2451.7 Z" fill="#2a2417"/><path d="M 374.9,2162.3 L -58.5,2386.7 L -56.7,2390.1 Z" fill="#2a2417"/><path d="M 399.8,2114.9 L -134.8,2311.1 L -132.9,2315.9 Z" fill="#2a2417"/><path d="M 351.3,2090.9 L -125.8,2191.9 L -124.0,2199.7 Z" fill="#2a2417"/><path d="M 347.8,2057.4 L -188.1,2105.6 L -187.3,2114.2 Z" fill="#2a2417"/><path d="M 356.3,2027.1 L -67.2,2018.3 L -67.3,2026.6 Z" fill="#2a2417"/><path d="M 372.4,1994.7 L -139.6,1919.0 L -140.9,1928.7 Z" fill="#2a2417"/><path d="M 346.7,1969.4 L -140.6,1861.4 L -141.9,1867.2 Z" fill="#2a2417"/><path d="M 350.9,1941.9 L -118.8,1790.4 L -120.1,1794.4 Z" fill="#2a2417"/><path d="M 401.2,1886.1 L -24.2,1611.7 L -28.3,1618.1 Z" fill="#2a2417"/><path d="M 415.6,1856.3 L 76.5,1573.7 L 71.2,1580.2 Z" fill="#2a2417"/><path d="M 422.3,1833.4 L 55.7,1479.7 L 52.3,1483.3 Z" fill="#2a2417"/><path d="M 478.6,1829.4 L 202.7,1450.1 L 194.2,1456.4 Z" fill="#2a2417"/><path d="M 497.7,1811.1 L 227.4,1347.7 L 219.1,1352.6 Z" fill="#2a2417"/><path d="M 517.8,1788.6 L 309.4,1321.0 L 300.9,1324.8 Z" fill="#2a2417"/><path d="M 576.0,1759.6 L 489.0,1279.0 L 478.5,1281.0 Z" fill="#2a2417"/><path d="M 597.7,1750.5 L 554.2,1312.5 L 546.6,1313.3 Z" fill="#2a2417"/><path d="M 626.1,1797.1 L 625.3,1316.1 L 619.0,1316.2 Z" fill="#2a2417"/><path d="M 650.4,1797.3 L 701.0,1300.1 L 695.5,1299.6 Z" fill="#2a2417"/><path d="M 679.1,1798.8 L 803.6,1250.9 L 797.2,1249.5 Z" fill="#2a2417"/><path d="M 716.9,1776.6 L 889.8,1294.9 L 882.9,1292.5 Z" fill="#2a2417"/><path d="M 778.4,1799.7 L 1050.6,1390.9 L 1043.1,1386.0 Z" fill="#2a2417"/><path d="M 771.8,1844.4 L 1064.6,1471.5 L 1060.0,1468.0 Z" fill="#2a2417"/><path d="M 788.4,1864.7 L 1165.4,1480.2 L 1161.3,1476.2 Z" fill="#2a2417"/><path d="M 821.8,1874.6 L 1202.1,1574.0 L 1197.8,1568.6 Z" fill="#2a2417"/><path d="M 831.1,1910.7 L 1290.7,1646.9 L 1285.5,1638.0 Z" fill="#2a2417"/><path d="M 852.5,1929.8 L 1360.4,1708.8 L 1356.2,1699.5 Z" fill="#2a2417"/><path d="M 868.7,1939.2 L 1278.3,1787.3 L 1276.7,1782.9 Z" fill="#2a2417"/><path d="M 857.2,1970.8 L 1338.7,1848.6 L 1337.6,1844.4 Z" fill="#2a2417"/><path d="M 913.5,2001.5 L 1389.7,1958.2 L 1388.9,1949.7 Z" fill="#2a2417"/></g><g transform="translate(0.00,0.00) scale(1)"><path d="M 581.24,2011.52 a 56.76,56.76 0 1,0 113.52,0 a 56.76,56.76 0 1,0 -113.52,0 Z" fill="#4a3826" stroke="none" stroke-width="2" stroke-linejoin="round"/><path d="M 583.12,2030.00 a 44.88,44.88 0 1,0 89.76,0 a 44.88,44.88 0 1,0 -89.76,0 Z" fill="#fbd7b5" stroke="none" stroke-width="2" stroke-linejoin="round"/><path d="M 583.78,1997.00 a 19.80,19.80 0 1,0 39.60,0 a 19.80,19.80 0 1,0 -39.60,0 Z" fill="#4a3826" stroke="none" stroke-width="2" stroke-linejoin="round"/><path d="M 609.52,1990.40 a 21.78,21.78 0 1,0 43.56,0 a 21.78,21.78 0 1,0 -43.56,0 Z" fill="#4a3826" stroke="none" stroke-width="2" stroke-linejoin="round"/><path d="M 639.88,1999.64 a 19.14,19.14 0 1,0 38.28,0 a 19.14,19.14 0 1,0 -38.28,0 Z" fill="#4a3826" stroke="none" stroke-width="2" stroke-linejoin="round"/><path d="M 595.66,2027.36 a 7.26,7.26 0 1,0 14.52,0 a 7.26,7.26 0 1,0 -14.52,0 Z" fill="#ffffff" stroke="#3a2c20" stroke-width="1.8479999999999999" stroke-linejoin="round" stroke-linecap="round"/><path d="M 600.81,2028.35 a 2.11,2.11 0 1,0 4.22,0 a 2.11,2.11 0 1,0 -4.22,0 Z" fill="#3a2c20" stroke="none" stroke-width="2" stroke-linejoin="round"/><path d="M 628.33,2027.36 a 6.27,6.27 0 1,0 12.54,0 a 6.27,6.27 0 1,0 -12.54,0 Z" fill="#ffffff" stroke="#3a2c20" stroke-width="1.8479999999999999" stroke-linejoin="round" stroke-linecap="round"/><path d="M 632.49,2028.35 a 2.11,2.11 0 1,0 4.22,0 a 2.11,2.11 0 1,0 -4.22,0 Z" fill="#3a2c20" stroke="none" stroke-width="2" stroke-linejoin="round"/><path d="M 584.44,2049.80 a 10.56,13.20 0 1,0 21.12,0 a 10.56,13.20 0 1,0 -21.12,0 Z" fill="#8e3b35" stroke="none" stroke-width="2" stroke-linejoin="round"/><path d="M 619.42 2061.68 h 17.16 v 46.2 h -17.16 Z" fill="#fbd7b5" stroke="none" stroke-width="2" stroke-linejoin="round"/><path d="M 571.9 2178.5 Q 571.9 2096.0 628 2092.7 Q 684.1 2096.0 684.1 2178.5 Z" fill="#5a6e8c" stroke="none" stroke-width="2" stroke-linejoin="round"/><path d="M 618.1 2102.6 L 628 2118.44 L 637.9 2102.6" fill="#ffffff" stroke="none" stroke-width="2" stroke-linejoin="round"/></g><g transform="translate(0.00,0.00) scale(1)"><path d="M 575.91,1820.00 Q 449.23,1832.69 534.60,1863.00 Q 406.54,1853.82 550.75,2015.33 Q 340.92,1868.48 300.00,1901.65 Q 261.37,1865.77 162.21,1895.77 Q 191.99,1854.29 79.13,1860.48 Q 147.09,1833.01 27.08,1820.00 Q 149.46,1807.19 77.98,1779.31 Q 190.23,1785.15 173.15,1750.25 Q 260.48,1773.17 300.00,1732.44 Q 341.06,1771.35 428.51,1749.34 Q 412.45,1784.30 534.13,1777.09 Q 449.84,1807.25 575.91,1820.00 Z" fill="#ffffff" stroke="#1a1a1a" stroke-width="4" stroke-linejoin="round"/><text font-family="'Yu Gothic','Noto Sans CJK JP',sans-serif" font-size="26" fill="#1a1a1a" text-anchor="middle"><tspan x="300.0" y="1812.8">実は AI を呼んでなかった…</tspan><tspan x="300.0" y="1845.3">直したら逆に 2-4 倍遅い!</tspan></text></g><g transform="translate(0.00,0.00) scale(1)"><path d="M 48.00,2060.00 L 470.00,2060.00 L 470.00,2178.00 L 48.00,2178.00 Z" fill="#efe7d2" stroke="#1a1a1a" stroke-width="2" stroke-linejoin="round"/><text font-family="'Yu Gothic','Noto Sans CJK JP',sans-serif" font-size="19" fill="#1a1a1a" text-anchor="middle"><tspan x="259.0" y="2083.0">速さじゃなく構造が価値</tspan><tspan x="259.0" y="2113.0">記憶・監査・段取り</tspan><tspan x="259.0" y="2143.0">失敗は消さず正直に出す</tspan></text></g><g transform="translate(0.00,0.00) scale(1)"><path d="M 376.00,2228.00 L 384.00,2228.00 L 384.00,2232.00 L 376.00,2232.00 Z" fill="#f5efe2" stroke="none" stroke-width="3" stroke-linejoin="round"/><text font-family="'Yu Gothic','Noto Sans CJK JP',sans-serif" font-size="18" fill="#6a645a" text-anchor="middle"><tspan x="380.0" y="2245.0">→ 続きは開発日記 本編へ</tspan></text></g><g transform="translate(0.00,0.00) scale(1)"><path d="M 376.00,2272.00 L 384.00,2272.00 L 384.00,2276.00 L 376.00,2276.00 Z" fill="#f5efe2" stroke="none" stroke-width="3" stroke-linejoin="round"/><text font-family="'Yu Gothic','Noto Sans CJK JP',sans-serif" font-size="13" fill="#8a8474" text-anchor="middle"><tspan x="380.0" y="2284.0">mangamd L1 / FullSense</tspan></text></g>
</svg>
