<svg xmlns="http://www.w3.org/2000/svg" xmlns:xlink="http://www.w3.org/1999/xlink" viewBox="0 0 760 2300" role="img" aria-label="Giving AI a Secretary — llive Dev Diary, 4 Panels" style="width:100%;height:auto;max-width:1200px">
  <title>Giving AI a Secretary — llive Dev Diary, 4 Panels</title>
  <defs></defs>
  <rect width="760" height="2300" fill="#f5efe2"/><g transform="translate(0.00,0.00) scale(1)"><path d="M 24.00,18.00 L 736.00,18.00 L 736.00,118.00 L 24.00,118.00 Z" fill="#2b2317" stroke="none" stroke-width="3"/><text font-family="'Segoe UI','Noto Sans',sans-serif" font-size="24" fill="#f7efdd" text-anchor="middle"><tspan x="380.0" y="58.0">From 'Just Using AI'</tspan><tspan x="380.0" y="98.0">to 'Giving AI a Secretary'</tspan></text></g><g transform="translate(0.00,0.00) scale(1)"><path d="M 20.00,140.00 L 740.00,140.00 L 740.00,640.00 L 20.00,640.00 Z" fill="#ffffff" stroke="#1a1a1a" stroke-width="5"/><text font-family="'Segoe UI','Noto Sans',sans-serif" font-size="1" fill="#1a1a1a" text-anchor="middle"><tspan x="0.0" y="0.0"></tspan></text></g><g transform="translate(0.00,0.00) scale(1)"><path d="M 20.00,660.00 L 740.00,660.00 L 740.00,1160.00 L 20.00,1160.00 Z" fill="#ffffff" stroke="#1a1a1a" stroke-width="5"/><text font-family="'Segoe UI','Noto Sans',sans-serif" font-size="1" fill="#1a1a1a" text-anchor="middle"><tspan x="0.0" y="0.0"></tspan></text></g><g transform="translate(0.00,0.00) scale(1)"><path d="M 20.00,1180.00 L 740.00,1180.00 L 740.00,1680.00 L 20.00,1680.00 Z" fill="#ffffff" stroke="#1a1a1a" stroke-width="5"/><text font-family="'Segoe UI','Noto Sans',sans-serif" font-size="1" fill="#1a1a1a" text-anchor="middle"><tspan x="0.0" y="0.0"></tspan></text></g><g transform="translate(0.00,0.00) scale(1)"><path d="M 20.00,1700.00 L 740.00,1700.00 L 740.00,2200.00 L 20.00,2200.00 Z" fill="#ffffff" stroke="#1a1a1a" stroke-width="5"/><text font-family="'Segoe UI','Noto Sans',sans-serif" font-size="1" fill="#1a1a1a" text-anchor="middle"><tspan x="0.0" y="0.0"></tspan></text></g><g transform="translate(0.00,0.00) scale(1)"><path d="M 40.00,160.00 L 720.00,160.00 L 720.00,232.00 L 40.00,232.00 Z" fill="#fffbe8" stroke="#1a1a1a" stroke-width="3"/><text font-family="'Segoe UI','Noto Sans',sans-serif" font-size="19" fill="#1a1a1a" text-anchor="middle"><tspan x="380.0" y="203.0">Handy AI, but actually scary</tspan></text></g><g transform="translate(0.00,0.00) scale(1)"><path d="M 90.00,396.00 a 62.00,62.00 0 1,0 124.00,0 a 62.00,62.00 0 1,0 -124.00,0 Z" fill="#fbe5e5" stroke="#1a1a1a" stroke-width="3"/><text font-family="'Segoe UI','Noto Sans',sans-serif" font-size="16" fill="#1a1a1a" text-anchor="middle"><tspan x="152.0" y="392.0">Secret</tspan><tspan x="152.0" y="411.2">data</tspan></text></g><g transform="translate(0.00,0.00) scale(1)"><path d="M 242.00,396.00 a 62.00,62.00 0 1,0 124.00,0 a 62.00,62.00 0 1,0 -124.00,0 Z" fill="#fbe5e5" stroke="#1a1a1a" stroke-width="3"/><text font-family="'Segoe UI','Noto Sans',sans-serif" font-size="13" fill="#1a1a1a" text-anchor="middle"><tspan x="304.0" y="392.0">Medical</tspan><tspan x="304.0" y="407.6">records</tspan></text></g><g transform="translate(0.00,0.00) scale(1)"><path d="M 394.00,396.00 a 62.00,62.00 0 1,0 124.00,0 a 62.00,62.00 0 1,0 -124.00,0 Z" fill="#f7c8c8" stroke="#1a1a1a" stroke-width="3"/><text font-family="'Segoe UI','Noto Sans',sans-serif" font-size="13" fill="#1a1a1a" text-anchor="middle"><tspan x="456.0" y="392.0">Sent to</tspan><tspan x="456.0" y="407.6">cloud</tspan></text></g><g transform="translate(0.00,0.00) scale(1)"><path d="M 546.00,396.00 a 62.00,62.00 0 1,0 124.00,0 a 62.00,62.00 0 1,0 -124.00,0 Z" fill="#f7c8c8" stroke="#1a1a1a" stroke-width="3"/><text font-family="'Segoe UI','Noto Sans',sans-serif" font-size="13" fill="#1a1a1a" text-anchor="middle"><tspan x="608.0" y="392.0">Who's</tspan><tspan x="608.0" y="407.6">liable?</tspan></text></g><g transform="translate(0.00,0.00) scale(1)"><path d="M 200.00,554.00 L 230.00,518.00 L 262.00,554.00 Z" fill="#ffffff" stroke="#1a1a1a" stroke-width="3" stroke-linejoin="round"/><path d="M 120.00,552.00 L 660.00,552.00 L 660.00,618.00 L 120.00,618.00 Z" fill="#ffffff" stroke="#1a1a1a" stroke-width="3"/><text font-family="'Segoe UI','Noto Sans',sans-serif" font-size="20" fill="#1a1a1a" text-anchor="middle"><tspan x="390.0" y="578.0">Secrets and math, all</tspan><tspan x="390.0" y="608.0">left to the cloud — really?</tspan></text></g><g transform="translate(0.00,0.00) scale(1)"><path d="M 40.00,680.00 L 720.00,680.00 L 720.00,752.00 L 40.00,752.00 Z" fill="#fffbe8" stroke="#1a1a1a" stroke-width="3"/><text font-family="'Segoe UI','Noto Sans',sans-serif" font-size="19" fill="#1a1a1a" text-anchor="middle"><tspan x="380.0" y="723.0">Enter llive: give AI a secretary</tspan></text></g><g transform="translate(0.00,0.00) scale(1)"><path d="M 150.00,795.00 L 610.00,795.00 L 610.00,853.00 L 150.00,853.00 Z" fill="#fffbe8" stroke="#1a1a1a" stroke-width="3"/><text font-family="'Segoe UI','Noto Sans',sans-serif" font-size="21" fill="#1a1a1a" text-anchor="middle"><tspan x="380.0" y="831.0">Human boss hands a Brief</tspan></text></g><g transform="translate(0.00,0.00) scale(1)"><path d="M 368.00,857.00 L 392.00,857.00 L 380.00,883.00 Z" fill="#1a1a1a" stroke="none" stroke-width="3"/><text font-family="'Segoe UI','Noto Sans',sans-serif" font-size="1" fill="#1a1a1a" text-anchor="middle"><tspan x="0.0" y="0.0"></tspan></text></g><g transform="translate(0.00,0.00) scale(1)"><path d="M 150.00,887.00 L 610.00,887.00 L 610.00,945.00 L 150.00,945.00 Z" fill="#fffbe8" stroke="#1a1a1a" stroke-width="3"/><text font-family="'Segoe UI','Noto Sans',sans-serif" font-size="21" fill="#1a1a1a" text-anchor="middle"><tspan x="380.0" y="923.0">Secretary=llive logs/audits</tspan></text></g><g transform="translate(0.00,0.00) scale(1)"><path d="M 368.00,949.00 L 392.00,949.00 L 380.00,975.00 Z" fill="#1a1a1a" stroke="none" stroke-width="3"/><text font-family="'Segoe UI','Noto Sans',sans-serif" font-size="1" fill="#1a1a1a" text-anchor="middle"><tspan x="0.0" y="0.0"></tspan></text></g><g transform="translate(0.00,0.00) scale(1)"><path d="M 150.00,979.00 L 610.00,979.00 L 610.00,1037.00 L 150.00,1037.00 Z" fill="#fffbe8" stroke="#1a1a1a" stroke-width="3"/><text font-family="'Segoe UI','Noto Sans',sans-serif" font-size="21" fill="#1a1a1a" text-anchor="middle"><tspan x="380.0" y="1015.0">AI engine Qwen replies</tspan></text></g><g transform="translate(0.00,0.00) scale(1)"><path d="M 200.00,1074.00 L 230.00,1038.00 L 262.00,1074.00 Z" fill="#ffffff" stroke="#1a1a1a" stroke-width="3" stroke-linejoin="round"/><path d="M 120.00,1072.00 L 660.00,1072.00 L 660.00,1138.00 L 120.00,1138.00 Z" fill="#ffffff" stroke="#1a1a1a" stroke-width="3"/><text font-family="'Segoe UI','Noto Sans',sans-serif" font-size="20" fill="#1a1a1a" text-anchor="middle"><tspan x="390.0" y="1098.0">Research to build the</tspan><tspan x="390.0" y="1128.0">handler, not the AI itself</tspan></text></g><g transform="translate(0.00,0.00) scale(1)"><path d="M 40.00,1200.00 L 720.00,1200.00 L 720.00,1272.00 L 40.00,1272.00 Z" fill="#fffbe8" stroke="#1a1a1a" stroke-width="3"/><text font-family="'Segoe UI','Noto Sans',sans-serif" font-size="19" fill="#1a1a1a" text-anchor="middle"><tspan x="380.0" y="1243.0">Landslide in the benchmark!… oddly fast</tspan></text></g><g><path d="M 485.0,1416.0 L 615.0,1421.0 L 615.0,1411.0 Z" fill="#2a2417"/><path d="M 483.9,1430.9 L 612.2,1452.2 L 613.0,1446.7 Z" fill="#2a2417"/><path d="M 480.7,1445.6 L 604.1,1487.0 L 606.9,1477.4 Z" fill="#2a2417"/><path d="M 475.5,1459.6 L 592.6,1516.1 L 594.9,1511.1 Z" fill="#2a2417"/><path d="M 468.3,1472.8 L 575.0,1547.3 L 580.4,1538.8 Z" fill="#2a2417"/><path d="M 459.4,1484.8 L 555.8,1572.0 L 559.4,1567.8 Z" fill="#2a2417"/><path d="M 448.8,1495.4 L 530.1,1596.9 L 537.7,1590.3 Z" fill="#2a2417"/><path d="M 436.8,1504.3 L 504.7,1615.2 L 509.4,1612.2 Z" fill="#2a2417"/><path d="M 423.6,1511.5 L 473.1,1631.8 L 482.2,1627.7 Z" fill="#2a2417"/><path d="M 409.6,1516.7 L 443.6,1642.3 L 448.8,1640.7 Z" fill="#2a2417"/><path d="M 394.9,1519.9 L 408.5,1649.3 L 418.4,1647.9 Z" fill="#2a2417"/><path d="M 380.0,1521.0 L 377.3,1651.0 L 382.8,1651.0 Z" fill="#2a2417"/><path d="M 365.1,1519.9 L 341.6,1647.9 L 351.5,1649.3 Z" fill="#2a2417"/><path d="M 350.4,1516.7 L 311.2,1640.7 L 316.4,1642.3 Z" fill="#2a2417"/><path d="M 336.4,1511.5 L 277.8,1627.7 L 286.9,1631.8 Z" fill="#2a2417"/><path d="M 323.2,1504.3 L 250.6,1612.2 L 255.3,1615.2 Z" fill="#2a2417"/><path d="M 311.2,1495.4 L 222.3,1590.3 L 229.9,1596.9 Z" fill="#2a2417"/><path d="M 300.6,1484.8 L 200.6,1567.8 L 204.2,1572.0 Z" fill="#2a2417"/><path d="M 291.7,1472.8 L 179.6,1538.8 L 185.0,1547.3 Z" fill="#2a2417"/><path d="M 284.5,1459.6 L 165.1,1511.1 L 167.4,1516.1 Z" fill="#2a2417"/><path d="M 279.3,1445.6 L 153.1,1477.4 L 155.9,1487.0 Z" fill="#2a2417"/><path d="M 276.1,1430.9 L 147.0,1446.7 L 147.8,1452.2 Z" fill="#2a2417"/><path d="M 275.0,1416.0 L 145.0,1411.0 L 145.0,1421.0 Z" fill="#2a2417"/><path d="M 276.1,1401.1 L 147.8,1379.8 L 147.0,1385.3 Z" fill="#2a2417"/><path d="M 279.3,1386.4 L 155.9,1345.0 L 153.1,1354.6 Z" fill="#2a2417"/><path d="M 284.5,1372.4 L 167.4,1315.9 L 165.1,1320.9 Z" fill="#2a2417"/><path d="M 291.7,1359.2 L 185.0,1284.7 L 179.6,1293.2 Z" fill="#2a2417"/><path d="M 300.6,1347.2 L 204.2,1260.0 L 200.6,1264.2 Z" fill="#2a2417"/><path d="M 311.2,1336.6 L 229.9,1235.1 L 222.3,1241.7 Z" fill="#2a2417"/><path d="M 323.2,1327.7 L 255.3,1216.8 L 250.6,1219.8 Z" fill="#2a2417"/><path d="M 336.4,1320.5 L 286.9,1200.2 L 277.8,1204.3 Z" fill="#2a2417"/><path d="M 350.4,1315.3 L 316.4,1189.7 L 311.2,1191.3 Z" fill="#2a2417"/><path d="M 365.1,1312.1 L 351.5,1182.7 L 341.6,1184.1 Z" fill="#2a2417"/><path d="M 380.0,1311.0 L 382.7,1181.0 L 377.2,1181.0 Z" fill="#2a2417"/><path d="M 394.9,1312.1 L 418.4,1184.1 L 408.5,1182.7 Z" fill="#2a2417"/><path d="M 409.6,1315.3 L 448.8,1191.3 L 443.6,1189.7 Z" fill="#2a2417"/><path d="M 423.6,1320.5 L 482.2,1204.3 L 473.1,1200.2 Z" fill="#2a2417"/><path d="M 436.8,1327.7 L 509.4,1219.8 L 504.7,1216.8 Z" fill="#2a2417"/><path d="M 448.8,1336.6 L 537.7,1241.7 L 530.1,1235.1 Z" fill="#2a2417"/><path d="M 459.4,1347.2 L 559.4,1264.2 L 555.8,1260.0 Z" fill="#2a2417"/><path d="M 468.3,1359.2 L 580.4,1293.2 L 575.0,1284.7 Z" fill="#2a2417"/><path d="M 475.5,1372.4 L 594.9,1320.9 L 592.6,1315.9 Z" fill="#2a2417"/><path d="M 480.7,1386.4 L 606.9,1354.6 L 604.1,1345.0 Z" fill="#2a2417"/><path d="M 483.9,1401.1 L 613.0,1385.3 L 612.2,1379.8 Z" fill="#2a2417"/></g><g transform="translate(0.00,0.00) scale(1)"><path d="M 235.00,1361.00 L 525.00,1361.00 L 525.00,1466.00 L 235.00,1466.00 Z" fill="#ffffff" stroke="none" stroke-width="3"/><text font-family="'Segoe UI','Noto Sans',sans-serif" font-size="50" fill="#1a1a1a" text-anchor="middle"><tspan x="380.0" y="1429.0">0.15s</tspan></text></g><path d="M 360.16,1577.44 L 358.86,1579.17 L 357.49,1580.85 L 356.07,1582.49 L 354.60,1584.07 L 353.07,1585.60 L 351.49,1587.07 L 349.85,1588.49 L 348.17,1589.86 L 346.44,1591.16 L 344.67,1592.40 L 342.85,1593.58 L 341.00,1594.69 L 339.11,1595.74 L 337.18,1596.73 L 335.22,1597.64 L 333.23,1598.49 L 331.21,1599.26 L 329.16,1599.97 L 327.09,1600.60 L 325.00,1601.16 L 322.89,1601.65 L 320.77,1602.06 L 318.63,1602.40 L 316.48,1602.66 L 314.32,1602.85 L 312.16,1602.96 L 310.00,1603.00 L 307.84,1602.96 L 305.68,1602.85 L 303.52,1602.66 L 301.37,1602.40 L 299.23,1602.06 L 297.11,1601.65 L 295.00,1601.16 L 292.91,1600.60 L 290.84,1599.97 L 288.79,1599.26 L 286.77,1598.49 L 284.78,1597.64 L 282.82,1596.73 L 280.89,1595.74 L 279.00,1594.69 L 277.15,1593.58 L 275.33,1592.40 L 273.56,1591.16 L 271.83,1589.86 L 270.15,1588.49 L 268.51,1587.07 L 266.93,1585.60 L 265.40,1584.07 L 263.93,1582.49 L 262.51,1580.85 L 261.14,1579.17 L 259.84,1577.44 L 258.60,1575.67 L 257.42,1573.85 L 256.31,1572.00 L 255.26,1570.11 L 254.27,1568.18 L 253.36,1566.22 L 252.51,1564.23 L 251.74,1562.21 L 251.03,1560.16 L 250.40,1558.09 L 249.84,1556.00 L 249.35,1553.89 L 248.94,1551.77 L 248.60,1549.63 L 248.34,1547.48 L 248.15,1545.32 L 248.04,1543.16 L 248.00,1541.00 L 248.04,1538.84 L 248.15,1536.68 L 248.34,1534.52 L 248.60,1532.37 L 248.94,1530.23 L 249.35,1528.11 L 249.84,1526.00 L 250.40,1523.91 L 251.03,1521.84 L 251.74,1519.79 L 252.51,1517.77 L 253.36,1515.78 L 254.27,1513.82 L 255.26,1511.89 L 256.31,1510.00 L 257.42,1508.15 L 258.60,1506.33 L 259.84,1504.56 L 261.14,1502.83 L 262.51,1501.15 L 263.93,1499.51 L 265.40,1497.93 L 266.93,1496.40 L 268.51,1494.93 L 270.15,1493.51 L 271.83,1492.14 L 273.56,1490.84 L 275.33,1489.60 L 277.15,1488.42 L 279.00,1487.31 L 280.89,1486.26 L 282.82,1485.27 L 284.78,1484.36 L 286.77,1483.51 L 288.79,1482.74 L 290.84,1482.03 L 292.91,1481.40 L 295.00,1480.84 L 297.11,1480.35 L 299.23,1479.94 L 301.37,1479.60 L 303.52,1479.34 L 305.68,1479.15 L 307.84,1479.04 L 310.00,1479.00 L 312.16,1479.04 L 314.32,1479.15 L 316.48,1479.34 L 318.63,1479.60 L 320.77,1479.94 L 322.89,1480.35 L 325.00,1480.84 L 327.09,1481.40 L 329.16,1482.03 L 331.21,1482.74 L 333.23,1483.51 L 335.22,1484.36 L 337.18,1485.27 L 339.11,1486.26 L 341.00,1487.31 L 342.85,1488.42 L 344.67,1489.60 L 346.44,1490.84 L 348.17,1492.14 L 349.85,1493.51 L 351.49,1494.93 L 353.07,1496.40 L 354.60,1497.93 L 356.07,1499.51 L 357.49,1501.15 L 358.86,1502.83 L 360.16,1504.56 L 444.97,1539.26 L 444.88,1537.51 L 444.73,1535.77 L 444.51,1534.04 L 444.24,1532.32 L 443.91,1530.60 L 443.51,1528.90 L 443.06,1527.22 L 442.55,1525.55 L 441.98,1523.90 L 441.36,1522.27 L 440.68,1520.66 L 439.94,1519.08 L 439.15,1517.53 L 438.30,1516.00 L 437.40,1514.50 L 436.45,1513.04 L 435.45,1511.61 L 434.40,1510.22 L 433.30,1508.86 L 432.16,1507.54 L 430.97,1506.27 L 429.73,1505.03 L 428.46,1503.84 L 427.14,1502.70 L 425.78,1501.60 L 424.39,1500.55 L 422.96,1499.55 L 421.50,1498.60 L 420.00,1497.70 L 418.47,1496.85 L 416.92,1496.06 L 415.34,1495.32 L 413.73,1494.64 L 412.10,1494.02 L 410.45,1493.45 L 408.78,1492.94 L 407.10,1492.49 L 405.40,1492.09 L 403.68,1491.76 L 401.96,1491.49 L 400.23,1491.27 L 398.49,1491.12 L 396.74,1491.03 L 395.00,1491.00 L 393.26,1491.03 L 391.51,1491.12 L 389.77,1491.27 L 388.04,1491.49 L 386.32,1491.76 L 384.60,1492.09 L 382.90,1492.49 L 381.22,1492.94 L 379.55,1493.45 L 377.90,1494.02 L 376.27,1494.64 L 374.66,1495.32 L 373.08,1496.06 L 371.53,1496.85 L 370.00,1497.70 L 368.50,1498.60 L 367.04,1499.55 L 365.61,1500.55 L 364.22,1501.60 L 362.86,1502.70 L 361.54,1503.84 L 361.54,1578.16 L 362.86,1579.30 L 364.22,1580.40 L 365.61,1581.45 L 367.04,1582.45 L 368.50,1583.40 L 370.00,1584.30 L 371.53,1585.15 L 373.08,1585.94 L 374.66,1586.68 L 376.27,1587.36 L 377.90,1587.98 L 379.55,1588.55 L 381.22,1589.06 L 382.90,1589.51 L 384.60,1589.91 L 386.32,1590.24 L 388.04,1590.51 L 389.77,1590.73 L 391.51,1590.88 L 393.26,1590.97 L 395.00,1591.00 L 396.74,1590.97 L 398.49,1590.88 L 400.23,1590.73 L 401.96,1590.51 L 403.68,1590.24 L 405.40,1589.91 L 407.10,1589.51 L 408.78,1589.06 L 410.45,1588.55 L 412.10,1587.98 L 413.73,1587.36 L 415.34,1586.68 L 416.92,1585.94 L 418.47,1585.15 L 420.00,1584.30 L 421.50,1583.40 L 422.96,1582.45 L 424.39,1581.45 L 425.78,1580.40 L 427.14,1579.30 L 428.46,1578.16 L 429.73,1576.97 L 430.97,1575.73 L 432.16,1574.46 L 433.30,1573.14 L 434.40,1571.78 L 435.45,1570.39 L 436.45,1568.96 L 437.40,1567.50 L 438.30,1566.00 L 439.15,1564.47 L 439.94,1562.92 L 440.68,1561.34 L 441.36,1559.73 L 441.98,1558.10 L 442.55,1556.45 L 443.06,1554.78 L 443.51,1553.10 L 443.91,1551.40 L 444.24,1549.68 L 444.51,1547.96 L 444.73,1546.23 L 444.88,1544.49 L 444.97,1542.74 L 445.00,1541.00 Z" fill="#ffd84d" stroke="#1a1a1a" stroke-width="4" fill-rule="nonzero"/><g transform="translate(0.00,0.00) scale(1)"><path d="M 348.00,1516.00 L 352.00,1516.00 L 352.00,1519.00 L 348.00,1519.00 Z" fill="#ffd84d" stroke="none" stroke-width="3"/><text font-family="'Segoe UI','Noto Sans',sans-serif" font-size="19" fill="#1a1a1a" text-anchor="middle"><tspan x="352.0" y="1536.0">Landslide!</tspan><tspan x="352.0" y="1560.0">…supposedly</tspan></text></g><g transform="translate(0.00,0.00) scale(1)"><path d="M 200.00,1594.00 L 230.00,1558.00 L 262.00,1594.00 Z" fill="#ffffff" stroke="#1a1a1a" stroke-width="3" stroke-linejoin="round"/><path d="M 120.00,1592.00 L 660.00,1592.00 L 660.00,1658.00 L 120.00,1658.00 Z" fill="#ffffff" stroke="#1a1a1a" stroke-width="3"/><text font-family="'Segoe UI','Noto Sans',sans-serif" font-size="20" fill="#1a1a1a" text-anchor="middle"><tspan x="390.0" y="1618.0">Suspiciously fast —</tspan><tspan x="390.0" y="1648.0">isn't something off?</tspan></text></g><g transform="translate(0.00,0.00) scale(1)"><path d="M 60.00,1730.00 L 700.00,1730.00 L 700.00,1872.00 L 60.00,1872.00 Z" fill="#ffffff" stroke="#1a1a1a" stroke-width="4"/><text font-family="'Segoe UI','Noto Sans',sans-serif" font-size="22" fill="#1a1a1a" text-anchor="middle"><tspan x="380.0" y="1781.0">It wasn't even calling the AI…</tspan><tspan x="380.0" y="1823.0">fixed, now it's 2-4x SLOWER!</tspan></text></g><g transform="translate(0.00,0.00) scale(1)"><path d="M 60.00,1900.00 L 700.00,1900.00 L 700.00,2034.00 L 60.00,2034.00 Z" fill="#efe7d2" stroke="#1a1a1a" stroke-width="2"/><text font-family="'Segoe UI','Noto Sans',sans-serif" font-size="17" fill="#1a1a1a" text-anchor="middle"><tspan x="380.0" y="1935.0">Value is structure, not speed</tspan><tspan x="380.0" y="1968.0">Memory, audit, workflow</tspan><tspan x="380.0" y="2001.0">Don't erase failures — disclose them</tspan></text></g><g transform="translate(0.00,0.00) scale(1)"><path d="M 376.00,2086.00 L 384.00,2086.00 L 384.00,2090.00 L 376.00,2090.00 Z" fill="#f5efe2" stroke="none" stroke-width="3"/><text font-family="'Segoe UI','Noto Sans',sans-serif" font-size="20" fill="#6a645a" text-anchor="middle"><tspan x="380.0" y="2120.0">→ Read the full dev diary</tspan></text></g><g transform="translate(0.00,0.00) scale(1)"><path d="M 376.00,2156.00 L 384.00,2156.00 L 384.00,2160.00 L 376.00,2160.00 Z" fill="#f5efe2" stroke="none" stroke-width="3"/><text font-family="'Segoe UI','Noto Sans',sans-serif" font-size="13" fill="#8a8474" text-anchor="middle"><tspan x="380.0" y="2180.0">mangamd L0 / FullSense</tspan></text></g>
</svg>
