<svg xmlns="http://www.w3.org/2000/svg" xmlns:xlink="http://www.w3.org/1999/xlink" viewBox="0 0 760 2300" role="img" aria-label="给 AI 配一个秘书 — llive 开发日记 四格" style="width:100%;height:auto;max-width:1200px">
  <title>给 AI 配一个秘书 — llive 开发日记 四格</title>
  <defs><clipPath id="cl_21"><rect x="25" y="1188" width="710" height="484"/></clipPath><clipPath id="cl_27"><rect x="25" y="1708" width="710" height="484"/></clipPath></defs>
  <rect width="760" height="2300" fill="#f5efe2"/><g transform="translate(0.00,0.00) scale(1)"><path d="M 24.00,18.00 L 736.00,18.00 L 736.00,118.00 L 24.00,118.00 Z" fill="#2b2317" stroke="none" stroke-width="3" stroke-linejoin="round"/><text font-family="'Microsoft YaHei','Noto Sans CJK SC',sans-serif" font-size="26" fill="#f7efdd" text-anchor="middle"><tspan x="380.0" y="58.0">从『只是使用 AI』</tspan><tspan x="380.0" y="98.0">到『给 AI 配一个秘书』</tspan></text></g><g transform="translate(0.00,0.00) scale(1)"><path d="M 20.00,140.00 L 740.00,140.00 L 740.00,640.00 L 20.00,640.00 Z" fill="#ffffff" stroke="#1a1a1a" stroke-width="5" stroke-linejoin="round"/><text font-family="'Microsoft YaHei','Noto Sans CJK SC',sans-serif" font-size="1" fill="#1a1a1a" text-anchor="middle"><tspan x="0.0" y="0.0"></tspan></text></g><g transform="translate(0.00,0.00) scale(1)"><path d="M 20.00,660.00 L 740.00,660.00 L 740.00,1160.00 L 20.00,1160.00 Z" fill="#ffffff" stroke="#1a1a1a" stroke-width="5" stroke-linejoin="round"/><text font-family="'Microsoft YaHei','Noto Sans CJK SC',sans-serif" font-size="1" fill="#1a1a1a" text-anchor="middle"><tspan x="0.0" y="0.0"></tspan></text></g><g transform="translate(0.00,0.00) scale(1)"><path d="M 20.00,1180.00 L 740.00,1180.00 L 740.00,1680.00 L 20.00,1680.00 Z" fill="#ffffff" stroke="#1a1a1a" stroke-width="5" stroke-linejoin="round"/><text font-family="'Microsoft YaHei','Noto Sans CJK SC',sans-serif" font-size="1" fill="#1a1a1a" text-anchor="middle"><tspan x="0.0" y="0.0"></tspan></text></g><g transform="translate(0.00,0.00) scale(1)"><path d="M 20.00,1700.00 L 740.00,1700.00 L 740.00,2200.00 L 20.00,2200.00 Z" fill="#ffffff" stroke="#1a1a1a" stroke-width="5" stroke-linejoin="round"/><text font-family="'Microsoft YaHei','Noto Sans CJK SC',sans-serif" font-size="1" fill="#1a1a1a" text-anchor="middle"><tspan x="0.0" y="0.0"></tspan></text></g><g transform="translate(0.00,0.00) scale(1)"><path d="M 40.00,160.00 L 720.00,160.00 L 720.00,232.00 L 40.00,232.00 Z" fill="#fffbe8" stroke="#1a1a1a" stroke-width="3" stroke-linejoin="round"/><text font-family="'Microsoft YaHei','Noto Sans CJK SC',sans-serif" font-size="22" fill="#1a1a1a" text-anchor="middle"><tspan x="380.0" y="203.0">好用的 AI，其实很可怕</tspan></text></g><g transform="translate(0.00,0.00) scale(1)"><path d="M 90.00,361.00 a 62.00,62.00 0 1,0 124.00,0 a 62.00,62.00 0 1,0 -124.00,0 Z" fill="#fbe5e5" stroke="#1a1a1a" stroke-width="3" stroke-linejoin="round"/><text font-family="'Microsoft YaHei','Noto Sans CJK SC',sans-serif" font-size="19" fill="#1a1a1a" text-anchor="middle"><tspan x="152.0" y="357.0">机密</tspan><tspan x="152.0" y="379.8">信息</tspan></text></g><g transform="translate(0.00,0.00) scale(1)"><path d="M 242.00,361.00 a 62.00,62.00 0 1,0 124.00,0 a 62.00,62.00 0 1,0 -124.00,0 Z" fill="#fbe5e5" stroke="#1a1a1a" stroke-width="3" stroke-linejoin="round"/><text font-family="'Microsoft YaHei','Noto Sans CJK SC',sans-serif" font-size="19" fill="#1a1a1a" text-anchor="middle"><tspan x="304.0" y="357.0">医疗</tspan><tspan x="304.0" y="379.8">记录</tspan></text></g><g transform="translate(0.00,0.00) scale(1)"><path d="M 394.00,361.00 a 62.00,62.00 0 1,0 124.00,0 a 62.00,62.00 0 1,0 -124.00,0 Z" fill="#f7c8c8" stroke="#1a1a1a" stroke-width="3" stroke-linejoin="round"/><text font-family="'Microsoft YaHei','Noto Sans CJK SC',sans-serif" font-size="19" fill="#1a1a1a" text-anchor="middle"><tspan x="456.0" y="357.0">发往</tspan><tspan x="456.0" y="379.8">云端</tspan></text></g><g transform="translate(0.00,0.00) scale(1)"><path d="M 546.00,361.00 a 62.00,62.00 0 1,0 124.00,0 a 62.00,62.00 0 1,0 -124.00,0 Z" fill="#f7c8c8" stroke="#1a1a1a" stroke-width="3" stroke-linejoin="round"/><text font-family="'Microsoft YaHei','Noto Sans CJK SC',sans-serif" font-size="19" fill="#1a1a1a" text-anchor="middle"><tspan x="608.0" y="357.0">责任</tspan><tspan x="608.0" y="379.8">不明</tspan></text></g><g transform="translate(0.00,0.00) scale(1)"><path d="M 596.68,474.64 a 53.32,53.32 0 1,0 106.64,0 a 53.32,53.32 0 1,0 -106.64,0 Z" fill="#4a3826" stroke="none" stroke-width="2" stroke-linejoin="round"/><path d="M 597.84,492.00 a 42.16,42.16 0 1,0 84.32,0 a 42.16,42.16 0 1,0 -84.32,0 Z" fill="#fbd7b5" stroke="none" stroke-width="2" stroke-linejoin="round"/><path d="M 598.46,461.00 a 18.60,18.60 0 1,0 37.20,0 a 18.60,18.60 0 1,0 -37.20,0 Z" fill="#4a3826" stroke="none" stroke-width="2" stroke-linejoin="round"/><path d="M 622.64,454.80 a 20.46,20.46 0 1,0 40.92,0 a 20.46,20.46 0 1,0 -40.92,0 Z" fill="#4a3826" stroke="none" stroke-width="2" stroke-linejoin="round"/><path d="M 651.16,463.48 a 17.98,17.98 0 1,0 35.96,0 a 17.98,17.98 0 1,0 -35.96,0 Z" fill="#4a3826" stroke="none" stroke-width="2" stroke-linejoin="round"/><path d="M 607.7600000000001 479.6 q 7.4399999999999995 -8 14.879999999999999 -2" fill="none" stroke="#3a2c20" stroke-width="2.5" stroke-linejoin="round" stroke-linecap="round"/><path d="M 639.38 478.98 q 6.2 -6 12.4 -2" fill="none" stroke="#3a2c20" stroke-width="2.25" stroke-linejoin="round" stroke-linecap="round"/><path d="M 612.72,489.52 a 3.72,3.72 0 1,0 7.44,0 a 3.72,3.72 0 1,0 -7.44,0 Z" fill="#3a2c20" stroke="none" stroke-width="2" stroke-linejoin="round"/><path d="M 642.79,489.52 a 3.41,3.41 0 1,0 6.82,0 a 3.41,3.41 0 1,0 -6.82,0 Z" fill="#3a2c20" stroke="none" stroke-width="2" stroke-linejoin="round"/><path d="M 597.84,509.36 a 8.06,9.92 0 1,0 16.12,0 a 8.06,9.92 0 1,0 -16.12,0 Z" fill="#8e3b35" stroke="none" stroke-width="2" stroke-linejoin="round"/><path d="M 587.3 631.5 Q 587.3 554.0 640 550.9 Q 692.7 554.0 692.7 631.5 Z" fill="#5a6e8c" stroke="none" stroke-width="2" stroke-linejoin="round"/><path d="M 630.7 560.2 L 640 575.08 L 649.3 560.2" fill="#ffffff" stroke="none" stroke-width="2" stroke-linejoin="round"/></g><g transform="translate(0.00,0.00) scale(1)"><path d="M 488.28,536.49 C 488.90,538.70 492.18,545.36 491.96,549.80 C 491.75,554.24 490.53,558.81 487.01,563.14 C 483.49,567.46 478.09,571.85 470.83,575.75 C 463.58,579.66 453.45,583.17 443.47,586.55 C 433.50,589.93 422.86,593.21 410.96,596.02 C 399.06,598.84 386.02,601.57 372.09,603.43 C 358.16,605.29 342.53,606.42 327.36,607.18 C 312.19,607.93 296.36,608.23 281.07,607.96 C 265.78,607.70 250.42,606.74 235.60,605.57 C 220.78,604.39 205.50,603.06 192.14,600.92 C 178.78,598.77 166.72,595.72 155.41,592.70 C 144.11,589.67 133.05,586.41 124.30,582.78 C 115.56,579.14 108.88,575.00 102.92,570.88 C 96.97,566.77 91.89,562.48 88.57,558.09 C 85.24,553.71 82.25,549.04 82.96,544.56 C 83.67,540.08 88.42,535.57 92.83,531.22 C 97.24,526.87 101.90,522.40 109.43,518.49 C 116.96,514.58 127.32,510.97 138.01,507.74 C 148.69,504.51 160.90,501.65 173.51,499.11 C 186.12,496.58 199.58,494.23 213.68,492.51 C 227.77,490.79 242.99,489.46 258.08,488.78 C 273.18,488.09 289.09,487.97 304.24,488.41 C 319.40,488.84 334.26,490.16 349.02,491.38 C 363.78,492.60 379.57,493.57 392.81,495.74 C 406.05,497.90 417.23,501.30 428.47,504.38 C 439.70,507.46 454.94,512.58 460.24,514.21 Q 505.24,530.10 567.87,514.01 Q 518.17,511.53 488.28,536.49 Z" fill="#ffffff" stroke="#1a1a1a" stroke-width="3" stroke-linejoin="round"/><text font-family="'Microsoft YaHei','Noto Sans CJK SC',sans-serif" font-size="24" fill="#1a1a1a" text-anchor="middle"><tspan x="290.0" y="541.4">机密和计算全交给</tspan><tspan x="290.0" y="571.4">云端，真的没问题吗?</tspan></text></g><g transform="translate(0.00,0.00) scale(1)"><path d="M 40.00,680.00 L 720.00,680.00 L 720.00,752.00 L 40.00,752.00 Z" fill="#fffbe8" stroke="#1a1a1a" stroke-width="3" stroke-linejoin="round"/><text font-family="'Microsoft YaHei','Noto Sans CJK SC',sans-serif" font-size="22" fill="#1a1a1a" text-anchor="middle"><tspan x="380.0" y="723.0">于是有了 llive — 给 AI 配秘书</tspan></text></g><g transform="translate(0.00,0.00) scale(1)"><path d="M 150.00,774.00 L 610.00,774.00 L 610.00,828.00 L 150.00,828.00 Z" fill="#fffbe8" stroke="#1a1a1a" stroke-width="3" stroke-linejoin="round"/><text font-family="'Microsoft YaHei','Noto Sans CJK SC',sans-serif" font-size="21" fill="#1a1a1a" text-anchor="middle"><tspan x="380.0" y="808.0">上司=人类递指示书</tspan></text></g><g transform="translate(0.00,0.00) scale(1)"><path d="M 368.00,832.00 L 392.00,832.00 L 380.00,850.00 Z" fill="#1a1a1a" stroke="none" stroke-width="3" stroke-linejoin="round"/><text font-family="'Microsoft YaHei','Noto Sans CJK SC',sans-serif" font-size="1" fill="#1a1a1a" text-anchor="middle"><tspan x="0.0" y="0.0"></tspan></text></g><g transform="translate(0.00,0.00) scale(1)"><path d="M 150.00,854.00 L 610.00,854.00 L 610.00,908.00 L 150.00,908.00 Z" fill="#fffbe8" stroke="#1a1a1a" stroke-width="3" stroke-linejoin="round"/><text font-family="'Microsoft YaHei','Noto Sans CJK SC',sans-serif" font-size="21" fill="#1a1a1a" text-anchor="middle"><tspan x="380.0" y="888.0">秘书=llive 记录/审计</tspan></text></g><g transform="translate(0.00,0.00) scale(1)"><path d="M 368.00,912.00 L 392.00,912.00 L 380.00,930.00 Z" fill="#1a1a1a" stroke="none" stroke-width="3" stroke-linejoin="round"/><text font-family="'Microsoft YaHei','Noto Sans CJK SC',sans-serif" font-size="1" fill="#1a1a1a" text-anchor="middle"><tspan x="0.0" y="0.0"></tspan></text></g><g transform="translate(0.00,0.00) scale(1)"><path d="M 150.00,934.00 L 610.00,934.00 L 610.00,988.00 L 150.00,988.00 Z" fill="#fffbe8" stroke="#1a1a1a" stroke-width="3" stroke-linejoin="round"/><text font-family="'Microsoft YaHei','Noto Sans CJK SC',sans-serif" font-size="21" fill="#1a1a1a" text-anchor="middle"><tspan x="380.0" y="968.0">AI 本体 Qwen 回答</tspan></text></g><g transform="translate(0.00,0.00) scale(1)"><path d="M 56.68,994.64 a 53.32,53.32 0 1,0 106.64,0 a 53.32,53.32 0 1,0 -106.64,0 Z" fill="#4a3826" stroke="none" stroke-width="2" stroke-linejoin="round"/><path d="M 77.84,1012.00 a 42.16,42.16 0 1,0 84.32,0 a 42.16,42.16 0 1,0 -84.32,0 Z" fill="#fbd7b5" stroke="none" stroke-width="2" stroke-linejoin="round"/><path d="M 124.34,981.00 a 18.60,18.60 0 1,0 37.20,0 a 18.60,18.60 0 1,0 -37.20,0 Z" fill="#4a3826" stroke="none" stroke-width="2" stroke-linejoin="round"/><path d="M 96.44,974.80 a 20.46,20.46 0 1,0 40.92,0 a 20.46,20.46 0 1,0 -40.92,0 Z" fill="#4a3826" stroke="none" stroke-width="2" stroke-linejoin="round"/><path d="M 72.88,983.48 a 17.98,17.98 0 1,0 35.96,0 a 17.98,17.98 0 1,0 -35.96,0 Z" fill="#4a3826" stroke="none" stroke-width="2" stroke-linejoin="round"/><path d="M 139.53 1009.52 q 4.03 4.34 8.06 0" fill="none" stroke="#3a2c20" stroke-width="2.5" stroke-linejoin="round" stroke-linecap="round"/><path d="M 110.39 1009.52 q 3.41 4.34 6.82 0" fill="none" stroke="#3a2c20" stroke-width="2.5" stroke-linejoin="round" stroke-linecap="round"/><path d="M 146.04 1026.88 q 7.4399999999999995 6.2 14.879999999999999 1.24" fill="none" stroke="#8e3b35" stroke-width="2.5" stroke-linejoin="round" stroke-linecap="round"/><path d="M 67.3 1151.5 Q 67.3 1074.0 120 1070.9 Q 172.7 1074.0 172.7 1151.5 Z" fill="#5a6e8c" stroke="none" stroke-width="2" stroke-linejoin="round"/><path d="M 110.7 1080.2 L 120 1095.08 L 129.3 1080.2" fill="#ffffff" stroke="none" stroke-width="2" stroke-linejoin="round"/></g><g transform="translate(0.00,0.00) scale(1)"><path d="M 298.38,1033.99 C 303.89,1032.39 320.08,1027.51 331.40,1024.40 C 342.71,1021.29 353.11,1017.60 366.26,1015.35 C 379.41,1013.09 395.40,1012.02 410.30,1010.87 C 425.19,1009.71 440.42,1008.68 455.62,1008.42 C 470.82,1008.16 486.16,1008.81 501.48,1009.32 C 516.80,1009.83 533.51,1009.83 547.55,1011.51 C 561.58,1013.18 573.52,1016.62 585.69,1019.38 C 597.87,1022.13 610.27,1024.80 620.60,1028.06 C 630.93,1031.31 639.92,1035.06 647.67,1038.92 C 655.41,1042.77 662.97,1046.90 667.07,1051.18 C 671.18,1055.46 671.13,1060.10 672.28,1064.60 C 673.43,1069.10 676.36,1073.79 673.97,1078.18 C 671.57,1082.57 664.06,1086.80 657.91,1090.94 C 651.76,1095.08 646.09,1099.44 637.09,1103.02 C 628.08,1106.60 615.68,1109.57 603.89,1112.40 C 592.10,1115.23 579.45,1117.69 566.35,1120.01 C 553.24,1122.33 539.78,1124.85 525.26,1126.32 C 510.74,1127.79 494.58,1128.74 479.20,1128.83 C 463.83,1128.91 447.94,1127.91 432.99,1126.85 C 418.05,1125.78 403.63,1124.19 389.54,1122.44 C 375.44,1120.68 361.03,1118.86 348.43,1116.33 C 335.83,1113.80 324.20,1110.62 313.93,1107.26 C 303.67,1103.89 293.47,1100.19 286.85,1096.16 C 280.22,1092.13 277.91,1087.47 274.20,1083.09 C 270.48,1078.70 265.61,1074.34 264.54,1069.87 C 263.48,1065.41 267.27,1058.56 267.81,1056.30 Q 239.32,1031.35 191.68,1034.02 Q 253.74,1050.05 298.38,1033.99 Z" fill="#ffffff" stroke="#1a1a1a" stroke-width="3" stroke-linejoin="round"/><text font-family="'Microsoft YaHei','Noto Sans CJK SC',sans-serif" font-size="24" fill="#1a1a1a" text-anchor="middle"><tspan x="470.0" y="1061.4">做的不是 AI 本体,</tspan><tspan x="470.0" y="1091.4">而是善用它的秘书</tspan></text></g><g transform="translate(0.00,0.00) scale(1)"><path d="M 40.00,1200.00 L 720.00,1200.00 L 720.00,1272.00 L 40.00,1272.00 Z" fill="#fffbe8" stroke="#1a1a1a" stroke-width="3" stroke-linejoin="round"/><text font-family="'Microsoft YaHei','Noto Sans CJK SC',sans-serif" font-size="22" fill="#1a1a1a" text-anchor="middle"><tspan x="380.0" y="1243.0">基准测试完胜!…快得奇怪</tspan></text></g><g clip-path="url(#cl_21)"><path d="M 561.6,1392.8 L 1085.4,1404.3 L 1085.5,1391.5 Z" fill="#ffffff"/><path d="M 540.6,1427.2 L 1002.1,1535.5 L 1004.0,1527.3 Z" fill="#ffffff"/><path d="M 526.5,1445.6 L 986.4,1622.5 L 990.0,1612.7 Z" fill="#ffffff"/><path d="M 538.5,1478.0 L 969.9,1722.8 L 976.7,1710.5 Z" fill="#ffffff"/><path d="M 510.5,1485.2 L 944.8,1807.5 L 953.2,1795.8 Z" fill="#ffffff"/><path d="M 499.7,1492.5 L 900.4,1837.6 L 905.6,1831.4 Z" fill="#ffffff"/><path d="M 489.7,1511.8 L 804.3,1865.0 L 811.3,1858.6 Z" fill="#ffffff"/><path d="M 482.7,1536.1 L 752.2,1925.5 L 760.0,1919.9 Z" fill="#ffffff"/><path d="M 456.0,1533.3 L 695.0,1992.2 L 704.1,1987.3 Z" fill="#ffffff"/><path d="M 429.2,1534.5 L 596.7,2047.8 L 612.0,2042.5 Z" fill="#ffffff"/><path d="M 420.6,1557.8 L 542.2,2081.8 L 553.6,2079.0 Z" fill="#ffffff"/><path d="M 395.6,1538.8 L 442.4,2048.2 L 456.0,2046.7 Z" fill="#ffffff"/><path d="M 374.3,1561.0 L 349.2,2067.2 L 365.5,2067.8 Z" fill="#ffffff"/><path d="M 358.5,1556.4 L 289.1,2040.0 L 301.6,2041.6 Z" fill="#ffffff"/><path d="M 332.2,1560.7 L 182.6,2061.1 L 198.3,2065.6 Z" fill="#ffffff"/><path d="M 316.0,1557.4 L 131.2,2021.4 L 142.5,2025.7 Z" fill="#ffffff"/><path d="M 313.5,1524.9 L 89.7,1966.4 L 96.9,1970.0 Z" fill="#ffffff"/><path d="M 282.3,1524.8 L -31.1,1940.9 L -18.8,1949.9 Z" fill="#ffffff"/><path d="M 235.7,1490.4 L -206.1,1787.8 L -199.6,1797.3 Z" fill="#ffffff"/><path d="M 221.1,1472.5 L -218.5,1690.7 L -212.7,1702.1 Z" fill="#ffffff"/><path d="M 234.5,1449.7 L -244.2,1638.6 L -241.1,1646.1 Z" fill="#ffffff"/><path d="M 206.2,1440.4 L -274.2,1573.9 L -272.5,1579.7 Z" fill="#ffffff"/><path d="M 227.5,1412.8 L -327.1,1487.9 L -326.0,1496.1 Z" fill="#ffffff"/><path d="M 200.8,1389.5 L -296.8,1379.1 L -296.9,1391.7 Z" fill="#ffffff"/><path d="M 203.6,1366.8 L -332.0,1286.3 L -333.9,1299.8 Z" fill="#ffffff"/><path d="M 213.6,1347.9 L -209.4,1231.6 L -212.7,1244.3 Z" fill="#ffffff"/><path d="M 229.0,1329.0 L -247.0,1125.3 L -252.9,1139.5 Z" fill="#ffffff"/><path d="M 217.7,1308.5 L -233.9,1073.8 L -238.1,1082.2 Z" fill="#ffffff"/><path d="M 225.5,1291.3 L -196.8,1014.7 L -200.4,1020.4 Z" fill="#ffffff"/><path d="M 267.9,1263.3 L -64.2,875.7 L -73.3,883.6 Z" fill="#ffffff"/><path d="M 283.3,1246.9 L 35.3,865.4 L 24.3,872.8 Z" fill="#ffffff"/><path d="M 292.5,1233.7 L 44.4,780.0 L 37.7,783.7 Z" fill="#ffffff"/><path d="M 329.2,1241.2 L 185.2,790.3 L 169.4,795.7 Z" fill="#ffffff"/><path d="M 345.5,1233.6 L 238.7,710.8 L 223.8,714.0 Z" fill="#ffffff"/><path d="M 363.5,1224.0 L 320.0,711.1 L 305.4,712.5 Z" fill="#ffffff"/><path d="M 407.4,1219.0 L 493.8,730.0 L 477.1,727.4 Z" fill="#ffffff"/><path d="M 423.4,1218.5 L 540.3,778.3 L 528.6,775.3 Z" fill="#ffffff"/><path d="M 431.0,1252.8 L 601.8,804.7 L 592.4,801.3 Z" fill="#ffffff"/><path d="M 446.4,1258.8 L 673.1,817.5 L 665.3,813.6 Z" fill="#ffffff"/><path d="M 464.2,1267.1 L 778.4,813.8 L 769.9,808.1 Z" fill="#ffffff"/><path d="M 492.8,1263.9 L 839.1,882.4 L 830.5,874.7 Z" fill="#ffffff"/><path d="M 525.0,1294.8 L 944.6,1025.1 L 936.8,1013.4 Z" fill="#ffffff"/><path d="M 510.5,1320.0 L 928.9,1097.6 L 924.6,1089.6 Z" fill="#ffffff"/><path d="M 515.4,1337.1 L 1008.9,1145.5 L 1005.6,1137.2 Z" fill="#ffffff"/><path d="M 532.4,1353.0 L 1005.9,1240.4 L 1003.3,1229.8 Z" fill="#ffffff"/><path d="M 528.4,1377.8 L 1050.2,1339.7 L 1048.8,1323.6 Z" fill="#ffffff"/><path d="M 567.2,1392.8 L 1085.4,1402.2 L 1085.5,1393.7 Z" fill="#2a2417"/><path d="M 545.6,1428.3 L 1002.4,1534.1 L 1003.7,1528.7 Z" fill="#2a2417"/><path d="M 531.0,1447.3 L 987.0,1620.9 L 989.4,1614.3 Z" fill="#2a2417"/><path d="M 543.4,1480.7 L 971.0,1720.8 L 975.5,1712.5 Z" fill="#2a2417"/><path d="M 514.6,1488.1 L 946.2,1805.5 L 951.8,1797.7 Z" fill="#2a2417"/><path d="M 503.4,1495.7 L 901.2,1836.6 L 904.7,1832.5 Z" fill="#2a2417"/><path d="M 493.1,1515.5 L 805.4,1863.9 L 810.1,1859.7 Z" fill="#2a2417"/><path d="M 485.8,1540.6 L 753.5,1924.6 L 758.7,1920.9 Z" fill="#2a2417"/><path d="M 458.3,1537.7 L 696.5,1991.4 L 702.5,1988.1 Z" fill="#2a2417"/><path d="M 430.7,1538.9 L 599.3,2046.9 L 609.4,2043.4 Z" fill="#2a2417"/><path d="M 421.9,1563.0 L 544.1,2081.3 L 551.7,2079.5 Z" fill="#2a2417"/><path d="M 396.1,1543.4 L 444.7,2047.9 L 453.7,2047.0 Z" fill="#2a2417"/><path d="M 374.1,1566.3 L 351.9,2067.3 L 362.8,2067.7 Z" fill="#2a2417"/><path d="M 357.8,1561.5 L 291.2,2040.2 L 299.6,2041.3 Z" fill="#2a2417"/><path d="M 330.7,1566.0 L 185.2,2061.9 L 195.7,2064.8 Z" fill="#2a2417"/><path d="M 314.1,1562.6 L 133.1,2022.1 L 140.6,2025.0 Z" fill="#2a2417"/><path d="M 311.4,1529.0 L 90.9,1967.0 L 95.7,1969.4 Z" fill="#2a2417"/><path d="M 279.2,1529.0 L -29.1,1942.4 L -20.8,1948.4 Z" fill="#2a2417"/><path d="M 231.3,1493.5 L -205.0,1789.4 L -200.7,1795.7 Z" fill="#2a2417"/><path d="M 216.2,1475.0 L -217.5,1692.6 L -213.6,1700.2 Z" fill="#2a2417"/><path d="M 230.0,1451.6 L -243.7,1639.8 L -241.6,1644.9 Z" fill="#2a2417"/><path d="M 200.8,1442.0 L -273.9,1574.9 L -272.8,1578.8 Z" fill="#2a2417"/><path d="M 222.8,1413.5 L -327.0,1489.3 L -326.2,1494.7 Z" fill="#2a2417"/><path d="M 195.2,1389.5 L -296.9,1381.2 L -296.9,1389.6 Z" fill="#2a2417"/><path d="M 198.1,1366.0 L -332.3,1288.5 L -333.6,1297.6 Z" fill="#2a2417"/><path d="M 208.4,1346.6 L -209.9,1233.8 L -212.1,1242.2 Z" fill="#2a2417"/><path d="M 224.3,1327.1 L -248.0,1127.7 L -251.9,1137.1 Z" fill="#2a2417"/><path d="M 212.7,1306.0 L -234.6,1075.2 L -237.4,1080.8 Z" fill="#2a2417"/><path d="M 220.7,1288.2 L -197.4,1015.7 L -199.8,1019.4 Z" fill="#2a2417"/><path d="M 264.5,1259.4 L -65.7,877.0 L -71.8,882.3 Z" fill="#2a2417"/><path d="M 280.3,1242.4 L 33.5,866.7 L 26.1,871.6 Z" fill="#2a2417"/><path d="M 289.8,1228.8 L 43.3,780.6 L 38.8,783.1 Z" fill="#2a2417"/><path d="M 327.6,1236.6 L 182.5,791.2 L 172.0,794.8 Z" fill="#2a2417"/><path d="M 344.4,1228.7 L 236.2,711.3 L 226.3,713.5 Z" fill="#2a2417"/><path d="M 362.9,1218.8 L 317.6,711.3 L 307.9,712.3 Z" fill="#2a2417"/><path d="M 408.2,1213.6 L 491.0,729.6 L 479.9,727.8 Z" fill="#2a2417"/><path d="M 424.7,1213.2 L 538.3,777.8 L 530.6,775.8 Z" fill="#2a2417"/><path d="M 432.6,1248.5 L 600.2,804.2 L 594.0,801.8 Z" fill="#2a2417"/><path d="M 448.5,1254.8 L 671.8,816.9 L 666.6,814.2 Z" fill="#2a2417"/><path d="M 466.8,1263.3 L 776.9,812.9 L 771.3,809.0 Z" fill="#2a2417"/><path d="M 496.3,1260.0 L 837.7,881.1 L 831.9,876.0 Z" fill="#2a2417"/><path d="M 529.5,1291.9 L 943.3,1023.2 L 938.1,1015.3 Z" fill="#2a2417"/><path d="M 514.5,1317.8 L 928.2,1096.3 L 925.3,1090.9 Z" fill="#2a2417"/><path d="M 519.6,1335.4 L 1008.3,1144.1 L 1006.1,1138.6 Z" fill="#2a2417"/><path d="M 537.2,1351.8 L 1005.5,1238.6 L 1003.7,1231.6 Z" fill="#2a2417"/><path d="M 533.0,1377.4 L 1050.0,1337.1 L 1049.0,1326.3 Z" fill="#2a2417"/></g><g transform="translate(0.00,0.00) scale(1)"><path d="M 587.67,1391.00 Q 498.17,1405.94 552.35,1437.95 Q 461.66,1429.53 486.62,1478.13 Q 410.59,1444.86 380.00,1484.11 Q 348.30,1446.82 274.40,1477.29 Q 294.72,1431.23 208.20,1437.80 Q 263.96,1405.67 183.69,1391.00 Q 265.86,1376.57 195.16,1340.65 Q 293.19,1350.04 280.56,1309.74 Q 348.15,1334.92 380.00,1292.30 Q 411.07,1336.30 478.54,1310.47 Q 466.12,1350.37 555.52,1343.19 Q 496.93,1376.22 587.67,1391.00 Z" fill="#ffffff" stroke="#1a1a1a" stroke-width="4" stroke-linejoin="round"/><text font-family="'Microsoft YaHei','Noto Sans CJK SC',sans-serif" font-size="46" fill="#1a1a1a" text-anchor="middle"><tspan x="380.0" y="1407.1">0.15秒</tspan></text></g><g transform="translate(0.00,0.00) scale(1)"><path d="M 540.00,1402.00 L 716.00,1402.00 L 716.00,1474.00 L 540.00,1474.00 Z" fill="#fffbe8" stroke="#1a1a1a" stroke-width="2" stroke-linejoin="round"/><text font-family="'Microsoft YaHei','Noto Sans CJK SC',sans-serif" font-size="17" fill="#1a1a1a" text-anchor="middle"><tspan x="628.0" y="1438.0">完胜!</tspan><tspan x="628.0" y="1460.0">…本应如此</tspan></text></g><g transform="translate(0.00,0.00) scale(1)"><path d="M 596.68,1514.64 a 53.32,53.32 0 1,0 106.64,0 a 53.32,53.32 0 1,0 -106.64,0 Z" fill="#4a3826" stroke="none" stroke-width="2" stroke-linejoin="round"/><path d="M 597.84,1532.00 a 42.16,42.16 0 1,0 84.32,0 a 42.16,42.16 0 1,0 -84.32,0 Z" fill="#fbd7b5" stroke="none" stroke-width="2" stroke-linejoin="round"/><path d="M 598.46,1501.00 a 18.60,18.60 0 1,0 37.20,0 a 18.60,18.60 0 1,0 -37.20,0 Z" fill="#4a3826" stroke="none" stroke-width="2" stroke-linejoin="round"/><path d="M 622.64,1494.80 a 20.46,20.46 0 1,0 40.92,0 a 20.46,20.46 0 1,0 -40.92,0 Z" fill="#4a3826" stroke="none" stroke-width="2" stroke-linejoin="round"/><path d="M 651.16,1503.48 a 17.98,17.98 0 1,0 35.96,0 a 17.98,17.98 0 1,0 -35.96,0 Z" fill="#4a3826" stroke="none" stroke-width="2" stroke-linejoin="round"/><path d="M 609.62 1522.08 q 6.82 3.7199999999999998 13.64 1.24" fill="none" stroke="#3a2c20" stroke-width="2.5" stroke-linejoin="round" stroke-linecap="round"/><path d="M 613.03,1530.76 a 3.41,3.41 0 1,0 6.82,0 a 3.41,3.41 0 1,0 -6.82,0 Z" fill="#3a2c20" stroke="none" stroke-width="2" stroke-linejoin="round"/><path d="M 640.62 1519.6 q 5.58 -3.7199999999999998 11.16 1.24" fill="none" stroke="#3a2c20" stroke-width="2.5" stroke-linejoin="round" stroke-linecap="round"/><path d="M 642.79,1530.76 a 3.41,3.41 0 1,0 6.82,0 a 3.41,3.41 0 1,0 -6.82,0 Z" fill="#3a2c20" stroke="none" stroke-width="2" stroke-linejoin="round"/><path d="M 612.72 1550.6 q -4.96 -3.1 -8.68 0 q -3.7199999999999998 3.1 -7.4399999999999995 0" fill="none" stroke="#8e3b35" stroke-width="2.5" stroke-linejoin="round" stroke-linecap="round"/><path d="M 587.3 1671.5 Q 587.3 1594.0 640 1590.9 Q 692.7 1594.0 692.7 1671.5 Z" fill="#5a6e8c" stroke="none" stroke-width="2" stroke-linejoin="round"/><path d="M 630.7 1600.2 L 640 1615.08 L 649.3 1600.2" fill="#ffffff" stroke="none" stroke-width="2" stroke-linejoin="round"/></g><g transform="translate(700.0,1492.0) rotate(8.1)"><path d="M 0,-12.1 Q 7.9,-1.1 5.9,4.0 A 6.6,6.6 0 1 1 -5.9,4.0 Q -7.9,-1.1 0,-12.1 Z" fill="#7EC8E3" stroke="#5aa8c8" stroke-width="1.5"/><path d="M -1.8,-2.2 q -0.9,4.0 0.4,5.7" stroke="#ffffff" stroke-width="1.8" fill="none" stroke-linecap="round"/></g><g transform="translate(0.00,0.00) scale(1)"><path d="M 494.18,1576.81 C 493.90,1579.08 493.36,1585.92 492.51,1590.44 C 491.66,1594.97 493.13,1599.70 489.06,1603.97 C 484.99,1608.24 475.42,1612.08 468.10,1616.06 C 460.79,1620.03 454.89,1624.41 445.17,1627.83 C 435.44,1631.26 422.31,1634.02 409.75,1636.63 C 397.19,1639.25 383.87,1641.68 369.82,1643.53 C 355.77,1645.39 340.64,1646.89 325.45,1647.76 C 310.27,1648.62 294.10,1649.07 278.71,1648.74 C 263.33,1648.40 247.76,1647.16 233.15,1645.73 C 218.53,1644.31 204.23,1642.42 191.01,1640.18 C 177.78,1637.93 165.32,1635.21 153.80,1632.26 C 142.28,1629.31 130.66,1626.13 121.88,1622.49 C 113.10,1618.85 106.48,1614.59 101.12,1610.41 C 95.76,1606.22 92.20,1601.79 89.71,1597.39 C 87.22,1592.98 85.35,1588.41 86.18,1583.97 C 87.02,1579.52 90.30,1574.99 94.74,1570.71 C 99.17,1566.43 105.08,1562.14 112.77,1558.30 C 120.46,1554.45 130.37,1550.86 140.87,1547.64 C 151.38,1544.42 163.51,1541.65 175.80,1538.96 C 188.10,1536.26 200.56,1533.13 214.67,1531.48 C 228.77,1529.82 245.12,1529.65 260.45,1529.04 C 275.77,1528.42 291.53,1527.34 306.63,1527.77 C 321.72,1528.20 336.32,1530.26 351.04,1531.63 C 365.75,1533.00 381.52,1533.84 394.91,1535.97 C 408.31,1538.10 420.09,1541.32 431.39,1544.41 C 442.70,1547.50 457.51,1552.83 462.74,1554.51 Q 506.59,1570.52 567.69,1555.06 Q 521.71,1552.32 494.18,1576.81 Z" fill="#ffffff" stroke="#1a1a1a" stroke-width="3" stroke-linejoin="round"/><text font-family="'Microsoft YaHei','Noto Sans CJK SC',sans-serif" font-size="24" fill="#1a1a1a" text-anchor="middle"><tspan x="290.0" y="1581.4">快得有点奇怪,</tspan><tspan x="290.0" y="1611.4">是不是哪里不对劲?</tspan></text></g><g clip-path="url(#cl_27)"><path d="M 906.5,2032.5 L 1431.3,2043.4 L 1431.5,2031.2 Z" fill="#ffffff"/><path d="M 875.1,2081.6 L 1339.2,2182.5 L 1340.8,2174.7 Z" fill="#ffffff"/><path d="M 854.6,2107.9 L 1325.4,2275.0 L 1328.6,2265.6 Z" fill="#ffffff"/><path d="M 875.7,2154.6 L 1313.5,2382.4 L 1319.6,2370.4 Z" fill="#ffffff"/><path d="M 834.4,2165.4 L 1292.5,2474.0 L 1300.0,2462.5 Z" fill="#ffffff"/><path d="M 819.1,2176.3 L 1245.9,2507.6 L 1250.6,2501.5 Z" fill="#ffffff"/><path d="M 806.9,2204.8 L 1143.1,2539.5 L 1149.4,2533.0 Z" fill="#ffffff"/><path d="M 800.2,2241.3 L 1093.1,2607.8 L 1100.2,2602.0 Z" fill="#ffffff"/><path d="M 760.9,2238.6 L 1039.2,2684.5 L 1047.5,2679.2 Z" fill="#ffffff"/><path d="M 722.6,2242.5 L 941.4,2752.6 L 955.5,2746.3 Z" fill="#ffffff"/><path d="M 714.3,2278.8 L 887.6,2795.3 L 898.2,2791.6 Z" fill="#ffffff"/><path d="M 675.5,2253.0 L 778.1,2766.7 L 790.9,2763.9 Z" fill="#ffffff"/><path d="M 649.1,2290.0 L 682.8,2799.0 L 698.2,2797.7 Z" fill="#ffffff"/><path d="M 625.9,2285.7 L 616.0,2776.2 L 628.0,2776.3 Z" fill="#ffffff"/><path d="M 589.5,2297.6 L 507.0,2816.4 L 522.3,2818.6 Z" fill="#ffffff"/><path d="M 566.1,2296.3 L 447.6,2780.4 L 458.7,2783.0 Z" fill="#ffffff"/><path d="M 556.8,2247.9 L 396.4,2726.5 L 403.6,2728.9 Z" fill="#ffffff"/><path d="M 512.1,2256.1 L 264.9,2722.5 L 277.9,2729.2 Z" fill="#ffffff"/><path d="M 437.9,2219.8 L 53.7,2595.7 L 61.4,2603.4 Z" fill="#ffffff"/><path d="M 412.5,2198.8 L 24.1,2495.2 L 31.6,2504.8 Z" fill="#ffffff"/><path d="M 426.8,2162.0 L -13.5,2446.3 L -9.3,2452.8 Z" fill="#ffffff"/><path d="M 382.5,2158.3 L -58.9,2385.8 L -56.2,2390.9 Z" fill="#ffffff"/><path d="M 406.7,2112.4 L -135.2,2309.8 L -132.5,2317.1 Z" fill="#ffffff"/><path d="M 359.6,2089.1 L -126.2,2190.0 L -123.6,2201.6 Z" fill="#ffffff"/><path d="M 356.2,2056.6 L -188.3,2103.4 L -187.1,2116.4 Z" fill="#ffffff"/><path d="M 364.4,2027.1 L -67.2,2016.2 L -67.3,2028.7 Z" fill="#ffffff"/><path d="M 380.0,1995.7 L -139.2,1916.6 L -141.2,1931.1 Z" fill="#ffffff"/><path d="M 355.1,1971.2 L -140.3,1859.9 L -142.2,1868.7 Z" fill="#ffffff"/><path d="M 359.2,1944.6 L -118.5,1789.3 L -120.4,1795.4 Z" fill="#ffffff"/><path d="M 408.1,1890.5 L -23.2,1610.0 L -29.3,1619.7 Z" fill="#ffffff"/><path d="M 421.9,1861.5 L 77.9,1572.0 L 69.8,1581.8 Z" fill="#ffffff"/><path d="M 428.5,1839.3 L 56.5,1478.8 L 51.5,1484.1 Z" fill="#ffffff"/><path d="M 483.1,1835.5 L 204.8,1448.5 L 192.1,1458.0 Z" fill="#ffffff"/><path d="M 501.6,1817.7 L 229.5,1346.5 L 217.1,1353.9 Z" fill="#ffffff"/><path d="M 521.1,1795.9 L 311.5,1320.0 L 298.8,1325.8 Z" fill="#ffffff"/><path d="M 577.6,1767.7 L 491.7,1278.5 L 475.9,1281.5 Z" fill="#ffffff"/><path d="M 598.6,1758.9 L 556.1,1312.3 L 544.7,1313.5 Z" fill="#ffffff"/><path d="M 626.2,1804.1 L 626.9,1316.1 L 617.4,1316.2 Z" fill="#ffffff"/><path d="M 649.7,1804.2 L 702.3,1300.3 L 694.1,1299.5 Z" fill="#ffffff"/><path d="M 677.6,1805.7 L 805.2,1251.2 L 795.6,1249.1 Z" fill="#ffffff"/><path d="M 714.2,1784.2 L 891.5,1295.5 L 881.2,1291.9 Z" fill="#ffffff"/><path d="M 773.9,1806.6 L 1052.5,1392.1 L 1041.2,1384.7 Z" fill="#ffffff"/><path d="M 767.5,1850.0 L 1065.7,1472.4 L 1058.8,1467.1 Z" fill="#ffffff"/><path d="M 783.6,1869.6 L 1166.4,1481.2 L 1160.3,1475.3 Z" fill="#ffffff"/><path d="M 815.9,1879.3 L 1203.2,1575.4 L 1196.7,1567.3 Z" fill="#ffffff"/><path d="M 825.0,1914.3 L 1292.0,1649.1 L 1284.2,1635.8 Z" fill="#ffffff"/><path d="M 845.8,1932.8 L 1361.4,1711.1 L 1355.2,1697.2 Z" fill="#ffffff"/><path d="M 861.5,1942.0 L 1278.8,1788.4 L 1276.2,1781.7 Z" fill="#ffffff"/><path d="M 850.3,1972.6 L 1339.0,1849.6 L 1337.4,1843.4 Z" fill="#ffffff"/><path d="M 905.0,2002.3 L 1390.0,1960.3 L 1388.7,1947.6 Z" fill="#ffffff"/><path d="M 915.1,2032.6 L 1431.4,2041.4 L 1431.4,2033.3 Z" fill="#2a2417"/><path d="M 882.7,2083.2 L 1339.5,2181.2 L 1340.6,2176.0 Z" fill="#2a2417"/><path d="M 861.6,2110.3 L 1325.9,2273.5 L 1328.1,2267.2 Z" fill="#2a2417"/><path d="M 883.3,2158.5 L 1314.5,2380.4 L 1318.6,2372.4 Z" fill="#2a2417"/><path d="M 840.8,2169.6 L 1293.8,2472.1 L 1298.8,2464.4 Z" fill="#2a2417"/><path d="M 825.1,2180.8 L 1246.7,2506.6 L 1249.8,2502.5 Z" fill="#2a2417"/><path d="M 812.5,2210.2 L 1144.1,2538.4 L 1148.3,2534.1 Z" fill="#2a2417"/><path d="M 805.6,2247.8 L 1094.2,2606.9 L 1099.0,2603.0 Z" fill="#2a2417"/><path d="M 765.1,2245.1 L 1040.6,2683.6 L 1046.1,2680.1 Z" fill="#2a2417"/><path d="M 725.6,2249.0 L 943.8,2751.5 L 953.1,2747.4 Z" fill="#2a2417"/><path d="M 717.0,2286.4 L 889.4,2794.7 L 896.5,2792.2 Z" fill="#2a2417"/><path d="M 676.9,2259.9 L 780.3,2766.2 L 788.8,2764.4 Z" fill="#2a2417"/><path d="M 649.8,2298.0 L 685.3,2798.8 L 695.7,2797.9 Z" fill="#2a2417"/><path d="M 625.9,2293.6 L 618.0,2776.2 L 626.0,2776.3 Z" fill="#2a2417"/><path d="M 588.3,2305.9 L 509.5,2816.7 L 519.7,2818.2 Z" fill="#2a2417"/><path d="M 564.1,2304.5 L 449.4,2780.8 L 456.8,2782.5 Z" fill="#2a2417"/><path d="M 554.6,2254.6 L 397.6,2726.9 L 402.4,2728.5 Z" fill="#2a2417"/><path d="M 508.5,2263.1 L 267.1,2723.6 L 275.7,2728.1 Z" fill="#2a2417"/><path d="M 432.0,2225.7 L 55.0,2597.0 L 60.1,2602.1 Z" fill="#2a2417"/><path d="M 405.8,2204.0 L 25.4,2496.8 L 30.3,2503.2 Z" fill="#2a2417"/><path d="M 420.6,2166.1 L -12.8,2447.3 L -10.0,2451.7 Z" fill="#2a2417"/><path d="M 374.9,2162.3 L -58.5,2386.7 L -56.7,2390.1 Z" fill="#2a2417"/><path d="M 399.8,2114.9 L -134.8,2311.1 L -132.9,2315.9 Z" fill="#2a2417"/><path d="M 351.3,2090.9 L -125.8,2191.9 L -124.0,2199.7 Z" fill="#2a2417"/><path d="M 347.8,2057.4 L -188.1,2105.6 L -187.3,2114.2 Z" fill="#2a2417"/><path d="M 356.3,2027.1 L -67.2,2018.3 L -67.3,2026.6 Z" fill="#2a2417"/><path d="M 372.4,1994.7 L -139.6,1919.0 L -140.9,1928.7 Z" fill="#2a2417"/><path d="M 346.7,1969.4 L -140.6,1861.4 L -141.9,1867.2 Z" fill="#2a2417"/><path d="M 350.9,1941.9 L -118.8,1790.4 L -120.1,1794.4 Z" fill="#2a2417"/><path d="M 401.2,1886.1 L -24.2,1611.7 L -28.3,1618.1 Z" fill="#2a2417"/><path d="M 415.6,1856.3 L 76.5,1573.7 L 71.2,1580.2 Z" fill="#2a2417"/><path d="M 422.3,1833.4 L 55.7,1479.7 L 52.3,1483.3 Z" fill="#2a2417"/><path d="M 478.6,1829.4 L 202.7,1450.1 L 194.2,1456.4 Z" fill="#2a2417"/><path d="M 497.7,1811.1 L 227.4,1347.7 L 219.1,1352.6 Z" fill="#2a2417"/><path d="M 517.8,1788.6 L 309.4,1321.0 L 300.9,1324.8 Z" fill="#2a2417"/><path d="M 576.0,1759.6 L 489.0,1279.0 L 478.5,1281.0 Z" fill="#2a2417"/><path d="M 597.7,1750.5 L 554.2,1312.5 L 546.6,1313.3 Z" fill="#2a2417"/><path d="M 626.1,1797.1 L 625.3,1316.1 L 619.0,1316.2 Z" fill="#2a2417"/><path d="M 650.4,1797.3 L 701.0,1300.1 L 695.5,1299.6 Z" fill="#2a2417"/><path d="M 679.1,1798.8 L 803.6,1250.9 L 797.2,1249.5 Z" fill="#2a2417"/><path d="M 716.9,1776.6 L 889.8,1294.9 L 882.9,1292.5 Z" fill="#2a2417"/><path d="M 778.4,1799.7 L 1050.6,1390.9 L 1043.1,1386.0 Z" fill="#2a2417"/><path d="M 771.8,1844.4 L 1064.6,1471.5 L 1060.0,1468.0 Z" fill="#2a2417"/><path d="M 788.4,1864.7 L 1165.4,1480.2 L 1161.3,1476.2 Z" fill="#2a2417"/><path d="M 821.8,1874.6 L 1202.1,1574.0 L 1197.8,1568.6 Z" fill="#2a2417"/><path d="M 831.1,1910.7 L 1290.7,1646.9 L 1285.5,1638.0 Z" fill="#2a2417"/><path d="M 852.5,1929.8 L 1360.4,1708.8 L 1356.2,1699.5 Z" fill="#2a2417"/><path d="M 868.7,1939.2 L 1278.3,1787.3 L 1276.7,1782.9 Z" fill="#2a2417"/><path d="M 857.2,1970.8 L 1338.7,1848.6 L 1337.6,1844.4 Z" fill="#2a2417"/><path d="M 913.5,2001.5 L 1389.7,1958.2 L 1388.9,1949.7 Z" fill="#2a2417"/></g><g transform="translate(0.00,0.00) scale(1)"><path d="M 581.24,2011.52 a 56.76,56.76 0 1,0 113.52,0 a 56.76,56.76 0 1,0 -113.52,0 Z" fill="#4a3826" stroke="none" stroke-width="2" stroke-linejoin="round"/><path d="M 583.12,2030.00 a 44.88,44.88 0 1,0 89.76,0 a 44.88,44.88 0 1,0 -89.76,0 Z" fill="#fbd7b5" stroke="none" stroke-width="2" stroke-linejoin="round"/><path d="M 583.78,1997.00 a 19.80,19.80 0 1,0 39.60,0 a 19.80,19.80 0 1,0 -39.60,0 Z" fill="#4a3826" stroke="none" stroke-width="2" stroke-linejoin="round"/><path d="M 609.52,1990.40 a 21.78,21.78 0 1,0 43.56,0 a 21.78,21.78 0 1,0 -43.56,0 Z" fill="#4a3826" stroke="none" stroke-width="2" stroke-linejoin="round"/><path d="M 639.88,1999.64 a 19.14,19.14 0 1,0 38.28,0 a 19.14,19.14 0 1,0 -38.28,0 Z" fill="#4a3826" stroke="none" stroke-width="2" stroke-linejoin="round"/><path d="M 595.66,2027.36 a 7.26,7.26 0 1,0 14.52,0 a 7.26,7.26 0 1,0 -14.52,0 Z" fill="#ffffff" stroke="#3a2c20" stroke-width="1.8479999999999999" stroke-linejoin="round" stroke-linecap="round"/><path d="M 600.81,2028.35 a 2.11,2.11 0 1,0 4.22,0 a 2.11,2.11 0 1,0 -4.22,0 Z" fill="#3a2c20" stroke="none" stroke-width="2" stroke-linejoin="round"/><path d="M 628.33,2027.36 a 6.27,6.27 0 1,0 12.54,0 a 6.27,6.27 0 1,0 -12.54,0 Z" fill="#ffffff" stroke="#3a2c20" stroke-width="1.8479999999999999" stroke-linejoin="round" stroke-linecap="round"/><path d="M 632.49,2028.35 a 2.11,2.11 0 1,0 4.22,0 a 2.11,2.11 0 1,0 -4.22,0 Z" fill="#3a2c20" stroke="none" stroke-width="2" stroke-linejoin="round"/><path d="M 584.44,2049.80 a 10.56,13.20 0 1,0 21.12,0 a 10.56,13.20 0 1,0 -21.12,0 Z" fill="#8e3b35" stroke="none" stroke-width="2" stroke-linejoin="round"/><path d="M 571.9 2178.5 Q 571.9 2096.0 628 2092.7 Q 684.1 2096.0 684.1 2178.5 Z" fill="#5a6e8c" stroke="none" stroke-width="2" stroke-linejoin="round"/><path d="M 618.1 2102.6 L 628 2118.44 L 637.9 2102.6" fill="#ffffff" stroke="none" stroke-width="2" stroke-linejoin="round"/></g><g transform="translate(0.00,0.00) scale(1)"><path d="M 575.91,1820.00 Q 449.23,1832.69 534.60,1863.00 Q 406.54,1853.82 550.75,2015.33 Q 340.92,1868.48 300.00,1901.65 Q 261.37,1865.77 162.21,1895.77 Q 191.99,1854.29 79.13,1860.48 Q 147.09,1833.01 27.08,1820.00 Q 149.46,1807.19 77.98,1779.31 Q 190.23,1785.15 173.15,1750.25 Q 260.48,1773.17 300.00,1732.44 Q 341.06,1771.35 428.51,1749.34 Q 412.45,1784.30 534.13,1777.09 Q 449.84,1807.25 575.91,1820.00 Z" fill="#ffffff" stroke="#1a1a1a" stroke-width="4" stroke-linejoin="round"/><text font-family="'Microsoft YaHei','Noto Sans CJK SC',sans-serif" font-size="26" fill="#1a1a1a" text-anchor="middle"><tspan x="300.0" y="1812.8">其实根本没调用 AI…</tspan><tspan x="300.0" y="1845.3">改好后反而慢了 2-4 倍!</tspan></text></g><g transform="translate(0.00,0.00) scale(1)"><path d="M 48.00,2060.00 L 470.00,2060.00 L 470.00,2178.00 L 48.00,2178.00 Z" fill="#efe7d2" stroke="#1a1a1a" stroke-width="2" stroke-linejoin="round"/><text font-family="'Microsoft YaHei','Noto Sans CJK SC',sans-serif" font-size="19" fill="#1a1a1a" text-anchor="middle"><tspan x="259.0" y="2083.0">价值在结构而非速度</tspan><tspan x="259.0" y="2113.0">记忆·审计·流程</tspan><tspan x="259.0" y="2143.0">不抹掉失败，而是诚实公开</tspan></text></g><g transform="translate(0.00,0.00) scale(1)"><path d="M 376.00,2228.00 L 384.00,2228.00 L 384.00,2232.00 L 376.00,2232.00 Z" fill="#f5efe2" stroke="none" stroke-width="3" stroke-linejoin="round"/><text font-family="'Microsoft YaHei','Noto Sans CJK SC',sans-serif" font-size="18" fill="#6a645a" text-anchor="middle"><tspan x="380.0" y="2245.0">→ 后续请看开发日记正文</tspan></text></g><g transform="translate(0.00,0.00) scale(1)"><path d="M 376.00,2272.00 L 384.00,2272.00 L 384.00,2276.00 L 376.00,2276.00 Z" fill="#f5efe2" stroke="none" stroke-width="3" stroke-linejoin="round"/><text font-family="'Microsoft YaHei','Noto Sans CJK SC',sans-serif" font-size="13" fill="#8a8474" text-anchor="middle"><tspan x="380.0" y="2284.0">mangamd L1 / FullSense</tspan></text></g>
</svg>
