<svg xmlns="http://www.w3.org/2000/svg" xmlns:xlink="http://www.w3.org/1999/xlink" viewBox="0 0 760 2300" role="img" aria-label="4-panel digest #25 — the 'great failure' of evolving an AI for 500 generations" style="width:100%;height:auto;max-width:1200px">
  <title>4-panel digest #25 — the 'great failure' of evolving an AI for 500 generations</title>
  <defs><clipPath id="cl_16"><rect x="25" y="668" width="710" height="484"/></clipPath><clipPath id="cl_33"><rect x="25" y="1708" width="710" height="484"/></clipPath></defs>
  <rect width="760" height="2300" fill="#f5efe2"/><g transform="translate(0.00,0.00) scale(1)"><path d="M 24.00,18.00 L 736.00,18.00 L 736.00,118.00 L 24.00,118.00 Z" fill="#2b2317" stroke="none" stroke-width="3" stroke-linejoin="round"/><text font-family="'Segoe UI','Noto Sans',sans-serif" font-size="24" fill="#f7efdd" text-anchor="middle"><tspan x="380.0" y="58.0">4-panel digest #25</tspan><tspan x="380.0" y="98.0">Evolving an AI 500 generations: a "great failure"</tspan></text></g><g transform="translate(0.00,0.00) scale(1)"><path d="M 20.00,140.00 L 740.00,140.00 L 740.00,640.00 L 20.00,640.00 Z" fill="#ffffff" stroke="#1a1a1a" stroke-width="5" stroke-linejoin="round"/><text font-family="'Segoe UI','Noto Sans',sans-serif" font-size="1" fill="#1a1a1a" text-anchor="middle"><tspan x="0.0" y="0.0"></tspan></text></g><g transform="translate(0.00,0.00) scale(1)"><path d="M 20.00,660.00 L 740.00,660.00 L 740.00,1160.00 L 20.00,1160.00 Z" fill="#ffffff" stroke="#1a1a1a" stroke-width="5" stroke-linejoin="round"/><text font-family="'Segoe UI','Noto Sans',sans-serif" font-size="1" fill="#1a1a1a" text-anchor="middle"><tspan x="0.0" y="0.0"></tspan></text></g><g transform="translate(0.00,0.00) scale(1)"><path d="M 20.00,1180.00 L 740.00,1180.00 L 740.00,1680.00 L 20.00,1680.00 Z" fill="#ffffff" stroke="#1a1a1a" stroke-width="5" stroke-linejoin="round"/><text font-family="'Segoe UI','Noto Sans',sans-serif" font-size="1" fill="#1a1a1a" text-anchor="middle"><tspan x="0.0" y="0.0"></tspan></text></g><g transform="translate(0.00,0.00) scale(1)"><path d="M 20.00,1700.00 L 740.00,1700.00 L 740.00,2200.00 L 20.00,2200.00 Z" fill="#ffffff" stroke="#1a1a1a" stroke-width="5" stroke-linejoin="round"/><text font-family="'Segoe UI','Noto Sans',sans-serif" font-size="1" fill="#1a1a1a" text-anchor="middle"><tspan x="0.0" y="0.0"></tspan></text></g><g transform="translate(0.00,0.00) scale(1)"><path d="M 40.00,160.00 L 720.00,160.00 L 720.00,232.00 L 40.00,232.00 Z" fill="#fffbe8" stroke="#1a1a1a" stroke-width="3" stroke-linejoin="round"/><text font-family="'Segoe UI','Noto Sans',sans-serif" font-size="19" fill="#1a1a1a" text-anchor="middle"><tspan x="380.0" y="203.0">We seeded 8 of the world's great minds into the AI</tspan></text></g><g transform="translate(0.00,0.00) scale(1)"><path d="M 86.00,310.00 a 50.00,50.00 0 1,0 100.00,0 a 50.00,50.00 0 1,0 -100.00,0 Z" fill="#ffe2a8" stroke="#1a1a1a" stroke-width="3" stroke-linejoin="round"/><text font-family="'Segoe UI','Noto Sans',sans-serif" font-size="13" fill="#1a1a1a" text-anchor="middle"><tspan x="136.0" y="317.0">Furuse</tspan></text></g><g transform="translate(0.00,0.00) scale(1)"><path d="M 222.00,310.00 a 50.00,50.00 0 1,0 100.00,0 a 50.00,50.00 0 1,0 -100.00,0 Z" fill="#cfe6ff" stroke="#1a1a1a" stroke-width="3" stroke-linejoin="round"/><text font-family="'Segoe UI','Noto Sans',sans-serif" font-size="11" fill="#1a1a1a" text-anchor="middle"><tspan x="272.0" y="317.0">Friston</tspan></text></g><g transform="translate(0.00,0.00) scale(1)"><path d="M 358.00,310.00 a 50.00,50.00 0 1,0 100.00,0 a 50.00,50.00 0 1,0 -100.00,0 Z" fill="#e8d5ff" stroke="#1a1a1a" stroke-width="3" stroke-linejoin="round"/><text font-family="'Segoe UI','Noto Sans',sans-serif" font-size="11" fill="#1a1a1a" text-anchor="middle"><tspan x="408.0" y="317.0">Millidge</tspan></text></g><g transform="translate(0.00,0.00) scale(1)"><path d="M 494.00,310.00 a 50.00,50.00 0 1,0 100.00,0 a 50.00,50.00 0 1,0 -100.00,0 Z" fill="#d5ffd9" stroke="#1a1a1a" stroke-width="3" stroke-linejoin="round"/><text font-family="'Segoe UI','Noto Sans',sans-serif" font-size="11" fill="#1a1a1a" text-anchor="middle"><tspan x="544.0" y="317.0">Isomura</tspan></text></g><g transform="translate(0.00,0.00) scale(1)"><path d="M 86.00,416.00 a 50.00,50.00 0 1,0 100.00,0 a 50.00,50.00 0 1,0 -100.00,0 Z" fill="#ffd5d5" stroke="#1a1a1a" stroke-width="3" stroke-linejoin="round"/><text font-family="'Segoe UI','Noto Sans',sans-serif" font-size="11" fill="#1a1a1a" text-anchor="middle"><tspan x="136.0" y="412.0">Kiyoshi</tspan><tspan x="136.0" y="425.2">Oka</tspan></text></g><g transform="translate(0.00,0.00) scale(1)"><path d="M 222.00,416.00 a 50.00,50.00 0 1,0 100.00,0 a 50.00,50.00 0 1,0 -100.00,0 Z" fill="#fff3c4" stroke="#1a1a1a" stroke-width="3" stroke-linejoin="round"/><text font-family="'Segoe UI','Noto Sans',sans-serif" font-size="11" fill="#1a1a1a" text-anchor="middle"><tspan x="272.0" y="412.0">Grothen-</tspan><tspan x="272.0" y="425.2">dieck</tspan></text></g><g transform="translate(0.00,0.00) scale(1)"><path d="M 358.00,416.00 a 50.00,50.00 0 1,0 100.00,0 a 50.00,50.00 0 1,0 -100.00,0 Z" fill="#d9f2ff" stroke="#1a1a1a" stroke-width="3" stroke-linejoin="round"/><text font-family="'Segoe UI','Noto Sans',sans-serif" font-size="11" fill="#1a1a1a" text-anchor="middle"><tspan x="408.0" y="412.0">von</tspan><tspan x="408.0" y="425.2">Neumann</tspan></text></g><g transform="translate(0.00,0.00) scale(1)"><path d="M 494.00,416.00 a 50.00,50.00 0 1,0 100.00,0 a 50.00,50.00 0 1,0 -100.00,0 Z" fill="#ffe0f0" stroke="#1a1a1a" stroke-width="3" stroke-linejoin="round"/><text font-family="'Segoe UI','Noto Sans',sans-serif" font-size="11" fill="#1a1a1a" text-anchor="middle"><tspan x="544.0" y="423.0">Feynman</tspan></text></g><g transform="translate(0.00,0.00) scale(1)"><path d="M 596.68,474.64 a 53.32,53.32 0 1,0 106.64,0 a 53.32,53.32 0 1,0 -106.64,0 Z" fill="#4a3826" stroke="none" stroke-width="2" stroke-linejoin="round"/><path d="M 597.84,492.00 a 42.16,42.16 0 1,0 84.32,0 a 42.16,42.16 0 1,0 -84.32,0 Z" fill="#fbd7b5" stroke="none" stroke-width="2" stroke-linejoin="round"/><path d="M 598.46,461.00 a 18.60,18.60 0 1,0 37.20,0 a 18.60,18.60 0 1,0 -37.20,0 Z" fill="#4a3826" stroke="none" stroke-width="2" stroke-linejoin="round"/><path d="M 622.64,454.80 a 20.46,20.46 0 1,0 40.92,0 a 20.46,20.46 0 1,0 -40.92,0 Z" fill="#4a3826" stroke="none" stroke-width="2" stroke-linejoin="round"/><path d="M 651.16,463.48 a 17.98,17.98 0 1,0 35.96,0 a 17.98,17.98 0 1,0 -35.96,0 Z" fill="#4a3826" stroke="none" stroke-width="2" stroke-linejoin="round"/><path d="M 607.7600000000001 479.6 q 7.4399999999999995 -8 14.879999999999999 -2" fill="none" stroke="#3a2c20" stroke-width="2.5" stroke-linejoin="round" stroke-linecap="round"/><path d="M 639.38 478.98 q 6.2 -6 12.4 -2" fill="none" stroke="#3a2c20" stroke-width="2.25" stroke-linejoin="round" stroke-linecap="round"/><path d="M 612.72,489.52 a 3.72,3.72 0 1,0 7.44,0 a 3.72,3.72 0 1,0 -7.44,0 Z" fill="#3a2c20" stroke="none" stroke-width="2" stroke-linejoin="round"/><path d="M 642.79,489.52 a 3.41,3.41 0 1,0 6.82,0 a 3.41,3.41 0 1,0 -6.82,0 Z" fill="#3a2c20" stroke="none" stroke-width="2" stroke-linejoin="round"/><path d="M 597.84,509.36 a 8.06,9.92 0 1,0 16.12,0 a 8.06,9.92 0 1,0 -16.12,0 Z" fill="#8e3b35" stroke="none" stroke-width="2" stroke-linejoin="round"/><path d="M 631.94 521.76 h 16.12 v 43.4 h -16.12 Z" fill="#fbd7b5" stroke="none" stroke-width="2" stroke-linejoin="round"/><path d="M 587.3 631.5 Q 587.3 554.0 640 550.9 Q 692.7 554.0 692.7 631.5 Z" fill="#5a6e8c" stroke="none" stroke-width="2" stroke-linejoin="round"/><path d="M 630.7 560.2 L 640 575.08 L 649.3 560.2" fill="#ffffff" stroke="none" stroke-width="2" stroke-linejoin="round"/></g><g transform="translate(0.00,0.00) scale(1)"><path d="M 486.38,534.71 C 487.38,536.49 490.98,541.79 492.34,545.39 C 493.70,548.98 496.88,552.76 494.56,556.28 C 492.25,559.80 484.54,563.18 478.44,566.52 C 472.34,569.86 466.49,573.28 457.97,576.30 C 449.45,579.31 439.31,582.37 427.31,584.60 C 415.32,586.83 399.72,587.98 386.00,589.69 C 372.28,591.39 359.56,593.85 344.98,594.83 C 330.41,595.82 313.95,595.58 298.54,595.62 C 283.13,595.66 267.63,595.65 252.52,595.08 C 237.41,594.50 222.19,593.51 207.89,592.17 C 193.59,590.83 179.01,589.18 166.73,587.02 C 154.45,584.86 143.72,582.03 134.23,579.20 C 124.73,576.37 117.04,573.22 109.75,570.05 C 102.46,566.88 94.98,563.63 90.49,560.18 C 86.00,556.74 82.76,552.99 82.80,549.40 C 82.83,545.81 87.76,542.24 90.71,538.67 C 93.66,535.10 94.62,531.30 100.47,527.99 C 106.32,524.67 115.78,521.50 125.82,518.78 C 135.86,516.06 148.97,514.02 160.71,511.66 C 172.45,509.30 183.01,506.42 196.27,504.61 C 209.53,502.80 225.18,501.58 240.26,500.82 C 255.35,500.05 271.34,499.99 286.78,500.03 C 302.22,500.06 317.97,500.23 332.89,501.02 C 347.81,501.80 362.66,503.12 376.31,504.72 C 389.95,506.32 402.88,508.38 414.76,510.60 C 426.64,512.83 442.11,516.83 447.58,518.08 Q 496.87,533.47 565.64,514.28 Q 516.02,509.63 486.38,534.71 Z" fill="#ffffff" stroke="#1a1a1a" stroke-width="3" stroke-linejoin="round"/><text font-family="'Segoe UI','Noto Sans',sans-serif" font-size="20" fill="#1a1a1a" text-anchor="middle"><tspan x="290.0" y="555.0">Battle of the smartest minds — begin!</tspan></text></g><g clip-path="url(#cl_16)"><path d="M 521.6,852.8 L 1045.4,864.3 L 1045.5,851.5 Z" fill="#ffffff"/><path d="M 500.6,887.2 L 962.1,995.5 L 964.0,987.3 Z" fill="#ffffff"/><path d="M 486.5,905.6 L 946.4,1082.5 L 950.0,1072.7 Z" fill="#ffffff"/><path d="M 498.5,938.0 L 929.9,1182.8 L 936.7,1170.5 Z" fill="#ffffff"/><path d="M 470.5,945.2 L 904.8,1267.5 L 913.2,1255.8 Z" fill="#ffffff"/><path d="M 459.7,952.5 L 860.4,1297.6 L 865.6,1291.4 Z" fill="#ffffff"/><path d="M 449.7,971.8 L 764.3,1325.0 L 771.3,1318.6 Z" fill="#ffffff"/><path d="M 442.7,996.1 L 712.2,1385.5 L 720.0,1379.9 Z" fill="#ffffff"/><path d="M 416.0,993.3 L 655.0,1452.2 L 664.1,1447.3 Z" fill="#ffffff"/><path d="M 389.2,994.5 L 556.7,1507.8 L 572.0,1502.5 Z" fill="#ffffff"/><path d="M 380.6,1017.8 L 502.2,1541.8 L 513.6,1539.0 Z" fill="#ffffff"/><path d="M 355.6,998.8 L 402.4,1508.2 L 416.0,1506.7 Z" fill="#ffffff"/><path d="M 334.3,1021.0 L 309.2,1527.2 L 325.5,1527.8 Z" fill="#ffffff"/><path d="M 318.5,1016.4 L 249.1,1500.0 L 261.6,1501.6 Z" fill="#ffffff"/><path d="M 292.2,1020.7 L 142.6,1521.1 L 158.3,1525.6 Z" fill="#ffffff"/><path d="M 276.0,1017.4 L 91.2,1481.4 L 102.5,1485.7 Z" fill="#ffffff"/><path d="M 273.5,984.9 L 49.7,1426.4 L 56.9,1430.0 Z" fill="#ffffff"/><path d="M 242.3,984.8 L -71.1,1400.9 L -58.8,1409.9 Z" fill="#ffffff"/><path d="M 195.7,950.4 L -246.1,1247.8 L -239.6,1257.3 Z" fill="#ffffff"/><path d="M 181.1,932.5 L -258.5,1150.7 L -252.7,1162.1 Z" fill="#ffffff"/><path d="M 194.5,909.7 L -284.2,1098.6 L -281.1,1106.1 Z" fill="#ffffff"/><path d="M 166.2,900.4 L -314.2,1033.9 L -312.5,1039.7 Z" fill="#ffffff"/><path d="M 187.5,872.8 L -367.1,947.9 L -366.0,956.1 Z" fill="#ffffff"/><path d="M 160.8,849.5 L -336.8,839.1 L -336.9,851.7 Z" fill="#ffffff"/><path d="M 163.6,826.8 L -372.0,746.3 L -373.9,759.8 Z" fill="#ffffff"/><path d="M 173.6,807.9 L -249.4,691.6 L -252.7,704.3 Z" fill="#ffffff"/><path d="M 189.0,789.0 L -287.0,585.3 L -292.9,599.5 Z" fill="#ffffff"/><path d="M 177.7,768.5 L -273.9,533.8 L -278.1,542.2 Z" fill="#ffffff"/><path d="M 185.5,751.3 L -236.8,474.7 L -240.4,480.4 Z" fill="#ffffff"/><path d="M 227.9,723.3 L -104.2,335.7 L -113.3,343.6 Z" fill="#ffffff"/><path d="M 243.3,706.9 L -4.7,325.4 L -15.7,332.8 Z" fill="#ffffff"/><path d="M 252.5,693.7 L 4.4,240.0 L -2.3,243.7 Z" fill="#ffffff"/><path d="M 289.2,701.2 L 145.2,250.3 L 129.4,255.7 Z" fill="#ffffff"/><path d="M 305.5,693.6 L 198.7,170.8 L 183.8,174.0 Z" fill="#ffffff"/><path d="M 323.5,684.0 L 280.0,171.1 L 265.4,172.5 Z" fill="#ffffff"/><path d="M 367.4,679.0 L 453.8,190.0 L 437.1,187.4 Z" fill="#ffffff"/><path d="M 383.4,678.5 L 500.3,238.3 L 488.6,235.3 Z" fill="#ffffff"/><path d="M 391.0,712.8 L 561.8,264.7 L 552.4,261.3 Z" fill="#ffffff"/><path d="M 406.4,718.8 L 633.1,277.5 L 625.3,273.6 Z" fill="#ffffff"/><path d="M 424.2,727.1 L 738.4,273.8 L 729.9,268.1 Z" fill="#ffffff"/><path d="M 452.8,723.9 L 799.1,342.4 L 790.5,334.7 Z" fill="#ffffff"/><path d="M 485.0,754.8 L 904.6,485.1 L 896.8,473.4 Z" fill="#ffffff"/><path d="M 470.5,780.0 L 888.9,557.6 L 884.6,549.6 Z" fill="#ffffff"/><path d="M 475.4,797.1 L 968.9,605.5 L 965.6,597.2 Z" fill="#ffffff"/><path d="M 492.4,813.0 L 965.9,700.4 L 963.3,689.8 Z" fill="#ffffff"/><path d="M 488.4,837.8 L 1010.2,799.7 L 1008.8,783.6 Z" fill="#ffffff"/><path d="M 527.2,852.8 L 1045.4,862.2 L 1045.5,853.7 Z" fill="#2a2417"/><path d="M 505.6,888.3 L 962.4,994.1 L 963.7,988.7 Z" fill="#2a2417"/><path d="M 491.0,907.3 L 947.0,1080.9 L 949.4,1074.3 Z" fill="#2a2417"/><path d="M 503.4,940.7 L 931.0,1180.8 L 935.5,1172.5 Z" fill="#2a2417"/><path d="M 474.6,948.1 L 906.2,1265.5 L 911.8,1257.7 Z" fill="#2a2417"/><path d="M 463.4,955.7 L 861.2,1296.6 L 864.7,1292.5 Z" fill="#2a2417"/><path d="M 453.1,975.5 L 765.4,1323.9 L 770.1,1319.7 Z" fill="#2a2417"/><path d="M 445.8,1000.6 L 713.5,1384.6 L 718.7,1380.9 Z" fill="#2a2417"/><path d="M 418.3,997.7 L 656.5,1451.4 L 662.5,1448.1 Z" fill="#2a2417"/><path d="M 390.7,998.9 L 559.3,1506.9 L 569.4,1503.4 Z" fill="#2a2417"/><path d="M 381.9,1023.0 L 504.1,1541.3 L 511.7,1539.5 Z" fill="#2a2417"/><path d="M 356.1,1003.4 L 404.7,1507.9 L 413.7,1507.0 Z" fill="#2a2417"/><path d="M 334.1,1026.3 L 311.9,1527.3 L 322.8,1527.7 Z" fill="#2a2417"/><path d="M 317.8,1021.5 L 251.2,1500.2 L 259.6,1501.3 Z" fill="#2a2417"/><path d="M 290.7,1026.0 L 145.2,1521.9 L 155.7,1524.8 Z" fill="#2a2417"/><path d="M 274.1,1022.6 L 93.1,1482.1 L 100.6,1485.0 Z" fill="#2a2417"/><path d="M 271.4,989.0 L 50.9,1427.0 L 55.7,1429.4 Z" fill="#2a2417"/><path d="M 239.2,989.0 L -69.1,1402.4 L -60.8,1408.4 Z" fill="#2a2417"/><path d="M 191.3,953.5 L -245.0,1249.4 L -240.7,1255.7 Z" fill="#2a2417"/><path d="M 176.2,935.0 L -257.5,1152.6 L -253.6,1160.2 Z" fill="#2a2417"/><path d="M 190.0,911.6 L -283.7,1099.8 L -281.6,1104.9 Z" fill="#2a2417"/><path d="M 160.8,902.0 L -313.9,1034.9 L -312.8,1038.8 Z" fill="#2a2417"/><path d="M 182.8,873.5 L -367.0,949.3 L -366.2,954.7 Z" fill="#2a2417"/><path d="M 155.2,849.5 L -336.9,841.2 L -336.9,849.6 Z" fill="#2a2417"/><path d="M 158.1,826.0 L -372.3,748.5 L -373.6,757.6 Z" fill="#2a2417"/><path d="M 168.4,806.6 L -249.9,693.8 L -252.1,702.2 Z" fill="#2a2417"/><path d="M 184.3,787.1 L -288.0,587.7 L -291.9,597.1 Z" fill="#2a2417"/><path d="M 172.7,766.0 L -274.6,535.2 L -277.4,540.8 Z" fill="#2a2417"/><path d="M 180.7,748.2 L -237.4,475.7 L -239.8,479.4 Z" fill="#2a2417"/><path d="M 224.5,719.4 L -105.7,337.0 L -111.8,342.3 Z" fill="#2a2417"/><path d="M 240.3,702.4 L -6.5,326.7 L -13.9,331.6 Z" fill="#2a2417"/><path d="M 249.8,688.8 L 3.3,240.6 L -1.2,243.1 Z" fill="#2a2417"/><path d="M 287.6,696.6 L 142.5,251.2 L 132.0,254.8 Z" fill="#2a2417"/><path d="M 304.4,688.7 L 196.2,171.3 L 186.3,173.5 Z" fill="#2a2417"/><path d="M 322.9,678.8 L 277.6,171.3 L 267.9,172.3 Z" fill="#2a2417"/><path d="M 368.2,673.6 L 451.0,189.6 L 439.9,187.8 Z" fill="#2a2417"/><path d="M 384.7,673.2 L 498.3,237.8 L 490.6,235.8 Z" fill="#2a2417"/><path d="M 392.6,708.5 L 560.2,264.2 L 554.0,261.8 Z" fill="#2a2417"/><path d="M 408.5,714.8 L 631.8,276.9 L 626.6,274.2 Z" fill="#2a2417"/><path d="M 426.8,723.3 L 736.9,272.9 L 731.3,269.0 Z" fill="#2a2417"/><path d="M 456.3,720.0 L 797.7,341.1 L 791.9,336.0 Z" fill="#2a2417"/><path d="M 489.5,751.9 L 903.3,483.2 L 898.1,475.3 Z" fill="#2a2417"/><path d="M 474.5,777.8 L 888.2,556.3 L 885.3,550.9 Z" fill="#2a2417"/><path d="M 479.6,795.4 L 968.3,604.1 L 966.1,598.6 Z" fill="#2a2417"/><path d="M 497.2,811.8 L 965.5,698.6 L 963.7,691.6 Z" fill="#2a2417"/><path d="M 493.0,837.4 L 1010.0,797.1 L 1009.0,786.3 Z" fill="#2a2417"/></g><g transform="translate(0.00,0.00) scale(1)"><path d="M 531.69,851.00 Q 449.08,863.99 499.09,891.82 Q 415.38,884.50 438.42,926.77 Q 368.24,897.84 340.00,931.97 Q 310.73,899.54 242.53,926.03 Q 261.28,885.99 181.41,891.69 Q 232.89,863.76 158.79,851.00 Q 234.64,838.45 169.38,807.22 Q 259.87,815.39 248.21,780.34 Q 310.60,802.23 340.00,765.17 Q 368.68,803.43 430.96,780.98 Q 419.49,815.67 502.02,809.43 Q 447.94,838.15 531.69,851.00 Z" fill="#ffffff" stroke="#1a1a1a" stroke-width="4" stroke-linejoin="round"/><text font-family="'Segoe UI','Noto Sans',sans-serif" font-size="46" fill="#1a1a1a" text-anchor="middle"><tspan x="340.0" y="867.1">500 gens</tspan></text></g><g transform="translate(0.00,0.00) scale(1)"><path d="M 560.00,762.00 L 716.00,762.00 L 716.00,818.00 L 560.00,818.00 Z" fill="#fffbe8" stroke="#1a1a1a" stroke-width="2" stroke-linejoin="round"/><text font-family="'Segoe UI','Noto Sans',sans-serif" font-size="17" fill="#1a1a1a" text-anchor="middle"><tspan x="638.0" y="787.0">best_score</tspan><tspan x="638.0" y="809.0">1.0</tspan></text></g><g transform="translate(0.00,0.00) scale(1)"><path d="M 56.68,994.64 a 53.32,53.32 0 1,0 106.64,0 a 53.32,53.32 0 1,0 -106.64,0 Z" fill="#4a3826" stroke="none" stroke-width="2" stroke-linejoin="round"/><path d="M 77.84,1012.00 a 42.16,42.16 0 1,0 84.32,0 a 42.16,42.16 0 1,0 -84.32,0 Z" fill="#fbd7b5" stroke="none" stroke-width="2" stroke-linejoin="round"/><path d="M 124.34,981.00 a 18.60,18.60 0 1,0 37.20,0 a 18.60,18.60 0 1,0 -37.20,0 Z" fill="#4a3826" stroke="none" stroke-width="2" stroke-linejoin="round"/><path d="M 96.44,974.80 a 20.46,20.46 0 1,0 40.92,0 a 20.46,20.46 0 1,0 -40.92,0 Z" fill="#4a3826" stroke="none" stroke-width="2" stroke-linejoin="round"/><path d="M 72.88,983.48 a 17.98,17.98 0 1,0 35.96,0 a 17.98,17.98 0 1,0 -35.96,0 Z" fill="#4a3826" stroke="none" stroke-width="2" stroke-linejoin="round"/><path d="M 139.53 1009.52 q 4.03 4.34 8.06 0" fill="none" stroke="#3a2c20" stroke-width="2.5" stroke-linejoin="round" stroke-linecap="round"/><path d="M 110.39 1009.52 q 3.41 4.34 6.82 0" fill="none" stroke="#3a2c20" stroke-width="2.5" stroke-linejoin="round" stroke-linecap="round"/><path d="M 146.04 1026.88 q 7.4399999999999995 6.2 14.879999999999999 1.24" fill="none" stroke="#8e3b35" stroke-width="2.5" stroke-linejoin="round" stroke-linecap="round"/><path d="M 111.94 1041.76 h 16.12 v 43.4 h -16.12 Z" fill="#fbd7b5" stroke="none" stroke-width="2" stroke-linejoin="round"/><path d="M 67.3 1151.5 Q 67.3 1074.0 120 1070.9 Q 172.7 1074.0 172.7 1151.5 Z" fill="#5a6e8c" stroke="none" stroke-width="2" stroke-linejoin="round"/><path d="M 110.7 1080.2 L 120 1095.08 L 129.3 1080.2" fill="#ffffff" stroke="none" stroke-width="2" stroke-linejoin="round"/></g><g transform="translate(0.00,0.00) scale(1)"><path d="M 309.19,1037.51 C 315.10,1036.34 332.08,1032.54 344.61,1030.48 C 357.15,1028.42 370.68,1026.74 384.40,1025.16 C 398.12,1023.59 412.15,1021.95 426.93,1021.00 C 441.71,1020.06 457.77,1019.41 473.09,1019.50 C 488.41,1019.58 503.89,1020.60 518.84,1021.51 C 533.79,1022.42 549.23,1023.32 562.79,1024.96 C 576.36,1026.59 588.82,1028.95 600.24,1031.33 C 611.66,1033.71 621.98,1036.41 631.31,1039.24 C 640.64,1042.07 649.60,1045.07 656.24,1048.29 C 662.88,1051.51 668.37,1055.03 671.13,1058.54 C 673.88,1062.05 673.42,1065.75 672.77,1069.33 C 672.12,1072.91 670.52,1076.50 667.22,1080.00 C 663.93,1083.51 659.73,1087.11 653.01,1090.34 C 646.28,1093.57 637.17,1096.71 626.88,1099.37 C 616.59,1102.04 603.68,1104.18 591.27,1106.33 C 578.87,1108.47 566.39,1110.80 552.44,1112.25 C 538.49,1113.69 522.72,1114.51 507.60,1115.01 C 492.47,1115.52 476.99,1115.39 461.68,1115.28 C 446.36,1115.18 430.43,1115.26 415.71,1114.39 C 400.99,1113.51 386.76,1111.78 373.36,1110.05 C 359.95,1108.31 346.73,1106.32 335.26,1103.97 C 323.80,1101.61 313.84,1098.79 304.57,1095.92 C 295.30,1093.05 285.31,1090.05 279.64,1086.75 C 273.98,1083.45 272.62,1079.67 270.57,1076.11 C 268.51,1072.55 266.91,1068.99 267.31,1065.42 C 267.70,1061.85 271.98,1056.49 272.92,1054.70 Q 243.38,1029.56 193.90,1034.29 Q 261.00,1053.20 309.19,1037.51 Z" fill="#ffffff" stroke="#1a1a1a" stroke-width="3" stroke-linejoin="round"/><text font-family="'Segoe UI','Noto Sans',sans-serif" font-size="20" fill="#1a1a1a" text-anchor="middle"><tspan x="470.0" y="1075.0">Everyone scores perfect!? What power...!</tspan></text></g><g transform="translate(0.00,0.00) scale(1)"><path d="M 40.00,1200.00 L 720.00,1200.00 L 720.00,1272.00 L 40.00,1272.00 Z" fill="#fffbe8" stroke="#1a1a1a" stroke-width="3" stroke-linejoin="round"/><text font-family="'Segoe UI','Noto Sans',sans-serif" font-size="19" fill="#1a1a1a" text-anchor="middle"><tspan x="380.0" y="1243.0">After 500 generations — only two survived</tspan></text></g><g transform="translate(0.00,0.00) scale(1)"><path d="M 172.00,1374.00 a 78.00,78.00 0 1,0 156.00,0 a 78.00,78.00 0 1,0 -156.00,0 Z" fill="#ffe2a8" stroke="#1a1a1a" stroke-width="4" stroke-linejoin="round"/><text font-family="'Segoe UI','Noto Sans',sans-serif" font-size="18" fill="#1a1a1a" text-anchor="middle"><tspan x="250.0" y="1364.0">Furuse</tspan><tspan x="250.0" y="1387.4">52%</tspan></text></g><g transform="translate(0.00,0.00) scale(1)"><path d="M 435.00,1374.00 a 75.00,75.00 0 1,0 150.00,0 a 75.00,75.00 0 1,0 -150.00,0 Z" fill="#cfe6ff" stroke="#1a1a1a" stroke-width="4" stroke-linejoin="round"/><text font-family="'Segoe UI','Noto Sans',sans-serif" font-size="15" fill="#1a1a1a" text-anchor="middle"><tspan x="510.0" y="1364.0">Friston</tspan><tspan x="510.0" y="1383.5">48%</tspan></text></g><g transform="translate(0.00,0.00) scale(1)"><path d="M 86.00,1482.00 a 24.00,24.00 0 1,0 48.00,0 a 24.00,24.00 0 1,0 -48.00,0 Z" fill="#d9d4c8" stroke="#8a8474" stroke-width="2" stroke-linejoin="round"/><text font-family="'Segoe UI','Noto Sans',sans-serif" font-size="22" fill="#6a645a" text-anchor="middle"><tspan x="110.0" y="1491.0">×</tspan></text></g><g transform="translate(0.00,0.00) scale(1)"><path d="M 174.00,1482.00 a 24.00,24.00 0 1,0 48.00,0 a 24.00,24.00 0 1,0 -48.00,0 Z" fill="#d9d4c8" stroke="#8a8474" stroke-width="2" stroke-linejoin="round"/><text font-family="'Segoe UI','Noto Sans',sans-serif" font-size="22" fill="#6a645a" text-anchor="middle"><tspan x="198.0" y="1491.0">×</tspan></text></g><g transform="translate(0.00,0.00) scale(1)"><path d="M 262.00,1482.00 a 24.00,24.00 0 1,0 48.00,0 a 24.00,24.00 0 1,0 -48.00,0 Z" fill="#d9d4c8" stroke="#8a8474" stroke-width="2" stroke-linejoin="round"/><text font-family="'Segoe UI','Noto Sans',sans-serif" font-size="22" fill="#6a645a" text-anchor="middle"><tspan x="286.0" y="1491.0">×</tspan></text></g><g transform="translate(0.00,0.00) scale(1)"><path d="M 350.00,1482.00 a 24.00,24.00 0 1,0 48.00,0 a 24.00,24.00 0 1,0 -48.00,0 Z" fill="#d9d4c8" stroke="#8a8474" stroke-width="2" stroke-linejoin="round"/><text font-family="'Segoe UI','Noto Sans',sans-serif" font-size="22" fill="#6a645a" text-anchor="middle"><tspan x="374.0" y="1491.0">×</tspan></text></g><g transform="translate(0.00,0.00) scale(1)"><path d="M 438.00,1482.00 a 24.00,24.00 0 1,0 48.00,0 a 24.00,24.00 0 1,0 -48.00,0 Z" fill="#d9d4c8" stroke="#8a8474" stroke-width="2" stroke-linejoin="round"/><text font-family="'Segoe UI','Noto Sans',sans-serif" font-size="22" fill="#6a645a" text-anchor="middle"><tspan x="462.0" y="1491.0">×</tspan></text></g><g transform="translate(0.00,0.00) scale(1)"><path d="M 526.00,1482.00 a 24.00,24.00 0 1,0 48.00,0 a 24.00,24.00 0 1,0 -48.00,0 Z" fill="#d9d4c8" stroke="#8a8474" stroke-width="2" stroke-linejoin="round"/><text font-family="'Segoe UI','Noto Sans',sans-serif" font-size="22" fill="#6a645a" text-anchor="middle"><tspan x="550.0" y="1491.0">×</tspan></text></g><g transform="translate(0.00,0.00) scale(1)"><path d="M 596.68,1514.64 a 53.32,53.32 0 1,0 106.64,0 a 53.32,53.32 0 1,0 -106.64,0 Z" fill="#4a3826" stroke="none" stroke-width="2" stroke-linejoin="round"/><path d="M 597.84,1532.00 a 42.16,42.16 0 1,0 84.32,0 a 42.16,42.16 0 1,0 -84.32,0 Z" fill="#fbd7b5" stroke="none" stroke-width="2" stroke-linejoin="round"/><path d="M 598.46,1501.00 a 18.60,18.60 0 1,0 37.20,0 a 18.60,18.60 0 1,0 -37.20,0 Z" fill="#4a3826" stroke="none" stroke-width="2" stroke-linejoin="round"/><path d="M 622.64,1494.80 a 20.46,20.46 0 1,0 40.92,0 a 20.46,20.46 0 1,0 -40.92,0 Z" fill="#4a3826" stroke="none" stroke-width="2" stroke-linejoin="round"/><path d="M 651.16,1503.48 a 17.98,17.98 0 1,0 35.96,0 a 17.98,17.98 0 1,0 -35.96,0 Z" fill="#4a3826" stroke="none" stroke-width="2" stroke-linejoin="round"/><path d="M 609.62 1522.08 q 6.82 3.7199999999999998 13.64 1.24" fill="none" stroke="#3a2c20" stroke-width="2.5" stroke-linejoin="round" stroke-linecap="round"/><path d="M 613.03,1530.76 a 3.41,3.41 0 1,0 6.82,0 a 3.41,3.41 0 1,0 -6.82,0 Z" fill="#3a2c20" stroke="none" stroke-width="2" stroke-linejoin="round"/><path d="M 640.62 1519.6 q 5.58 -3.7199999999999998 11.16 1.24" fill="none" stroke="#3a2c20" stroke-width="2.5" stroke-linejoin="round" stroke-linecap="round"/><path d="M 642.79,1530.76 a 3.41,3.41 0 1,0 6.82,0 a 3.41,3.41 0 1,0 -6.82,0 Z" fill="#3a2c20" stroke="none" stroke-width="2" stroke-linejoin="round"/><path d="M 612.72 1550.6 q -4.96 -3.1 -8.68 0 q -3.7199999999999998 3.1 -7.4399999999999995 0" fill="none" stroke="#8e3b35" stroke-width="2.5" stroke-linejoin="round" stroke-linecap="round"/><path d="M 631.94 1561.76 h 16.12 v 43.4 h -16.12 Z" fill="#fbd7b5" stroke="none" stroke-width="2" stroke-linejoin="round"/><path d="M 587.3 1671.5 Q 587.3 1594.0 640 1590.9 Q 692.7 1594.0 692.7 1671.5 Z" fill="#5a6e8c" stroke="none" stroke-width="2" stroke-linejoin="round"/><path d="M 630.7 1600.2 L 640 1615.08 L 649.3 1600.2" fill="#ffffff" stroke="none" stroke-width="2" stroke-linejoin="round"/></g><g transform="translate(700.0,1492.0) rotate(8.1)"><path d="M 0,-12.1 Q 7.9,-1.1 5.9,4.0 A 6.6,6.6 0 1 1 -5.9,4.0 Q -7.9,-1.1 0,-12.1 Z" fill="#7EC8E3" stroke="#5aa8c8" stroke-width="1.5"/><path d="M -1.8,-2.2 q -0.9,4.0 0.4,5.7" stroke="#ffffff" stroke-width="1.8" fill="none" stroke-linecap="round"/></g><g transform="translate(0.00,0.00) scale(1)"><path d="M 486.15,1575.34 C 487.39,1577.11 492.93,1582.41 493.59,1585.97 C 494.25,1589.53 492.38,1593.14 490.09,1596.70 C 487.81,1600.26 485.32,1603.94 479.86,1607.32 C 474.40,1610.69 466.45,1614.00 457.33,1616.94 C 448.20,1619.87 437.21,1622.69 425.11,1624.93 C 413.01,1627.17 398.64,1628.83 384.75,1630.40 C 370.85,1631.97 356.53,1633.39 341.75,1634.33 C 326.97,1635.28 311.29,1636.05 296.06,1636.07 C 280.84,1636.10 265.24,1635.32 250.41,1634.50 C 235.58,1633.67 221.03,1632.54 207.08,1631.12 C 193.13,1629.71 179.10,1628.10 166.72,1626.03 C 154.34,1623.96 142.83,1621.41 132.81,1618.70 C 122.79,1615.99 113.83,1612.93 106.61,1609.75 C 99.40,1606.57 92.64,1603.12 89.54,1599.62 C 86.44,1596.12 88.05,1592.38 88.03,1588.77 C 88.02,1585.17 87.13,1581.55 89.45,1578.00 C 91.77,1574.45 95.37,1570.71 101.94,1567.48 C 108.50,1564.24 118.93,1561.32 128.84,1558.57 C 138.76,1555.81 149.78,1553.29 161.44,1550.93 C 173.10,1548.58 185.26,1546.15 198.82,1544.45 C 212.38,1542.74 227.71,1541.43 242.79,1540.69 C 257.88,1539.95 273.85,1540.00 289.34,1540.02 C 304.82,1540.05 320.56,1540.12 335.70,1540.82 C 350.84,1541.52 366.16,1542.67 380.18,1544.21 C 394.20,1545.75 407.69,1547.80 419.83,1550.07 C 431.98,1552.33 447.51,1556.53 453.04,1557.82 Q 500.03,1573.50 565.56,1555.31 Q 515.93,1550.65 486.15,1575.34 Z" fill="#ffffff" stroke="#1a1a1a" stroke-width="3" stroke-linejoin="round"/><text font-family="'Segoe UI','Noto Sans',sans-serif" font-size="20" fill="#1a1a1a" text-anchor="middle"><tspan x="290.0" y="1595.0">Behold, the power of evolution...!</tspan></text></g><g clip-path="url(#cl_33)"><path d="M 906.5,2032.5 L 1431.3,2043.4 L 1431.5,2031.2 Z" fill="#ffffff"/><path d="M 875.1,2081.6 L 1339.2,2182.5 L 1340.8,2174.7 Z" fill="#ffffff"/><path d="M 854.6,2107.9 L 1325.4,2275.0 L 1328.6,2265.6 Z" fill="#ffffff"/><path d="M 875.7,2154.6 L 1313.5,2382.4 L 1319.6,2370.4 Z" fill="#ffffff"/><path d="M 834.4,2165.4 L 1292.5,2474.0 L 1300.0,2462.5 Z" fill="#ffffff"/><path d="M 819.1,2176.3 L 1245.9,2507.6 L 1250.6,2501.5 Z" fill="#ffffff"/><path d="M 806.9,2204.8 L 1143.1,2539.5 L 1149.4,2533.0 Z" fill="#ffffff"/><path d="M 800.2,2241.3 L 1093.1,2607.8 L 1100.2,2602.0 Z" fill="#ffffff"/><path d="M 760.9,2238.6 L 1039.2,2684.5 L 1047.5,2679.2 Z" fill="#ffffff"/><path d="M 722.6,2242.5 L 941.4,2752.6 L 955.5,2746.3 Z" fill="#ffffff"/><path d="M 714.3,2278.8 L 887.6,2795.3 L 898.2,2791.6 Z" fill="#ffffff"/><path d="M 675.5,2253.0 L 778.1,2766.7 L 790.9,2763.9 Z" fill="#ffffff"/><path d="M 649.1,2290.0 L 682.8,2799.0 L 698.2,2797.7 Z" fill="#ffffff"/><path d="M 625.9,2285.7 L 616.0,2776.2 L 628.0,2776.3 Z" fill="#ffffff"/><path d="M 589.5,2297.6 L 507.0,2816.4 L 522.3,2818.6 Z" fill="#ffffff"/><path d="M 566.1,2296.3 L 447.6,2780.4 L 458.7,2783.0 Z" fill="#ffffff"/><path d="M 556.8,2247.9 L 396.4,2726.5 L 403.6,2728.9 Z" fill="#ffffff"/><path d="M 512.1,2256.1 L 264.9,2722.5 L 277.9,2729.2 Z" fill="#ffffff"/><path d="M 437.9,2219.8 L 53.7,2595.7 L 61.4,2603.4 Z" fill="#ffffff"/><path d="M 412.5,2198.8 L 24.1,2495.2 L 31.6,2504.8 Z" fill="#ffffff"/><path d="M 426.8,2162.0 L -13.5,2446.3 L -9.3,2452.8 Z" fill="#ffffff"/><path d="M 382.5,2158.3 L -58.9,2385.8 L -56.2,2390.9 Z" fill="#ffffff"/><path d="M 406.7,2112.4 L -135.2,2309.8 L -132.5,2317.1 Z" fill="#ffffff"/><path d="M 359.6,2089.1 L -126.2,2190.0 L -123.6,2201.6 Z" fill="#ffffff"/><path d="M 356.2,2056.6 L -188.3,2103.4 L -187.1,2116.4 Z" fill="#ffffff"/><path d="M 364.4,2027.1 L -67.2,2016.2 L -67.3,2028.7 Z" fill="#ffffff"/><path d="M 380.0,1995.7 L -139.2,1916.6 L -141.2,1931.1 Z" fill="#ffffff"/><path d="M 355.1,1971.2 L -140.3,1859.9 L -142.2,1868.7 Z" fill="#ffffff"/><path d="M 359.2,1944.6 L -118.5,1789.3 L -120.4,1795.4 Z" fill="#ffffff"/><path d="M 408.1,1890.5 L -23.2,1610.0 L -29.3,1619.7 Z" fill="#ffffff"/><path d="M 421.9,1861.5 L 77.9,1572.0 L 69.8,1581.8 Z" fill="#ffffff"/><path d="M 428.5,1839.3 L 56.5,1478.8 L 51.5,1484.1 Z" fill="#ffffff"/><path d="M 483.1,1835.5 L 204.8,1448.5 L 192.1,1458.0 Z" fill="#ffffff"/><path d="M 501.6,1817.7 L 229.5,1346.5 L 217.1,1353.9 Z" fill="#ffffff"/><path d="M 521.1,1795.9 L 311.5,1320.0 L 298.8,1325.8 Z" fill="#ffffff"/><path d="M 577.6,1767.7 L 491.7,1278.5 L 475.9,1281.5 Z" fill="#ffffff"/><path d="M 598.6,1758.9 L 556.1,1312.3 L 544.7,1313.5 Z" fill="#ffffff"/><path d="M 626.2,1804.1 L 626.9,1316.1 L 617.4,1316.2 Z" fill="#ffffff"/><path d="M 649.7,1804.2 L 702.3,1300.3 L 694.1,1299.5 Z" fill="#ffffff"/><path d="M 677.6,1805.7 L 805.2,1251.2 L 795.6,1249.1 Z" fill="#ffffff"/><path d="M 714.2,1784.2 L 891.5,1295.5 L 881.2,1291.9 Z" fill="#ffffff"/><path d="M 773.9,1806.6 L 1052.5,1392.1 L 1041.2,1384.7 Z" fill="#ffffff"/><path d="M 767.5,1850.0 L 1065.7,1472.4 L 1058.8,1467.1 Z" fill="#ffffff"/><path d="M 783.6,1869.6 L 1166.4,1481.2 L 1160.3,1475.3 Z" fill="#ffffff"/><path d="M 815.9,1879.3 L 1203.2,1575.4 L 1196.7,1567.3 Z" fill="#ffffff"/><path d="M 825.0,1914.3 L 1292.0,1649.1 L 1284.2,1635.8 Z" fill="#ffffff"/><path d="M 845.8,1932.8 L 1361.4,1711.1 L 1355.2,1697.2 Z" fill="#ffffff"/><path d="M 861.5,1942.0 L 1278.8,1788.4 L 1276.2,1781.7 Z" fill="#ffffff"/><path d="M 850.3,1972.6 L 1339.0,1849.6 L 1337.4,1843.4 Z" fill="#ffffff"/><path d="M 905.0,2002.3 L 1390.0,1960.3 L 1388.7,1947.6 Z" fill="#ffffff"/><path d="M 915.1,2032.6 L 1431.4,2041.4 L 1431.4,2033.3 Z" fill="#2a2417"/><path d="M 882.7,2083.2 L 1339.5,2181.2 L 1340.6,2176.0 Z" fill="#2a2417"/><path d="M 861.6,2110.3 L 1325.9,2273.5 L 1328.1,2267.2 Z" fill="#2a2417"/><path d="M 883.3,2158.5 L 1314.5,2380.4 L 1318.6,2372.4 Z" fill="#2a2417"/><path d="M 840.8,2169.6 L 1293.8,2472.1 L 1298.8,2464.4 Z" fill="#2a2417"/><path d="M 825.1,2180.8 L 1246.7,2506.6 L 1249.8,2502.5 Z" fill="#2a2417"/><path d="M 812.5,2210.2 L 1144.1,2538.4 L 1148.3,2534.1 Z" fill="#2a2417"/><path d="M 805.6,2247.8 L 1094.2,2606.9 L 1099.0,2603.0 Z" fill="#2a2417"/><path d="M 765.1,2245.1 L 1040.6,2683.6 L 1046.1,2680.1 Z" fill="#2a2417"/><path d="M 725.6,2249.0 L 943.8,2751.5 L 953.1,2747.4 Z" fill="#2a2417"/><path d="M 717.0,2286.4 L 889.4,2794.7 L 896.5,2792.2 Z" fill="#2a2417"/><path d="M 676.9,2259.9 L 780.3,2766.2 L 788.8,2764.4 Z" fill="#2a2417"/><path d="M 649.8,2298.0 L 685.3,2798.8 L 695.7,2797.9 Z" fill="#2a2417"/><path d="M 625.9,2293.6 L 618.0,2776.2 L 626.0,2776.3 Z" fill="#2a2417"/><path d="M 588.3,2305.9 L 509.5,2816.7 L 519.7,2818.2 Z" fill="#2a2417"/><path d="M 564.1,2304.5 L 449.4,2780.8 L 456.8,2782.5 Z" fill="#2a2417"/><path d="M 554.6,2254.6 L 397.6,2726.9 L 402.4,2728.5 Z" fill="#2a2417"/><path d="M 508.5,2263.1 L 267.1,2723.6 L 275.7,2728.1 Z" fill="#2a2417"/><path d="M 432.0,2225.7 L 55.0,2597.0 L 60.1,2602.1 Z" fill="#2a2417"/><path d="M 405.8,2204.0 L 25.4,2496.8 L 30.3,2503.2 Z" fill="#2a2417"/><path d="M 420.6,2166.1 L -12.8,2447.3 L -10.0,2451.7 Z" fill="#2a2417"/><path d="M 374.9,2162.3 L -58.5,2386.7 L -56.7,2390.1 Z" fill="#2a2417"/><path d="M 399.8,2114.9 L -134.8,2311.1 L -132.9,2315.9 Z" fill="#2a2417"/><path d="M 351.3,2090.9 L -125.8,2191.9 L -124.0,2199.7 Z" fill="#2a2417"/><path d="M 347.8,2057.4 L -188.1,2105.6 L -187.3,2114.2 Z" fill="#2a2417"/><path d="M 356.3,2027.1 L -67.2,2018.3 L -67.3,2026.6 Z" fill="#2a2417"/><path d="M 372.4,1994.7 L -139.6,1919.0 L -140.9,1928.7 Z" fill="#2a2417"/><path d="M 346.7,1969.4 L -140.6,1861.4 L -141.9,1867.2 Z" fill="#2a2417"/><path d="M 350.9,1941.9 L -118.8,1790.4 L -120.1,1794.4 Z" fill="#2a2417"/><path d="M 401.2,1886.1 L -24.2,1611.7 L -28.3,1618.1 Z" fill="#2a2417"/><path d="M 415.6,1856.3 L 76.5,1573.7 L 71.2,1580.2 Z" fill="#2a2417"/><path d="M 422.3,1833.4 L 55.7,1479.7 L 52.3,1483.3 Z" fill="#2a2417"/><path d="M 478.6,1829.4 L 202.7,1450.1 L 194.2,1456.4 Z" fill="#2a2417"/><path d="M 497.7,1811.1 L 227.4,1347.7 L 219.1,1352.6 Z" fill="#2a2417"/><path d="M 517.8,1788.6 L 309.4,1321.0 L 300.9,1324.8 Z" fill="#2a2417"/><path d="M 576.0,1759.6 L 489.0,1279.0 L 478.5,1281.0 Z" fill="#2a2417"/><path d="M 597.7,1750.5 L 554.2,1312.5 L 546.6,1313.3 Z" fill="#2a2417"/><path d="M 626.1,1797.1 L 625.3,1316.1 L 619.0,1316.2 Z" fill="#2a2417"/><path d="M 650.4,1797.3 L 701.0,1300.1 L 695.5,1299.6 Z" fill="#2a2417"/><path d="M 679.1,1798.8 L 803.6,1250.9 L 797.2,1249.5 Z" fill="#2a2417"/><path d="M 716.9,1776.6 L 889.8,1294.9 L 882.9,1292.5 Z" fill="#2a2417"/><path d="M 778.4,1799.7 L 1050.6,1390.9 L 1043.1,1386.0 Z" fill="#2a2417"/><path d="M 771.8,1844.4 L 1064.6,1471.5 L 1060.0,1468.0 Z" fill="#2a2417"/><path d="M 788.4,1864.7 L 1165.4,1480.2 L 1161.3,1476.2 Z" fill="#2a2417"/><path d="M 821.8,1874.6 L 1202.1,1574.0 L 1197.8,1568.6 Z" fill="#2a2417"/><path d="M 831.1,1910.7 L 1290.7,1646.9 L 1285.5,1638.0 Z" fill="#2a2417"/><path d="M 852.5,1929.8 L 1360.4,1708.8 L 1356.2,1699.5 Z" fill="#2a2417"/><path d="M 868.7,1939.2 L 1278.3,1787.3 L 1276.7,1782.9 Z" fill="#2a2417"/><path d="M 857.2,1970.8 L 1338.7,1848.6 L 1337.6,1844.4 Z" fill="#2a2417"/><path d="M 913.5,2001.5 L 1389.7,1958.2 L 1388.9,1949.7 Z" fill="#2a2417"/></g><g transform="translate(0.00,0.00) scale(1)"><path d="M 581.24,2011.52 a 56.76,56.76 0 1,0 113.52,0 a 56.76,56.76 0 1,0 -113.52,0 Z" fill="#4a3826" stroke="none" stroke-width="2" stroke-linejoin="round"/><path d="M 583.12,2030.00 a 44.88,44.88 0 1,0 89.76,0 a 44.88,44.88 0 1,0 -89.76,0 Z" fill="#fbd7b5" stroke="none" stroke-width="2" stroke-linejoin="round"/><path d="M 583.78,1997.00 a 19.80,19.80 0 1,0 39.60,0 a 19.80,19.80 0 1,0 -39.60,0 Z" fill="#4a3826" stroke="none" stroke-width="2" stroke-linejoin="round"/><path d="M 609.52,1990.40 a 21.78,21.78 0 1,0 43.56,0 a 21.78,21.78 0 1,0 -43.56,0 Z" fill="#4a3826" stroke="none" stroke-width="2" stroke-linejoin="round"/><path d="M 639.88,1999.64 a 19.14,19.14 0 1,0 38.28,0 a 19.14,19.14 0 1,0 -38.28,0 Z" fill="#4a3826" stroke="none" stroke-width="2" stroke-linejoin="round"/><path d="M 595.66,2027.36 a 7.26,7.26 0 1,0 14.52,0 a 7.26,7.26 0 1,0 -14.52,0 Z" fill="#ffffff" stroke="#3a2c20" stroke-width="1.8479999999999999" stroke-linejoin="round" stroke-linecap="round"/><path d="M 600.81,2028.35 a 2.11,2.11 0 1,0 4.22,0 a 2.11,2.11 0 1,0 -4.22,0 Z" fill="#3a2c20" stroke="none" stroke-width="2" stroke-linejoin="round"/><path d="M 628.33,2027.36 a 6.27,6.27 0 1,0 12.54,0 a 6.27,6.27 0 1,0 -12.54,0 Z" fill="#ffffff" stroke="#3a2c20" stroke-width="1.8479999999999999" stroke-linejoin="round" stroke-linecap="round"/><path d="M 632.49,2028.35 a 2.11,2.11 0 1,0 4.22,0 a 2.11,2.11 0 1,0 -4.22,0 Z" fill="#3a2c20" stroke="none" stroke-width="2" stroke-linejoin="round"/><path d="M 584.44,2049.80 a 10.56,13.20 0 1,0 21.12,0 a 10.56,13.20 0 1,0 -21.12,0 Z" fill="#8e3b35" stroke="none" stroke-width="2" stroke-linejoin="round"/><path d="M 619.42 2061.68 h 17.16 v 46.2 h -17.16 Z" fill="#fbd7b5" stroke="none" stroke-width="2" stroke-linejoin="round"/><path d="M 571.9 2178.5 Q 571.9 2096.0 628 2092.7 Q 684.1 2096.0 684.1 2178.5 Z" fill="#5a6e8c" stroke="none" stroke-width="2" stroke-linejoin="round"/><path d="M 618.1 2102.6 L 628 2118.44 L 637.9 2102.6" fill="#ffffff" stroke="none" stroke-width="2" stroke-linejoin="round"/></g><g transform="translate(0.00,0.00) scale(1)"><path d="M 575.91,1820.00 Q 449.23,1832.69 534.60,1863.00 Q 406.54,1853.82 550.75,2015.33 Q 340.92,1868.48 300.00,1901.65 Q 261.37,1865.77 162.21,1895.77 Q 191.99,1854.29 79.13,1860.48 Q 147.09,1833.01 27.08,1820.00 Q 149.46,1807.19 77.98,1779.31 Q 190.23,1785.15 173.15,1750.25 Q 260.48,1773.17 300.00,1732.44 Q 341.06,1771.35 428.51,1749.34 Q 412.45,1784.30 534.13,1777.09 Q 449.84,1807.25 575.91,1820.00 Z" fill="#ffffff" stroke="#1a1a1a" stroke-width="4" stroke-linejoin="round"/><text font-family="'Segoe UI','Noto Sans',sans-serif" font-size="22" fill="#1a1a1a" text-anchor="middle"><tspan x="300.0" y="1814.0">Nope. With zero selection pressure,</tspan><tspan x="300.0" y="1841.5">it was just a lottery.</tspan></text></g><g transform="translate(0.00,0.00) scale(1)"><path d="M 48.00,2060.00 L 470.00,2060.00 L 470.00,2178.00 L 48.00,2178.00 Z" fill="#efe7d2" stroke="#1a1a1a" stroke-width="2" stroke-linejoin="round"/><text font-family="'Segoe UI','Noto Sans',sans-serif" font-size="16" fill="#1a1a1a" text-anchor="middle"><tspan x="259.0" y="2083.0">A test everyone aces ranks no one.</tspan><tspan x="259.0" y="2113.0">After "measuring" (lleval), what we needed</tspan><tspan x="259.0" y="2143.0">was "culling" (lldarwin)</tspan></text></g><g transform="translate(0.00,0.00) scale(1)"><path d="M 376.00,2228.00 L 384.00,2228.00 L 384.00,2232.00 L 376.00,2232.00 Z" fill="#f5efe2" stroke="none" stroke-width="3" stroke-linejoin="round"/><text font-family="'Segoe UI','Noto Sans',sans-serif" font-size="18" fill="#6a645a" text-anchor="middle"><tspan x="380.0" y="2245.0">→ Full story below</tspan></text></g><g transform="translate(0.00,0.00) scale(1)"><path d="M 376.00,2272.00 L 384.00,2272.00 L 384.00,2276.00 L 376.00,2276.00 Z" fill="#f5efe2" stroke="none" stroke-width="3" stroke-linejoin="round"/><text font-family="'Segoe UI','Noto Sans',sans-serif" font-size="13" fill="#8a8474" text-anchor="middle"><tspan x="380.0" y="2284.0">mangamd L1 / FullSense</tspan></text></g>
</svg>
