<svg xmlns="http://www.w3.org/2000/svg" xmlns:xlink="http://www.w3.org/1999/xlink" viewBox="0 0 760 2300" role="img" aria-label="4컷 다이제스트 #25 — AI를 500세대 진화시킨 '대실패'" style="width:100%;height:auto;max-width:1200px">
  <title>4컷 다이제스트 #25 — AI를 500세대 진화시킨 '대실패'</title>
  <defs></defs>
  <rect width="760" height="2300" fill="#f5efe2"/><g transform="translate(0.00,0.00) scale(1)"><path d="M 24.00,18.00 L 736.00,18.00 L 736.00,118.00 L 24.00,118.00 Z" fill="#2b2317" stroke="none" stroke-width="3"/><text font-family="'Malgun Gothic','Noto Sans CJK KR',sans-serif" font-size="28" fill="#f7efdd" text-anchor="middle"><tspan x="380.0" y="58.0">4컷 다이제스트 #25</tspan><tspan x="380.0" y="98.0">AI를 500세대 진화시킨 '대실패'</tspan></text></g><g transform="translate(0.00,0.00) scale(1)"><path d="M 20.00,140.00 L 740.00,140.00 L 740.00,640.00 L 20.00,640.00 Z" fill="#ffffff" stroke="#1a1a1a" stroke-width="5"/><text font-family="'Malgun Gothic','Noto Sans CJK KR',sans-serif" font-size="1" fill="#1a1a1a" text-anchor="middle"><tspan x="0.0" y="0.0"></tspan></text></g><g transform="translate(0.00,0.00) scale(1)"><path d="M 20.00,660.00 L 740.00,660.00 L 740.00,1160.00 L 20.00,1160.00 Z" fill="#ffffff" stroke="#1a1a1a" stroke-width="5"/><text font-family="'Malgun Gothic','Noto Sans CJK KR',sans-serif" font-size="1" fill="#1a1a1a" text-anchor="middle"><tspan x="0.0" y="0.0"></tspan></text></g><g transform="translate(0.00,0.00) scale(1)"><path d="M 20.00,1180.00 L 740.00,1180.00 L 740.00,1680.00 L 20.00,1680.00 Z" fill="#ffffff" stroke="#1a1a1a" stroke-width="5"/><text font-family="'Malgun Gothic','Noto Sans CJK KR',sans-serif" font-size="1" fill="#1a1a1a" text-anchor="middle"><tspan x="0.0" y="0.0"></tspan></text></g><g transform="translate(0.00,0.00) scale(1)"><path d="M 20.00,1700.00 L 740.00,1700.00 L 740.00,2200.00 L 20.00,2200.00 Z" fill="#ffffff" stroke="#1a1a1a" stroke-width="5"/><text font-family="'Malgun Gothic','Noto Sans CJK KR',sans-serif" font-size="1" fill="#1a1a1a" text-anchor="middle"><tspan x="0.0" y="0.0"></tspan></text></g><g transform="translate(0.00,0.00) scale(1)"><path d="M 40.00,160.00 L 720.00,160.00 L 720.00,232.00 L 40.00,232.00 Z" fill="#fffbe8" stroke="#1a1a1a" stroke-width="3"/><text font-family="'Malgun Gothic','Noto Sans CJK KR',sans-serif" font-size="23" fill="#1a1a1a" text-anchor="middle"><tspan x="380.0" y="203.0">세계적인 지성 8인을 씨앗으로 AI에 심었다</tspan></text></g><g transform="translate(0.00,0.00) scale(1)"><path d="M 48.00,330.00 a 62.00,62.00 0 1,0 124.00,0 a 62.00,62.00 0 1,0 -124.00,0 Z" fill="#ffe2a8" stroke="#1a1a1a" stroke-width="3"/><text font-family="'Malgun Gothic','Noto Sans CJK KR',sans-serif" font-size="16" fill="#1a1a1a" text-anchor="middle"><tspan x="110.0" y="337.0">후루세</tspan></text></g><g transform="translate(0.00,0.00) scale(1)"><path d="M 228.00,330.00 a 62.00,62.00 0 1,0 124.00,0 a 62.00,62.00 0 1,0 -124.00,0 Z" fill="#cfe6ff" stroke="#1a1a1a" stroke-width="3"/><text font-family="'Malgun Gothic','Noto Sans CJK KR',sans-serif" font-size="16" fill="#1a1a1a" text-anchor="middle"><tspan x="290.0" y="337.0">프리스턴</tspan></text></g><g transform="translate(0.00,0.00) scale(1)"><path d="M 408.00,330.00 a 62.00,62.00 0 1,0 124.00,0 a 62.00,62.00 0 1,0 -124.00,0 Z" fill="#e8d5ff" stroke="#1a1a1a" stroke-width="3"/><text font-family="'Malgun Gothic','Noto Sans CJK KR',sans-serif" font-size="16" fill="#1a1a1a" text-anchor="middle"><tspan x="470.0" y="337.0">밀리지</tspan></text></g><g transform="translate(0.00,0.00) scale(1)"><path d="M 588.00,330.00 a 62.00,62.00 0 1,0 124.00,0 a 62.00,62.00 0 1,0 -124.00,0 Z" fill="#d5ffd9" stroke="#1a1a1a" stroke-width="3"/><text font-family="'Malgun Gothic','Noto Sans CJK KR',sans-serif" font-size="16" fill="#1a1a1a" text-anchor="middle"><tspan x="650.0" y="337.0">이소무라</tspan></text></g><g transform="translate(0.00,0.00) scale(1)"><path d="M 48.00,490.00 a 62.00,62.00 0 1,0 124.00,0 a 62.00,62.00 0 1,0 -124.00,0 Z" fill="#ffd5d5" stroke="#1a1a1a" stroke-width="3"/><text font-family="'Malgun Gothic','Noto Sans CJK KR',sans-serif" font-size="16" fill="#1a1a1a" text-anchor="middle"><tspan x="110.0" y="497.0">오카</tspan></text></g><g transform="translate(0.00,0.00) scale(1)"><path d="M 228.00,490.00 a 62.00,62.00 0 1,0 124.00,0 a 62.00,62.00 0 1,0 -124.00,0 Z" fill="#fff3c4" stroke="#1a1a1a" stroke-width="3"/><text font-family="'Malgun Gothic','Noto Sans CJK KR',sans-serif" font-size="16" fill="#1a1a1a" text-anchor="middle"><tspan x="290.0" y="497.0">그로텐디크</tspan></text></g><g transform="translate(0.00,0.00) scale(1)"><path d="M 408.00,490.00 a 62.00,62.00 0 1,0 124.00,0 a 62.00,62.00 0 1,0 -124.00,0 Z" fill="#d9f2ff" stroke="#1a1a1a" stroke-width="3"/><text font-family="'Malgun Gothic','Noto Sans CJK KR',sans-serif" font-size="16" fill="#1a1a1a" text-anchor="middle"><tspan x="470.0" y="497.0">폰 노이만</tspan></text></g><g transform="translate(0.00,0.00) scale(1)"><path d="M 588.00,490.00 a 62.00,62.00 0 1,0 124.00,0 a 62.00,62.00 0 1,0 -124.00,0 Z" fill="#ffe0f0" stroke="#1a1a1a" stroke-width="3"/><text font-family="'Malgun Gothic','Noto Sans CJK KR',sans-serif" font-size="16" fill="#1a1a1a" text-anchor="middle"><tspan x="650.0" y="497.0">파인만</tspan></text></g><g transform="translate(0.00,0.00) scale(1)"><path d="M 376.00,596.00 L 384.00,596.00 L 384.00,600.00 L 376.00,600.00 Z" fill="#ffffff" stroke="none" stroke-width="3"/><text font-family="'Malgun Gothic','Noto Sans CJK KR',sans-serif" font-size="23" fill="#1a1a1a" text-anchor="middle"><tspan x="380.0" y="622.0">최강 지성들의 진화 배틀, 시작!</tspan></text></g><g><path d="M 485.0,880.0 L 620.0,885.0 L 620.0,875.0 Z" fill="#2a2417"/><path d="M 483.9,894.9 L 617.2,916.9 L 617.9,911.4 Z" fill="#2a2417"/><path d="M 480.7,909.6 L 608.9,952.4 L 611.7,942.8 Z" fill="#2a2417"/><path d="M 475.5,923.6 L 597.2,982.2 L 599.5,977.2 Z" fill="#2a2417"/><path d="M 468.3,936.8 L 579.2,1014.0 L 584.6,1005.5 Z" fill="#2a2417"/><path d="M 459.4,948.8 L 559.6,1039.2 L 563.2,1035.1 Z" fill="#2a2417"/><path d="M 448.8,959.4 L 533.4,1064.7 L 540.9,1058.1 Z" fill="#2a2417"/><path d="M 436.8,968.3 L 507.4,1083.4 L 512.1,1080.4 Z" fill="#2a2417"/><path d="M 423.6,975.5 L 475.2,1100.4 L 484.2,1096.2 Z" fill="#2a2417"/><path d="M 409.6,980.7 L 445.0,1111.1 L 450.3,1109.5 Z" fill="#2a2417"/><path d="M 394.9,983.9 L 409.2,1118.3 L 419.1,1116.8 Z" fill="#2a2417"/><path d="M 380.0,985.0 L 377.3,1120.0 L 382.8,1120.0 Z" fill="#2a2417"/><path d="M 365.1,983.9 L 340.9,1116.8 L 350.8,1118.3 Z" fill="#2a2417"/><path d="M 350.4,980.7 L 309.7,1109.5 L 315.0,1111.1 Z" fill="#2a2417"/><path d="M 336.4,975.5 L 275.8,1096.2 L 284.8,1100.4 Z" fill="#2a2417"/><path d="M 323.2,968.3 L 247.9,1080.4 L 252.6,1083.4 Z" fill="#2a2417"/><path d="M 311.2,959.4 L 219.1,1058.1 L 226.6,1064.7 Z" fill="#2a2417"/><path d="M 300.6,948.8 L 196.8,1035.1 L 200.4,1039.2 Z" fill="#2a2417"/><path d="M 291.7,936.8 L 175.4,1005.5 L 180.8,1014.0 Z" fill="#2a2417"/><path d="M 284.5,923.6 L 160.5,977.2 L 162.8,982.2 Z" fill="#2a2417"/><path d="M 279.3,909.6 L 148.3,942.8 L 151.1,952.4 Z" fill="#2a2417"/><path d="M 276.1,894.9 L 142.1,911.4 L 142.8,916.9 Z" fill="#2a2417"/><path d="M 275.0,880.0 L 140.0,875.0 L 140.0,885.0 Z" fill="#2a2417"/><path d="M 276.1,865.1 L 142.8,843.1 L 142.1,848.6 Z" fill="#2a2417"/><path d="M 279.3,850.4 L 151.1,807.6 L 148.3,817.2 Z" fill="#2a2417"/><path d="M 284.5,836.4 L 162.8,777.8 L 160.5,782.8 Z" fill="#2a2417"/><path d="M 291.7,823.2 L 180.8,746.0 L 175.4,754.5 Z" fill="#2a2417"/><path d="M 300.6,811.2 L 200.4,720.8 L 196.8,724.9 Z" fill="#2a2417"/><path d="M 311.2,800.6 L 226.6,695.3 L 219.1,701.9 Z" fill="#2a2417"/><path d="M 323.2,791.7 L 252.6,676.6 L 247.9,679.6 Z" fill="#2a2417"/><path d="M 336.4,784.5 L 284.8,659.6 L 275.8,663.8 Z" fill="#2a2417"/><path d="M 350.4,779.3 L 315.0,648.9 L 309.7,650.5 Z" fill="#2a2417"/><path d="M 365.1,776.1 L 350.8,641.7 L 340.9,643.2 Z" fill="#2a2417"/><path d="M 380.0,775.0 L 382.7,640.0 L 377.2,640.0 Z" fill="#2a2417"/><path d="M 394.9,776.1 L 419.1,643.2 L 409.2,641.7 Z" fill="#2a2417"/><path d="M 409.6,779.3 L 450.3,650.5 L 445.0,648.9 Z" fill="#2a2417"/><path d="M 423.6,784.5 L 484.2,663.8 L 475.2,659.6 Z" fill="#2a2417"/><path d="M 436.8,791.7 L 512.1,679.6 L 507.4,676.6 Z" fill="#2a2417"/><path d="M 448.8,800.6 L 540.9,701.9 L 533.4,695.3 Z" fill="#2a2417"/><path d="M 459.4,811.2 L 563.2,724.9 L 559.6,720.8 Z" fill="#2a2417"/><path d="M 468.3,823.2 L 584.6,754.5 L 579.2,746.0 Z" fill="#2a2417"/><path d="M 475.5,836.4 L 599.5,782.8 L 597.2,777.8 Z" fill="#2a2417"/><path d="M 480.7,850.4 L 611.7,817.2 L 608.9,807.6 Z" fill="#2a2417"/><path d="M 483.9,865.1 L 617.9,848.6 L 617.2,843.1 Z" fill="#2a2417"/></g><g transform="translate(0.00,0.00) scale(1)"><path d="M 250.00,825.00 L 510.00,825.00 L 510.00,930.00 L 250.00,930.00 Z" fill="#ffffff" stroke="none" stroke-width="3"/><text font-family="'Malgun Gothic','Noto Sans CJK KR',sans-serif" font-size="50" fill="#1a1a1a" text-anchor="middle"><tspan x="380.0" y="893.0">500 세대</tspan></text></g><path d="M 360.16,1036.44 L 358.86,1038.17 L 357.49,1039.85 L 356.07,1041.49 L 354.60,1043.07 L 353.07,1044.60 L 351.49,1046.07 L 349.85,1047.49 L 348.17,1048.86 L 346.44,1050.16 L 344.67,1051.40 L 342.85,1052.58 L 341.00,1053.69 L 339.11,1054.74 L 337.18,1055.73 L 335.22,1056.64 L 333.23,1057.49 L 331.21,1058.26 L 329.16,1058.97 L 327.09,1059.60 L 325.00,1060.16 L 322.89,1060.65 L 320.77,1061.06 L 318.63,1061.40 L 316.48,1061.66 L 314.32,1061.85 L 312.16,1061.96 L 310.00,1062.00 L 307.84,1061.96 L 305.68,1061.85 L 303.52,1061.66 L 301.37,1061.40 L 299.23,1061.06 L 297.11,1060.65 L 295.00,1060.16 L 292.91,1059.60 L 290.84,1058.97 L 288.79,1058.26 L 286.77,1057.49 L 284.78,1056.64 L 282.82,1055.73 L 280.89,1054.74 L 279.00,1053.69 L 277.15,1052.58 L 275.33,1051.40 L 273.56,1050.16 L 271.83,1048.86 L 270.15,1047.49 L 268.51,1046.07 L 266.93,1044.60 L 265.40,1043.07 L 263.93,1041.49 L 262.51,1039.85 L 261.14,1038.17 L 259.84,1036.44 L 258.60,1034.67 L 257.42,1032.85 L 256.31,1031.00 L 255.26,1029.11 L 254.27,1027.18 L 253.36,1025.22 L 252.51,1023.23 L 251.74,1021.21 L 251.03,1019.16 L 250.40,1017.09 L 249.84,1015.00 L 249.35,1012.89 L 248.94,1010.77 L 248.60,1008.63 L 248.34,1006.48 L 248.15,1004.32 L 248.04,1002.16 L 248.00,1000.00 L 248.04,997.84 L 248.15,995.68 L 248.34,993.52 L 248.60,991.37 L 248.94,989.23 L 249.35,987.11 L 249.84,985.00 L 250.40,982.91 L 251.03,980.84 L 251.74,978.79 L 252.51,976.77 L 253.36,974.78 L 254.27,972.82 L 255.26,970.89 L 256.31,969.00 L 257.42,967.15 L 258.60,965.33 L 259.84,963.56 L 261.14,961.83 L 262.51,960.15 L 263.93,958.51 L 265.40,956.93 L 266.93,955.40 L 268.51,953.93 L 270.15,952.51 L 271.83,951.14 L 273.56,949.84 L 275.33,948.60 L 277.15,947.42 L 279.00,946.31 L 280.89,945.26 L 282.82,944.27 L 284.78,943.36 L 286.77,942.51 L 288.79,941.74 L 290.84,941.03 L 292.91,940.40 L 295.00,939.84 L 297.11,939.35 L 299.23,938.94 L 301.37,938.60 L 303.52,938.34 L 305.68,938.15 L 307.84,938.04 L 310.00,938.00 L 312.16,938.04 L 314.32,938.15 L 316.48,938.34 L 318.63,938.60 L 320.77,938.94 L 322.89,939.35 L 325.00,939.84 L 327.09,940.40 L 329.16,941.03 L 331.21,941.74 L 333.23,942.51 L 335.22,943.36 L 337.18,944.27 L 339.11,945.26 L 341.00,946.31 L 342.85,947.42 L 344.67,948.60 L 346.44,949.84 L 348.17,951.14 L 349.85,952.51 L 351.49,953.93 L 353.07,955.40 L 354.60,956.93 L 356.07,958.51 L 357.49,960.15 L 358.86,961.83 L 360.16,963.56 L 444.97,998.26 L 444.88,996.51 L 444.73,994.77 L 444.51,993.04 L 444.24,991.32 L 443.91,989.60 L 443.51,987.90 L 443.06,986.22 L 442.55,984.55 L 441.98,982.90 L 441.36,981.27 L 440.68,979.66 L 439.94,978.08 L 439.15,976.53 L 438.30,975.00 L 437.40,973.50 L 436.45,972.04 L 435.45,970.61 L 434.40,969.22 L 433.30,967.86 L 432.16,966.54 L 430.97,965.27 L 429.73,964.03 L 428.46,962.84 L 427.14,961.70 L 425.78,960.60 L 424.39,959.55 L 422.96,958.55 L 421.50,957.60 L 420.00,956.70 L 418.47,955.85 L 416.92,955.06 L 415.34,954.32 L 413.73,953.64 L 412.10,953.02 L 410.45,952.45 L 408.78,951.94 L 407.10,951.49 L 405.40,951.09 L 403.68,950.76 L 401.96,950.49 L 400.23,950.27 L 398.49,950.12 L 396.74,950.03 L 395.00,950.00 L 393.26,950.03 L 391.51,950.12 L 389.77,950.27 L 388.04,950.49 L 386.32,950.76 L 384.60,951.09 L 382.90,951.49 L 381.22,951.94 L 379.55,952.45 L 377.90,953.02 L 376.27,953.64 L 374.66,954.32 L 373.08,955.06 L 371.53,955.85 L 370.00,956.70 L 368.50,957.60 L 367.04,958.55 L 365.61,959.55 L 364.22,960.60 L 362.86,961.70 L 361.54,962.84 L 361.54,1037.16 L 362.86,1038.30 L 364.22,1039.40 L 365.61,1040.45 L 367.04,1041.45 L 368.50,1042.40 L 370.00,1043.30 L 371.53,1044.15 L 373.08,1044.94 L 374.66,1045.68 L 376.27,1046.36 L 377.90,1046.98 L 379.55,1047.55 L 381.22,1048.06 L 382.90,1048.51 L 384.60,1048.91 L 386.32,1049.24 L 388.04,1049.51 L 389.77,1049.73 L 391.51,1049.88 L 393.26,1049.97 L 395.00,1050.00 L 396.74,1049.97 L 398.49,1049.88 L 400.23,1049.73 L 401.96,1049.51 L 403.68,1049.24 L 405.40,1048.91 L 407.10,1048.51 L 408.78,1048.06 L 410.45,1047.55 L 412.10,1046.98 L 413.73,1046.36 L 415.34,1045.68 L 416.92,1044.94 L 418.47,1044.15 L 420.00,1043.30 L 421.50,1042.40 L 422.96,1041.45 L 424.39,1040.45 L 425.78,1039.40 L 427.14,1038.30 L 428.46,1037.16 L 429.73,1035.97 L 430.97,1034.73 L 432.16,1033.46 L 433.30,1032.14 L 434.40,1030.78 L 435.45,1029.39 L 436.45,1027.96 L 437.40,1026.50 L 438.30,1025.00 L 439.15,1023.47 L 439.94,1021.92 L 440.68,1020.34 L 441.36,1018.73 L 441.98,1017.10 L 442.55,1015.45 L 443.06,1013.78 L 443.51,1012.10 L 443.91,1010.40 L 444.24,1008.68 L 444.51,1006.96 L 444.73,1005.23 L 444.88,1003.49 L 444.97,1001.74 L 445.00,1000.00 Z" fill="#ffd84d" stroke="#1a1a1a" stroke-width="4" fill-rule="nonzero"/><g transform="translate(0.00,0.00) scale(1)"><path d="M 348.00,975.00 L 352.00,975.00 L 352.00,978.00 L 348.00,978.00 Z" fill="#ffd84d" stroke="none" stroke-width="3"/><text font-family="'Malgun Gothic','Noto Sans CJK KR',sans-serif" font-size="19" fill="#1a1a1a" text-anchor="middle"><tspan x="352.0" y="995.0">best_score</tspan><tspan x="352.0" y="1019.0">1.0</tspan></text></g><g transform="translate(0.00,0.00) scale(1)"><path d="M 200.00,1064.00 L 230.00,1025.00 L 262.00,1064.00 Z" fill="#ffffff" stroke="#1a1a1a" stroke-width="3" stroke-linejoin="round"/><path d="M 120.00,1062.00 L 660.00,1062.00 L 660.00,1130.00 L 120.00,1130.00 Z" fill="#ffffff" stroke="#1a1a1a" stroke-width="3"/><text font-family="'Malgun Gothic','Noto Sans CJK KR',sans-serif" font-size="25" fill="#1a1a1a" text-anchor="middle"><tspan x="390.0" y="1103.0">전원 만점!? 이런 강함이…!</tspan></text></g><g transform="translate(0.00,0.00) scale(1)"><path d="M 40.00,1200.00 L 720.00,1200.00 L 720.00,1268.00 L 40.00,1268.00 Z" fill="#fffbe8" stroke="#1a1a1a" stroke-width="3"/><text font-family="'Malgun Gothic','Noto Sans CJK KR',sans-serif" font-size="23" fill="#1a1a1a" text-anchor="middle"><tspan x="380.0" y="1241.0">500세대 후—— 살아남은 건 단 2명</tspan></text></g><g transform="translate(0.00,0.00) scale(1)"><path d="M 155.00,1420.00 a 95.00,95.00 0 1,0 190.00,0 a 95.00,95.00 0 1,0 -190.00,0 Z" fill="#ffe2a8" stroke="#1a1a1a" stroke-width="4"/><text font-family="'Malgun Gothic','Noto Sans CJK KR',sans-serif" font-size="26" fill="#1a1a1a" text-anchor="middle"><tspan x="250.0" y="1408.0">후루세</tspan><tspan x="250.0" y="1442.0">52%</tspan></text></g><g transform="translate(0.00,0.00) scale(1)"><path d="M 418.00,1420.00 a 92.00,92.00 0 1,0 184.00,0 a 92.00,92.00 0 1,0 -184.00,0 Z" fill="#cfe6ff" stroke="#1a1a1a" stroke-width="4"/><text font-family="'Malgun Gothic','Noto Sans CJK KR',sans-serif" font-size="21" fill="#1a1a1a" text-anchor="middle"><tspan x="510.0" y="1410.0">프리스턴</tspan><tspan x="510.0" y="1440.0">48%</tspan></text></g><g transform="translate(0.00,0.00) scale(1)"><path d="M 88.00,1565.00 a 32.00,32.00 0 1,0 64.00,0 a 32.00,32.00 0 1,0 -64.00,0 Z" fill="#d9d4c8" stroke="#8a8474" stroke-width="2"/><text font-family="'Malgun Gothic','Noto Sans CJK KR',sans-serif" font-size="28" fill="#6a645a" text-anchor="middle"><tspan x="120.0" y="1576.0">×</tspan></text></g><g transform="translate(0.00,0.00) scale(1)"><path d="M 192.00,1565.00 a 32.00,32.00 0 1,0 64.00,0 a 32.00,32.00 0 1,0 -64.00,0 Z" fill="#d9d4c8" stroke="#8a8474" stroke-width="2"/><text font-family="'Malgun Gothic','Noto Sans CJK KR',sans-serif" font-size="28" fill="#6a645a" text-anchor="middle"><tspan x="224.0" y="1576.0">×</tspan></text></g><g transform="translate(0.00,0.00) scale(1)"><path d="M 296.00,1565.00 a 32.00,32.00 0 1,0 64.00,0 a 32.00,32.00 0 1,0 -64.00,0 Z" fill="#d9d4c8" stroke="#8a8474" stroke-width="2"/><text font-family="'Malgun Gothic','Noto Sans CJK KR',sans-serif" font-size="28" fill="#6a645a" text-anchor="middle"><tspan x="328.0" y="1576.0">×</tspan></text></g><g transform="translate(0.00,0.00) scale(1)"><path d="M 400.00,1565.00 a 32.00,32.00 0 1,0 64.00,0 a 32.00,32.00 0 1,0 -64.00,0 Z" fill="#d9d4c8" stroke="#8a8474" stroke-width="2"/><text font-family="'Malgun Gothic','Noto Sans CJK KR',sans-serif" font-size="28" fill="#6a645a" text-anchor="middle"><tspan x="432.0" y="1576.0">×</tspan></text></g><g transform="translate(0.00,0.00) scale(1)"><path d="M 504.00,1565.00 a 32.00,32.00 0 1,0 64.00,0 a 32.00,32.00 0 1,0 -64.00,0 Z" fill="#d9d4c8" stroke="#8a8474" stroke-width="2"/><text font-family="'Malgun Gothic','Noto Sans CJK KR',sans-serif" font-size="28" fill="#6a645a" text-anchor="middle"><tspan x="536.0" y="1576.0">×</tspan></text></g><g transform="translate(0.00,0.00) scale(1)"><path d="M 608.00,1565.00 a 32.00,32.00 0 1,0 64.00,0 a 32.00,32.00 0 1,0 -64.00,0 Z" fill="#d9d4c8" stroke="#8a8474" stroke-width="2"/><text font-family="'Malgun Gothic','Noto Sans CJK KR',sans-serif" font-size="28" fill="#6a645a" text-anchor="middle"><tspan x="640.0" y="1576.0">×</tspan></text></g><g transform="translate(0.00,0.00) scale(1)"><path d="M 140.00,1612.00 L 700.00,1612.00 L 700.00,1670.00 L 140.00,1670.00 Z" fill="#ffffff" stroke="#1a1a1a" stroke-width="3"/><text font-family="'Malgun Gothic','Noto Sans CJK KR',sans-serif" font-size="25" fill="#1a1a1a" text-anchor="middle"><tspan x="420.0" y="1648.0">이것이 진화의 힘…!</tspan></text></g><g transform="translate(0.00,0.00) scale(1)"><path d="M 60.00,1730.00 L 700.00,1730.00 L 700.00,1872.00 L 60.00,1872.00 Z" fill="#ffffff" stroke="#1a1a1a" stroke-width="4"/><text font-family="'Malgun Gothic','Noto Sans CJK KR',sans-serif" font-size="27" fill="#1a1a1a" text-anchor="middle"><tspan x="380.0" y="1788.0">아닙니다. 선택압이 0이라</tspan><tspan x="380.0" y="1830.0">그저 '제비뽑기'였습니다.</tspan></text></g><g transform="translate(0.00,0.00) scale(1)"><path d="M 60.00,1900.00 L 700.00,1900.00 L 700.00,2034.00 L 60.00,2034.00 Z" fill="#efe7d2" stroke="#1a1a1a" stroke-width="2"/><text font-family="'Malgun Gothic','Noto Sans CJK KR',sans-serif" font-size="21" fill="#1a1a1a" text-anchor="middle"><tspan x="380.0" y="1944.0">전원 100점인 시험으론 순위가 안 나온다.</tspan><tspan x="380.0" y="1977.0">'측정'(lleval) 다음에 필요한 것은</tspan><tspan x="380.0" y="2010.0">'도태'(lldarwin)였다</tspan></text></g><g transform="translate(0.00,0.00) scale(1)"><path d="M 376.00,2086.00 L 384.00,2086.00 L 384.00,2090.00 L 376.00,2090.00 Z" fill="#f5efe2" stroke="none" stroke-width="3"/><text font-family="'Malgun Gothic','Noto Sans CJK KR',sans-serif" font-size="21" fill="#6a645a" text-anchor="middle"><tspan x="380.0" y="2120.0">→ 자세한 이야기는 아래 본문에서</tspan></text></g><g transform="translate(0.00,0.00) scale(1)"><path d="M 376.00,2156.00 L 384.00,2156.00 L 384.00,2160.00 L 376.00,2160.00 Z" fill="#f5efe2" stroke="none" stroke-width="3"/><text font-family="'Malgun Gothic','Noto Sans CJK KR',sans-serif" font-size="13" fill="#8a8474" text-anchor="middle"><tspan x="380.0" y="2180.0">mangamd L0 / FullSense</tspan></text></g>
</svg>
