<svg xmlns="http://www.w3.org/2000/svg" xmlns:xlink="http://www.w3.org/1999/xlink" viewBox="0 0 760 2300" role="img" aria-label="lldarwin v2 通宵马拉松 #27" style="width:100%;height:auto;max-width:1200px">
  <title>lldarwin v2 通宵马拉松 #27</title>
  <defs><clipPath id="cl_6"><rect x="25" y="148" width="710" height="484"/></clipPath><clipPath id="cl_27"><rect x="25" y="1708" width="710" height="484"/></clipPath></defs>
  <rect width="760" height="2300" fill="#f5efe2"/><g transform="translate(0.00,0.00) scale(1)"><path d="M 24.00,18.00 L 736.00,18.00 L 736.00,118.00 L 24.00,118.00 Z" fill="#2b2317" stroke="none" stroke-width="3" stroke-linejoin="round"/><text font-family="'Microsoft YaHei','Noto Sans CJK SC',sans-serif" font-size="26" fill="#f7efdd" text-anchor="middle"><tspan x="380.0" y="58.0">真实 LLM 12 小时跑又在满分饱和</tspan><tspan x="380.0" y="98.0">一晚 6 项验证收敛到同一结论</tspan></text></g><g transform="translate(0.00,0.00) scale(1)"><path d="M 20.00,140.00 L 740.00,140.00 L 740.00,640.00 L 20.00,640.00 Z" fill="#ffffff" stroke="#1a1a1a" stroke-width="5" stroke-linejoin="round"/><text font-family="'Microsoft YaHei','Noto Sans CJK SC',sans-serif" font-size="1" fill="#1a1a1a" text-anchor="middle"><tspan x="0.0" y="0.0"></tspan></text></g><g transform="translate(0.00,0.00) scale(1)"><path d="M 20.00,660.00 L 740.00,660.00 L 740.00,1160.00 L 20.00,1160.00 Z" fill="#ffffff" stroke="#1a1a1a" stroke-width="5" stroke-linejoin="round"/><text font-family="'Microsoft YaHei','Noto Sans CJK SC',sans-serif" font-size="1" fill="#1a1a1a" text-anchor="middle"><tspan x="0.0" y="0.0"></tspan></text></g><g transform="translate(0.00,0.00) scale(1)"><path d="M 20.00,1180.00 L 740.00,1180.00 L 740.00,1680.00 L 20.00,1680.00 Z" fill="#ffffff" stroke="#1a1a1a" stroke-width="5" stroke-linejoin="round"/><text font-family="'Microsoft YaHei','Noto Sans CJK SC',sans-serif" font-size="1" fill="#1a1a1a" text-anchor="middle"><tspan x="0.0" y="0.0"></tspan></text></g><g transform="translate(0.00,0.00) scale(1)"><path d="M 20.00,1700.00 L 740.00,1700.00 L 740.00,2200.00 L 20.00,2200.00 Z" fill="#ffffff" stroke="#1a1a1a" stroke-width="5" stroke-linejoin="round"/><text font-family="'Microsoft YaHei','Noto Sans CJK SC',sans-serif" font-size="1" fill="#1a1a1a" text-anchor="middle"><tspan x="0.0" y="0.0"></tspan></text></g><g transform="translate(0.00,0.00) scale(1)"><path d="M 40.00,160.00 L 720.00,160.00 L 720.00,232.00 L 40.00,232.00 Z" fill="#fffbe8" stroke="#1a1a1a" stroke-width="3" stroke-linejoin="round"/><text font-family="'Microsoft YaHei','Noto Sans CJK SC',sans-serif" font-size="22" fill="#1a1a1a" text-anchor="middle"><tspan x="380.0" y="203.0">用真实 LLM(llama3.2) 进化了 12 小时</tspan></text></g><g clip-path="url(#cl_6)"><path d="M 561.6,352.8 L 1085.4,364.3 L 1085.5,351.5 Z" fill="#ffffff"/><path d="M 540.6,387.2 L 1002.1,495.5 L 1004.0,487.3 Z" fill="#ffffff"/><path d="M 526.5,405.6 L 986.4,582.5 L 990.0,572.7 Z" fill="#ffffff"/><path d="M 538.5,438.0 L 969.9,682.8 L 976.7,670.5 Z" fill="#ffffff"/><path d="M 510.5,445.2 L 944.8,767.5 L 953.2,755.8 Z" fill="#ffffff"/><path d="M 499.7,452.5 L 900.4,797.6 L 905.6,791.4 Z" fill="#ffffff"/><path d="M 489.7,471.8 L 804.3,825.0 L 811.3,818.6 Z" fill="#ffffff"/><path d="M 482.7,496.1 L 752.2,885.5 L 760.0,879.9 Z" fill="#ffffff"/><path d="M 456.0,493.3 L 695.0,952.2 L 704.1,947.3 Z" fill="#ffffff"/><path d="M 429.2,494.5 L 596.7,1007.8 L 612.0,1002.5 Z" fill="#ffffff"/><path d="M 420.6,517.8 L 542.2,1041.8 L 553.6,1039.0 Z" fill="#ffffff"/><path d="M 395.6,498.8 L 442.4,1008.2 L 456.0,1006.7 Z" fill="#ffffff"/><path d="M 374.3,521.0 L 349.2,1027.2 L 365.5,1027.8 Z" fill="#ffffff"/><path d="M 358.5,516.4 L 289.1,1000.0 L 301.6,1001.6 Z" fill="#ffffff"/><path d="M 332.2,520.7 L 182.6,1021.1 L 198.3,1025.6 Z" fill="#ffffff"/><path d="M 316.0,517.4 L 131.2,981.4 L 142.5,985.7 Z" fill="#ffffff"/><path d="M 313.5,484.9 L 89.7,926.4 L 96.9,930.0 Z" fill="#ffffff"/><path d="M 282.3,484.8 L -31.1,900.9 L -18.8,909.9 Z" fill="#ffffff"/><path d="M 235.7,450.4 L -206.1,747.8 L -199.6,757.3 Z" fill="#ffffff"/><path d="M 221.1,432.5 L -218.5,650.7 L -212.7,662.1 Z" fill="#ffffff"/><path d="M 234.5,409.7 L -244.2,598.6 L -241.1,606.1 Z" fill="#ffffff"/><path d="M 206.2,400.4 L -274.2,533.9 L -272.5,539.7 Z" fill="#ffffff"/><path d="M 227.5,372.8 L -327.1,447.9 L -326.0,456.1 Z" fill="#ffffff"/><path d="M 200.8,349.5 L -296.8,339.1 L -296.9,351.7 Z" fill="#ffffff"/><path d="M 203.6,326.8 L -332.0,246.3 L -333.9,259.8 Z" fill="#ffffff"/><path d="M 213.6,307.9 L -209.4,191.6 L -212.7,204.3 Z" fill="#ffffff"/><path d="M 229.0,289.0 L -247.0,85.3 L -252.9,99.5 Z" fill="#ffffff"/><path d="M 217.7,268.5 L -233.9,33.8 L -238.1,42.2 Z" fill="#ffffff"/><path d="M 225.5,251.3 L -196.8,-25.3 L -200.4,-19.6 Z" fill="#ffffff"/><path d="M 267.9,223.3 L -64.2,-164.3 L -73.3,-156.4 Z" fill="#ffffff"/><path d="M 283.3,206.9 L 35.3,-174.6 L 24.3,-167.2 Z" fill="#ffffff"/><path d="M 292.5,193.7 L 44.4,-260.0 L 37.7,-256.3 Z" fill="#ffffff"/><path d="M 329.2,201.2 L 185.2,-249.7 L 169.4,-244.3 Z" fill="#ffffff"/><path d="M 345.5,193.6 L 238.7,-329.2 L 223.8,-326.0 Z" fill="#ffffff"/><path d="M 363.5,184.0 L 320.0,-328.9 L 305.4,-327.5 Z" fill="#ffffff"/><path d="M 407.4,179.0 L 493.8,-310.0 L 477.1,-312.6 Z" fill="#ffffff"/><path d="M 423.4,178.5 L 540.3,-261.7 L 528.6,-264.7 Z" fill="#ffffff"/><path d="M 431.0,212.8 L 601.8,-235.3 L 592.4,-238.7 Z" fill="#ffffff"/><path d="M 446.4,218.8 L 673.1,-222.5 L 665.3,-226.4 Z" fill="#ffffff"/><path d="M 464.2,227.1 L 778.4,-226.2 L 769.9,-231.9 Z" fill="#ffffff"/><path d="M 492.8,223.9 L 839.1,-157.6 L 830.5,-165.3 Z" fill="#ffffff"/><path d="M 525.0,254.8 L 944.6,-14.9 L 936.8,-26.6 Z" fill="#ffffff"/><path d="M 510.5,280.0 L 928.9,57.6 L 924.6,49.6 Z" fill="#ffffff"/><path d="M 515.4,297.1 L 1008.9,105.5 L 1005.6,97.2 Z" fill="#ffffff"/><path d="M 532.4,313.0 L 1005.9,200.4 L 1003.3,189.8 Z" fill="#ffffff"/><path d="M 528.4,337.8 L 1050.2,299.7 L 1048.8,283.6 Z" fill="#ffffff"/><path d="M 567.2,352.8 L 1085.4,362.2 L 1085.5,353.7 Z" fill="#2a2417"/><path d="M 545.6,388.3 L 1002.4,494.1 L 1003.7,488.7 Z" fill="#2a2417"/><path d="M 531.0,407.3 L 987.0,580.9 L 989.4,574.3 Z" fill="#2a2417"/><path d="M 543.4,440.7 L 971.0,680.8 L 975.5,672.5 Z" fill="#2a2417"/><path d="M 514.6,448.1 L 946.2,765.5 L 951.8,757.7 Z" fill="#2a2417"/><path d="M 503.4,455.7 L 901.2,796.6 L 904.7,792.5 Z" fill="#2a2417"/><path d="M 493.1,475.5 L 805.4,823.9 L 810.1,819.7 Z" fill="#2a2417"/><path d="M 485.8,500.6 L 753.5,884.6 L 758.7,880.9 Z" fill="#2a2417"/><path d="M 458.3,497.7 L 696.5,951.4 L 702.5,948.1 Z" fill="#2a2417"/><path d="M 430.7,498.9 L 599.3,1006.9 L 609.4,1003.4 Z" fill="#2a2417"/><path d="M 421.9,523.0 L 544.1,1041.3 L 551.7,1039.5 Z" fill="#2a2417"/><path d="M 396.1,503.4 L 444.7,1007.9 L 453.7,1007.0 Z" fill="#2a2417"/><path d="M 374.1,526.3 L 351.9,1027.3 L 362.8,1027.7 Z" fill="#2a2417"/><path d="M 357.8,521.5 L 291.2,1000.2 L 299.6,1001.3 Z" fill="#2a2417"/><path d="M 330.7,526.0 L 185.2,1021.9 L 195.7,1024.8 Z" fill="#2a2417"/><path d="M 314.1,522.6 L 133.1,982.1 L 140.6,985.0 Z" fill="#2a2417"/><path d="M 311.4,489.0 L 90.9,927.0 L 95.7,929.4 Z" fill="#2a2417"/><path d="M 279.2,489.0 L -29.1,902.4 L -20.8,908.4 Z" fill="#2a2417"/><path d="M 231.3,453.5 L -205.0,749.4 L -200.7,755.7 Z" fill="#2a2417"/><path d="M 216.2,435.0 L -217.5,652.6 L -213.6,660.2 Z" fill="#2a2417"/><path d="M 230.0,411.6 L -243.7,599.8 L -241.6,604.9 Z" fill="#2a2417"/><path d="M 200.8,402.0 L -273.9,534.9 L -272.8,538.8 Z" fill="#2a2417"/><path d="M 222.8,373.5 L -327.0,449.3 L -326.2,454.7 Z" fill="#2a2417"/><path d="M 195.2,349.5 L -296.9,341.2 L -296.9,349.6 Z" fill="#2a2417"/><path d="M 198.1,326.0 L -332.3,248.5 L -333.6,257.6 Z" fill="#2a2417"/><path d="M 208.4,306.6 L -209.9,193.8 L -212.1,202.2 Z" fill="#2a2417"/><path d="M 224.3,287.1 L -248.0,87.7 L -251.9,97.1 Z" fill="#2a2417"/><path d="M 212.7,266.0 L -234.6,35.2 L -237.4,40.8 Z" fill="#2a2417"/><path d="M 220.7,248.2 L -197.4,-24.3 L -199.8,-20.6 Z" fill="#2a2417"/><path d="M 264.5,219.4 L -65.7,-163.0 L -71.8,-157.7 Z" fill="#2a2417"/><path d="M 280.3,202.4 L 33.5,-173.3 L 26.1,-168.4 Z" fill="#2a2417"/><path d="M 289.8,188.8 L 43.3,-259.4 L 38.8,-256.9 Z" fill="#2a2417"/><path d="M 327.6,196.6 L 182.5,-248.8 L 172.0,-245.2 Z" fill="#2a2417"/><path d="M 344.4,188.7 L 236.2,-328.7 L 226.3,-326.5 Z" fill="#2a2417"/><path d="M 362.9,178.8 L 317.6,-328.7 L 307.9,-327.7 Z" fill="#2a2417"/><path d="M 408.2,173.6 L 491.0,-310.4 L 479.9,-312.2 Z" fill="#2a2417"/><path d="M 424.7,173.2 L 538.3,-262.2 L 530.6,-264.2 Z" fill="#2a2417"/><path d="M 432.6,208.5 L 600.2,-235.8 L 594.0,-238.2 Z" fill="#2a2417"/><path d="M 448.5,214.8 L 671.8,-223.1 L 666.6,-225.8 Z" fill="#2a2417"/><path d="M 466.8,223.3 L 776.9,-227.1 L 771.3,-231.0 Z" fill="#2a2417"/><path d="M 496.3,220.0 L 837.7,-158.9 L 831.9,-164.0 Z" fill="#2a2417"/><path d="M 529.5,251.9 L 943.3,-16.8 L 938.1,-24.7 Z" fill="#2a2417"/><path d="M 514.5,277.8 L 928.2,56.3 L 925.3,50.9 Z" fill="#2a2417"/><path d="M 519.6,295.4 L 1008.3,104.1 L 1006.1,98.6 Z" fill="#2a2417"/><path d="M 537.2,311.8 L 1005.5,198.6 L 1003.7,191.6 Z" fill="#2a2417"/><path d="M 533.0,337.4 L 1050.0,297.1 L 1049.0,286.3 Z" fill="#2a2417"/></g><g transform="translate(0.00,0.00) scale(1)"><path d="M 587.67,351.00 Q 498.17,365.94 552.35,397.95 Q 461.66,389.53 486.62,438.13 Q 410.59,404.86 380.00,444.11 Q 348.30,406.82 274.40,437.29 Q 294.72,391.23 208.20,397.80 Q 263.96,365.67 183.69,351.00 Q 265.86,336.57 195.16,300.65 Q 293.19,310.04 280.56,269.74 Q 348.15,294.92 380.00,252.30 Q 411.07,296.30 478.54,270.47 Q 466.12,310.37 555.52,303.19 Q 496.93,336.22 587.67,351.00 Z" fill="#ffffff" stroke="#1a1a1a" stroke-width="4" stroke-linejoin="round"/><text font-family="'Microsoft YaHei','Noto Sans CJK SC',sans-serif" font-size="46" fill="#1a1a1a" text-anchor="middle"><tspan x="380.0" y="367.1">满分</tspan></text></g><g transform="translate(0.00,0.00) scale(1)"><path d="M 540.00,362.00 L 716.00,362.00 L 716.00,434.00 L 540.00,434.00 Z" fill="#fffbe8" stroke="#1a1a1a" stroke-width="2" stroke-linejoin="round"/><text font-family="'Microsoft YaHei','Noto Sans CJK SC',sans-serif" font-size="17" fill="#1a1a1a" text-anchor="middle"><tspan x="628.0" y="398.0">gen5 即 1.0</tspan><tspan x="628.0" y="420.0">65 代无进步</tspan></text></g><g transform="translate(0.00,0.00) scale(1)"><path d="M 596.68,474.64 a 53.32,53.32 0 1,0 106.64,0 a 53.32,53.32 0 1,0 -106.64,0 Z" fill="#4a3826" stroke="none" stroke-width="2" stroke-linejoin="round"/><path d="M 597.84,492.00 a 42.16,42.16 0 1,0 84.32,0 a 42.16,42.16 0 1,0 -84.32,0 Z" fill="#fbd7b5" stroke="none" stroke-width="2" stroke-linejoin="round"/><path d="M 598.46,461.00 a 18.60,18.60 0 1,0 37.20,0 a 18.60,18.60 0 1,0 -37.20,0 Z" fill="#4a3826" stroke="none" stroke-width="2" stroke-linejoin="round"/><path d="M 622.64,454.80 a 20.46,20.46 0 1,0 40.92,0 a 20.46,20.46 0 1,0 -40.92,0 Z" fill="#4a3826" stroke="none" stroke-width="2" stroke-linejoin="round"/><path d="M 651.16,463.48 a 17.98,17.98 0 1,0 35.96,0 a 17.98,17.98 0 1,0 -35.96,0 Z" fill="#4a3826" stroke="none" stroke-width="2" stroke-linejoin="round"/><path d="M 607.7600000000001 479.6 q 7.4399999999999995 -8 14.879999999999999 -2" fill="none" stroke="#3a2c20" stroke-width="2.5" stroke-linejoin="round" stroke-linecap="round"/><path d="M 639.38 478.98 q 6.2 -6 12.4 -2" fill="none" stroke="#3a2c20" stroke-width="2.25" stroke-linejoin="round" stroke-linecap="round"/><path d="M 612.72,489.52 a 3.72,3.72 0 1,0 7.44,0 a 3.72,3.72 0 1,0 -7.44,0 Z" fill="#3a2c20" stroke="none" stroke-width="2" stroke-linejoin="round"/><path d="M 642.79,489.52 a 3.41,3.41 0 1,0 6.82,0 a 3.41,3.41 0 1,0 -6.82,0 Z" fill="#3a2c20" stroke="none" stroke-width="2" stroke-linejoin="round"/><path d="M 597.84,509.36 a 8.06,9.92 0 1,0 16.12,0 a 8.06,9.92 0 1,0 -16.12,0 Z" fill="#8e3b35" stroke="none" stroke-width="2" stroke-linejoin="round"/><path d="M 587.3 631.5 Q 587.3 554.0 640 550.9 Q 692.7 554.0 692.7 631.5 Z" fill="#5a6e8c" stroke="none" stroke-width="2" stroke-linejoin="round"/><path d="M 630.7 560.2 L 640 575.08 L 649.3 560.2" fill="#ffffff" stroke="none" stroke-width="2" stroke-linejoin="round"/></g><g transform="translate(0.00,0.00) scale(1)"><path d="M 486.38,534.71 C 487.38,536.49 490.98,541.79 492.34,545.39 C 493.70,548.98 496.88,552.76 494.56,556.28 C 492.25,559.80 484.54,563.18 478.44,566.52 C 472.34,569.86 466.49,573.28 457.97,576.30 C 449.45,579.31 439.31,582.37 427.31,584.60 C 415.32,586.83 399.72,587.98 386.00,589.69 C 372.28,591.39 359.56,593.85 344.98,594.83 C 330.41,595.82 313.95,595.58 298.54,595.62 C 283.13,595.66 267.63,595.65 252.52,595.08 C 237.41,594.50 222.19,593.51 207.89,592.17 C 193.59,590.83 179.01,589.18 166.73,587.02 C 154.45,584.86 143.72,582.03 134.23,579.20 C 124.73,576.37 117.04,573.22 109.75,570.05 C 102.46,566.88 94.98,563.63 90.49,560.18 C 86.00,556.74 82.76,552.99 82.80,549.40 C 82.83,545.81 87.76,542.24 90.71,538.67 C 93.66,535.10 94.62,531.30 100.47,527.99 C 106.32,524.67 115.78,521.50 125.82,518.78 C 135.86,516.06 148.97,514.02 160.71,511.66 C 172.45,509.30 183.01,506.42 196.27,504.61 C 209.53,502.80 225.18,501.58 240.26,500.82 C 255.35,500.05 271.34,499.99 286.78,500.03 C 302.22,500.06 317.97,500.23 332.89,501.02 C 347.81,501.80 362.66,503.12 376.31,504.72 C 389.95,506.32 402.88,508.38 414.76,510.60 C 426.64,512.83 442.11,516.83 447.58,518.08 Q 496.87,533.47 565.64,514.28 Q 516.02,509.63 486.38,534.71 Z" fill="#ffffff" stroke="#1a1a1a" stroke-width="3" stroke-linejoin="round"/><text font-family="'Microsoft YaHei','Noto Sans CJK SC',sans-serif" font-size="24" fill="#1a1a1a" text-anchor="middle"><tspan x="290.0" y="556.4">用真正的 LLM 应该会进化…吧?!</tspan></text></g><g transform="translate(0.00,0.00) scale(1)"><path d="M 40.00,680.00 L 720.00,680.00 L 720.00,752.00 L 40.00,752.00 Z" fill="#fffbe8" stroke="#1a1a1a" stroke-width="3" stroke-linejoin="round"/><text font-family="'Microsoft YaHei','Noto Sans CJK SC',sans-serif" font-size="22" fill="#1a1a1a" text-anchor="middle"><tspan x="380.0" y="723.0">不灭绝也不累积=带筛选的随机搜索</tspan></text></g><g transform="translate(0.00,0.00) scale(1)"><path d="M 150.00,774.00 L 610.00,774.00 L 610.00,828.00 L 150.00,828.00 Z" fill="#fffbe8" stroke="#1a1a1a" stroke-width="3" stroke-linejoin="round"/><text font-family="'Microsoft YaHei','Noto Sans CJK SC',sans-serif" font-size="21" fill="#1a1a1a" text-anchor="middle"><tspan x="380.0" y="808.0">gen5 best=1.0</tspan></text></g><g transform="translate(0.00,0.00) scale(1)"><path d="M 368.00,832.00 L 392.00,832.00 L 380.00,850.00 Z" fill="#1a1a1a" stroke="none" stroke-width="3" stroke-linejoin="round"/><text font-family="'Microsoft YaHei','Noto Sans CJK SC',sans-serif" font-size="1" fill="#1a1a1a" text-anchor="middle"><tspan x="0.0" y="0.0"></tspan></text></g><g transform="translate(0.00,0.00) scale(1)"><path d="M 150.00,854.00 L 610.00,854.00 L 610.00,908.00 L 150.00,908.00 Z" fill="#fffbe8" stroke="#1a1a1a" stroke-width="3" stroke-linejoin="round"/><text font-family="'Microsoft YaHei','Noto Sans CJK SC',sans-serif" font-size="21" fill="#1a1a1a" text-anchor="middle"><tspan x="380.0" y="888.0">65 代纹丝不动</tspan></text></g><g transform="translate(0.00,0.00) scale(1)"><path d="M 368.00,912.00 L 392.00,912.00 L 380.00,930.00 Z" fill="#1a1a1a" stroke="none" stroke-width="3" stroke-linejoin="round"/><text font-family="'Microsoft YaHei','Noto Sans CJK SC',sans-serif" font-size="1" fill="#1a1a1a" text-anchor="middle"><tspan x="0.0" y="0.0"></tspan></text></g><g transform="translate(0.00,0.00) scale(1)"><path d="M 150.00,934.00 L 610.00,934.00 L 610.00,988.00 L 150.00,988.00 Z" fill="#fffbe8" stroke="#1a1a1a" stroke-width="3" stroke-linejoin="round"/><text font-family="'Microsoft YaHei','Noto Sans CJK SC',sans-serif" font-size="21" fill="#1a1a1a" text-anchor="middle"><tspan x="380.0" y="968.0">只是筛选随机</tspan></text></g><g transform="translate(0.00,0.00) scale(1)"><path d="M 56.68,994.64 a 53.32,53.32 0 1,0 106.64,0 a 53.32,53.32 0 1,0 -106.64,0 Z" fill="#4a3826" stroke="none" stroke-width="2" stroke-linejoin="round"/><path d="M 77.84,1012.00 a 42.16,42.16 0 1,0 84.32,0 a 42.16,42.16 0 1,0 -84.32,0 Z" fill="#fbd7b5" stroke="none" stroke-width="2" stroke-linejoin="round"/><path d="M 124.34,981.00 a 18.60,18.60 0 1,0 37.20,0 a 18.60,18.60 0 1,0 -37.20,0 Z" fill="#4a3826" stroke="none" stroke-width="2" stroke-linejoin="round"/><path d="M 96.44,974.80 a 20.46,20.46 0 1,0 40.92,0 a 20.46,20.46 0 1,0 -40.92,0 Z" fill="#4a3826" stroke="none" stroke-width="2" stroke-linejoin="round"/><path d="M 72.88,983.48 a 17.98,17.98 0 1,0 35.96,0 a 17.98,17.98 0 1,0 -35.96,0 Z" fill="#4a3826" stroke="none" stroke-width="2" stroke-linejoin="round"/><path d="M 139.53 1009.52 q 4.03 4.34 8.06 0" fill="none" stroke="#3a2c20" stroke-width="2.5" stroke-linejoin="round" stroke-linecap="round"/><path d="M 110.39 1009.52 q 3.41 4.34 6.82 0" fill="none" stroke="#3a2c20" stroke-width="2.5" stroke-linejoin="round" stroke-linecap="round"/><path d="M 146.04 1026.88 q 7.4399999999999995 6.2 14.879999999999999 1.24" fill="none" stroke="#8e3b35" stroke-width="2.5" stroke-linejoin="round" stroke-linecap="round"/><path d="M 67.3 1151.5 Q 67.3 1074.0 120 1070.9 Q 172.7 1074.0 172.7 1151.5 Z" fill="#5a6e8c" stroke="none" stroke-width="2" stroke-linejoin="round"/><path d="M 110.7 1080.2 L 120 1095.08 L 129.3 1080.2" fill="#ffffff" stroke="none" stroke-width="2" stroke-linejoin="round"/></g><g transform="translate(0.00,0.00) scale(1)"><path d="M 309.19,1037.51 C 315.10,1036.34 332.08,1032.54 344.61,1030.48 C 357.15,1028.42 370.68,1026.74 384.40,1025.16 C 398.12,1023.59 412.15,1021.95 426.93,1021.00 C 441.71,1020.06 457.77,1019.41 473.09,1019.50 C 488.41,1019.58 503.89,1020.60 518.84,1021.51 C 533.79,1022.42 549.23,1023.32 562.79,1024.96 C 576.36,1026.59 588.82,1028.95 600.24,1031.33 C 611.66,1033.71 621.98,1036.41 631.31,1039.24 C 640.64,1042.07 649.60,1045.07 656.24,1048.29 C 662.88,1051.51 668.37,1055.03 671.13,1058.54 C 673.88,1062.05 673.42,1065.75 672.77,1069.33 C 672.12,1072.91 670.52,1076.50 667.22,1080.00 C 663.93,1083.51 659.73,1087.11 653.01,1090.34 C 646.28,1093.57 637.17,1096.71 626.88,1099.37 C 616.59,1102.04 603.68,1104.18 591.27,1106.33 C 578.87,1108.47 566.39,1110.80 552.44,1112.25 C 538.49,1113.69 522.72,1114.51 507.60,1115.01 C 492.47,1115.52 476.99,1115.39 461.68,1115.28 C 446.36,1115.18 430.43,1115.26 415.71,1114.39 C 400.99,1113.51 386.76,1111.78 373.36,1110.05 C 359.95,1108.31 346.73,1106.32 335.26,1103.97 C 323.80,1101.61 313.84,1098.79 304.57,1095.92 C 295.30,1093.05 285.31,1090.05 279.64,1086.75 C 273.98,1083.45 272.62,1079.67 270.57,1076.11 C 268.51,1072.55 266.91,1068.99 267.31,1065.42 C 267.70,1061.85 271.98,1056.49 272.92,1054.70 Q 243.38,1029.56 193.90,1034.29 Q 261.00,1053.20 309.19,1037.51 Z" fill="#ffffff" stroke="#1a1a1a" stroke-width="3" stroke-linejoin="round"/><text font-family="'Microsoft YaHei','Noto Sans CJK SC',sans-serif" font-size="24" fill="#1a1a1a" text-anchor="middle"><tspan x="470.0" y="1076.4">真因是固定标尺饱和了</tspan></text></g><g transform="translate(0.00,0.00) scale(1)"><path d="M 40.00,1200.00 L 720.00,1200.00 L 720.00,1272.00 L 40.00,1272.00 Z" fill="#fffbe8" stroke="#1a1a1a" stroke-width="3" stroke-linejoin="round"/><text font-family="'Microsoft YaHei','Noto Sans CJK SC',sans-serif" font-size="22" fill="#1a1a1a" text-anchor="middle"><tspan x="380.0" y="1243.0">为定策略 一晚做分布式调查</tspan></text></g><g transform="translate(0.00,0.00) scale(1)"><path d="M 90.00,1401.00 a 62.00,62.00 0 1,0 124.00,0 a 62.00,62.00 0 1,0 -124.00,0 Z" fill="#4e79a7" stroke="#1a1a1a" stroke-width="3" stroke-linejoin="round"/><text font-family="'Microsoft YaHei','Noto Sans CJK SC',sans-serif" font-size="19" fill="#ffffff" text-anchor="middle"><tspan x="152.0" y="1397.0">自做</tspan><tspan x="152.0" y="1419.8">PoC6</tspan></text></g><g transform="translate(0.00,0.00) scale(1)"><path d="M 242.00,1401.00 a 62.00,62.00 0 1,0 124.00,0 a 62.00,62.00 0 1,0 -124.00,0 Z" fill="#59a14f" stroke="#1a1a1a" stroke-width="3" stroke-linejoin="round"/><text font-family="'Microsoft YaHei','Noto Sans CJK SC',sans-serif" font-size="19" fill="#ffffff" text-anchor="middle"><tspan x="304.0" y="1397.0">Agent</tspan><tspan x="304.0" y="1419.8">A/B/C</tspan></text></g><g transform="translate(0.00,0.00) scale(1)"><path d="M 394.00,1401.00 a 62.00,62.00 0 1,0 124.00,0 a 62.00,62.00 0 1,0 -124.00,0 Z" fill="#e15759" stroke="#1a1a1a" stroke-width="3" stroke-linejoin="round"/><text font-family="'Microsoft YaHei','Noto Sans CJK SC',sans-serif" font-size="19" fill="#ffffff" text-anchor="middle"><tspan x="456.0" y="1397.0">Perp</tspan><tspan x="456.0" y="1419.8">lexity</tspan></text></g><g transform="translate(0.00,0.00) scale(1)"><path d="M 546.00,1401.00 a 62.00,62.00 0 1,0 124.00,0 a 62.00,62.00 0 1,0 -124.00,0 Z" fill="#f28e2b" stroke="#1a1a1a" stroke-width="3" stroke-linejoin="round"/><text font-family="'Microsoft YaHei','Noto Sans CJK SC',sans-serif" font-size="19" fill="#1a1a1a" text-anchor="middle"><tspan x="608.0" y="1397.0">真LLM</tspan><tspan x="608.0" y="1419.8">验证</tspan></text></g><g transform="translate(0.00,0.00) scale(1)"><path d="M 596.68,1514.64 a 53.32,53.32 0 1,0 106.64,0 a 53.32,53.32 0 1,0 -106.64,0 Z" fill="#4a3826" stroke="none" stroke-width="2" stroke-linejoin="round"/><path d="M 597.84,1532.00 a 42.16,42.16 0 1,0 84.32,0 a 42.16,42.16 0 1,0 -84.32,0 Z" fill="#fbd7b5" stroke="none" stroke-width="2" stroke-linejoin="round"/><path d="M 598.46,1501.00 a 18.60,18.60 0 1,0 37.20,0 a 18.60,18.60 0 1,0 -37.20,0 Z" fill="#4a3826" stroke="none" stroke-width="2" stroke-linejoin="round"/><path d="M 622.64,1494.80 a 20.46,20.46 0 1,0 40.92,0 a 20.46,20.46 0 1,0 -40.92,0 Z" fill="#4a3826" stroke="none" stroke-width="2" stroke-linejoin="round"/><path d="M 651.16,1503.48 a 17.98,17.98 0 1,0 35.96,0 a 17.98,17.98 0 1,0 -35.96,0 Z" fill="#4a3826" stroke="none" stroke-width="2" stroke-linejoin="round"/><path d="M 609.62 1522.08 q 6.82 3.7199999999999998 13.64 1.24" fill="none" stroke="#3a2c20" stroke-width="2.5" stroke-linejoin="round" stroke-linecap="round"/><path d="M 613.03,1530.76 a 3.41,3.41 0 1,0 6.82,0 a 3.41,3.41 0 1,0 -6.82,0 Z" fill="#3a2c20" stroke="none" stroke-width="2" stroke-linejoin="round"/><path d="M 640.62 1519.6 q 5.58 -3.7199999999999998 11.16 1.24" fill="none" stroke="#3a2c20" stroke-width="2.5" stroke-linejoin="round" stroke-linecap="round"/><path d="M 642.79,1530.76 a 3.41,3.41 0 1,0 6.82,0 a 3.41,3.41 0 1,0 -6.82,0 Z" fill="#3a2c20" stroke="none" stroke-width="2" stroke-linejoin="round"/><path d="M 612.72 1550.6 q -4.96 -3.1 -8.68 0 q -3.7199999999999998 3.1 -7.4399999999999995 0" fill="none" stroke="#8e3b35" stroke-width="2.5" stroke-linejoin="round" stroke-linecap="round"/><path d="M 587.3 1671.5 Q 587.3 1594.0 640 1590.9 Q 692.7 1594.0 692.7 1671.5 Z" fill="#5a6e8c" stroke="none" stroke-width="2" stroke-linejoin="round"/><path d="M 630.7 1600.2 L 640 1615.08 L 649.3 1600.2" fill="#ffffff" stroke="none" stroke-width="2" stroke-linejoin="round"/></g><g transform="translate(700.0,1492.0) rotate(8.1)"><path d="M 0,-12.1 Q 7.9,-1.1 5.9,4.0 A 6.6,6.6 0 1 1 -5.9,4.0 Q -7.9,-1.1 0,-12.1 Z" fill="#7EC8E3" stroke="#5aa8c8" stroke-width="1.5"/><path d="M -1.8,-2.2 q -0.9,4.0 0.4,5.7" stroke="#ffffff" stroke-width="1.8" fill="none" stroke-linecap="round"/></g><g transform="translate(0.00,0.00) scale(1)"><path d="M 486.15,1575.34 C 487.39,1577.11 492.93,1582.41 493.59,1585.97 C 494.25,1589.53 492.38,1593.14 490.09,1596.70 C 487.81,1600.26 485.32,1603.94 479.86,1607.32 C 474.40,1610.69 466.45,1614.00 457.33,1616.94 C 448.20,1619.87 437.21,1622.69 425.11,1624.93 C 413.01,1627.17 398.64,1628.83 384.75,1630.40 C 370.85,1631.97 356.53,1633.39 341.75,1634.33 C 326.97,1635.28 311.29,1636.05 296.06,1636.07 C 280.84,1636.10 265.24,1635.32 250.41,1634.50 C 235.58,1633.67 221.03,1632.54 207.08,1631.12 C 193.13,1629.71 179.10,1628.10 166.72,1626.03 C 154.34,1623.96 142.83,1621.41 132.81,1618.70 C 122.79,1615.99 113.83,1612.93 106.61,1609.75 C 99.40,1606.57 92.64,1603.12 89.54,1599.62 C 86.44,1596.12 88.05,1592.38 88.03,1588.77 C 88.02,1585.17 87.13,1581.55 89.45,1578.00 C 91.77,1574.45 95.37,1570.71 101.94,1567.48 C 108.50,1564.24 118.93,1561.32 128.84,1558.57 C 138.76,1555.81 149.78,1553.29 161.44,1550.93 C 173.10,1548.58 185.26,1546.15 198.82,1544.45 C 212.38,1542.74 227.71,1541.43 242.79,1540.69 C 257.88,1539.95 273.85,1540.00 289.34,1540.02 C 304.82,1540.05 320.56,1540.12 335.70,1540.82 C 350.84,1541.52 366.16,1542.67 380.18,1544.21 C 394.20,1545.75 407.69,1547.80 419.83,1550.07 C 431.98,1552.33 447.51,1556.53 453.04,1557.82 Q 500.03,1573.50 565.56,1555.31 Q 515.93,1550.65 486.15,1575.34 Z" fill="#ffffff" stroke="#1a1a1a" stroke-width="3" stroke-linejoin="round"/><text font-family="'Microsoft YaHei','Noto Sans CJK SC',sans-serif" font-size="24" fill="#1a1a1a" text-anchor="middle"><tspan x="290.0" y="1596.4">光加仓库可救不了它!</tspan></text></g><g clip-path="url(#cl_27)"><path d="M 906.5,2032.5 L 1431.3,2043.4 L 1431.5,2031.2 Z" fill="#ffffff"/><path d="M 875.1,2081.6 L 1339.2,2182.5 L 1340.8,2174.7 Z" fill="#ffffff"/><path d="M 854.6,2107.9 L 1325.4,2275.0 L 1328.6,2265.6 Z" fill="#ffffff"/><path d="M 875.7,2154.6 L 1313.5,2382.4 L 1319.6,2370.4 Z" fill="#ffffff"/><path d="M 834.4,2165.4 L 1292.5,2474.0 L 1300.0,2462.5 Z" fill="#ffffff"/><path d="M 819.1,2176.3 L 1245.9,2507.6 L 1250.6,2501.5 Z" fill="#ffffff"/><path d="M 806.9,2204.8 L 1143.1,2539.5 L 1149.4,2533.0 Z" fill="#ffffff"/><path d="M 800.2,2241.3 L 1093.1,2607.8 L 1100.2,2602.0 Z" fill="#ffffff"/><path d="M 760.9,2238.6 L 1039.2,2684.5 L 1047.5,2679.2 Z" fill="#ffffff"/><path d="M 722.6,2242.5 L 941.4,2752.6 L 955.5,2746.3 Z" fill="#ffffff"/><path d="M 714.3,2278.8 L 887.6,2795.3 L 898.2,2791.6 Z" fill="#ffffff"/><path d="M 675.5,2253.0 L 778.1,2766.7 L 790.9,2763.9 Z" fill="#ffffff"/><path d="M 649.1,2290.0 L 682.8,2799.0 L 698.2,2797.7 Z" fill="#ffffff"/><path d="M 625.9,2285.7 L 616.0,2776.2 L 628.0,2776.3 Z" fill="#ffffff"/><path d="M 589.5,2297.6 L 507.0,2816.4 L 522.3,2818.6 Z" fill="#ffffff"/><path d="M 566.1,2296.3 L 447.6,2780.4 L 458.7,2783.0 Z" fill="#ffffff"/><path d="M 556.8,2247.9 L 396.4,2726.5 L 403.6,2728.9 Z" fill="#ffffff"/><path d="M 512.1,2256.1 L 264.9,2722.5 L 277.9,2729.2 Z" fill="#ffffff"/><path d="M 437.9,2219.8 L 53.7,2595.7 L 61.4,2603.4 Z" fill="#ffffff"/><path d="M 412.5,2198.8 L 24.1,2495.2 L 31.6,2504.8 Z" fill="#ffffff"/><path d="M 426.8,2162.0 L -13.5,2446.3 L -9.3,2452.8 Z" fill="#ffffff"/><path d="M 382.5,2158.3 L -58.9,2385.8 L -56.2,2390.9 Z" fill="#ffffff"/><path d="M 406.7,2112.4 L -135.2,2309.8 L -132.5,2317.1 Z" fill="#ffffff"/><path d="M 359.6,2089.1 L -126.2,2190.0 L -123.6,2201.6 Z" fill="#ffffff"/><path d="M 356.2,2056.6 L -188.3,2103.4 L -187.1,2116.4 Z" fill="#ffffff"/><path d="M 364.4,2027.1 L -67.2,2016.2 L -67.3,2028.7 Z" fill="#ffffff"/><path d="M 380.0,1995.7 L -139.2,1916.6 L -141.2,1931.1 Z" fill="#ffffff"/><path d="M 355.1,1971.2 L -140.3,1859.9 L -142.2,1868.7 Z" fill="#ffffff"/><path d="M 359.2,1944.6 L -118.5,1789.3 L -120.4,1795.4 Z" fill="#ffffff"/><path d="M 408.1,1890.5 L -23.2,1610.0 L -29.3,1619.7 Z" fill="#ffffff"/><path d="M 421.9,1861.5 L 77.9,1572.0 L 69.8,1581.8 Z" fill="#ffffff"/><path d="M 428.5,1839.3 L 56.5,1478.8 L 51.5,1484.1 Z" fill="#ffffff"/><path d="M 483.1,1835.5 L 204.8,1448.5 L 192.1,1458.0 Z" fill="#ffffff"/><path d="M 501.6,1817.7 L 229.5,1346.5 L 217.1,1353.9 Z" fill="#ffffff"/><path d="M 521.1,1795.9 L 311.5,1320.0 L 298.8,1325.8 Z" fill="#ffffff"/><path d="M 577.6,1767.7 L 491.7,1278.5 L 475.9,1281.5 Z" fill="#ffffff"/><path d="M 598.6,1758.9 L 556.1,1312.3 L 544.7,1313.5 Z" fill="#ffffff"/><path d="M 626.2,1804.1 L 626.9,1316.1 L 617.4,1316.2 Z" fill="#ffffff"/><path d="M 649.7,1804.2 L 702.3,1300.3 L 694.1,1299.5 Z" fill="#ffffff"/><path d="M 677.6,1805.7 L 805.2,1251.2 L 795.6,1249.1 Z" fill="#ffffff"/><path d="M 714.2,1784.2 L 891.5,1295.5 L 881.2,1291.9 Z" fill="#ffffff"/><path d="M 773.9,1806.6 L 1052.5,1392.1 L 1041.2,1384.7 Z" fill="#ffffff"/><path d="M 767.5,1850.0 L 1065.7,1472.4 L 1058.8,1467.1 Z" fill="#ffffff"/><path d="M 783.6,1869.6 L 1166.4,1481.2 L 1160.3,1475.3 Z" fill="#ffffff"/><path d="M 815.9,1879.3 L 1203.2,1575.4 L 1196.7,1567.3 Z" fill="#ffffff"/><path d="M 825.0,1914.3 L 1292.0,1649.1 L 1284.2,1635.8 Z" fill="#ffffff"/><path d="M 845.8,1932.8 L 1361.4,1711.1 L 1355.2,1697.2 Z" fill="#ffffff"/><path d="M 861.5,1942.0 L 1278.8,1788.4 L 1276.2,1781.7 Z" fill="#ffffff"/><path d="M 850.3,1972.6 L 1339.0,1849.6 L 1337.4,1843.4 Z" fill="#ffffff"/><path d="M 905.0,2002.3 L 1390.0,1960.3 L 1388.7,1947.6 Z" fill="#ffffff"/><path d="M 915.1,2032.6 L 1431.4,2041.4 L 1431.4,2033.3 Z" fill="#2a2417"/><path d="M 882.7,2083.2 L 1339.5,2181.2 L 1340.6,2176.0 Z" fill="#2a2417"/><path d="M 861.6,2110.3 L 1325.9,2273.5 L 1328.1,2267.2 Z" fill="#2a2417"/><path d="M 883.3,2158.5 L 1314.5,2380.4 L 1318.6,2372.4 Z" fill="#2a2417"/><path d="M 840.8,2169.6 L 1293.8,2472.1 L 1298.8,2464.4 Z" fill="#2a2417"/><path d="M 825.1,2180.8 L 1246.7,2506.6 L 1249.8,2502.5 Z" fill="#2a2417"/><path d="M 812.5,2210.2 L 1144.1,2538.4 L 1148.3,2534.1 Z" fill="#2a2417"/><path d="M 805.6,2247.8 L 1094.2,2606.9 L 1099.0,2603.0 Z" fill="#2a2417"/><path d="M 765.1,2245.1 L 1040.6,2683.6 L 1046.1,2680.1 Z" fill="#2a2417"/><path d="M 725.6,2249.0 L 943.8,2751.5 L 953.1,2747.4 Z" fill="#2a2417"/><path d="M 717.0,2286.4 L 889.4,2794.7 L 896.5,2792.2 Z" fill="#2a2417"/><path d="M 676.9,2259.9 L 780.3,2766.2 L 788.8,2764.4 Z" fill="#2a2417"/><path d="M 649.8,2298.0 L 685.3,2798.8 L 695.7,2797.9 Z" fill="#2a2417"/><path d="M 625.9,2293.6 L 618.0,2776.2 L 626.0,2776.3 Z" fill="#2a2417"/><path d="M 588.3,2305.9 L 509.5,2816.7 L 519.7,2818.2 Z" fill="#2a2417"/><path d="M 564.1,2304.5 L 449.4,2780.8 L 456.8,2782.5 Z" fill="#2a2417"/><path d="M 554.6,2254.6 L 397.6,2726.9 L 402.4,2728.5 Z" fill="#2a2417"/><path d="M 508.5,2263.1 L 267.1,2723.6 L 275.7,2728.1 Z" fill="#2a2417"/><path d="M 432.0,2225.7 L 55.0,2597.0 L 60.1,2602.1 Z" fill="#2a2417"/><path d="M 405.8,2204.0 L 25.4,2496.8 L 30.3,2503.2 Z" fill="#2a2417"/><path d="M 420.6,2166.1 L -12.8,2447.3 L -10.0,2451.7 Z" fill="#2a2417"/><path d="M 374.9,2162.3 L -58.5,2386.7 L -56.7,2390.1 Z" fill="#2a2417"/><path d="M 399.8,2114.9 L -134.8,2311.1 L -132.9,2315.9 Z" fill="#2a2417"/><path d="M 351.3,2090.9 L -125.8,2191.9 L -124.0,2199.7 Z" fill="#2a2417"/><path d="M 347.8,2057.4 L -188.1,2105.6 L -187.3,2114.2 Z" fill="#2a2417"/><path d="M 356.3,2027.1 L -67.2,2018.3 L -67.3,2026.6 Z" fill="#2a2417"/><path d="M 372.4,1994.7 L -139.6,1919.0 L -140.9,1928.7 Z" fill="#2a2417"/><path d="M 346.7,1969.4 L -140.6,1861.4 L -141.9,1867.2 Z" fill="#2a2417"/><path d="M 350.9,1941.9 L -118.8,1790.4 L -120.1,1794.4 Z" fill="#2a2417"/><path d="M 401.2,1886.1 L -24.2,1611.7 L -28.3,1618.1 Z" fill="#2a2417"/><path d="M 415.6,1856.3 L 76.5,1573.7 L 71.2,1580.2 Z" fill="#2a2417"/><path d="M 422.3,1833.4 L 55.7,1479.7 L 52.3,1483.3 Z" fill="#2a2417"/><path d="M 478.6,1829.4 L 202.7,1450.1 L 194.2,1456.4 Z" fill="#2a2417"/><path d="M 497.7,1811.1 L 227.4,1347.7 L 219.1,1352.6 Z" fill="#2a2417"/><path d="M 517.8,1788.6 L 309.4,1321.0 L 300.9,1324.8 Z" fill="#2a2417"/><path d="M 576.0,1759.6 L 489.0,1279.0 L 478.5,1281.0 Z" fill="#2a2417"/><path d="M 597.7,1750.5 L 554.2,1312.5 L 546.6,1313.3 Z" fill="#2a2417"/><path d="M 626.1,1797.1 L 625.3,1316.1 L 619.0,1316.2 Z" fill="#2a2417"/><path d="M 650.4,1797.3 L 701.0,1300.1 L 695.5,1299.6 Z" fill="#2a2417"/><path d="M 679.1,1798.8 L 803.6,1250.9 L 797.2,1249.5 Z" fill="#2a2417"/><path d="M 716.9,1776.6 L 889.8,1294.9 L 882.9,1292.5 Z" fill="#2a2417"/><path d="M 778.4,1799.7 L 1050.6,1390.9 L 1043.1,1386.0 Z" fill="#2a2417"/><path d="M 771.8,1844.4 L 1064.6,1471.5 L 1060.0,1468.0 Z" fill="#2a2417"/><path d="M 788.4,1864.7 L 1165.4,1480.2 L 1161.3,1476.2 Z" fill="#2a2417"/><path d="M 821.8,1874.6 L 1202.1,1574.0 L 1197.8,1568.6 Z" fill="#2a2417"/><path d="M 831.1,1910.7 L 1290.7,1646.9 L 1285.5,1638.0 Z" fill="#2a2417"/><path d="M 852.5,1929.8 L 1360.4,1708.8 L 1356.2,1699.5 Z" fill="#2a2417"/><path d="M 868.7,1939.2 L 1278.3,1787.3 L 1276.7,1782.9 Z" fill="#2a2417"/><path d="M 857.2,1970.8 L 1338.7,1848.6 L 1337.6,1844.4 Z" fill="#2a2417"/><path d="M 913.5,2001.5 L 1389.7,1958.2 L 1388.9,1949.7 Z" fill="#2a2417"/></g><g transform="translate(0.00,0.00) scale(1)"><path d="M 581.24,2011.52 a 56.76,56.76 0 1,0 113.52,0 a 56.76,56.76 0 1,0 -113.52,0 Z" fill="#4a3826" stroke="none" stroke-width="2" stroke-linejoin="round"/><path d="M 583.12,2030.00 a 44.88,44.88 0 1,0 89.76,0 a 44.88,44.88 0 1,0 -89.76,0 Z" fill="#fbd7b5" stroke="none" stroke-width="2" stroke-linejoin="round"/><path d="M 583.78,1997.00 a 19.80,19.80 0 1,0 39.60,0 a 19.80,19.80 0 1,0 -39.60,0 Z" fill="#4a3826" stroke="none" stroke-width="2" stroke-linejoin="round"/><path d="M 609.52,1990.40 a 21.78,21.78 0 1,0 43.56,0 a 21.78,21.78 0 1,0 -43.56,0 Z" fill="#4a3826" stroke="none" stroke-width="2" stroke-linejoin="round"/><path d="M 639.88,1999.64 a 19.14,19.14 0 1,0 38.28,0 a 19.14,19.14 0 1,0 -38.28,0 Z" fill="#4a3826" stroke="none" stroke-width="2" stroke-linejoin="round"/><path d="M 595.66,2027.36 a 7.26,7.26 0 1,0 14.52,0 a 7.26,7.26 0 1,0 -14.52,0 Z" fill="#ffffff" stroke="#3a2c20" stroke-width="1.8479999999999999" stroke-linejoin="round" stroke-linecap="round"/><path d="M 600.81,2028.35 a 2.11,2.11 0 1,0 4.22,0 a 2.11,2.11 0 1,0 -4.22,0 Z" fill="#3a2c20" stroke="none" stroke-width="2" stroke-linejoin="round"/><path d="M 628.33,2027.36 a 6.27,6.27 0 1,0 12.54,0 a 6.27,6.27 0 1,0 -12.54,0 Z" fill="#ffffff" stroke="#3a2c20" stroke-width="1.8479999999999999" stroke-linejoin="round" stroke-linecap="round"/><path d="M 632.49,2028.35 a 2.11,2.11 0 1,0 4.22,0 a 2.11,2.11 0 1,0 -4.22,0 Z" fill="#3a2c20" stroke="none" stroke-width="2" stroke-linejoin="round"/><path d="M 584.44,2049.80 a 10.56,13.20 0 1,0 21.12,0 a 10.56,13.20 0 1,0 -21.12,0 Z" fill="#8e3b35" stroke="none" stroke-width="2" stroke-linejoin="round"/><path d="M 571.9 2178.5 Q 571.9 2096.0 628 2092.7 Q 684.1 2096.0 684.1 2178.5 Z" fill="#5a6e8c" stroke="none" stroke-width="2" stroke-linejoin="round"/><path d="M 618.1 2102.6 L 628 2118.44 L 637.9 2102.6" fill="#ffffff" stroke="none" stroke-width="2" stroke-linejoin="round"/></g><g transform="translate(0.00,0.00) scale(1)"><path d="M 575.91,1820.00 Q 449.23,1832.69 534.60,1863.00 Q 406.54,1853.82 550.75,2015.33 Q 340.92,1868.48 300.00,1901.65 Q 261.37,1865.77 162.21,1895.77 Q 191.99,1854.29 79.13,1860.48 Q 147.09,1833.01 27.08,1820.00 Q 149.46,1807.19 77.98,1779.31 Q 190.23,1785.15 173.15,1750.25 Q 260.48,1773.17 300.00,1732.44 Q 341.06,1771.35 428.51,1749.34 Q 412.45,1784.30 534.13,1777.09 Q 449.84,1807.25 575.91,1820.00 Z" fill="#ffffff" stroke="#1a1a1a" stroke-width="4" stroke-linejoin="round"/><text font-family="'Microsoft YaHei','Noto Sans CJK SC',sans-serif" font-size="26" fill="#1a1a1a" text-anchor="middle"><tspan x="300.0" y="1812.8">清晨 全员各自独立</tspan><tspan x="300.0" y="1845.3">收敛到同一结论</tspan></text></g><g transform="translate(0.00,0.00) scale(1)"><path d="M 48.00,2060.00 L 470.00,2060.00 L 470.00,2178.00 L 48.00,2178.00 Z" fill="#efe7d2" stroke="#1a1a1a" stroke-width="2" stroke-linejoin="round"/><text font-family="'Microsoft YaHei','Noto Sans CJK SC',sans-serif" font-size="19" fill="#1a1a1a" text-anchor="middle"><tspan x="259.0" y="2083.0">标尺(评价)一旦饱和 再磨淘汰器也无力</tspan><tspan x="259.0" y="2113.0">要改的不是 LLM 也不是淘汰器 而是评价的开放端化</tspan><tspan x="259.0" y="2143.0">多样性靠指挥者(routing)而非投票才显价值</tspan></text></g><g transform="translate(0.00,0.00) scale(1)"><path d="M 376.00,2228.00 L 384.00,2228.00 L 384.00,2232.00 L 376.00,2232.00 Z" fill="#f5efe2" stroke="none" stroke-width="3" stroke-linejoin="round"/><text font-family="'Microsoft YaHei','Noto Sans CJK SC',sans-serif" font-size="18" fill="#6a645a" text-anchor="middle"><tspan x="380.0" y="2245.0">→ 正文细读 6 项验证的 honest cross-validation</tspan></text></g><g transform="translate(0.00,0.00) scale(1)"><path d="M 376.00,2272.00 L 384.00,2272.00 L 384.00,2276.00 L 376.00,2276.00 Z" fill="#f5efe2" stroke="none" stroke-width="3" stroke-linejoin="round"/><text font-family="'Microsoft YaHei','Noto Sans CJK SC',sans-serif" font-size="13" fill="#8a8474" text-anchor="middle"><tspan x="380.0" y="2284.0">mangamd L1 / FullSense</tspan></text></g>
</svg>
