<svg xmlns="http://www.w3.org/2000/svg" xmlns:xlink="http://www.w3.org/1999/xlink" viewBox="0 0 760 2300" role="img" aria-label="眼鏡が飽和すると選択圧は無力 — 反証4コマ #29" style="width:100%;height:auto;max-width:1200px">
  <title>眼鏡が飽和すると選択圧は無力 — 反証4コマ #29</title>
  <defs></defs>
  <rect width="760" height="2300" fill="#f5efe2"/><g transform="translate(0.00,0.00) scale(1)"><path d="M 24.00,18.00 L 736.00,18.00 L 736.00,118.00 L 24.00,118.00 Z" fill="#2b2317" stroke="none" stroke-width="3"/><text font-family="'Yu Gothic','Noto Sans CJK JP',sans-serif" font-size="26" fill="#f7efdd" text-anchor="middle"><tspan x="380.0" y="58.0">Goodhart の法則と</tspan><tspan x="380.0" y="98.0">proxy fitness の限界</tspan></text></g><g transform="translate(0.00,0.00) scale(1)"><path d="M 20.00,140.00 L 740.00,140.00 L 740.00,640.00 L 20.00,640.00 Z" fill="#ffffff" stroke="#1a1a1a" stroke-width="5"/><text font-family="'Yu Gothic','Noto Sans CJK JP',sans-serif" font-size="1" fill="#1a1a1a" text-anchor="middle"><tspan x="0.0" y="0.0"></tspan></text></g><g transform="translate(0.00,0.00) scale(1)"><path d="M 20.00,660.00 L 740.00,660.00 L 740.00,1160.00 L 20.00,1160.00 Z" fill="#ffffff" stroke="#1a1a1a" stroke-width="5"/><text font-family="'Yu Gothic','Noto Sans CJK JP',sans-serif" font-size="1" fill="#1a1a1a" text-anchor="middle"><tspan x="0.0" y="0.0"></tspan></text></g><g transform="translate(0.00,0.00) scale(1)"><path d="M 20.00,1180.00 L 740.00,1180.00 L 740.00,1680.00 L 20.00,1680.00 Z" fill="#ffffff" stroke="#1a1a1a" stroke-width="5"/><text font-family="'Yu Gothic','Noto Sans CJK JP',sans-serif" font-size="1" fill="#1a1a1a" text-anchor="middle"><tspan x="0.0" y="0.0"></tspan></text></g><g transform="translate(0.00,0.00) scale(1)"><path d="M 20.00,1700.00 L 740.00,1700.00 L 740.00,2200.00 L 20.00,2200.00 Z" fill="#ffffff" stroke="#1a1a1a" stroke-width="5"/><text font-family="'Yu Gothic','Noto Sans CJK JP',sans-serif" font-size="1" fill="#1a1a1a" text-anchor="middle"><tspan x="0.0" y="0.0"></tspan></text></g><g transform="translate(0.00,0.00) scale(1)"><path d="M 40.00,160.00 L 720.00,160.00 L 720.00,232.00 L 40.00,232.00 Z" fill="#fffbe8" stroke="#1a1a1a" stroke-width="3"/><text font-family="'Yu Gothic','Noto Sans CJK JP',sans-serif" font-size="22" fill="#1a1a1a" text-anchor="middle"><tspan x="380.0" y="203.0">#26 で monoculture が 0.05 に改善</tspan></text></g><g><path d="M 485.0,376.0 L 615.0,381.0 L 615.0,371.0 Z" fill="#2a2417"/><path d="M 483.9,390.9 L 612.2,412.2 L 613.0,406.7 Z" fill="#2a2417"/><path d="M 480.7,405.6 L 604.1,447.0 L 606.9,437.4 Z" fill="#2a2417"/><path d="M 475.5,419.6 L 592.6,476.1 L 594.9,471.1 Z" fill="#2a2417"/><path d="M 468.3,432.8 L 575.0,507.3 L 580.4,498.8 Z" fill="#2a2417"/><path d="M 459.4,444.8 L 555.8,532.0 L 559.4,527.8 Z" fill="#2a2417"/><path d="M 448.8,455.4 L 530.1,556.9 L 537.7,550.3 Z" fill="#2a2417"/><path d="M 436.8,464.3 L 504.7,575.2 L 509.4,572.2 Z" fill="#2a2417"/><path d="M 423.6,471.5 L 473.1,591.8 L 482.2,587.7 Z" fill="#2a2417"/><path d="M 409.6,476.7 L 443.6,602.3 L 448.8,600.7 Z" fill="#2a2417"/><path d="M 394.9,479.9 L 408.5,609.3 L 418.4,607.9 Z" fill="#2a2417"/><path d="M 380.0,481.0 L 377.3,611.0 L 382.8,611.0 Z" fill="#2a2417"/><path d="M 365.1,479.9 L 341.6,607.9 L 351.5,609.3 Z" fill="#2a2417"/><path d="M 350.4,476.7 L 311.2,600.7 L 316.4,602.3 Z" fill="#2a2417"/><path d="M 336.4,471.5 L 277.8,587.7 L 286.9,591.8 Z" fill="#2a2417"/><path d="M 323.2,464.3 L 250.6,572.2 L 255.3,575.2 Z" fill="#2a2417"/><path d="M 311.2,455.4 L 222.3,550.3 L 229.9,556.9 Z" fill="#2a2417"/><path d="M 300.6,444.8 L 200.6,527.8 L 204.2,532.0 Z" fill="#2a2417"/><path d="M 291.7,432.8 L 179.6,498.8 L 185.0,507.3 Z" fill="#2a2417"/><path d="M 284.5,419.6 L 165.1,471.1 L 167.4,476.1 Z" fill="#2a2417"/><path d="M 279.3,405.6 L 153.1,437.4 L 155.9,447.0 Z" fill="#2a2417"/><path d="M 276.1,390.9 L 147.0,406.7 L 147.8,412.2 Z" fill="#2a2417"/><path d="M 275.0,376.0 L 145.0,371.0 L 145.0,381.0 Z" fill="#2a2417"/><path d="M 276.1,361.1 L 147.8,339.8 L 147.0,345.3 Z" fill="#2a2417"/><path d="M 279.3,346.4 L 155.9,305.0 L 153.1,314.6 Z" fill="#2a2417"/><path d="M 284.5,332.4 L 167.4,275.9 L 165.1,280.9 Z" fill="#2a2417"/><path d="M 291.7,319.2 L 185.0,244.7 L 179.6,253.2 Z" fill="#2a2417"/><path d="M 300.6,307.2 L 204.2,220.0 L 200.6,224.2 Z" fill="#2a2417"/><path d="M 311.2,296.6 L 229.9,195.1 L 222.3,201.7 Z" fill="#2a2417"/><path d="M 323.2,287.7 L 255.3,176.8 L 250.6,179.8 Z" fill="#2a2417"/><path d="M 336.4,280.5 L 286.9,160.2 L 277.8,164.3 Z" fill="#2a2417"/><path d="M 350.4,275.3 L 316.4,149.7 L 311.2,151.3 Z" fill="#2a2417"/><path d="M 365.1,272.1 L 351.5,142.7 L 341.6,144.1 Z" fill="#2a2417"/><path d="M 380.0,271.0 L 382.7,141.0 L 377.2,141.0 Z" fill="#2a2417"/><path d="M 394.9,272.1 L 418.4,144.1 L 408.5,142.7 Z" fill="#2a2417"/><path d="M 409.6,275.3 L 448.8,151.3 L 443.6,149.7 Z" fill="#2a2417"/><path d="M 423.6,280.5 L 482.2,164.3 L 473.1,160.2 Z" fill="#2a2417"/><path d="M 436.8,287.7 L 509.4,179.8 L 504.7,176.8 Z" fill="#2a2417"/><path d="M 448.8,296.6 L 537.7,201.7 L 530.1,195.1 Z" fill="#2a2417"/><path d="M 459.4,307.2 L 559.4,224.2 L 555.8,220.0 Z" fill="#2a2417"/><path d="M 468.3,319.2 L 580.4,253.2 L 575.0,244.7 Z" fill="#2a2417"/><path d="M 475.5,332.4 L 594.9,280.9 L 592.6,275.9 Z" fill="#2a2417"/><path d="M 480.7,346.4 L 606.9,314.6 L 604.1,305.0 Z" fill="#2a2417"/><path d="M 483.9,361.1 L 613.0,345.3 L 612.2,339.8 Z" fill="#2a2417"/></g><g transform="translate(0.00,0.00) scale(1)"><path d="M 235.00,321.00 L 525.00,321.00 L 525.00,426.00 L 235.00,426.00 Z" fill="#ffffff" stroke="none" stroke-width="3"/><text font-family="'Yu Gothic','Noto Sans CJK JP',sans-serif" font-size="50" fill="#1a1a1a" text-anchor="middle"><tspan x="380.0" y="389.0">0.05</tspan></text></g><path d="M 360.16,537.44 L 358.86,539.17 L 357.49,540.85 L 356.07,542.49 L 354.60,544.07 L 353.07,545.60 L 351.49,547.07 L 349.85,548.49 L 348.17,549.86 L 346.44,551.16 L 344.67,552.40 L 342.85,553.58 L 341.00,554.69 L 339.11,555.74 L 337.18,556.73 L 335.22,557.64 L 333.23,558.49 L 331.21,559.26 L 329.16,559.97 L 327.09,560.60 L 325.00,561.16 L 322.89,561.65 L 320.77,562.06 L 318.63,562.40 L 316.48,562.66 L 314.32,562.85 L 312.16,562.96 L 310.00,563.00 L 307.84,562.96 L 305.68,562.85 L 303.52,562.66 L 301.37,562.40 L 299.23,562.06 L 297.11,561.65 L 295.00,561.16 L 292.91,560.60 L 290.84,559.97 L 288.79,559.26 L 286.77,558.49 L 284.78,557.64 L 282.82,556.73 L 280.89,555.74 L 279.00,554.69 L 277.15,553.58 L 275.33,552.40 L 273.56,551.16 L 271.83,549.86 L 270.15,548.49 L 268.51,547.07 L 266.93,545.60 L 265.40,544.07 L 263.93,542.49 L 262.51,540.85 L 261.14,539.17 L 259.84,537.44 L 258.60,535.67 L 257.42,533.85 L 256.31,532.00 L 255.26,530.11 L 254.27,528.18 L 253.36,526.22 L 252.51,524.23 L 251.74,522.21 L 251.03,520.16 L 250.40,518.09 L 249.84,516.00 L 249.35,513.89 L 248.94,511.77 L 248.60,509.63 L 248.34,507.48 L 248.15,505.32 L 248.04,503.16 L 248.00,501.00 L 248.04,498.84 L 248.15,496.68 L 248.34,494.52 L 248.60,492.37 L 248.94,490.23 L 249.35,488.11 L 249.84,486.00 L 250.40,483.91 L 251.03,481.84 L 251.74,479.79 L 252.51,477.77 L 253.36,475.78 L 254.27,473.82 L 255.26,471.89 L 256.31,470.00 L 257.42,468.15 L 258.60,466.33 L 259.84,464.56 L 261.14,462.83 L 262.51,461.15 L 263.93,459.51 L 265.40,457.93 L 266.93,456.40 L 268.51,454.93 L 270.15,453.51 L 271.83,452.14 L 273.56,450.84 L 275.33,449.60 L 277.15,448.42 L 279.00,447.31 L 280.89,446.26 L 282.82,445.27 L 284.78,444.36 L 286.77,443.51 L 288.79,442.74 L 290.84,442.03 L 292.91,441.40 L 295.00,440.84 L 297.11,440.35 L 299.23,439.94 L 301.37,439.60 L 303.52,439.34 L 305.68,439.15 L 307.84,439.04 L 310.00,439.00 L 312.16,439.04 L 314.32,439.15 L 316.48,439.34 L 318.63,439.60 L 320.77,439.94 L 322.89,440.35 L 325.00,440.84 L 327.09,441.40 L 329.16,442.03 L 331.21,442.74 L 333.23,443.51 L 335.22,444.36 L 337.18,445.27 L 339.11,446.26 L 341.00,447.31 L 342.85,448.42 L 344.67,449.60 L 346.44,450.84 L 348.17,452.14 L 349.85,453.51 L 351.49,454.93 L 353.07,456.40 L 354.60,457.93 L 356.07,459.51 L 357.49,461.15 L 358.86,462.83 L 360.16,464.56 L 444.97,499.26 L 444.88,497.51 L 444.73,495.77 L 444.51,494.04 L 444.24,492.32 L 443.91,490.60 L 443.51,488.90 L 443.06,487.22 L 442.55,485.55 L 441.98,483.90 L 441.36,482.27 L 440.68,480.66 L 439.94,479.08 L 439.15,477.53 L 438.30,476.00 L 437.40,474.50 L 436.45,473.04 L 435.45,471.61 L 434.40,470.22 L 433.30,468.86 L 432.16,467.54 L 430.97,466.27 L 429.73,465.03 L 428.46,463.84 L 427.14,462.70 L 425.78,461.60 L 424.39,460.55 L 422.96,459.55 L 421.50,458.60 L 420.00,457.70 L 418.47,456.85 L 416.92,456.06 L 415.34,455.32 L 413.73,454.64 L 412.10,454.02 L 410.45,453.45 L 408.78,452.94 L 407.10,452.49 L 405.40,452.09 L 403.68,451.76 L 401.96,451.49 L 400.23,451.27 L 398.49,451.12 L 396.74,451.03 L 395.00,451.00 L 393.26,451.03 L 391.51,451.12 L 389.77,451.27 L 388.04,451.49 L 386.32,451.76 L 384.60,452.09 L 382.90,452.49 L 381.22,452.94 L 379.55,453.45 L 377.90,454.02 L 376.27,454.64 L 374.66,455.32 L 373.08,456.06 L 371.53,456.85 L 370.00,457.70 L 368.50,458.60 L 367.04,459.55 L 365.61,460.55 L 364.22,461.60 L 362.86,462.70 L 361.54,463.84 L 361.54,538.16 L 362.86,539.30 L 364.22,540.40 L 365.61,541.45 L 367.04,542.45 L 368.50,543.40 L 370.00,544.30 L 371.53,545.15 L 373.08,545.94 L 374.66,546.68 L 376.27,547.36 L 377.90,547.98 L 379.55,548.55 L 381.22,549.06 L 382.90,549.51 L 384.60,549.91 L 386.32,550.24 L 388.04,550.51 L 389.77,550.73 L 391.51,550.88 L 393.26,550.97 L 395.00,551.00 L 396.74,550.97 L 398.49,550.88 L 400.23,550.73 L 401.96,550.51 L 403.68,550.24 L 405.40,549.91 L 407.10,549.51 L 408.78,549.06 L 410.45,548.55 L 412.10,547.98 L 413.73,547.36 L 415.34,546.68 L 416.92,545.94 L 418.47,545.15 L 420.00,544.30 L 421.50,543.40 L 422.96,542.45 L 424.39,541.45 L 425.78,540.40 L 427.14,539.30 L 428.46,538.16 L 429.73,536.97 L 430.97,535.73 L 432.16,534.46 L 433.30,533.14 L 434.40,531.78 L 435.45,530.39 L 436.45,528.96 L 437.40,527.50 L 438.30,526.00 L 439.15,524.47 L 439.94,522.92 L 440.68,521.34 L 441.36,519.73 L 441.98,518.10 L 442.55,516.45 L 443.06,514.78 L 443.51,513.10 L 443.91,511.40 L 444.24,509.68 L 444.51,507.96 L 444.73,506.23 L 444.88,504.49 L 444.97,502.74 L 445.00,501.00 Z" fill="#ffd84d" stroke="#1a1a1a" stroke-width="4" fill-rule="nonzero"/><g transform="translate(0.00,0.00) scale(1)"><path d="M 348.00,476.00 L 352.00,476.00 L 352.00,479.00 L 348.00,479.00 Z" fill="#ffd84d" stroke="none" stroke-width="3"/><text font-family="'Yu Gothic','Noto Sans CJK JP',sans-serif" font-size="19" fill="#1a1a1a" text-anchor="middle"><tspan x="352.0" y="496.0">祝杯?</tspan><tspan x="352.0" y="520.0">サイレン?</tspan></text></g><g transform="translate(0.00,0.00) scale(1)"><path d="M 200.00,554.00 L 230.00,518.00 L 262.00,554.00 Z" fill="#ffffff" stroke="#1a1a1a" stroke-width="3" stroke-linejoin="round"/><path d="M 120.00,552.00 L 660.00,552.00 L 660.00,618.00 L 120.00,618.00 Z" fill="#ffffff" stroke="#1a1a1a" stroke-width="3"/><text font-family="'Yu Gothic','Noto Sans CJK JP',sans-serif" font-size="24" fill="#1a1a1a" text-anchor="middle"><tspan x="390.0" y="592.0">やった、綺麗な数字!</tspan></text></g><g transform="translate(0.00,0.00) scale(1)"><path d="M 40.00,680.00 L 720.00,680.00 L 720.00,752.00 L 40.00,752.00 Z" fill="#fffbe8" stroke="#1a1a1a" stroke-width="3"/><text font-family="'Yu Gothic','Noto Sans CJK JP',sans-serif" font-size="22" fill="#1a1a1a" text-anchor="middle"><tspan x="380.0" y="723.0">反証1: 飽和した眼鏡には淘汰が効かない</tspan></text></g><g transform="translate(0.00,0.00) scale(1)"><path d="M 150.00,795.00 L 610.00,795.00 L 610.00,853.00 L 150.00,853.00 Z" fill="#fffbe8" stroke="#1a1a1a" stroke-width="3"/><text font-family="'Yu Gothic','Noto Sans CJK JP',sans-serif" font-size="21" fill="#1a1a1a" text-anchor="middle"><tspan x="380.0" y="831.0">眼鏡が飽和</tspan></text></g><g transform="translate(0.00,0.00) scale(1)"><path d="M 368.00,857.00 L 392.00,857.00 L 380.00,883.00 Z" fill="#1a1a1a" stroke="none" stroke-width="3"/><text font-family="'Yu Gothic','Noto Sans CJK JP',sans-serif" font-size="1" fill="#1a1a1a" text-anchor="middle"><tspan x="0.0" y="0.0"></tspan></text></g><g transform="translate(0.00,0.00) scale(1)"><path d="M 150.00,887.00 L 610.00,887.00 L 610.00,945.00 L 150.00,945.00 Z" fill="#fffbe8" stroke="#1a1a1a" stroke-width="3"/><text font-family="'Yu Gothic','Noto Sans CJK JP',sans-serif" font-size="21" fill="#1a1a1a" text-anchor="middle"><tspan x="380.0" y="923.0">高級な淘汰器</tspan></text></g><g transform="translate(0.00,0.00) scale(1)"><path d="M 368.00,949.00 L 392.00,949.00 L 380.00,975.00 Z" fill="#1a1a1a" stroke="none" stroke-width="3"/><text font-family="'Yu Gothic','Noto Sans CJK JP',sans-serif" font-size="1" fill="#1a1a1a" text-anchor="middle"><tspan x="0.0" y="0.0"></tspan></text></g><g transform="translate(0.00,0.00) scale(1)"><path d="M 150.00,979.00 L 610.00,979.00 L 610.00,1037.00 L 150.00,1037.00 Z" fill="#fffbe8" stroke="#1a1a1a" stroke-width="3"/><text font-family="'Yu Gothic','Noto Sans CJK JP',sans-serif" font-size="21" fill="#1a1a1a" text-anchor="middle"><tspan x="380.0" y="1015.0">やっぱり崩壊</tspan></text></g><g transform="translate(0.00,0.00) scale(1)"><path d="M 200.00,1074.00 L 230.00,1038.00 L 262.00,1074.00 Z" fill="#ffffff" stroke="#1a1a1a" stroke-width="3" stroke-linejoin="round"/><path d="M 120.00,1072.00 L 660.00,1072.00 L 660.00,1138.00 L 120.00,1138.00 Z" fill="#ffffff" stroke="#1a1a1a" stroke-width="3"/><text font-family="'Yu Gothic','Noto Sans CJK JP',sans-serif" font-size="24" fill="#1a1a1a" text-anchor="middle"><tspan x="390.0" y="1098.0">審査員増やす前に</tspan><tspan x="390.0" y="1128.0">答案を直せ!</tspan></text></g><g transform="translate(0.00,0.00) scale(1)"><path d="M 40.00,1200.00 L 720.00,1200.00 L 720.00,1272.00 L 40.00,1272.00 Z" fill="#fffbe8" stroke="#1a1a1a" stroke-width="3"/><text font-family="'Yu Gothic','Noto Sans CJK JP',sans-serif" font-size="22" fill="#1a1a1a" text-anchor="middle"><tspan x="380.0" y="1243.0">反証2: 0.05 が測ったのは「行動だけ」</tspan></text></g><g transform="translate(0.00,0.00) scale(1)"><path d="M 128.00,1436.00 a 62.00,62.00 0 1,0 124.00,0 a 62.00,62.00 0 1,0 -124.00,0 Z" fill="#7fb3d5" stroke="#1a1a1a" stroke-width="3"/><text font-family="'Yu Gothic','Noto Sans CJK JP',sans-serif" font-size="19" fill="#1a1a1a" text-anchor="middle"><tspan x="190.0" y="1432.0">行動</tspan><tspan x="190.0" y="1454.8">改善</tspan></text></g><g transform="translate(0.00,0.00) scale(1)"><path d="M 318.00,1436.00 a 62.00,62.00 0 1,0 124.00,0 a 62.00,62.00 0 1,0 -124.00,0 Z" fill="#e59866" stroke="#1a1a1a" stroke-width="3"/><text font-family="'Yu Gothic','Noto Sans CJK JP',sans-serif" font-size="19" fill="#1a1a1a" text-anchor="middle"><tspan x="380.0" y="1432.0">系統</tspan><tspan x="380.0" y="1454.8">別物</tspan></text></g><g transform="translate(0.00,0.00) scale(1)"><path d="M 508.00,1436.00 a 62.00,62.00 0 1,0 124.00,0 a 62.00,62.00 0 1,0 -124.00,0 Z" fill="#cd6155" stroke="#1a1a1a" stroke-width="3"/><text font-family="'Yu Gothic','Noto Sans CJK JP',sans-serif" font-size="19" fill="#ffffff" text-anchor="middle"><tspan x="570.0" y="1432.0">実知能</tspan><tspan x="570.0" y="1454.8">未測定</tspan></text></g><g transform="translate(0.00,0.00) scale(1)"><path d="M 200.00,1594.00 L 230.00,1558.00 L 262.00,1594.00 Z" fill="#ffffff" stroke="#1a1a1a" stroke-width="3" stroke-linejoin="round"/><path d="M 120.00,1592.00 L 660.00,1592.00 L 660.00,1658.00 L 120.00,1658.00 Z" fill="#ffffff" stroke="#1a1a1a" stroke-width="3"/><text font-family="'Yu Gothic','Noto Sans CJK JP',sans-serif" font-size="24" fill="#1a1a1a" text-anchor="middle"><tspan x="390.0" y="1618.0">系統も改善した?</tspan><tspan x="390.0" y="1648.0">…それ私の早合点</tspan></text></g><g transform="translate(0.00,0.00) scale(1)"><path d="M 60.00,1730.00 L 700.00,1730.00 L 700.00,1872.00 L 60.00,1872.00 Z" fill="#ffffff" stroke="#1a1a1a" stroke-width="4"/><text font-family="'Yu Gothic','Noto Sans CJK JP',sans-serif" font-size="26" fill="#1a1a1a" text-anchor="middle"><tspan x="380.0" y="1781.0">全8系統そろってる!</tspan><tspan x="380.0" y="1823.0">…半分は ICU で延命中</tspan></text></g><g transform="translate(0.00,0.00) scale(1)"><path d="M 60.00,1900.00 L 700.00,1900.00 L 700.00,2034.00 L 60.00,2034.00 Z" fill="#efe7d2" stroke="#1a1a1a" stroke-width="2"/><text font-family="'Yu Gothic','Noto Sans CJK JP',sans-serif" font-size="20" fill="#1a1a1a" text-anchor="middle"><tspan x="380.0" y="1935.0">proxy が測る範囲を正直に限定</tspan><tspan x="380.0" y="1968.0">指標が目標になると壊れる</tspan><tspan x="380.0" y="2001.0">綺麗な数字はサイレン</tspan></text></g><g transform="translate(0.00,0.00) scale(1)"><path d="M 376.00,2086.00 L 384.00,2086.00 L 384.00,2090.00 L 376.00,2090.00 Z" fill="#f5efe2" stroke="none" stroke-width="3"/><text font-family="'Yu Gothic','Noto Sans CJK JP',sans-serif" font-size="20" fill="#6a645a" text-anchor="middle"><tspan x="380.0" y="2120.0">→ 本編で Goodhart の解剖を全部見る</tspan></text></g><g transform="translate(0.00,0.00) scale(1)"><path d="M 376.00,2156.00 L 384.00,2156.00 L 384.00,2160.00 L 376.00,2160.00 Z" fill="#f5efe2" stroke="none" stroke-width="3"/><text font-family="'Yu Gothic','Noto Sans CJK JP',sans-serif" font-size="13" fill="#8a8474" text-anchor="middle"><tspan x="380.0" y="2180.0">mangamd L0 / FullSense</tspan></text></g>
</svg>
