<svg xmlns="http://www.w3.org/2000/svg" xmlns:xlink="http://www.w3.org/1999/xlink" viewBox="0 0 760 2300" role="img" aria-label="등산으로 llcore 제3축 ③ 결판" style="width:100%;height:auto;max-width:1200px">
  <title>등산으로 llcore 제3축 ③ 결판</title>
  <defs></defs>
  <rect width="760" height="2300" fill="#f5efe2"/><g transform="translate(0.00,0.00) scale(1)"><path d="M 24.00,18.00 L 736.00,18.00 L 736.00,118.00 L 24.00,118.00 Z" fill="#2b2317" stroke="none" stroke-width="3"/><text font-family="'Malgun Gothic','Noto Sans CJK KR',sans-serif" font-size="26" fill="#f7efdd" text-anchor="middle"><tspan x="380.0" y="58.0">골라내어 키우는 잔재주 정말 필요한가?</tspan><tspan x="380.0" y="98.0">등산으로 결판</tspan></text></g><g transform="translate(0.00,0.00) scale(1)"><path d="M 20.00,140.00 L 740.00,140.00 L 740.00,640.00 L 20.00,640.00 Z" fill="#ffffff" stroke="#1a1a1a" stroke-width="5"/><text font-family="'Malgun Gothic','Noto Sans CJK KR',sans-serif" font-size="1" fill="#1a1a1a" text-anchor="middle"><tspan x="0.0" y="0.0"></tspan></text></g><g transform="translate(0.00,0.00) scale(1)"><path d="M 20.00,660.00 L 740.00,660.00 L 740.00,1160.00 L 20.00,1160.00 Z" fill="#ffffff" stroke="#1a1a1a" stroke-width="5"/><text font-family="'Malgun Gothic','Noto Sans CJK KR',sans-serif" font-size="1" fill="#1a1a1a" text-anchor="middle"><tspan x="0.0" y="0.0"></tspan></text></g><g transform="translate(0.00,0.00) scale(1)"><path d="M 20.00,1180.00 L 740.00,1180.00 L 740.00,1680.00 L 20.00,1680.00 Z" fill="#ffffff" stroke="#1a1a1a" stroke-width="5"/><text font-family="'Malgun Gothic','Noto Sans CJK KR',sans-serif" font-size="1" fill="#1a1a1a" text-anchor="middle"><tspan x="0.0" y="0.0"></tspan></text></g><g transform="translate(0.00,0.00) scale(1)"><path d="M 20.00,1700.00 L 740.00,1700.00 L 740.00,2200.00 L 20.00,2200.00 Z" fill="#ffffff" stroke="#1a1a1a" stroke-width="5"/><text font-family="'Malgun Gothic','Noto Sans CJK KR',sans-serif" font-size="1" fill="#1a1a1a" text-anchor="middle"><tspan x="0.0" y="0.0"></tspan></text></g><g transform="translate(0.00,0.00) scale(1)"><path d="M 40.00,160.00 L 720.00,160.00 L 720.00,232.00 L 40.00,232.00 Z" fill="#fffbe8" stroke="#1a1a1a" stroke-width="3"/><text font-family="'Malgun Gothic','Noto Sans CJK KR',sans-serif" font-size="22" fill="#1a1a1a" text-anchor="middle"><tspan x="380.0" y="203.0">진화의 ③ 적자생존. 정교한 잔재주는 쓸모 있나?</tspan></text></g><g transform="translate(0.00,0.00) scale(1)"><path d="M 90.00,396.00 a 62.00,62.00 0 1,0 124.00,0 a 62.00,62.00 0 1,0 -124.00,0 Z" fill="#dbeafe" stroke="#1a1a1a" stroke-width="3"/><text font-family="'Malgun Gothic','Noto Sans CJK KR',sans-serif" font-size="16" fill="#1a1a1a" text-anchor="middle"><tspan x="152.0" y="403.0">①변이</tspan></text></g><g transform="translate(0.00,0.00) scale(1)"><path d="M 242.00,396.00 a 62.00,62.00 0 1,0 124.00,0 a 62.00,62.00 0 1,0 -124.00,0 Z" fill="#dbeafe" stroke="#1a1a1a" stroke-width="3"/><text font-family="'Malgun Gothic','Noto Sans CJK KR',sans-serif" font-size="16" fill="#1a1a1a" text-anchor="middle"><tspan x="304.0" y="403.0">②유전</tspan></text></g><g transform="translate(0.00,0.00) scale(1)"><path d="M 394.00,396.00 a 62.00,62.00 0 1,0 124.00,0 a 62.00,62.00 0 1,0 -124.00,0 Z" fill="#fca5a5" stroke="#1a1a1a" stroke-width="3"/><text font-family="'Malgun Gothic','Noto Sans CJK KR',sans-serif" font-size="16" fill="#1a1a1a" text-anchor="middle"><tspan x="456.0" y="392.0">③골라</tspan><tspan x="456.0" y="411.2">키움</tspan></text></g><g transform="translate(0.00,0.00) scale(1)"><path d="M 546.00,396.00 a 62.00,62.00 0 1,0 124.00,0 a 62.00,62.00 0 1,0 -124.00,0 Z" fill="#dbeafe" stroke="#1a1a1a" stroke-width="3"/><text font-family="'Malgun Gothic','Noto Sans CJK KR',sans-serif" font-size="16" fill="#1a1a1a" text-anchor="middle"><tspan x="608.0" y="403.0">④번식</tspan></text></g><g transform="translate(0.00,0.00) scale(1)"><path d="M 200.00,554.00 L 230.00,518.00 L 262.00,554.00 Z" fill="#ffffff" stroke="#1a1a1a" stroke-width="3" stroke-linejoin="round"/><path d="M 120.00,552.00 L 660.00,552.00 L 660.00,618.00 L 120.00,618.00 Z" fill="#ffffff" stroke="#1a1a1a" stroke-width="3"/><text font-family="'Malgun Gothic','Noto Sans CJK KR',sans-serif" font-size="24" fill="#1a1a1a" text-anchor="middle"><tspan x="390.0" y="592.0">③ 필요 여부는 지형에 달렸다!</tspan></text></g><g transform="translate(0.00,0.00) scale(1)"><path d="M 40.00,680.00 L 720.00,680.00 L 720.00,752.00 L 40.00,752.00 Z" fill="#fffbe8" stroke="#1a1a1a" stroke-width="3"/><text font-family="'Malgun Gothic','Noto Sans CJK KR',sans-serif" font-size="22" fill="#1a1a1a" text-anchor="middle"><tspan x="380.0" y="723.0">속임수 지형이라야 ③. 실물은 어느 쪽?</tspan></text></g><g transform="translate(0.00,0.00) scale(1)"><path d="M 155.00,902.00 a 95.00,95.00 0 1,0 190.00,0 a 95.00,95.00 0 1,0 -190.00,0 Z" fill="#bbf7d0" stroke="#1a1a1a" stroke-width="4"/><text font-family="'Malgun Gothic','Noto Sans CJK KR',sans-serif" font-size="20" fill="#1a1a1a" text-anchor="middle"><tspan x="250.0" y="892.0">완만한</tspan><tspan x="250.0" y="918.0">한 산</tspan></text></g><g transform="translate(0.00,0.00) scale(1)"><path d="M 418.00,902.00 a 92.00,92.00 0 1,0 184.00,0 a 92.00,92.00 0 1,0 -184.00,0 Z" fill="#fcd34d" stroke="#1a1a1a" stroke-width="4"/><text font-family="'Malgun Gothic','Noto Sans CJK KR',sans-serif" font-size="16" fill="#1a1a1a" text-anchor="middle"><tspan x="510.0" y="892.0">속임수</tspan><tspan x="510.0" y="912.8">지형</tspan></text></g><g transform="translate(0.00,0.00) scale(1)"><path d="M 200.00,1074.00 L 230.00,1038.00 L 262.00,1074.00 Z" fill="#ffffff" stroke="#1a1a1a" stroke-width="3" stroke-linejoin="round"/><path d="M 120.00,1072.00 L 660.00,1072.00 L 660.00,1138.00 L 120.00,1138.00 Z" fill="#ffffff" stroke="#1a1a1a" stroke-width="3"/><text font-family="'Malgun Gothic','Noto Sans CJK KR',sans-serif" font-size="24" fill="#1a1a1a" text-anchor="middle"><tspan x="390.0" y="1112.0">배를 멈추고 재니 골짜기 0%!</tspan></text></g><g transform="translate(0.00,0.00) scale(1)"><path d="M 40.00,1200.00 L 720.00,1200.00 L 720.00,1272.00 L 40.00,1272.00 Z" fill="#fffbe8" stroke="#1a1a1a" stroke-width="3"/><text font-family="'Malgun Gothic','Noto Sans CJK KR',sans-serif" font-size="22" fill="#1a1a1a" text-anchor="middle"><tspan x="380.0" y="1243.0">CPU 샛길=부품 4개 섞어 골짜기 만들기</tspan></text></g><g transform="translate(0.00,0.00) scale(1)"><path d="M 150.00,1315.00 L 610.00,1315.00 L 610.00,1373.00 L 150.00,1373.00 Z" fill="#fffbe8" stroke="#1a1a1a" stroke-width="3"/><text font-family="'Malgun Gothic','Noto Sans CJK KR',sans-serif" font-size="21" fill="#1a1a1a" text-anchor="middle"><tspan x="380.0" y="1351.0">부품 4개 섞기</tspan></text></g><g transform="translate(0.00,0.00) scale(1)"><path d="M 368.00,1377.00 L 392.00,1377.00 L 380.00,1403.00 Z" fill="#1a1a1a" stroke="none" stroke-width="3"/><text font-family="'Malgun Gothic','Noto Sans CJK KR',sans-serif" font-size="1" fill="#1a1a1a" text-anchor="middle"><tspan x="0.0" y="0.0"></tspan></text></g><g transform="translate(0.00,0.00) scale(1)"><path d="M 150.00,1407.00 L 610.00,1407.00 L 610.00,1465.00 L 150.00,1465.00 Z" fill="#fffbe8" stroke="#1a1a1a" stroke-width="3"/><text font-family="'Malgun Gothic','Noto Sans CJK KR',sans-serif" font-size="21" fill="#1a1a1a" text-anchor="middle"><tspan x="380.0" y="1443.0">주사위로 전부 뽑힘</tspan></text></g><g transform="translate(0.00,0.00) scale(1)"><path d="M 368.00,1469.00 L 392.00,1469.00 L 380.00,1495.00 Z" fill="#1a1a1a" stroke="none" stroke-width="3"/><text font-family="'Malgun Gothic','Noto Sans CJK KR',sans-serif" font-size="1" fill="#1a1a1a" text-anchor="middle"><tspan x="0.0" y="0.0"></tspan></text></g><g transform="translate(0.00,0.00) scale(1)"><path d="M 150.00,1499.00 L 610.00,1499.00 L 610.00,1557.00 L 150.00,1557.00 Z" fill="#fffbe8" stroke="#1a1a1a" stroke-width="3"/><text font-family="'Malgun Gothic','Noto Sans CJK KR',sans-serif" font-size="21" fill="#1a1a1a" text-anchor="middle"><tspan x="380.0" y="1535.0">골짜기 건널 필요 없음</tspan></text></g><g transform="translate(0.00,0.00) scale(1)"><path d="M 200.00,1594.00 L 230.00,1558.00 L 262.00,1594.00 Z" fill="#ffffff" stroke="#1a1a1a" stroke-width="3" stroke-linejoin="round"/><path d="M 120.00,1592.00 L 660.00,1592.00 L 660.00,1658.00 L 120.00,1658.00 Z" fill="#ffffff" stroke="#1a1a1a" stroke-width="3"/><text font-family="'Malgun Gothic','Noto Sans CJK KR',sans-serif" font-size="24" fill="#1a1a1a" text-anchor="middle"><tspan x="390.0" y="1632.0">바로 워프되어 ③ 차례가 없다…</tspan></text></g><g transform="translate(0.00,0.00) scale(1)"><path d="M 60.00,1730.00 L 700.00,1730.00 L 700.00,1872.00 L 60.00,1872.00 Z" fill="#ffffff" stroke="#1a1a1a" stroke-width="4"/><text font-family="'Malgun Gothic','Noto Sans CJK KR',sans-serif" font-size="26" fill="#1a1a1a" text-anchor="middle"><tspan x="380.0" y="1781.0">너무 잘된 결과는</tspan><tspan x="380.0" y="1823.0">승리가 아니라 경보!</tspan></text></g><g transform="translate(0.00,0.00) scale(1)"><path d="M 60.00,1900.00 L 700.00,1900.00 L 700.00,2034.00 L 60.00,2034.00 Z" fill="#efe7d2" stroke="#1a1a1a" stroke-width="2"/><text font-family="'Malgun Gothic','Noto Sans CJK KR',sans-serif" font-size="20" fill="#1a1a1a" text-anchor="middle"><tspan x="380.0" y="1935.0">③은 속임수 지형에서만 진짜배기</tspan><tspan x="380.0" y="1968.0">샛길은 구조적으로 막혀 있었다</tspan><tspan x="380.0" y="2001.0">정직함은 자기 실수를 붙잡는 도구</tspan></text></g><g transform="translate(0.00,0.00) scale(1)"><path d="M 376.00,2086.00 L 384.00,2086.00 L 384.00,2090.00 L 376.00,2090.00 Z" fill="#f5efe2" stroke="none" stroke-width="3"/><text font-family="'Malgun Gothic','Noto Sans CJK KR',sans-serif" font-size="20" fill="#6a645a" text-anchor="middle"><tspan x="380.0" y="2120.0">→ 기술판에서 proper power 결판을 보자</tspan></text></g><g transform="translate(0.00,0.00) scale(1)"><path d="M 376.00,2156.00 L 384.00,2156.00 L 384.00,2160.00 L 376.00,2160.00 Z" fill="#f5efe2" stroke="none" stroke-width="3"/><text font-family="'Malgun Gothic','Noto Sans CJK KR',sans-serif" font-size="13" fill="#8a8474" text-anchor="middle"><tspan x="380.0" y="2180.0">mangamd L0 / FullSense</tspan></text></g>
</svg>
