<svg xmlns="http://www.w3.org/2000/svg" xmlns:xlink="http://www.w3.org/1999/xlink" viewBox="0 0 760 2300" role="img" aria-label="Settling llcore's third axis ③ by mountain-climbing" style="width:100%;height:auto;max-width:1200px">
  <title>Settling llcore's third axis ③ by mountain-climbing</title>
  <defs></defs>
  <rect width="760" height="2300" fill="#f5efe2"/><g transform="translate(0.00,0.00) scale(1)"><path d="M 24.00,18.00 L 736.00,18.00 L 736.00,118.00 L 24.00,118.00 Z" fill="#2b2317" stroke="none" stroke-width="3"/><text font-family="'Segoe UI','Noto Sans',sans-serif" font-size="24" fill="#f7efdd" text-anchor="middle"><tspan x="380.0" y="58.0">Do we really need the sort-and-breed trick?</tspan><tspan x="380.0" y="98.0">Settled by mountain-climbing</tspan></text></g><g transform="translate(0.00,0.00) scale(1)"><path d="M 20.00,140.00 L 740.00,140.00 L 740.00,640.00 L 20.00,640.00 Z" fill="#ffffff" stroke="#1a1a1a" stroke-width="5"/><text font-family="'Segoe UI','Noto Sans',sans-serif" font-size="1" fill="#1a1a1a" text-anchor="middle"><tspan x="0.0" y="0.0"></tspan></text></g><g transform="translate(0.00,0.00) scale(1)"><path d="M 20.00,660.00 L 740.00,660.00 L 740.00,1160.00 L 20.00,1160.00 Z" fill="#ffffff" stroke="#1a1a1a" stroke-width="5"/><text font-family="'Segoe UI','Noto Sans',sans-serif" font-size="1" fill="#1a1a1a" text-anchor="middle"><tspan x="0.0" y="0.0"></tspan></text></g><g transform="translate(0.00,0.00) scale(1)"><path d="M 20.00,1180.00 L 740.00,1180.00 L 740.00,1680.00 L 20.00,1680.00 Z" fill="#ffffff" stroke="#1a1a1a" stroke-width="5"/><text font-family="'Segoe UI','Noto Sans',sans-serif" font-size="1" fill="#1a1a1a" text-anchor="middle"><tspan x="0.0" y="0.0"></tspan></text></g><g transform="translate(0.00,0.00) scale(1)"><path d="M 20.00,1700.00 L 740.00,1700.00 L 740.00,2200.00 L 20.00,2200.00 Z" fill="#ffffff" stroke="#1a1a1a" stroke-width="5"/><text font-family="'Segoe UI','Noto Sans',sans-serif" font-size="1" fill="#1a1a1a" text-anchor="middle"><tspan x="0.0" y="0.0"></tspan></text></g><g transform="translate(0.00,0.00) scale(1)"><path d="M 40.00,160.00 L 720.00,160.00 L 720.00,232.00 L 40.00,232.00 Z" fill="#fffbe8" stroke="#1a1a1a" stroke-width="3"/><text font-family="'Segoe UI','Noto Sans',sans-serif" font-size="19" fill="#1a1a1a" text-anchor="middle"><tspan x="380.0" y="203.0">Evolution's ③ selection. Is the fancy trick useful?</tspan></text></g><g transform="translate(0.00,0.00) scale(1)"><path d="M 90.00,396.00 a 62.00,62.00 0 1,0 124.00,0 a 62.00,62.00 0 1,0 -124.00,0 Z" fill="#dbeafe" stroke="#1a1a1a" stroke-width="3"/><text font-family="'Segoe UI','Noto Sans',sans-serif" font-size="16" fill="#1a1a1a" text-anchor="middle"><tspan x="152.0" y="403.0">1 vary</tspan></text></g><g transform="translate(0.00,0.00) scale(1)"><path d="M 242.00,396.00 a 62.00,62.00 0 1,0 124.00,0 a 62.00,62.00 0 1,0 -124.00,0 Z" fill="#dbeafe" stroke="#1a1a1a" stroke-width="3"/><text font-family="'Segoe UI','Noto Sans',sans-serif" font-size="13" fill="#1a1a1a" text-anchor="middle"><tspan x="304.0" y="403.0">2 inher</tspan></text></g><g transform="translate(0.00,0.00) scale(1)"><path d="M 394.00,396.00 a 62.00,62.00 0 1,0 124.00,0 a 62.00,62.00 0 1,0 -124.00,0 Z" fill="#fca5a5" stroke="#1a1a1a" stroke-width="3"/><text font-family="'Segoe UI','Noto Sans',sans-serif" font-size="13" fill="#1a1a1a" text-anchor="middle"><tspan x="456.0" y="392.0">3 sort</tspan><tspan x="456.0" y="407.6">&amp; breed</tspan></text></g><g transform="translate(0.00,0.00) scale(1)"><path d="M 546.00,396.00 a 62.00,62.00 0 1,0 124.00,0 a 62.00,62.00 0 1,0 -124.00,0 Z" fill="#dbeafe" stroke="#1a1a1a" stroke-width="3"/><text font-family="'Segoe UI','Noto Sans',sans-serif" font-size="13" fill="#1a1a1a" text-anchor="middle"><tspan x="608.0" y="403.0">4 breed</tspan></text></g><g transform="translate(0.00,0.00) scale(1)"><path d="M 200.00,554.00 L 230.00,518.00 L 262.00,554.00 Z" fill="#ffffff" stroke="#1a1a1a" stroke-width="3" stroke-linejoin="round"/><path d="M 120.00,552.00 L 660.00,552.00 L 660.00,618.00 L 120.00,618.00 Z" fill="#ffffff" stroke="#1a1a1a" stroke-width="3"/><text font-family="'Segoe UI','Noto Sans',sans-serif" font-size="20" fill="#1a1a1a" text-anchor="middle"><tspan x="390.0" y="592.0">Whether ③ helps depends on terrain!</tspan></text></g><g transform="translate(0.00,0.00) scale(1)"><path d="M 40.00,680.00 L 720.00,680.00 L 720.00,752.00 L 40.00,752.00 Z" fill="#fffbe8" stroke="#1a1a1a" stroke-width="3"/><text font-family="'Segoe UI','Noto Sans',sans-serif" font-size="19" fill="#1a1a1a" text-anchor="middle"><tspan x="380.0" y="723.0">③ helps on deceptive terrain. Which is the real one?</tspan></text></g><g transform="translate(0.00,0.00) scale(1)"><path d="M 155.00,902.00 a 95.00,95.00 0 1,0 190.00,0 a 95.00,95.00 0 1,0 -190.00,0 Z" fill="#bbf7d0" stroke="#1a1a1a" stroke-width="4"/><text font-family="'Segoe UI','Noto Sans',sans-serif" font-size="20" fill="#1a1a1a" text-anchor="middle"><tspan x="250.0" y="892.0">gentle</tspan><tspan x="250.0" y="918.0">hill</tspan></text></g><g transform="translate(0.00,0.00) scale(1)"><path d="M 418.00,902.00 a 92.00,92.00 0 1,0 184.00,0 a 92.00,92.00 0 1,0 -184.00,0 Z" fill="#fcd34d" stroke="#1a1a1a" stroke-width="4"/><text font-family="'Segoe UI','Noto Sans',sans-serif" font-size="16" fill="#1a1a1a" text-anchor="middle"><tspan x="510.0" y="892.0">deceptive</tspan><tspan x="510.0" y="912.8">terrain</tspan></text></g><g transform="translate(0.00,0.00) scale(1)"><path d="M 200.00,1074.00 L 230.00,1038.00 L 262.00,1074.00 Z" fill="#ffffff" stroke="#1a1a1a" stroke-width="3" stroke-linejoin="round"/><path d="M 120.00,1072.00 L 660.00,1072.00 L 660.00,1138.00 L 120.00,1138.00 Z" fill="#ffffff" stroke="#1a1a1a" stroke-width="3"/><text font-family="'Segoe UI','Noto Sans',sans-serif" font-size="20" fill="#1a1a1a" text-anchor="middle"><tspan x="390.0" y="1112.0">Stopped the boat to measure: 0% valleys!</tspan></text></g><g transform="translate(0.00,0.00) scale(1)"><path d="M 40.00,1200.00 L 720.00,1200.00 L 720.00,1272.00 L 40.00,1272.00 Z" fill="#fffbe8" stroke="#1a1a1a" stroke-width="3"/><text font-family="'Segoe UI','Noto Sans',sans-serif" font-size="19" fill="#1a1a1a" text-anchor="middle"><tspan x="380.0" y="1243.0">CPU loophole: mix 4 parts to forge a valley</tspan></text></g><g transform="translate(0.00,0.00) scale(1)"><path d="M 150.00,1315.00 L 610.00,1315.00 L 610.00,1373.00 L 150.00,1373.00 Z" fill="#fffbe8" stroke="#1a1a1a" stroke-width="3"/><text font-family="'Segoe UI','Noto Sans',sans-serif" font-size="21" fill="#1a1a1a" text-anchor="middle"><tspan x="380.0" y="1351.0">mix 4 parts</tspan></text></g><g transform="translate(0.00,0.00) scale(1)"><path d="M 368.00,1377.00 L 392.00,1377.00 L 380.00,1403.00 Z" fill="#1a1a1a" stroke="none" stroke-width="3"/><text font-family="'Segoe UI','Noto Sans',sans-serif" font-size="1" fill="#1a1a1a" text-anchor="middle"><tspan x="0.0" y="0.0"></tspan></text></g><g transform="translate(0.00,0.00) scale(1)"><path d="M 150.00,1407.00 L 610.00,1407.00 L 610.00,1465.00 L 150.00,1465.00 Z" fill="#fffbe8" stroke="#1a1a1a" stroke-width="3"/><text font-family="'Segoe UI','Noto Sans',sans-serif" font-size="21" fill="#1a1a1a" text-anchor="middle"><tspan x="380.0" y="1443.0">die draws all 4</tspan></text></g><g transform="translate(0.00,0.00) scale(1)"><path d="M 368.00,1469.00 L 392.00,1469.00 L 380.00,1495.00 Z" fill="#1a1a1a" stroke="none" stroke-width="3"/><text font-family="'Segoe UI','Noto Sans',sans-serif" font-size="1" fill="#1a1a1a" text-anchor="middle"><tspan x="0.0" y="0.0"></tspan></text></g><g transform="translate(0.00,0.00) scale(1)"><path d="M 150.00,1499.00 L 610.00,1499.00 L 610.00,1557.00 L 150.00,1557.00 Z" fill="#fffbe8" stroke="#1a1a1a" stroke-width="3"/><text font-family="'Segoe UI','Noto Sans',sans-serif" font-size="21" fill="#1a1a1a" text-anchor="middle"><tspan x="380.0" y="1535.0">no valley to cross</tspan></text></g><g transform="translate(0.00,0.00) scale(1)"><path d="M 200.00,1594.00 L 230.00,1558.00 L 262.00,1594.00 Z" fill="#ffffff" stroke="#1a1a1a" stroke-width="3" stroke-linejoin="round"/><path d="M 120.00,1592.00 L 660.00,1592.00 L 660.00,1658.00 L 120.00,1658.00 Z" fill="#ffffff" stroke="#1a1a1a" stroke-width="3"/><text font-family="'Segoe UI','Noto Sans',sans-serif" font-size="20" fill="#1a1a1a" text-anchor="middle"><tspan x="390.0" y="1632.0">It warps straight there, ③ never plays...</tspan></text></g><g transform="translate(0.00,0.00) scale(1)"><path d="M 60.00,1730.00 L 700.00,1730.00 L 700.00,1872.00 L 60.00,1872.00 Z" fill="#ffffff" stroke="#1a1a1a" stroke-width="4"/><text font-family="'Segoe UI','Noto Sans',sans-serif" font-size="22" fill="#1a1a1a" text-anchor="middle"><tspan x="380.0" y="1781.0">A too-tidy result is</tspan><tspan x="380.0" y="1823.0">not a win but an alarm!</tspan></text></g><g transform="translate(0.00,0.00) scale(1)"><path d="M 60.00,1900.00 L 700.00,1900.00 L 700.00,2034.00 L 60.00,2034.00 Z" fill="#efe7d2" stroke="#1a1a1a" stroke-width="2"/><text font-family="'Segoe UI','Noto Sans',sans-serif" font-size="17" fill="#1a1a1a" text-anchor="middle"><tspan x="380.0" y="1935.0">③ is the real deal only on deceptive terrain</tspan><tspan x="380.0" y="1968.0">the loophole was structurally closed</tspan><tspan x="380.0" y="2001.0">honesty is a tool to catch your own mistakes</tspan></text></g><g transform="translate(0.00,0.00) scale(1)"><path d="M 376.00,2086.00 L 384.00,2086.00 L 384.00,2090.00 L 376.00,2090.00 Z" fill="#f5efe2" stroke="none" stroke-width="3"/><text font-family="'Segoe UI','Noto Sans',sans-serif" font-size="20" fill="#6a645a" text-anchor="middle"><tspan x="380.0" y="2120.0">→ See the proper-power settling in the main edition</tspan></text></g><g transform="translate(0.00,0.00) scale(1)"><path d="M 376.00,2156.00 L 384.00,2156.00 L 384.00,2160.00 L 376.00,2160.00 Z" fill="#f5efe2" stroke="none" stroke-width="3"/><text font-family="'Segoe UI','Noto Sans',sans-serif" font-size="13" fill="#8a8474" text-anchor="middle"><tspan x="380.0" y="2180.0">mangamd L0 / FullSense</tspan></text></g>
</svg>
