<svg xmlns="http://www.w3.org/2000/svg" xmlns:xlink="http://www.w3.org/1999/xlink" viewBox="0 0 760 2300" role="img" aria-label="llcore 第三軸 ③ を山登りで決着" style="width:100%;height:auto;max-width:1200px">
  <title>llcore 第三軸 ③ を山登りで決着</title>
  <defs><clipPath id="cl_26"><rect x="25" y="1708" width="710" height="484"/></clipPath></defs>
  <rect width="760" height="2300" fill="#f5efe2"/><g transform="translate(0.00,0.00) scale(1)"><path d="M 24.00,18.00 L 736.00,18.00 L 736.00,118.00 L 24.00,118.00 Z" fill="#2b2317" stroke="none" stroke-width="3" stroke-linejoin="round"/><text font-family="'Yu Gothic','Noto Sans CJK JP',sans-serif" font-size="26" fill="#f7efdd" text-anchor="middle"><tspan x="380.0" y="58.0">選り分けて育てる工夫、</tspan><tspan x="380.0" y="98.0">本当に要る? を山登りで</tspan></text></g><g transform="translate(0.00,0.00) scale(1)"><path d="M 20.00,140.00 L 740.00,140.00 L 740.00,640.00 L 20.00,640.00 Z" fill="#ffffff" stroke="#1a1a1a" stroke-width="5" stroke-linejoin="round"/><text font-family="'Yu Gothic','Noto Sans CJK JP',sans-serif" font-size="1" fill="#1a1a1a" text-anchor="middle"><tspan x="0.0" y="0.0"></tspan></text></g><g transform="translate(0.00,0.00) scale(1)"><path d="M 20.00,660.00 L 740.00,660.00 L 740.00,1160.00 L 20.00,1160.00 Z" fill="#ffffff" stroke="#1a1a1a" stroke-width="5" stroke-linejoin="round"/><text font-family="'Yu Gothic','Noto Sans CJK JP',sans-serif" font-size="1" fill="#1a1a1a" text-anchor="middle"><tspan x="0.0" y="0.0"></tspan></text></g><g transform="translate(0.00,0.00) scale(1)"><path d="M 20.00,1180.00 L 740.00,1180.00 L 740.00,1680.00 L 20.00,1680.00 Z" fill="#ffffff" stroke="#1a1a1a" stroke-width="5" stroke-linejoin="round"/><text font-family="'Yu Gothic','Noto Sans CJK JP',sans-serif" font-size="1" fill="#1a1a1a" text-anchor="middle"><tspan x="0.0" y="0.0"></tspan></text></g><g transform="translate(0.00,0.00) scale(1)"><path d="M 20.00,1700.00 L 740.00,1700.00 L 740.00,2200.00 L 20.00,2200.00 Z" fill="#ffffff" stroke="#1a1a1a" stroke-width="5" stroke-linejoin="round"/><text font-family="'Yu Gothic','Noto Sans CJK JP',sans-serif" font-size="1" fill="#1a1a1a" text-anchor="middle"><tspan x="0.0" y="0.0"></tspan></text></g><g transform="translate(0.00,0.00) scale(1)"><path d="M 40.00,160.00 L 720.00,160.00 L 720.00,232.00 L 40.00,232.00 Z" fill="#fffbe8" stroke="#1a1a1a" stroke-width="3" stroke-linejoin="round"/><text font-family="'Yu Gothic','Noto Sans CJK JP',sans-serif" font-size="22" fill="#1a1a1a" text-anchor="middle"><tspan x="380.0" y="203.0">進化の③適者生存。凝った工夫は役立つ?</tspan></text></g><g transform="translate(0.00,0.00) scale(1)"><path d="M 90.00,361.00 a 62.00,62.00 0 1,0 124.00,0 a 62.00,62.00 0 1,0 -124.00,0 Z" fill="#dbeafe" stroke="#1a1a1a" stroke-width="3" stroke-linejoin="round"/><text font-family="'Yu Gothic','Noto Sans CJK JP',sans-serif" font-size="19" fill="#1a1a1a" text-anchor="middle"><tspan x="152.0" y="368.0">①変異</tspan></text></g><g transform="translate(0.00,0.00) scale(1)"><path d="M 242.00,361.00 a 62.00,62.00 0 1,0 124.00,0 a 62.00,62.00 0 1,0 -124.00,0 Z" fill="#dbeafe" stroke="#1a1a1a" stroke-width="3" stroke-linejoin="round"/><text font-family="'Yu Gothic','Noto Sans CJK JP',sans-serif" font-size="19" fill="#1a1a1a" text-anchor="middle"><tspan x="304.0" y="368.0">②遺伝</tspan></text></g><g transform="translate(0.00,0.00) scale(1)"><path d="M 394.00,361.00 a 62.00,62.00 0 1,0 124.00,0 a 62.00,62.00 0 1,0 -124.00,0 Z" fill="#fca5a5" stroke="#1a1a1a" stroke-width="3" stroke-linejoin="round"/><text font-family="'Yu Gothic','Noto Sans CJK JP',sans-serif" font-size="19" fill="#1a1a1a" text-anchor="middle"><tspan x="456.0" y="357.0">③選り</tspan><tspan x="456.0" y="379.8">分け</tspan></text></g><g transform="translate(0.00,0.00) scale(1)"><path d="M 546.00,361.00 a 62.00,62.00 0 1,0 124.00,0 a 62.00,62.00 0 1,0 -124.00,0 Z" fill="#dbeafe" stroke="#1a1a1a" stroke-width="3" stroke-linejoin="round"/><text font-family="'Yu Gothic','Noto Sans CJK JP',sans-serif" font-size="19" fill="#1a1a1a" text-anchor="middle"><tspan x="608.0" y="368.0">④繁殖</tspan></text></g><g transform="translate(0.00,0.00) scale(1)"><path d="M 596.68,474.64 a 53.32,53.32 0 1,0 106.64,0 a 53.32,53.32 0 1,0 -106.64,0 Z" fill="#4a3826" stroke="none" stroke-width="2" stroke-linejoin="round"/><path d="M 597.84,492.00 a 42.16,42.16 0 1,0 84.32,0 a 42.16,42.16 0 1,0 -84.32,0 Z" fill="#fbd7b5" stroke="none" stroke-width="2" stroke-linejoin="round"/><path d="M 598.46,461.00 a 18.60,18.60 0 1,0 37.20,0 a 18.60,18.60 0 1,0 -37.20,0 Z" fill="#4a3826" stroke="none" stroke-width="2" stroke-linejoin="round"/><path d="M 622.64,454.80 a 20.46,20.46 0 1,0 40.92,0 a 20.46,20.46 0 1,0 -40.92,0 Z" fill="#4a3826" stroke="none" stroke-width="2" stroke-linejoin="round"/><path d="M 651.16,463.48 a 17.98,17.98 0 1,0 35.96,0 a 17.98,17.98 0 1,0 -35.96,0 Z" fill="#4a3826" stroke="none" stroke-width="2" stroke-linejoin="round"/><path d="M 607.76 479.6 q 7.4399999999999995 -8 14.879999999999999 -2" fill="none" stroke="#3a2c20" stroke-width="2.5" stroke-linejoin="round" stroke-linecap="round"/><path d="M 612.72,489.52 a 3.72,3.72 0 1,0 7.44,0 a 3.72,3.72 0 1,0 -7.44,0 Z" fill="#3a2c20" stroke="none" stroke-width="2" stroke-linejoin="round"/><path d="M 597.84,509.36 a 8.06,9.92 0 1,0 16.12,0 a 8.06,9.92 0 1,0 -16.12,0 Z" fill="#8e3b35" stroke="none" stroke-width="2" stroke-linejoin="round"/><path d="M 587.3 631.5 Q 587.3 554.0 640 550.9 Q 692.7 554.0 692.7 631.5 Z" fill="#5a6e8c" stroke="none" stroke-width="2" stroke-linejoin="round"/><path d="M 630.7 560.2 L 640 575.08 L 649.3 560.2" fill="#ffffff" stroke="none" stroke-width="2" stroke-linejoin="round"/></g><g transform="translate(0.00,0.00) scale(1)"><path d="M 486.38,534.71 C 487.38,536.49 490.98,541.79 492.34,545.39 C 493.70,548.98 496.88,552.76 494.56,556.28 C 492.25,559.80 484.54,563.18 478.44,566.52 C 472.34,569.86 466.49,573.28 457.97,576.30 C 449.45,579.31 439.31,582.37 427.31,584.60 C 415.32,586.83 399.72,587.98 386.00,589.69 C 372.28,591.39 359.56,593.85 344.98,594.83 C 330.41,595.82 313.95,595.58 298.54,595.62 C 283.13,595.66 267.63,595.65 252.52,595.08 C 237.41,594.50 222.19,593.51 207.89,592.17 C 193.59,590.83 179.01,589.18 166.73,587.02 C 154.45,584.86 143.72,582.03 134.23,579.20 C 124.73,576.37 117.04,573.22 109.75,570.05 C 102.46,566.88 94.98,563.63 90.49,560.18 C 86.00,556.74 82.76,552.99 82.80,549.40 C 82.83,545.81 87.76,542.24 90.71,538.67 C 93.66,535.10 94.62,531.30 100.47,527.99 C 106.32,524.67 115.78,521.50 125.82,518.78 C 135.86,516.06 148.97,514.02 160.71,511.66 C 172.45,509.30 183.01,506.42 196.27,504.61 C 209.53,502.80 225.18,501.58 240.26,500.82 C 255.35,500.05 271.34,499.99 286.78,500.03 C 302.22,500.06 317.97,500.23 332.89,501.02 C 347.81,501.80 362.66,503.12 376.31,504.72 C 389.95,506.32 402.88,508.38 414.76,510.60 C 426.64,512.83 442.11,516.83 447.58,518.08 Q 496.87,533.47 565.64,514.28 Q 516.02,509.63 486.38,534.71 Z" fill="#ffffff" stroke="#1a1a1a" stroke-width="3" stroke-linejoin="round"/><text font-family="'Yu Gothic','Noto Sans CJK JP',sans-serif" font-size="24" fill="#1a1a1a" text-anchor="middle"><tspan x="290.0" y="556.4">③が要るかは地形しだい!</tspan></text></g><g transform="translate(0.00,0.00) scale(1)"><path d="M 40.00,680.00 L 720.00,680.00 L 720.00,752.00 L 40.00,752.00 Z" fill="#fffbe8" stroke="#1a1a1a" stroke-width="3" stroke-linejoin="round"/><text font-family="'Yu Gothic','Noto Sans CJK JP',sans-serif" font-size="22" fill="#1a1a1a" text-anchor="middle"><tspan x="380.0" y="723.0">だまし地形なら③が要る。実物はどっち?</tspan></text></g><g transform="translate(0.00,0.00) scale(1)"><path d="M 155.00,902.00 a 95.00,95.00 0 1,0 190.00,0 a 95.00,95.00 0 1,0 -190.00,0 Z" fill="#bbf7d0" stroke="#1a1a1a" stroke-width="4" stroke-linejoin="round"/><text font-family="'Yu Gothic','Noto Sans CJK JP',sans-serif" font-size="24" fill="#1a1a1a" text-anchor="middle"><tspan x="250.0" y="892.0">なだらか</tspan><tspan x="250.0" y="923.2">山</tspan></text></g><g transform="translate(0.00,0.00) scale(1)"><path d="M 418.00,902.00 a 92.00,92.00 0 1,0 184.00,0 a 92.00,92.00 0 1,0 -184.00,0 Z" fill="#fcd34d" stroke="#1a1a1a" stroke-width="4" stroke-linejoin="round"/><text font-family="'Yu Gothic','Noto Sans CJK JP',sans-serif" font-size="20" fill="#1a1a1a" text-anchor="middle"><tspan x="510.0" y="892.0">だまし</tspan><tspan x="510.0" y="918.0">地形</tspan></text></g><g transform="translate(0.00,0.00) scale(1)"><path d="M 56.68,994.64 a 53.32,53.32 0 1,0 106.64,0 a 53.32,53.32 0 1,0 -106.64,0 Z" fill="#4a3826" stroke="none" stroke-width="2" stroke-linejoin="round"/><path d="M 77.84,1012.00 a 42.16,42.16 0 1,0 84.32,0 a 42.16,42.16 0 1,0 -84.32,0 Z" fill="#fbd7b5" stroke="none" stroke-width="2" stroke-linejoin="round"/><path d="M 124.34,981.00 a 18.60,18.60 0 1,0 37.20,0 a 18.60,18.60 0 1,0 -37.20,0 Z" fill="#4a3826" stroke="none" stroke-width="2" stroke-linejoin="round"/><path d="M 96.44,974.80 a 20.46,20.46 0 1,0 40.92,0 a 20.46,20.46 0 1,0 -40.92,0 Z" fill="#4a3826" stroke="none" stroke-width="2" stroke-linejoin="round"/><path d="M 72.88,983.48 a 17.98,17.98 0 1,0 35.96,0 a 17.98,17.98 0 1,0 -35.96,0 Z" fill="#4a3826" stroke="none" stroke-width="2" stroke-linejoin="round"/><path d="M 152.24 999.6 q -7.4399999999999995 -8 -14.879999999999999 -2" fill="none" stroke="#3a2c20" stroke-width="2.5" stroke-linejoin="round" stroke-linecap="round"/><path d="M 139.84,1009.52 a 3.72,3.72 0 1,0 7.44,0 a 3.72,3.72 0 1,0 -7.44,0 Z" fill="#3a2c20" stroke="none" stroke-width="2" stroke-linejoin="round"/><path d="M 146.04,1029.36 a 8.06,9.92 0 1,0 16.12,0 a 8.06,9.92 0 1,0 -16.12,0 Z" fill="#8e3b35" stroke="none" stroke-width="2" stroke-linejoin="round"/><path d="M 67.3 1151.5 Q 67.3 1074.0 120 1070.9 Q 172.7 1074.0 172.7 1151.5 Z" fill="#5a6e8c" stroke="none" stroke-width="2" stroke-linejoin="round"/><path d="M 110.7 1080.2 L 120 1095.08 L 129.3 1080.2" fill="#ffffff" stroke="none" stroke-width="2" stroke-linejoin="round"/></g><g transform="translate(0.00,0.00) scale(1)"><path d="M 309.84,1037.59 C 315.77,1036.43 333.26,1032.87 345.44,1030.66 C 357.62,1028.45 369.40,1026.05 382.92,1024.33 C 396.43,1022.62 411.47,1021.08 426.52,1020.37 C 441.57,1019.65 457.78,1019.87 473.22,1020.04 C 488.66,1020.20 504.11,1020.59 519.17,1021.36 C 534.22,1022.13 549.99,1023.03 563.58,1024.68 C 577.16,1026.33 588.72,1028.95 600.67,1031.27 C 612.62,1033.59 626.04,1035.74 635.25,1038.59 C 644.46,1041.44 650.47,1045.01 655.94,1048.36 C 661.42,1051.72 664.66,1055.22 668.10,1058.72 C 671.54,1062.23 676.84,1065.85 676.61,1069.40 C 676.37,1072.94 670.46,1076.49 666.67,1080.01 C 662.88,1083.53 660.49,1087.25 653.86,1090.49 C 647.22,1093.72 637.25,1096.76 626.88,1099.42 C 616.50,1102.09 604.21,1104.45 591.61,1106.50 C 579.01,1108.55 565.32,1110.32 551.27,1111.72 C 537.23,1113.12 522.32,1114.16 507.33,1114.90 C 492.35,1115.64 476.75,1116.17 461.36,1116.16 C 445.97,1116.15 429.73,1115.85 415.01,1114.84 C 400.29,1113.83 386.09,1111.99 373.01,1110.11 C 359.94,1108.23 347.78,1105.97 336.55,1103.57 C 325.31,1101.17 314.93,1098.52 305.61,1095.70 C 296.28,1092.87 287.18,1089.86 280.61,1086.61 C 274.03,1083.37 268.34,1079.79 266.17,1076.25 C 263.99,1072.71 266.06,1068.96 267.55,1065.38 C 269.04,1061.81 273.86,1056.57 275.12,1054.81 Q 244.88,1029.69 194.36,1034.28 Q 261.58,1053.18 309.84,1037.59 Z" fill="#ffffff" stroke="#1a1a1a" stroke-width="3" stroke-linejoin="round"/><text font-family="'Yu Gothic','Noto Sans CJK JP',sans-serif" font-size="24" fill="#1a1a1a" text-anchor="middle"><tspan x="470.0" y="1076.4">船を止めて測ったら、谷0%!</tspan></text></g><g transform="translate(0.00,0.00) scale(1)"><path d="M 40.00,1200.00 L 720.00,1200.00 L 720.00,1272.00 L 40.00,1272.00 Z" fill="#fffbe8" stroke="#1a1a1a" stroke-width="3" stroke-linejoin="round"/><text font-family="'Yu Gothic','Noto Sans CJK JP',sans-serif" font-size="22" fill="#1a1a1a" text-anchor="middle"><tspan x="380.0" y="1243.0">CPUの抜け道=部品4つ混ぜで谷を作る作戦</tspan></text></g><g transform="translate(0.00,0.00) scale(1)"><path d="M 150.00,1294.00 L 610.00,1294.00 L 610.00,1348.00 L 150.00,1348.00 Z" fill="#fffbe8" stroke="#1a1a1a" stroke-width="3" stroke-linejoin="round"/><text font-family="'Yu Gothic','Noto Sans CJK JP',sans-serif" font-size="21" fill="#1a1a1a" text-anchor="middle"><tspan x="380.0" y="1328.0">部品4つ混ぜ</tspan></text></g><g transform="translate(0.00,0.00) scale(1)"><path d="M 368.00,1352.00 L 392.00,1352.00 L 380.00,1370.00 Z" fill="#1a1a1a" stroke="none" stroke-width="3" stroke-linejoin="round"/><text font-family="'Yu Gothic','Noto Sans CJK JP',sans-serif" font-size="1" fill="#1a1a1a" text-anchor="middle"><tspan x="0.0" y="0.0"></tspan></text></g><g transform="translate(0.00,0.00) scale(1)"><path d="M 150.00,1374.00 L 610.00,1374.00 L 610.00,1428.00 L 150.00,1428.00 Z" fill="#fffbe8" stroke="#1a1a1a" stroke-width="3" stroke-linejoin="round"/><text font-family="'Yu Gothic','Noto Sans CJK JP',sans-serif" font-size="21" fill="#1a1a1a" text-anchor="middle"><tspan x="380.0" y="1408.0">サイコロで全部ひける</tspan></text></g><g transform="translate(0.00,0.00) scale(1)"><path d="M 368.00,1432.00 L 392.00,1432.00 L 380.00,1450.00 Z" fill="#1a1a1a" stroke="none" stroke-width="3" stroke-linejoin="round"/><text font-family="'Yu Gothic','Noto Sans CJK JP',sans-serif" font-size="1" fill="#1a1a1a" text-anchor="middle"><tspan x="0.0" y="0.0"></tspan></text></g><g transform="translate(0.00,0.00) scale(1)"><path d="M 150.00,1454.00 L 610.00,1454.00 L 610.00,1508.00 L 150.00,1508.00 Z" fill="#fffbe8" stroke="#1a1a1a" stroke-width="3" stroke-linejoin="round"/><text font-family="'Yu Gothic','Noto Sans CJK JP',sans-serif" font-size="21" fill="#1a1a1a" text-anchor="middle"><tspan x="380.0" y="1488.0">谷を渡る必要なし</tspan></text></g><g transform="translate(0.00,0.00) scale(1)"><path d="M 596.68,1514.64 a 53.32,53.32 0 1,0 106.64,0 a 53.32,53.32 0 1,0 -106.64,0 Z" fill="#4a3826" stroke="none" stroke-width="2" stroke-linejoin="round"/><path d="M 597.84,1532.00 a 42.16,42.16 0 1,0 84.32,0 a 42.16,42.16 0 1,0 -84.32,0 Z" fill="#fbd7b5" stroke="none" stroke-width="2" stroke-linejoin="round"/><path d="M 598.46,1501.00 a 18.60,18.60 0 1,0 37.20,0 a 18.60,18.60 0 1,0 -37.20,0 Z" fill="#4a3826" stroke="none" stroke-width="2" stroke-linejoin="round"/><path d="M 622.64,1494.80 a 20.46,20.46 0 1,0 40.92,0 a 20.46,20.46 0 1,0 -40.92,0 Z" fill="#4a3826" stroke="none" stroke-width="2" stroke-linejoin="round"/><path d="M 651.16,1503.48 a 17.98,17.98 0 1,0 35.96,0 a 17.98,17.98 0 1,0 -35.96,0 Z" fill="#4a3826" stroke="none" stroke-width="2" stroke-linejoin="round"/><path d="M 607.76 1519.6 q 7.4399999999999995 -8 14.879999999999999 -2" fill="none" stroke="#3a2c20" stroke-width="2.5" stroke-linejoin="round" stroke-linecap="round"/><path d="M 612.72,1529.52 a 3.72,3.72 0 1,0 7.44,0 a 3.72,3.72 0 1,0 -7.44,0 Z" fill="#3a2c20" stroke="none" stroke-width="2" stroke-linejoin="round"/><path d="M 597.84,1549.36 a 8.06,9.92 0 1,0 16.12,0 a 8.06,9.92 0 1,0 -16.12,0 Z" fill="#8e3b35" stroke="none" stroke-width="2" stroke-linejoin="round"/><path d="M 587.3 1671.5 Q 587.3 1594.0 640 1590.9 Q 692.7 1594.0 692.7 1671.5 Z" fill="#5a6e8c" stroke="none" stroke-width="2" stroke-linejoin="round"/><path d="M 630.7 1600.2 L 640 1615.08 L 649.3 1600.2" fill="#ffffff" stroke="none" stroke-width="2" stroke-linejoin="round"/></g><g transform="translate(700.0,1492.0) rotate(8.1)"><path d="M 0,-12.1 Q 7.9,-1.1 5.9,4.0 A 6.6,6.6 0 1 1 -5.9,4.0 Q -7.9,-1.1 0,-12.1 Z" fill="#7EC8E3" stroke="#5aa8c8" stroke-width="1.5"/><path d="M -1.8,-2.2 q -0.9,4.0 0.4,5.7" stroke="#ffffff" stroke-width="1.8" fill="none" stroke-linecap="round"/></g><g transform="translate(0.00,0.00) scale(1)"><path d="M 485.49,1574.77 C 487.39,1576.53 495.95,1581.77 496.88,1585.33 C 497.82,1588.89 494.05,1592.59 491.08,1596.14 C 488.12,1599.68 484.50,1603.21 479.10,1606.59 C 473.70,1609.97 467.48,1613.46 458.70,1616.42 C 449.93,1619.39 438.53,1622.14 426.46,1624.37 C 414.39,1626.60 399.98,1628.17 386.28,1629.81 C 372.58,1631.45 358.86,1633.19 344.25,1634.21 C 329.63,1635.22 313.96,1635.63 298.59,1635.88 C 283.22,1636.13 266.89,1636.46 252.01,1635.72 C 237.12,1634.98 223.26,1632.94 209.28,1631.42 C 195.30,1629.89 180.43,1628.66 168.15,1626.57 C 155.86,1624.49 145.28,1621.69 135.56,1618.94 C 125.85,1616.18 117.58,1613.15 109.85,1610.04 C 102.12,1606.92 93.06,1603.71 89.21,1600.26 C 85.35,1596.82 87.14,1593.00 86.71,1589.37 C 86.28,1585.74 83.69,1581.97 86.63,1578.47 C 89.57,1574.98 97.77,1571.67 104.36,1568.40 C 110.95,1565.12 116.90,1561.66 126.16,1558.84 C 135.43,1556.01 148.23,1553.80 159.95,1551.44 C 171.67,1549.09 182.94,1546.34 196.48,1544.70 C 210.01,1543.07 226.09,1542.41 241.14,1541.65 C 256.20,1540.90 271.52,1540.26 286.79,1540.18 C 302.06,1540.09 317.67,1540.48 332.77,1541.15 C 347.87,1541.81 363.39,1542.70 377.38,1544.18 C 391.38,1545.66 404.71,1547.75 416.74,1550.01 C 428.76,1552.26 444.06,1556.43 449.52,1557.71 Q 498.04,1573.25 565.64,1554.28 Q 515.48,1549.67 485.49,1574.77 Z" fill="#ffffff" stroke="#1a1a1a" stroke-width="3" stroke-linejoin="round"/><text font-family="'Yu Gothic','Noto Sans CJK JP',sans-serif" font-size="24" fill="#1a1a1a" text-anchor="middle"><tspan x="290.0" y="1596.4">ワープされて③の出番ゼロ…</tspan></text></g><g clip-path="url(#cl_26)"><path d="M 906.5,2032.5 L 1431.3,2043.4 L 1431.5,2031.2 Z" fill="#ffffff"/><path d="M 875.1,2081.6 L 1339.2,2182.5 L 1340.8,2174.7 Z" fill="#ffffff"/><path d="M 854.6,2107.9 L 1325.4,2275.0 L 1328.6,2265.6 Z" fill="#ffffff"/><path d="M 875.7,2154.6 L 1313.5,2382.4 L 1319.6,2370.4 Z" fill="#ffffff"/><path d="M 834.4,2165.4 L 1292.5,2474.0 L 1300.0,2462.5 Z" fill="#ffffff"/><path d="M 819.1,2176.3 L 1245.9,2507.6 L 1250.6,2501.5 Z" fill="#ffffff"/><path d="M 806.9,2204.8 L 1143.1,2539.5 L 1149.4,2533.0 Z" fill="#ffffff"/><path d="M 800.2,2241.3 L 1093.1,2607.8 L 1100.2,2602.0 Z" fill="#ffffff"/><path d="M 760.9,2238.6 L 1039.2,2684.5 L 1047.5,2679.2 Z" fill="#ffffff"/><path d="M 722.6,2242.5 L 941.4,2752.6 L 955.5,2746.3 Z" fill="#ffffff"/><path d="M 714.3,2278.8 L 887.6,2795.3 L 898.2,2791.6 Z" fill="#ffffff"/><path d="M 675.5,2253.0 L 778.1,2766.7 L 790.9,2763.9 Z" fill="#ffffff"/><path d="M 649.1,2290.0 L 682.8,2799.0 L 698.2,2797.7 Z" fill="#ffffff"/><path d="M 625.9,2285.7 L 616.0,2776.2 L 628.0,2776.3 Z" fill="#ffffff"/><path d="M 589.5,2297.6 L 507.0,2816.4 L 522.3,2818.6 Z" fill="#ffffff"/><path d="M 566.1,2296.3 L 447.6,2780.4 L 458.7,2783.0 Z" fill="#ffffff"/><path d="M 556.8,2247.9 L 396.4,2726.5 L 403.6,2728.9 Z" fill="#ffffff"/><path d="M 512.1,2256.1 L 264.9,2722.5 L 277.9,2729.2 Z" fill="#ffffff"/><path d="M 437.9,2219.8 L 53.7,2595.7 L 61.4,2603.4 Z" fill="#ffffff"/><path d="M 412.5,2198.8 L 24.1,2495.2 L 31.6,2504.8 Z" fill="#ffffff"/><path d="M 426.8,2162.0 L -13.5,2446.3 L -9.3,2452.8 Z" fill="#ffffff"/><path d="M 382.5,2158.3 L -58.9,2385.8 L -56.2,2390.9 Z" fill="#ffffff"/><path d="M 406.7,2112.4 L -135.2,2309.8 L -132.5,2317.1 Z" fill="#ffffff"/><path d="M 359.6,2089.1 L -126.2,2190.0 L -123.6,2201.6 Z" fill="#ffffff"/><path d="M 356.2,2056.6 L -188.3,2103.4 L -187.1,2116.4 Z" fill="#ffffff"/><path d="M 364.4,2027.1 L -67.2,2016.2 L -67.3,2028.7 Z" fill="#ffffff"/><path d="M 380.0,1995.7 L -139.2,1916.6 L -141.2,1931.1 Z" fill="#ffffff"/><path d="M 355.1,1971.2 L -140.3,1859.9 L -142.2,1868.7 Z" fill="#ffffff"/><path d="M 359.2,1944.6 L -118.5,1789.3 L -120.4,1795.4 Z" fill="#ffffff"/><path d="M 408.1,1890.5 L -23.2,1610.0 L -29.3,1619.7 Z" fill="#ffffff"/><path d="M 421.9,1861.5 L 77.9,1572.0 L 69.8,1581.8 Z" fill="#ffffff"/><path d="M 428.5,1839.3 L 56.5,1478.8 L 51.5,1484.1 Z" fill="#ffffff"/><path d="M 483.1,1835.5 L 204.8,1448.5 L 192.1,1458.0 Z" fill="#ffffff"/><path d="M 501.6,1817.7 L 229.5,1346.5 L 217.1,1353.9 Z" fill="#ffffff"/><path d="M 521.1,1795.9 L 311.5,1320.0 L 298.8,1325.8 Z" fill="#ffffff"/><path d="M 577.6,1767.7 L 491.7,1278.5 L 475.9,1281.5 Z" fill="#ffffff"/><path d="M 598.6,1758.9 L 556.1,1312.3 L 544.7,1313.5 Z" fill="#ffffff"/><path d="M 626.2,1804.1 L 626.9,1316.1 L 617.4,1316.2 Z" fill="#ffffff"/><path d="M 649.7,1804.2 L 702.3,1300.3 L 694.1,1299.5 Z" fill="#ffffff"/><path d="M 677.6,1805.7 L 805.2,1251.2 L 795.6,1249.1 Z" fill="#ffffff"/><path d="M 714.2,1784.2 L 891.5,1295.5 L 881.2,1291.9 Z" fill="#ffffff"/><path d="M 773.9,1806.6 L 1052.5,1392.1 L 1041.2,1384.7 Z" fill="#ffffff"/><path d="M 767.5,1850.0 L 1065.7,1472.4 L 1058.8,1467.1 Z" fill="#ffffff"/><path d="M 783.6,1869.6 L 1166.4,1481.2 L 1160.3,1475.3 Z" fill="#ffffff"/><path d="M 815.9,1879.3 L 1203.2,1575.4 L 1196.7,1567.3 Z" fill="#ffffff"/><path d="M 825.0,1914.3 L 1292.0,1649.1 L 1284.2,1635.8 Z" fill="#ffffff"/><path d="M 845.8,1932.8 L 1361.4,1711.1 L 1355.2,1697.2 Z" fill="#ffffff"/><path d="M 861.5,1942.0 L 1278.8,1788.4 L 1276.2,1781.7 Z" fill="#ffffff"/><path d="M 850.3,1972.6 L 1339.0,1849.6 L 1337.4,1843.4 Z" fill="#ffffff"/><path d="M 905.0,2002.3 L 1390.0,1960.3 L 1388.7,1947.6 Z" fill="#ffffff"/><path d="M 915.1,2032.6 L 1431.4,2041.4 L 1431.4,2033.3 Z" fill="#2a2417"/><path d="M 882.7,2083.2 L 1339.5,2181.2 L 1340.6,2176.0 Z" fill="#2a2417"/><path d="M 861.6,2110.3 L 1325.9,2273.5 L 1328.1,2267.2 Z" fill="#2a2417"/><path d="M 883.3,2158.5 L 1314.5,2380.4 L 1318.6,2372.4 Z" fill="#2a2417"/><path d="M 840.8,2169.6 L 1293.8,2472.1 L 1298.8,2464.4 Z" fill="#2a2417"/><path d="M 825.1,2180.8 L 1246.7,2506.6 L 1249.8,2502.5 Z" fill="#2a2417"/><path d="M 812.5,2210.2 L 1144.1,2538.4 L 1148.3,2534.1 Z" fill="#2a2417"/><path d="M 805.6,2247.8 L 1094.2,2606.9 L 1099.0,2603.0 Z" fill="#2a2417"/><path d="M 765.1,2245.1 L 1040.6,2683.6 L 1046.1,2680.1 Z" fill="#2a2417"/><path d="M 725.6,2249.0 L 943.8,2751.5 L 953.1,2747.4 Z" fill="#2a2417"/><path d="M 717.0,2286.4 L 889.4,2794.7 L 896.5,2792.2 Z" fill="#2a2417"/><path d="M 676.9,2259.9 L 780.3,2766.2 L 788.8,2764.4 Z" fill="#2a2417"/><path d="M 649.8,2298.0 L 685.3,2798.8 L 695.7,2797.9 Z" fill="#2a2417"/><path d="M 625.9,2293.6 L 618.0,2776.2 L 626.0,2776.3 Z" fill="#2a2417"/><path d="M 588.3,2305.9 L 509.5,2816.7 L 519.7,2818.2 Z" fill="#2a2417"/><path d="M 564.1,2304.5 L 449.4,2780.8 L 456.8,2782.5 Z" fill="#2a2417"/><path d="M 554.6,2254.6 L 397.6,2726.9 L 402.4,2728.5 Z" fill="#2a2417"/><path d="M 508.5,2263.1 L 267.1,2723.6 L 275.7,2728.1 Z" fill="#2a2417"/><path d="M 432.0,2225.7 L 55.0,2597.0 L 60.1,2602.1 Z" fill="#2a2417"/><path d="M 405.8,2204.0 L 25.4,2496.8 L 30.3,2503.2 Z" fill="#2a2417"/><path d="M 420.6,2166.1 L -12.8,2447.3 L -10.0,2451.7 Z" fill="#2a2417"/><path d="M 374.9,2162.3 L -58.5,2386.7 L -56.7,2390.1 Z" fill="#2a2417"/><path d="M 399.8,2114.9 L -134.8,2311.1 L -132.9,2315.9 Z" fill="#2a2417"/><path d="M 351.3,2090.9 L -125.8,2191.9 L -124.0,2199.7 Z" fill="#2a2417"/><path d="M 347.8,2057.4 L -188.1,2105.6 L -187.3,2114.2 Z" fill="#2a2417"/><path d="M 356.3,2027.1 L -67.2,2018.3 L -67.3,2026.6 Z" fill="#2a2417"/><path d="M 372.4,1994.7 L -139.6,1919.0 L -140.9,1928.7 Z" fill="#2a2417"/><path d="M 346.7,1969.4 L -140.6,1861.4 L -141.9,1867.2 Z" fill="#2a2417"/><path d="M 350.9,1941.9 L -118.8,1790.4 L -120.1,1794.4 Z" fill="#2a2417"/><path d="M 401.2,1886.1 L -24.2,1611.7 L -28.3,1618.1 Z" fill="#2a2417"/><path d="M 415.6,1856.3 L 76.5,1573.7 L 71.2,1580.2 Z" fill="#2a2417"/><path d="M 422.3,1833.4 L 55.7,1479.7 L 52.3,1483.3 Z" fill="#2a2417"/><path d="M 478.6,1829.4 L 202.7,1450.1 L 194.2,1456.4 Z" fill="#2a2417"/><path d="M 497.7,1811.1 L 227.4,1347.7 L 219.1,1352.6 Z" fill="#2a2417"/><path d="M 517.8,1788.6 L 309.4,1321.0 L 300.9,1324.8 Z" fill="#2a2417"/><path d="M 576.0,1759.6 L 489.0,1279.0 L 478.5,1281.0 Z" fill="#2a2417"/><path d="M 597.7,1750.5 L 554.2,1312.5 L 546.6,1313.3 Z" fill="#2a2417"/><path d="M 626.1,1797.1 L 625.3,1316.1 L 619.0,1316.2 Z" fill="#2a2417"/><path d="M 650.4,1797.3 L 701.0,1300.1 L 695.5,1299.6 Z" fill="#2a2417"/><path d="M 679.1,1798.8 L 803.6,1250.9 L 797.2,1249.5 Z" fill="#2a2417"/><path d="M 716.9,1776.6 L 889.8,1294.9 L 882.9,1292.5 Z" fill="#2a2417"/><path d="M 778.4,1799.7 L 1050.6,1390.9 L 1043.1,1386.0 Z" fill="#2a2417"/><path d="M 771.8,1844.4 L 1064.6,1471.5 L 1060.0,1468.0 Z" fill="#2a2417"/><path d="M 788.4,1864.7 L 1165.4,1480.2 L 1161.3,1476.2 Z" fill="#2a2417"/><path d="M 821.8,1874.6 L 1202.1,1574.0 L 1197.8,1568.6 Z" fill="#2a2417"/><path d="M 831.1,1910.7 L 1290.7,1646.9 L 1285.5,1638.0 Z" fill="#2a2417"/><path d="M 852.5,1929.8 L 1360.4,1708.8 L 1356.2,1699.5 Z" fill="#2a2417"/><path d="M 868.7,1939.2 L 1278.3,1787.3 L 1276.7,1782.9 Z" fill="#2a2417"/><path d="M 857.2,1970.8 L 1338.7,1848.6 L 1337.6,1844.4 Z" fill="#2a2417"/><path d="M 913.5,2001.5 L 1389.7,1958.2 L 1388.9,1949.7 Z" fill="#2a2417"/></g><g transform="translate(0.00,0.00) scale(1)"><path d="M 581.24,2011.52 a 56.76,56.76 0 1,0 113.52,0 a 56.76,56.76 0 1,0 -113.52,0 Z" fill="#4a3826" stroke="none" stroke-width="2" stroke-linejoin="round"/><path d="M 583.12,2030.00 a 44.88,44.88 0 1,0 89.76,0 a 44.88,44.88 0 1,0 -89.76,0 Z" fill="#fbd7b5" stroke="none" stroke-width="2" stroke-linejoin="round"/><path d="M 583.78,1997.00 a 19.80,19.80 0 1,0 39.60,0 a 19.80,19.80 0 1,0 -39.60,0 Z" fill="#4a3826" stroke="none" stroke-width="2" stroke-linejoin="round"/><path d="M 609.52,1990.40 a 21.78,21.78 0 1,0 43.56,0 a 21.78,21.78 0 1,0 -43.56,0 Z" fill="#4a3826" stroke="none" stroke-width="2" stroke-linejoin="round"/><path d="M 639.88,1999.64 a 19.14,19.14 0 1,0 38.28,0 a 19.14,19.14 0 1,0 -38.28,0 Z" fill="#4a3826" stroke="none" stroke-width="2" stroke-linejoin="round"/><path d="M 593.68 2016.8 q 7.92 -8 15.84 -2" fill="none" stroke="#3a2c20" stroke-width="2.64" stroke-linejoin="round" stroke-linecap="round"/><path d="M 598.96,2027.36 a 3.96,3.96 0 1,0 7.92,0 a 3.96,3.96 0 1,0 -7.92,0 Z" fill="#3a2c20" stroke="none" stroke-width="2" stroke-linejoin="round"/><path d="M 583.12,2048.48 a 8.58,10.56 0 1,0 17.16,0 a 8.58,10.56 0 1,0 -17.16,0 Z" fill="#8e3b35" stroke="none" stroke-width="2" stroke-linejoin="round"/><path d="M 571.9 2178.5 Q 571.9 2096.0 628 2092.7 Q 684.1 2096.0 684.1 2178.5 Z" fill="#5a6e8c" stroke="none" stroke-width="2" stroke-linejoin="round"/><path d="M 618.1 2102.6 L 628 2118.44 L 637.9 2102.6" fill="#ffffff" stroke="none" stroke-width="2" stroke-linejoin="round"/></g><g transform="translate(0.00,0.00) scale(1)"><path d="M 575.91,1820.00 Q 449.23,1832.69 534.60,1863.00 Q 406.54,1853.82 547.95,2014.21 Q 340.92,1868.48 300.00,1901.65 Q 261.37,1865.77 162.21,1895.77 Q 191.99,1854.29 79.13,1860.48 Q 147.09,1833.01 27.08,1820.00 Q 149.46,1807.19 77.98,1779.31 Q 190.23,1785.15 173.15,1750.25 Q 260.48,1773.17 300.00,1732.44 Q 341.06,1771.35 428.51,1749.34 Q 412.45,1784.30 534.13,1777.09 Q 449.84,1807.25 575.91,1820.00 Z" fill="#ffffff" stroke="#1a1a1a" stroke-width="4" stroke-linejoin="round"/><text font-family="'Yu Gothic','Noto Sans CJK JP',sans-serif" font-size="26" fill="#1a1a1a" text-anchor="middle"><tspan x="300.0" y="1812.8">整いすぎた結果は</tspan><tspan x="300.0" y="1845.3">勝ちじゃなく警報!</tspan></text></g><g transform="translate(0.00,0.00) scale(1)"><path d="M 48.00,2060.00 L 470.00,2060.00 L 470.00,2178.00 L 48.00,2178.00 Z" fill="#efe7d2" stroke="#1a1a1a" stroke-width="2" stroke-linejoin="round"/><text font-family="'Yu Gothic','Noto Sans CJK JP',sans-serif" font-size="19" fill="#1a1a1a" text-anchor="middle"><tspan x="259.0" y="2083.0">③はだまし地形でだけ本物</tspan><tspan x="259.0" y="2113.0">抜け道は構造的にふさがってた</tspan><tspan x="259.0" y="2143.0">正直さが自分のミスを捕まえる道具</tspan></text></g><g transform="translate(0.00,0.00) scale(1)"><path d="M 376.00,2228.00 L 384.00,2228.00 L 384.00,2232.00 L 376.00,2232.00 Z" fill="#f5efe2" stroke="none" stroke-width="3" stroke-linejoin="round"/><text font-family="'Yu Gothic','Noto Sans CJK JP',sans-serif" font-size="18" fill="#6a645a" text-anchor="middle"><tspan x="380.0" y="2245.0">→ 本編で proper power の決着を見る</tspan></text></g><g transform="translate(0.00,0.00) scale(1)"><path d="M 376.00,2272.00 L 384.00,2272.00 L 384.00,2276.00 L 376.00,2276.00 Z" fill="#f5efe2" stroke="none" stroke-width="3" stroke-linejoin="round"/><text font-family="'Yu Gothic','Noto Sans CJK JP',sans-serif" font-size="13" fill="#8a8474" text-anchor="middle"><tspan x="380.0" y="2284.0">mangamd L1 / FullSense</tspan></text></g>
</svg>
