<svg xmlns="http://www.w3.org/2000/svg" xmlns:xlink="http://www.w3.org/1999/xlink" viewBox="0 0 760 2300" role="img" aria-label="Six Hill-Climbing Bouts — When Does Sort-and-Raise Work?" style="width:100%;height:auto;max-width:1200px">
  <title>Six Hill-Climbing Bouts — When Does Sort-and-Raise Work?</title>
  <defs><clipPath id="cl_6"><rect x="25" y="148" width="710" height="484"/></clipPath><clipPath id="cl_27"><rect x="25" y="1708" width="710" height="484"/></clipPath></defs>
  <rect width="760" height="2300" fill="#f5efe2"/><g transform="translate(0.00,0.00) scale(1)"><path d="M 24.00,18.00 L 736.00,18.00 L 736.00,118.00 L 24.00,118.00 Z" fill="#2b2317" stroke="none" stroke-width="3" stroke-linejoin="round"/><text font-family="'Segoe UI','Noto Sans',sans-serif" font-size="24" fill="#f7efdd" text-anchor="middle"><tspan x="380.0" y="58.0">The sort-and-raise trick (3)</tspan><tspan x="380.0" y="98.0">Punchline of six bouts</tspan></text></g><g transform="translate(0.00,0.00) scale(1)"><path d="M 20.00,140.00 L 740.00,140.00 L 740.00,640.00 L 20.00,640.00 Z" fill="#ffffff" stroke="#1a1a1a" stroke-width="5" stroke-linejoin="round"/><text font-family="'Segoe UI','Noto Sans',sans-serif" font-size="1" fill="#1a1a1a" text-anchor="middle"><tspan x="0.0" y="0.0"></tspan></text></g><g transform="translate(0.00,0.00) scale(1)"><path d="M 20.00,660.00 L 740.00,660.00 L 740.00,1160.00 L 20.00,1160.00 Z" fill="#ffffff" stroke="#1a1a1a" stroke-width="5" stroke-linejoin="round"/><text font-family="'Segoe UI','Noto Sans',sans-serif" font-size="1" fill="#1a1a1a" text-anchor="middle"><tspan x="0.0" y="0.0"></tspan></text></g><g transform="translate(0.00,0.00) scale(1)"><path d="M 20.00,1180.00 L 740.00,1180.00 L 740.00,1680.00 L 20.00,1680.00 Z" fill="#ffffff" stroke="#1a1a1a" stroke-width="5" stroke-linejoin="round"/><text font-family="'Segoe UI','Noto Sans',sans-serif" font-size="1" fill="#1a1a1a" text-anchor="middle"><tspan x="0.0" y="0.0"></tspan></text></g><g transform="translate(0.00,0.00) scale(1)"><path d="M 20.00,1700.00 L 740.00,1700.00 L 740.00,2200.00 L 20.00,2200.00 Z" fill="#ffffff" stroke="#1a1a1a" stroke-width="5" stroke-linejoin="round"/><text font-family="'Segoe UI','Noto Sans',sans-serif" font-size="1" fill="#1a1a1a" text-anchor="middle"><tspan x="0.0" y="0.0"></tspan></text></g><g transform="translate(0.00,0.00) scale(1)"><path d="M 40.00,160.00 L 720.00,160.00 L 720.00,232.00 L 40.00,232.00 Z" fill="#fffbe8" stroke="#1a1a1a" stroke-width="3" stroke-linejoin="round"/><text font-family="'Segoe UI','Noto Sans',sans-serif" font-size="19" fill="#1a1a1a" text-anchor="middle"><tspan x="380.0" y="203.0">On deliberately deceptive terrain, (3) wins big</tspan></text></g><g clip-path="url(#cl_6)"><path d="M 521.6,332.8 L 1045.4,344.3 L 1045.5,331.5 Z" fill="#ffffff"/><path d="M 500.6,367.2 L 962.1,475.5 L 964.0,467.3 Z" fill="#ffffff"/><path d="M 486.5,385.6 L 946.4,562.5 L 950.0,552.7 Z" fill="#ffffff"/><path d="M 498.5,418.0 L 929.9,662.8 L 936.7,650.5 Z" fill="#ffffff"/><path d="M 470.5,425.2 L 904.8,747.5 L 913.2,735.8 Z" fill="#ffffff"/><path d="M 459.7,432.5 L 860.4,777.6 L 865.6,771.4 Z" fill="#ffffff"/><path d="M 449.7,451.8 L 764.3,805.0 L 771.3,798.6 Z" fill="#ffffff"/><path d="M 442.7,476.1 L 712.2,865.5 L 720.0,859.9 Z" fill="#ffffff"/><path d="M 416.0,473.3 L 655.0,932.2 L 664.1,927.3 Z" fill="#ffffff"/><path d="M 389.2,474.5 L 556.7,987.8 L 572.0,982.5 Z" fill="#ffffff"/><path d="M 380.6,497.8 L 502.2,1021.8 L 513.6,1019.0 Z" fill="#ffffff"/><path d="M 355.6,478.8 L 402.4,988.2 L 416.0,986.7 Z" fill="#ffffff"/><path d="M 334.3,501.0 L 309.2,1007.2 L 325.5,1007.8 Z" fill="#ffffff"/><path d="M 318.5,496.4 L 249.1,980.0 L 261.6,981.6 Z" fill="#ffffff"/><path d="M 292.2,500.7 L 142.6,1001.1 L 158.3,1005.6 Z" fill="#ffffff"/><path d="M 276.0,497.4 L 91.2,961.4 L 102.5,965.7 Z" fill="#ffffff"/><path d="M 273.5,464.9 L 49.7,906.4 L 56.9,910.0 Z" fill="#ffffff"/><path d="M 242.3,464.8 L -71.1,880.9 L -58.8,889.9 Z" fill="#ffffff"/><path d="M 195.7,430.4 L -246.1,727.8 L -239.6,737.3 Z" fill="#ffffff"/><path d="M 181.1,412.5 L -258.5,630.7 L -252.7,642.1 Z" fill="#ffffff"/><path d="M 194.5,389.7 L -284.2,578.6 L -281.1,586.1 Z" fill="#ffffff"/><path d="M 166.2,380.4 L -314.2,513.9 L -312.5,519.7 Z" fill="#ffffff"/><path d="M 187.5,352.8 L -367.1,427.9 L -366.0,436.1 Z" fill="#ffffff"/><path d="M 160.8,329.5 L -336.8,319.1 L -336.9,331.7 Z" fill="#ffffff"/><path d="M 163.6,306.8 L -372.0,226.3 L -373.9,239.8 Z" fill="#ffffff"/><path d="M 173.6,287.9 L -249.4,171.6 L -252.7,184.3 Z" fill="#ffffff"/><path d="M 189.0,269.0 L -287.0,65.3 L -292.9,79.5 Z" fill="#ffffff"/><path d="M 177.7,248.5 L -273.9,13.8 L -278.1,22.2 Z" fill="#ffffff"/><path d="M 185.5,231.3 L -236.8,-45.3 L -240.4,-39.6 Z" fill="#ffffff"/><path d="M 227.9,203.3 L -104.2,-184.3 L -113.3,-176.4 Z" fill="#ffffff"/><path d="M 243.3,186.9 L -4.7,-194.6 L -15.7,-187.2 Z" fill="#ffffff"/><path d="M 252.5,173.7 L 4.4,-280.0 L -2.3,-276.3 Z" fill="#ffffff"/><path d="M 289.2,181.2 L 145.2,-269.7 L 129.4,-264.3 Z" fill="#ffffff"/><path d="M 305.5,173.6 L 198.7,-349.2 L 183.8,-346.0 Z" fill="#ffffff"/><path d="M 323.5,164.0 L 280.0,-348.9 L 265.4,-347.5 Z" fill="#ffffff"/><path d="M 367.4,159.0 L 453.8,-330.0 L 437.1,-332.6 Z" fill="#ffffff"/><path d="M 383.4,158.5 L 500.3,-281.7 L 488.6,-284.7 Z" fill="#ffffff"/><path d="M 391.0,192.8 L 561.8,-255.3 L 552.4,-258.7 Z" fill="#ffffff"/><path d="M 406.4,198.8 L 633.1,-242.5 L 625.3,-246.4 Z" fill="#ffffff"/><path d="M 424.2,207.1 L 738.4,-246.2 L 729.9,-251.9 Z" fill="#ffffff"/><path d="M 452.8,203.9 L 799.1,-177.6 L 790.5,-185.3 Z" fill="#ffffff"/><path d="M 485.0,234.8 L 904.6,-34.9 L 896.8,-46.6 Z" fill="#ffffff"/><path d="M 470.5,260.0 L 888.9,37.6 L 884.6,29.6 Z" fill="#ffffff"/><path d="M 475.4,277.1 L 968.9,85.5 L 965.6,77.2 Z" fill="#ffffff"/><path d="M 492.4,293.0 L 965.9,180.4 L 963.3,169.8 Z" fill="#ffffff"/><path d="M 488.4,317.8 L 1010.2,279.7 L 1008.8,263.6 Z" fill="#ffffff"/><path d="M 527.2,332.8 L 1045.4,342.2 L 1045.5,333.7 Z" fill="#2a2417"/><path d="M 505.6,368.3 L 962.4,474.1 L 963.7,468.7 Z" fill="#2a2417"/><path d="M 491.0,387.3 L 947.0,560.9 L 949.4,554.3 Z" fill="#2a2417"/><path d="M 503.4,420.7 L 931.0,660.8 L 935.5,652.5 Z" fill="#2a2417"/><path d="M 474.6,428.1 L 906.2,745.5 L 911.8,737.7 Z" fill="#2a2417"/><path d="M 463.4,435.7 L 861.2,776.6 L 864.7,772.5 Z" fill="#2a2417"/><path d="M 453.1,455.5 L 765.4,803.9 L 770.1,799.7 Z" fill="#2a2417"/><path d="M 445.8,480.6 L 713.5,864.6 L 718.7,860.9 Z" fill="#2a2417"/><path d="M 418.3,477.7 L 656.5,931.4 L 662.5,928.1 Z" fill="#2a2417"/><path d="M 390.7,478.9 L 559.3,986.9 L 569.4,983.4 Z" fill="#2a2417"/><path d="M 381.9,503.0 L 504.1,1021.3 L 511.7,1019.5 Z" fill="#2a2417"/><path d="M 356.1,483.4 L 404.7,987.9 L 413.7,987.0 Z" fill="#2a2417"/><path d="M 334.1,506.3 L 311.9,1007.3 L 322.8,1007.7 Z" fill="#2a2417"/><path d="M 317.8,501.5 L 251.2,980.2 L 259.6,981.3 Z" fill="#2a2417"/><path d="M 290.7,506.0 L 145.2,1001.9 L 155.7,1004.8 Z" fill="#2a2417"/><path d="M 274.1,502.6 L 93.1,962.1 L 100.6,965.0 Z" fill="#2a2417"/><path d="M 271.4,469.0 L 50.9,907.0 L 55.7,909.4 Z" fill="#2a2417"/><path d="M 239.2,469.0 L -69.1,882.4 L -60.8,888.4 Z" fill="#2a2417"/><path d="M 191.3,433.5 L -245.0,729.4 L -240.7,735.7 Z" fill="#2a2417"/><path d="M 176.2,415.0 L -257.5,632.6 L -253.6,640.2 Z" fill="#2a2417"/><path d="M 190.0,391.6 L -283.7,579.8 L -281.6,584.9 Z" fill="#2a2417"/><path d="M 160.8,382.0 L -313.9,514.9 L -312.8,518.8 Z" fill="#2a2417"/><path d="M 182.8,353.5 L -367.0,429.3 L -366.2,434.7 Z" fill="#2a2417"/><path d="M 155.2,329.5 L -336.9,321.2 L -336.9,329.6 Z" fill="#2a2417"/><path d="M 158.1,306.0 L -372.3,228.5 L -373.6,237.6 Z" fill="#2a2417"/><path d="M 168.4,286.6 L -249.9,173.8 L -252.1,182.2 Z" fill="#2a2417"/><path d="M 184.3,267.1 L -288.0,67.7 L -291.9,77.1 Z" fill="#2a2417"/><path d="M 172.7,246.0 L -274.6,15.2 L -277.4,20.8 Z" fill="#2a2417"/><path d="M 180.7,228.2 L -237.4,-44.3 L -239.8,-40.6 Z" fill="#2a2417"/><path d="M 224.5,199.4 L -105.7,-183.0 L -111.8,-177.7 Z" fill="#2a2417"/><path d="M 240.3,182.4 L -6.5,-193.3 L -13.9,-188.4 Z" fill="#2a2417"/><path d="M 249.8,168.8 L 3.3,-279.4 L -1.2,-276.9 Z" fill="#2a2417"/><path d="M 287.6,176.6 L 142.5,-268.8 L 132.0,-265.2 Z" fill="#2a2417"/><path d="M 304.4,168.7 L 196.2,-348.7 L 186.3,-346.5 Z" fill="#2a2417"/><path d="M 322.9,158.8 L 277.6,-348.7 L 267.9,-347.7 Z" fill="#2a2417"/><path d="M 368.2,153.6 L 451.0,-330.4 L 439.9,-332.2 Z" fill="#2a2417"/><path d="M 384.7,153.2 L 498.3,-282.2 L 490.6,-284.2 Z" fill="#2a2417"/><path d="M 392.6,188.5 L 560.2,-255.8 L 554.0,-258.2 Z" fill="#2a2417"/><path d="M 408.5,194.8 L 631.8,-243.1 L 626.6,-245.8 Z" fill="#2a2417"/><path d="M 426.8,203.3 L 736.9,-247.1 L 731.3,-251.0 Z" fill="#2a2417"/><path d="M 456.3,200.0 L 797.7,-178.9 L 791.9,-184.0 Z" fill="#2a2417"/><path d="M 489.5,231.9 L 903.3,-36.8 L 898.1,-44.7 Z" fill="#2a2417"/><path d="M 474.5,257.8 L 888.2,36.3 L 885.3,30.9 Z" fill="#2a2417"/><path d="M 479.6,275.4 L 968.3,84.1 L 966.1,78.6 Z" fill="#2a2417"/><path d="M 497.2,291.8 L 965.5,178.6 L 963.7,171.6 Z" fill="#2a2417"/><path d="M 493.0,317.4 L 1010.0,277.1 L 1009.0,266.3 Z" fill="#2a2417"/></g><g transform="translate(0.00,0.00) scale(1)"><path d="M 531.69,331.00 Q 449.08,343.99 499.09,371.82 Q 415.38,364.50 438.42,406.77 Q 368.24,377.84 340.00,411.97 Q 310.73,379.54 242.53,406.03 Q 261.28,365.99 181.41,371.69 Q 232.89,343.76 158.79,331.00 Q 234.64,318.45 169.38,287.22 Q 259.87,295.39 248.21,260.34 Q 310.60,282.23 340.00,245.17 Q 368.68,283.43 430.96,260.98 Q 419.49,295.67 502.02,289.43 Q 447.94,318.15 531.69,331.00 Z" fill="#ffffff" stroke="#1a1a1a" stroke-width="4" stroke-linejoin="round"/><text font-family="'Segoe UI','Noto Sans',sans-serif" font-size="46" fill="#1a1a1a" text-anchor="middle"><tspan x="340.0" y="347.1">95%</tspan></text></g><g transform="translate(0.00,0.00) scale(1)"><path d="M 560.00,242.00 L 716.00,242.00 L 716.00,298.00 L 560.00,298.00 Z" fill="#fffbe8" stroke="#1a1a1a" stroke-width="2" stroke-linejoin="round"/><text font-family="'Segoe UI','Noto Sans',sans-serif" font-size="17" fill="#1a1a1a" text-anchor="middle"><tspan x="638.0" y="267.0">Only (3)</tspan><tspan x="638.0" y="289.0">reached the peak</tspan></text></g><g transform="translate(0.00,0.00) scale(1)"><path d="M 596.68,474.64 a 53.32,53.32 0 1,0 106.64,0 a 53.32,53.32 0 1,0 -106.64,0 Z" fill="#4a3826" stroke="none" stroke-width="2" stroke-linejoin="round"/><path d="M 597.84,492.00 a 42.16,42.16 0 1,0 84.32,0 a 42.16,42.16 0 1,0 -84.32,0 Z" fill="#fbd7b5" stroke="none" stroke-width="2" stroke-linejoin="round"/><path d="M 598.46,461.00 a 18.60,18.60 0 1,0 37.20,0 a 18.60,18.60 0 1,0 -37.20,0 Z" fill="#4a3826" stroke="none" stroke-width="2" stroke-linejoin="round"/><path d="M 622.64,454.80 a 20.46,20.46 0 1,0 40.92,0 a 20.46,20.46 0 1,0 -40.92,0 Z" fill="#4a3826" stroke="none" stroke-width="2" stroke-linejoin="round"/><path d="M 651.16,463.48 a 17.98,17.98 0 1,0 35.96,0 a 17.98,17.98 0 1,0 -35.96,0 Z" fill="#4a3826" stroke="none" stroke-width="2" stroke-linejoin="round"/><path d="M 607.7600000000001 479.6 q 7.4399999999999995 -8 14.879999999999999 -2" fill="none" stroke="#3a2c20" stroke-width="2.5" stroke-linejoin="round" stroke-linecap="round"/><path d="M 639.38 478.98 q 6.2 -6 12.4 -2" fill="none" stroke="#3a2c20" stroke-width="2.25" stroke-linejoin="round" stroke-linecap="round"/><path d="M 612.72,489.52 a 3.72,3.72 0 1,0 7.44,0 a 3.72,3.72 0 1,0 -7.44,0 Z" fill="#3a2c20" stroke="none" stroke-width="2" stroke-linejoin="round"/><path d="M 642.79,489.52 a 3.41,3.41 0 1,0 6.82,0 a 3.41,3.41 0 1,0 -6.82,0 Z" fill="#3a2c20" stroke="none" stroke-width="2" stroke-linejoin="round"/><path d="M 597.84,509.36 a 8.06,9.92 0 1,0 16.12,0 a 8.06,9.92 0 1,0 -16.12,0 Z" fill="#8e3b35" stroke="none" stroke-width="2" stroke-linejoin="round"/><path d="M 631.94 521.76 h 16.12 v 43.4 h -16.12 Z" fill="#fbd7b5" stroke="none" stroke-width="2" stroke-linejoin="round"/><path d="M 587.3 631.5 Q 587.3 554.0 640 550.9 Q 692.7 554.0 692.7 631.5 Z" fill="#5a6e8c" stroke="none" stroke-width="2" stroke-linejoin="round"/><path d="M 630.7 560.2 L 640 575.08 L 649.3 560.2" fill="#ffffff" stroke="none" stroke-width="2" stroke-linejoin="round"/></g><g transform="translate(0.00,0.00) scale(1)"><path d="M 486.38,534.71 C 487.38,536.49 490.98,541.79 492.34,545.39 C 493.70,548.98 496.88,552.76 494.56,556.28 C 492.25,559.80 484.54,563.18 478.44,566.52 C 472.34,569.86 466.49,573.28 457.97,576.30 C 449.45,579.31 439.31,582.37 427.31,584.60 C 415.32,586.83 399.72,587.98 386.00,589.69 C 372.28,591.39 359.56,593.85 344.98,594.83 C 330.41,595.82 313.95,595.58 298.54,595.62 C 283.13,595.66 267.63,595.65 252.52,595.08 C 237.41,594.50 222.19,593.51 207.89,592.17 C 193.59,590.83 179.01,589.18 166.73,587.02 C 154.45,584.86 143.72,582.03 134.23,579.20 C 124.73,576.37 117.04,573.22 109.75,570.05 C 102.46,566.88 94.98,563.63 90.49,560.18 C 86.00,556.74 82.76,552.99 82.80,549.40 C 82.83,545.81 87.76,542.24 90.71,538.67 C 93.66,535.10 94.62,531.30 100.47,527.99 C 106.32,524.67 115.78,521.50 125.82,518.78 C 135.86,516.06 148.97,514.02 160.71,511.66 C 172.45,509.30 183.01,506.42 196.27,504.61 C 209.53,502.80 225.18,501.58 240.26,500.82 C 255.35,500.05 271.34,499.99 286.78,500.03 C 302.22,500.06 317.97,500.23 332.89,501.02 C 347.81,501.80 362.66,503.12 376.31,504.72 C 389.95,506.32 402.88,508.38 414.76,510.60 C 426.64,512.83 442.11,516.83 447.58,518.08 Q 496.87,533.47 565.64,514.28 Q 516.02,509.63 486.38,534.71 Z" fill="#ffffff" stroke="#1a1a1a" stroke-width="3" stroke-linejoin="round"/><text font-family="'Segoe UI','Noto Sans',sans-serif" font-size="20" fill="#1a1a1a" text-anchor="middle"><tspan x="290.0" y="555.0">See, (3) is the real deal!</tspan></text></g><g transform="translate(0.00,0.00) scale(1)"><path d="M 40.00,680.00 L 720.00,680.00 L 720.00,752.00 L 40.00,752.00 Z" fill="#fffbe8" stroke="#1a1a1a" stroke-width="3" stroke-linejoin="round"/><text font-family="'Segoe UI','Noto Sans',sans-serif" font-size="19" fill="#1a1a1a" text-anchor="middle"><tspan x="380.0" y="723.0">Then we measured the real thing four times</tspan></text></g><g transform="translate(0.00,0.00) scale(1)"><path d="M 150.00,734.00 L 610.00,734.00 L 610.00,788.00 L 150.00,788.00 Z" fill="#fffbe8" stroke="#1a1a1a" stroke-width="3" stroke-linejoin="round"/><text font-family="'Segoe UI','Noto Sans',sans-serif" font-size="21" fill="#1a1a1a" text-anchor="middle"><tspan x="380.0" y="768.0">Memory test</tspan></text></g><g transform="translate(0.00,0.00) scale(1)"><path d="M 368.00,792.00 L 392.00,792.00 L 380.00,810.00 Z" fill="#1a1a1a" stroke="none" stroke-width="3" stroke-linejoin="round"/><text font-family="'Segoe UI','Noto Sans',sans-serif" font-size="1" fill="#1a1a1a" text-anchor="middle"><tspan x="0.0" y="0.0"></tspan></text></g><g transform="translate(0.00,0.00) scale(1)"><path d="M 150.00,814.00 L 610.00,814.00 L 610.00,868.00 L 150.00,868.00 Z" fill="#fffbe8" stroke="#1a1a1a" stroke-width="3" stroke-linejoin="round"/><text font-family="'Segoe UI','Noto Sans',sans-serif" font-size="21" fill="#1a1a1a" text-anchor="middle"><tspan x="380.0" y="848.0">Generalize</tspan></text></g><g transform="translate(0.00,0.00) scale(1)"><path d="M 368.00,872.00 L 392.00,872.00 L 380.00,890.00 Z" fill="#1a1a1a" stroke="none" stroke-width="3" stroke-linejoin="round"/><text font-family="'Segoe UI','Noto Sans',sans-serif" font-size="1" fill="#1a1a1a" text-anchor="middle"><tspan x="0.0" y="0.0"></tspan></text></g><g transform="translate(0.00,0.00) scale(1)"><path d="M 150.00,894.00 L 610.00,894.00 L 610.00,948.00 L 150.00,948.00 Z" fill="#fffbe8" stroke="#1a1a1a" stroke-width="3" stroke-linejoin="round"/><text font-family="'Segoe UI','Noto Sans',sans-serif" font-size="21" fill="#1a1a1a" text-anchor="middle"><tspan x="380.0" y="928.0">Gentle</tspan></text></g><g transform="translate(0.00,0.00) scale(1)"><path d="M 368.00,952.00 L 392.00,952.00 L 380.00,970.00 Z" fill="#1a1a1a" stroke="none" stroke-width="3" stroke-linejoin="round"/><text font-family="'Segoe UI','Noto Sans',sans-serif" font-size="1" fill="#1a1a1a" text-anchor="middle"><tspan x="0.0" y="0.0"></tspan></text></g><g transform="translate(0.00,0.00) scale(1)"><path d="M 150.00,974.00 L 610.00,974.00 L 610.00,1028.00 L 150.00,1028.00 Z" fill="#fffbe8" stroke="#1a1a1a" stroke-width="3" stroke-linejoin="round"/><text font-family="'Segoe UI','Noto Sans',sans-serif" font-size="21" fill="#1a1a1a" text-anchor="middle"><tspan x="380.0" y="1008.0">4-part mix</tspan></text></g><g transform="translate(0.00,0.00) scale(1)"><path d="M 56.68,994.64 a 53.32,53.32 0 1,0 106.64,0 a 53.32,53.32 0 1,0 -106.64,0 Z" fill="#4a3826" stroke="none" stroke-width="2" stroke-linejoin="round"/><path d="M 77.84,1012.00 a 42.16,42.16 0 1,0 84.32,0 a 42.16,42.16 0 1,0 -84.32,0 Z" fill="#fbd7b5" stroke="none" stroke-width="2" stroke-linejoin="round"/><path d="M 124.34,981.00 a 18.60,18.60 0 1,0 37.20,0 a 18.60,18.60 0 1,0 -37.20,0 Z" fill="#4a3826" stroke="none" stroke-width="2" stroke-linejoin="round"/><path d="M 96.44,974.80 a 20.46,20.46 0 1,0 40.92,0 a 20.46,20.46 0 1,0 -40.92,0 Z" fill="#4a3826" stroke="none" stroke-width="2" stroke-linejoin="round"/><path d="M 72.88,983.48 a 17.98,17.98 0 1,0 35.96,0 a 17.98,17.98 0 1,0 -35.96,0 Z" fill="#4a3826" stroke="none" stroke-width="2" stroke-linejoin="round"/><path d="M 139.53 1009.52 q 4.03 4.34 8.06 0" fill="none" stroke="#3a2c20" stroke-width="2.5" stroke-linejoin="round" stroke-linecap="round"/><path d="M 110.39 1009.52 q 3.41 4.34 6.82 0" fill="none" stroke="#3a2c20" stroke-width="2.5" stroke-linejoin="round" stroke-linecap="round"/><path d="M 146.04 1026.88 q 7.4399999999999995 6.2 14.879999999999999 1.24" fill="none" stroke="#8e3b35" stroke-width="2.5" stroke-linejoin="round" stroke-linecap="round"/><path d="M 111.94 1041.76 h 16.12 v 43.4 h -16.12 Z" fill="#fbd7b5" stroke="none" stroke-width="2" stroke-linejoin="round"/><path d="M 67.3 1151.5 Q 67.3 1074.0 120 1070.9 Q 172.7 1074.0 172.7 1151.5 Z" fill="#5a6e8c" stroke="none" stroke-width="2" stroke-linejoin="round"/><path d="M 110.7 1080.2 L 120 1095.08 L 129.3 1080.2" fill="#ffffff" stroke="none" stroke-width="2" stroke-linejoin="round"/></g><g transform="translate(0.00,0.00) scale(1)"><path d="M 309.19,1037.51 C 315.10,1036.34 332.08,1032.54 344.61,1030.48 C 357.15,1028.42 370.68,1026.74 384.40,1025.16 C 398.12,1023.59 412.15,1021.95 426.93,1021.00 C 441.71,1020.06 457.77,1019.41 473.09,1019.50 C 488.41,1019.58 503.89,1020.60 518.84,1021.51 C 533.79,1022.42 549.23,1023.32 562.79,1024.96 C 576.36,1026.59 588.82,1028.95 600.24,1031.33 C 611.66,1033.71 621.98,1036.41 631.31,1039.24 C 640.64,1042.07 649.60,1045.07 656.24,1048.29 C 662.88,1051.51 668.37,1055.03 671.13,1058.54 C 673.88,1062.05 673.42,1065.75 672.77,1069.33 C 672.12,1072.91 670.52,1076.50 667.22,1080.00 C 663.93,1083.51 659.73,1087.11 653.01,1090.34 C 646.28,1093.57 637.17,1096.71 626.88,1099.37 C 616.59,1102.04 603.68,1104.18 591.27,1106.33 C 578.87,1108.47 566.39,1110.80 552.44,1112.25 C 538.49,1113.69 522.72,1114.51 507.60,1115.01 C 492.47,1115.52 476.99,1115.39 461.68,1115.28 C 446.36,1115.18 430.43,1115.26 415.71,1114.39 C 400.99,1113.51 386.76,1111.78 373.36,1110.05 C 359.95,1108.31 346.73,1106.32 335.26,1103.97 C 323.80,1101.61 313.84,1098.79 304.57,1095.92 C 295.30,1093.05 285.31,1090.05 279.64,1086.75 C 273.98,1083.45 272.62,1079.67 270.57,1076.11 C 268.51,1072.55 266.91,1068.99 267.31,1065.42 C 267.70,1061.85 271.98,1056.49 272.92,1054.70 Q 243.38,1029.56 193.90,1034.29 Q 261.00,1053.20 309.19,1037.51 Z" fill="#ffffff" stroke="#1a1a1a" stroke-width="3" stroke-linejoin="round"/><text font-family="'Segoe UI','Noto Sans',sans-serif" font-size="20" fill="#1a1a1a" text-anchor="middle"><tspan x="470.0" y="1075.0">Huh, none of them need (3)...</tspan></text></g><g transform="translate(0.00,0.00) scale(1)"><path d="M 40.00,1200.00 L 720.00,1200.00 L 720.00,1272.00 L 40.00,1272.00 Z" fill="#fffbe8" stroke="#1a1a1a" stroke-width="3" stroke-linejoin="round"/><text font-family="'Segoe UI','Noto Sans',sans-serif" font-size="19" fill="#1a1a1a" text-anchor="middle"><tspan x="380.0" y="1243.0">100-year-old biology drew the same shape</tspan></text></g><g transform="translate(0.00,0.00) scale(1)"><path d="M 155.00,1422.00 a 95.00,95.00 0 1,0 190.00,0 a 95.00,95.00 0 1,0 -190.00,0 Z" fill="#5b8def" stroke="#1a1a1a" stroke-width="4" stroke-linejoin="round"/><text font-family="'Segoe UI','Noto Sans',sans-serif" font-size="20" fill="#ffffff" text-anchor="middle"><tspan x="250.0" y="1412.0">Wright</tspan><tspan x="250.0" y="1438.0">scatter</tspan></text></g><g transform="translate(0.00,0.00) scale(1)"><path d="M 418.00,1422.00 a 92.00,92.00 0 1,0 184.00,0 a 92.00,92.00 0 1,0 -184.00,0 Z" fill="#e0823d" stroke="#1a1a1a" stroke-width="4" stroke-linejoin="round"/><text font-family="'Segoe UI','Noto Sans',sans-serif" font-size="16" fill="#1a1a1a" text-anchor="middle"><tspan x="510.0" y="1412.0">Coyne</tspan><tspan x="510.0" y="1432.8">simple wins</tspan></text></g><g transform="translate(0.00,0.00) scale(1)"><path d="M 596.68,1514.64 a 53.32,53.32 0 1,0 106.64,0 a 53.32,53.32 0 1,0 -106.64,0 Z" fill="#4a3826" stroke="none" stroke-width="2" stroke-linejoin="round"/><path d="M 597.84,1532.00 a 42.16,42.16 0 1,0 84.32,0 a 42.16,42.16 0 1,0 -84.32,0 Z" fill="#fbd7b5" stroke="none" stroke-width="2" stroke-linejoin="round"/><path d="M 598.46,1501.00 a 18.60,18.60 0 1,0 37.20,0 a 18.60,18.60 0 1,0 -37.20,0 Z" fill="#4a3826" stroke="none" stroke-width="2" stroke-linejoin="round"/><path d="M 622.64,1494.80 a 20.46,20.46 0 1,0 40.92,0 a 20.46,20.46 0 1,0 -40.92,0 Z" fill="#4a3826" stroke="none" stroke-width="2" stroke-linejoin="round"/><path d="M 651.16,1503.48 a 17.98,17.98 0 1,0 35.96,0 a 17.98,17.98 0 1,0 -35.96,0 Z" fill="#4a3826" stroke="none" stroke-width="2" stroke-linejoin="round"/><path d="M 609.62 1522.08 q 6.82 3.7199999999999998 13.64 1.24" fill="none" stroke="#3a2c20" stroke-width="2.5" stroke-linejoin="round" stroke-linecap="round"/><path d="M 613.03,1530.76 a 3.41,3.41 0 1,0 6.82,0 a 3.41,3.41 0 1,0 -6.82,0 Z" fill="#3a2c20" stroke="none" stroke-width="2" stroke-linejoin="round"/><path d="M 640.62 1519.6 q 5.58 -3.7199999999999998 11.16 1.24" fill="none" stroke="#3a2c20" stroke-width="2.5" stroke-linejoin="round" stroke-linecap="round"/><path d="M 642.79,1530.76 a 3.41,3.41 0 1,0 6.82,0 a 3.41,3.41 0 1,0 -6.82,0 Z" fill="#3a2c20" stroke="none" stroke-width="2" stroke-linejoin="round"/><path d="M 612.72 1550.6 q -4.96 -3.1 -8.68 0 q -3.7199999999999998 3.1 -7.4399999999999995 0" fill="none" stroke="#8e3b35" stroke-width="2.5" stroke-linejoin="round" stroke-linecap="round"/><path d="M 631.94 1561.76 h 16.12 v 43.4 h -16.12 Z" fill="#fbd7b5" stroke="none" stroke-width="2" stroke-linejoin="round"/><path d="M 587.3 1671.5 Q 587.3 1594.0 640 1590.9 Q 692.7 1594.0 692.7 1671.5 Z" fill="#5a6e8c" stroke="none" stroke-width="2" stroke-linejoin="round"/><path d="M 630.7 1600.2 L 640 1615.08 L 649.3 1600.2" fill="#ffffff" stroke="none" stroke-width="2" stroke-linejoin="round"/></g><g transform="translate(700.0,1492.0) rotate(8.1)"><path d="M 0,-12.1 Q 7.9,-1.1 5.9,4.0 A 6.6,6.6 0 1 1 -5.9,4.0 Q -7.9,-1.1 0,-12.1 Z" fill="#7EC8E3" stroke="#5aa8c8" stroke-width="1.5"/><path d="M -1.8,-2.2 q -0.9,4.0 0.4,5.7" stroke="#ffffff" stroke-width="1.8" fill="none" stroke-linecap="round"/></g><g transform="translate(0.00,0.00) scale(1)"><path d="M 494.18,1576.81 C 493.90,1579.08 493.36,1585.92 492.51,1590.44 C 491.66,1594.97 493.13,1599.70 489.06,1603.97 C 484.99,1608.24 475.42,1612.08 468.10,1616.06 C 460.79,1620.03 454.89,1624.41 445.17,1627.83 C 435.44,1631.26 422.31,1634.02 409.75,1636.63 C 397.19,1639.25 383.87,1641.68 369.82,1643.53 C 355.77,1645.39 340.64,1646.89 325.45,1647.76 C 310.27,1648.62 294.10,1649.07 278.71,1648.74 C 263.33,1648.40 247.76,1647.16 233.15,1645.73 C 218.53,1644.31 204.23,1642.42 191.01,1640.18 C 177.78,1637.93 165.32,1635.21 153.80,1632.26 C 142.28,1629.31 130.66,1626.13 121.88,1622.49 C 113.10,1618.85 106.48,1614.59 101.12,1610.41 C 95.76,1606.22 92.20,1601.79 89.71,1597.39 C 87.22,1592.98 85.35,1588.41 86.18,1583.97 C 87.02,1579.52 90.30,1574.99 94.74,1570.71 C 99.17,1566.43 105.08,1562.14 112.77,1558.30 C 120.46,1554.45 130.37,1550.86 140.87,1547.64 C 151.38,1544.42 163.51,1541.65 175.80,1538.96 C 188.10,1536.26 200.56,1533.13 214.67,1531.48 C 228.77,1529.82 245.12,1529.65 260.45,1529.04 C 275.77,1528.42 291.53,1527.34 306.63,1527.77 C 321.72,1528.20 336.32,1530.26 351.04,1531.63 C 365.75,1533.00 381.52,1533.84 394.91,1535.97 C 408.31,1538.10 420.09,1541.32 431.39,1544.41 C 442.70,1547.50 457.51,1552.83 462.74,1554.51 Q 506.59,1570.52 567.69,1555.06 Q 521.71,1552.32 494.18,1576.81 Z" fill="#ffffff" stroke="#1a1a1a" stroke-width="3" stroke-linejoin="round"/><text font-family="'Segoe UI','Noto Sans',sans-serif" font-size="20" fill="#1a1a1a" text-anchor="middle"><tspan x="290.0" y="1582.5">Real valleys are shallow</tspan><tspan x="290.0" y="1607.5">you climb without scattering</tspan></text></g><g clip-path="url(#cl_27)"><path d="M 906.5,2032.5 L 1431.3,2043.4 L 1431.5,2031.2 Z" fill="#ffffff"/><path d="M 875.1,2081.6 L 1339.2,2182.5 L 1340.8,2174.7 Z" fill="#ffffff"/><path d="M 854.6,2107.9 L 1325.4,2275.0 L 1328.6,2265.6 Z" fill="#ffffff"/><path d="M 875.7,2154.6 L 1313.5,2382.4 L 1319.6,2370.4 Z" fill="#ffffff"/><path d="M 834.4,2165.4 L 1292.5,2474.0 L 1300.0,2462.5 Z" fill="#ffffff"/><path d="M 819.1,2176.3 L 1245.9,2507.6 L 1250.6,2501.5 Z" fill="#ffffff"/><path d="M 806.9,2204.8 L 1143.1,2539.5 L 1149.4,2533.0 Z" fill="#ffffff"/><path d="M 800.2,2241.3 L 1093.1,2607.8 L 1100.2,2602.0 Z" fill="#ffffff"/><path d="M 760.9,2238.6 L 1039.2,2684.5 L 1047.5,2679.2 Z" fill="#ffffff"/><path d="M 722.6,2242.5 L 941.4,2752.6 L 955.5,2746.3 Z" fill="#ffffff"/><path d="M 714.3,2278.8 L 887.6,2795.3 L 898.2,2791.6 Z" fill="#ffffff"/><path d="M 675.5,2253.0 L 778.1,2766.7 L 790.9,2763.9 Z" fill="#ffffff"/><path d="M 649.1,2290.0 L 682.8,2799.0 L 698.2,2797.7 Z" fill="#ffffff"/><path d="M 625.9,2285.7 L 616.0,2776.2 L 628.0,2776.3 Z" fill="#ffffff"/><path d="M 589.5,2297.6 L 507.0,2816.4 L 522.3,2818.6 Z" fill="#ffffff"/><path d="M 566.1,2296.3 L 447.6,2780.4 L 458.7,2783.0 Z" fill="#ffffff"/><path d="M 556.8,2247.9 L 396.4,2726.5 L 403.6,2728.9 Z" fill="#ffffff"/><path d="M 512.1,2256.1 L 264.9,2722.5 L 277.9,2729.2 Z" fill="#ffffff"/><path d="M 437.9,2219.8 L 53.7,2595.7 L 61.4,2603.4 Z" fill="#ffffff"/><path d="M 412.5,2198.8 L 24.1,2495.2 L 31.6,2504.8 Z" fill="#ffffff"/><path d="M 426.8,2162.0 L -13.5,2446.3 L -9.3,2452.8 Z" fill="#ffffff"/><path d="M 382.5,2158.3 L -58.9,2385.8 L -56.2,2390.9 Z" fill="#ffffff"/><path d="M 406.7,2112.4 L -135.2,2309.8 L -132.5,2317.1 Z" fill="#ffffff"/><path d="M 359.6,2089.1 L -126.2,2190.0 L -123.6,2201.6 Z" fill="#ffffff"/><path d="M 356.2,2056.6 L -188.3,2103.4 L -187.1,2116.4 Z" fill="#ffffff"/><path d="M 364.4,2027.1 L -67.2,2016.2 L -67.3,2028.7 Z" fill="#ffffff"/><path d="M 380.0,1995.7 L -139.2,1916.6 L -141.2,1931.1 Z" fill="#ffffff"/><path d="M 355.1,1971.2 L -140.3,1859.9 L -142.2,1868.7 Z" fill="#ffffff"/><path d="M 359.2,1944.6 L -118.5,1789.3 L -120.4,1795.4 Z" fill="#ffffff"/><path d="M 408.1,1890.5 L -23.2,1610.0 L -29.3,1619.7 Z" fill="#ffffff"/><path d="M 421.9,1861.5 L 77.9,1572.0 L 69.8,1581.8 Z" fill="#ffffff"/><path d="M 428.5,1839.3 L 56.5,1478.8 L 51.5,1484.1 Z" fill="#ffffff"/><path d="M 483.1,1835.5 L 204.8,1448.5 L 192.1,1458.0 Z" fill="#ffffff"/><path d="M 501.6,1817.7 L 229.5,1346.5 L 217.1,1353.9 Z" fill="#ffffff"/><path d="M 521.1,1795.9 L 311.5,1320.0 L 298.8,1325.8 Z" fill="#ffffff"/><path d="M 577.6,1767.7 L 491.7,1278.5 L 475.9,1281.5 Z" fill="#ffffff"/><path d="M 598.6,1758.9 L 556.1,1312.3 L 544.7,1313.5 Z" fill="#ffffff"/><path d="M 626.2,1804.1 L 626.9,1316.1 L 617.4,1316.2 Z" fill="#ffffff"/><path d="M 649.7,1804.2 L 702.3,1300.3 L 694.1,1299.5 Z" fill="#ffffff"/><path d="M 677.6,1805.7 L 805.2,1251.2 L 795.6,1249.1 Z" fill="#ffffff"/><path d="M 714.2,1784.2 L 891.5,1295.5 L 881.2,1291.9 Z" fill="#ffffff"/><path d="M 773.9,1806.6 L 1052.5,1392.1 L 1041.2,1384.7 Z" fill="#ffffff"/><path d="M 767.5,1850.0 L 1065.7,1472.4 L 1058.8,1467.1 Z" fill="#ffffff"/><path d="M 783.6,1869.6 L 1166.4,1481.2 L 1160.3,1475.3 Z" fill="#ffffff"/><path d="M 815.9,1879.3 L 1203.2,1575.4 L 1196.7,1567.3 Z" fill="#ffffff"/><path d="M 825.0,1914.3 L 1292.0,1649.1 L 1284.2,1635.8 Z" fill="#ffffff"/><path d="M 845.8,1932.8 L 1361.4,1711.1 L 1355.2,1697.2 Z" fill="#ffffff"/><path d="M 861.5,1942.0 L 1278.8,1788.4 L 1276.2,1781.7 Z" fill="#ffffff"/><path d="M 850.3,1972.6 L 1339.0,1849.6 L 1337.4,1843.4 Z" fill="#ffffff"/><path d="M 905.0,2002.3 L 1390.0,1960.3 L 1388.7,1947.6 Z" fill="#ffffff"/><path d="M 915.1,2032.6 L 1431.4,2041.4 L 1431.4,2033.3 Z" fill="#2a2417"/><path d="M 882.7,2083.2 L 1339.5,2181.2 L 1340.6,2176.0 Z" fill="#2a2417"/><path d="M 861.6,2110.3 L 1325.9,2273.5 L 1328.1,2267.2 Z" fill="#2a2417"/><path d="M 883.3,2158.5 L 1314.5,2380.4 L 1318.6,2372.4 Z" fill="#2a2417"/><path d="M 840.8,2169.6 L 1293.8,2472.1 L 1298.8,2464.4 Z" fill="#2a2417"/><path d="M 825.1,2180.8 L 1246.7,2506.6 L 1249.8,2502.5 Z" fill="#2a2417"/><path d="M 812.5,2210.2 L 1144.1,2538.4 L 1148.3,2534.1 Z" fill="#2a2417"/><path d="M 805.6,2247.8 L 1094.2,2606.9 L 1099.0,2603.0 Z" fill="#2a2417"/><path d="M 765.1,2245.1 L 1040.6,2683.6 L 1046.1,2680.1 Z" fill="#2a2417"/><path d="M 725.6,2249.0 L 943.8,2751.5 L 953.1,2747.4 Z" fill="#2a2417"/><path d="M 717.0,2286.4 L 889.4,2794.7 L 896.5,2792.2 Z" fill="#2a2417"/><path d="M 676.9,2259.9 L 780.3,2766.2 L 788.8,2764.4 Z" fill="#2a2417"/><path d="M 649.8,2298.0 L 685.3,2798.8 L 695.7,2797.9 Z" fill="#2a2417"/><path d="M 625.9,2293.6 L 618.0,2776.2 L 626.0,2776.3 Z" fill="#2a2417"/><path d="M 588.3,2305.9 L 509.5,2816.7 L 519.7,2818.2 Z" fill="#2a2417"/><path d="M 564.1,2304.5 L 449.4,2780.8 L 456.8,2782.5 Z" fill="#2a2417"/><path d="M 554.6,2254.6 L 397.6,2726.9 L 402.4,2728.5 Z" fill="#2a2417"/><path d="M 508.5,2263.1 L 267.1,2723.6 L 275.7,2728.1 Z" fill="#2a2417"/><path d="M 432.0,2225.7 L 55.0,2597.0 L 60.1,2602.1 Z" fill="#2a2417"/><path d="M 405.8,2204.0 L 25.4,2496.8 L 30.3,2503.2 Z" fill="#2a2417"/><path d="M 420.6,2166.1 L -12.8,2447.3 L -10.0,2451.7 Z" fill="#2a2417"/><path d="M 374.9,2162.3 L -58.5,2386.7 L -56.7,2390.1 Z" fill="#2a2417"/><path d="M 399.8,2114.9 L -134.8,2311.1 L -132.9,2315.9 Z" fill="#2a2417"/><path d="M 351.3,2090.9 L -125.8,2191.9 L -124.0,2199.7 Z" fill="#2a2417"/><path d="M 347.8,2057.4 L -188.1,2105.6 L -187.3,2114.2 Z" fill="#2a2417"/><path d="M 356.3,2027.1 L -67.2,2018.3 L -67.3,2026.6 Z" fill="#2a2417"/><path d="M 372.4,1994.7 L -139.6,1919.0 L -140.9,1928.7 Z" fill="#2a2417"/><path d="M 346.7,1969.4 L -140.6,1861.4 L -141.9,1867.2 Z" fill="#2a2417"/><path d="M 350.9,1941.9 L -118.8,1790.4 L -120.1,1794.4 Z" fill="#2a2417"/><path d="M 401.2,1886.1 L -24.2,1611.7 L -28.3,1618.1 Z" fill="#2a2417"/><path d="M 415.6,1856.3 L 76.5,1573.7 L 71.2,1580.2 Z" fill="#2a2417"/><path d="M 422.3,1833.4 L 55.7,1479.7 L 52.3,1483.3 Z" fill="#2a2417"/><path d="M 478.6,1829.4 L 202.7,1450.1 L 194.2,1456.4 Z" fill="#2a2417"/><path d="M 497.7,1811.1 L 227.4,1347.7 L 219.1,1352.6 Z" fill="#2a2417"/><path d="M 517.8,1788.6 L 309.4,1321.0 L 300.9,1324.8 Z" fill="#2a2417"/><path d="M 576.0,1759.6 L 489.0,1279.0 L 478.5,1281.0 Z" fill="#2a2417"/><path d="M 597.7,1750.5 L 554.2,1312.5 L 546.6,1313.3 Z" fill="#2a2417"/><path d="M 626.1,1797.1 L 625.3,1316.1 L 619.0,1316.2 Z" fill="#2a2417"/><path d="M 650.4,1797.3 L 701.0,1300.1 L 695.5,1299.6 Z" fill="#2a2417"/><path d="M 679.1,1798.8 L 803.6,1250.9 L 797.2,1249.5 Z" fill="#2a2417"/><path d="M 716.9,1776.6 L 889.8,1294.9 L 882.9,1292.5 Z" fill="#2a2417"/><path d="M 778.4,1799.7 L 1050.6,1390.9 L 1043.1,1386.0 Z" fill="#2a2417"/><path d="M 771.8,1844.4 L 1064.6,1471.5 L 1060.0,1468.0 Z" fill="#2a2417"/><path d="M 788.4,1864.7 L 1165.4,1480.2 L 1161.3,1476.2 Z" fill="#2a2417"/><path d="M 821.8,1874.6 L 1202.1,1574.0 L 1197.8,1568.6 Z" fill="#2a2417"/><path d="M 831.1,1910.7 L 1290.7,1646.9 L 1285.5,1638.0 Z" fill="#2a2417"/><path d="M 852.5,1929.8 L 1360.4,1708.8 L 1356.2,1699.5 Z" fill="#2a2417"/><path d="M 868.7,1939.2 L 1278.3,1787.3 L 1276.7,1782.9 Z" fill="#2a2417"/><path d="M 857.2,1970.8 L 1338.7,1848.6 L 1337.6,1844.4 Z" fill="#2a2417"/><path d="M 913.5,2001.5 L 1389.7,1958.2 L 1388.9,1949.7 Z" fill="#2a2417"/></g><g transform="translate(0.00,0.00) scale(1)"><path d="M 581.24,2011.52 a 56.76,56.76 0 1,0 113.52,0 a 56.76,56.76 0 1,0 -113.52,0 Z" fill="#4a3826" stroke="none" stroke-width="2" stroke-linejoin="round"/><path d="M 583.12,2030.00 a 44.88,44.88 0 1,0 89.76,0 a 44.88,44.88 0 1,0 -89.76,0 Z" fill="#fbd7b5" stroke="none" stroke-width="2" stroke-linejoin="round"/><path d="M 583.78,1997.00 a 19.80,19.80 0 1,0 39.60,0 a 19.80,19.80 0 1,0 -39.60,0 Z" fill="#4a3826" stroke="none" stroke-width="2" stroke-linejoin="round"/><path d="M 609.52,1990.40 a 21.78,21.78 0 1,0 43.56,0 a 21.78,21.78 0 1,0 -43.56,0 Z" fill="#4a3826" stroke="none" stroke-width="2" stroke-linejoin="round"/><path d="M 639.88,1999.64 a 19.14,19.14 0 1,0 38.28,0 a 19.14,19.14 0 1,0 -38.28,0 Z" fill="#4a3826" stroke="none" stroke-width="2" stroke-linejoin="round"/><path d="M 595.66,2027.36 a 7.26,7.26 0 1,0 14.52,0 a 7.26,7.26 0 1,0 -14.52,0 Z" fill="#ffffff" stroke="#3a2c20" stroke-width="1.8479999999999999" stroke-linejoin="round" stroke-linecap="round"/><path d="M 600.81,2028.35 a 2.11,2.11 0 1,0 4.22,0 a 2.11,2.11 0 1,0 -4.22,0 Z" fill="#3a2c20" stroke="none" stroke-width="2" stroke-linejoin="round"/><path d="M 628.33,2027.36 a 6.27,6.27 0 1,0 12.54,0 a 6.27,6.27 0 1,0 -12.54,0 Z" fill="#ffffff" stroke="#3a2c20" stroke-width="1.8479999999999999" stroke-linejoin="round" stroke-linecap="round"/><path d="M 632.49,2028.35 a 2.11,2.11 0 1,0 4.22,0 a 2.11,2.11 0 1,0 -4.22,0 Z" fill="#3a2c20" stroke="none" stroke-width="2" stroke-linejoin="round"/><path d="M 584.44,2049.80 a 10.56,13.20 0 1,0 21.12,0 a 10.56,13.20 0 1,0 -21.12,0 Z" fill="#8e3b35" stroke="none" stroke-width="2" stroke-linejoin="round"/><path d="M 619.42 2061.68 h 17.16 v 46.2 h -17.16 Z" fill="#fbd7b5" stroke="none" stroke-width="2" stroke-linejoin="round"/><path d="M 571.9 2178.5 Q 571.9 2096.0 628 2092.7 Q 684.1 2096.0 684.1 2178.5 Z" fill="#5a6e8c" stroke="none" stroke-width="2" stroke-linejoin="round"/><path d="M 618.1 2102.6 L 628 2118.44 L 637.9 2102.6" fill="#ffffff" stroke="none" stroke-width="2" stroke-linejoin="round"/></g><g transform="translate(0.00,0.00) scale(1)"><path d="M 575.91,1820.00 Q 449.23,1832.69 534.60,1863.00 Q 406.54,1853.82 550.75,2015.33 Q 340.92,1868.48 300.00,1901.65 Q 261.37,1865.77 162.21,1895.77 Q 191.99,1854.29 79.13,1860.48 Q 147.09,1833.01 27.08,1820.00 Q 149.46,1807.19 77.98,1779.31 Q 190.23,1785.15 173.15,1750.25 Q 260.48,1773.17 300.00,1732.44 Q 341.06,1771.35 428.51,1749.34 Q 412.45,1784.30 534.13,1777.09 Q 449.84,1807.25 575.91,1820.00 Z" fill="#ffffff" stroke="#1a1a1a" stroke-width="4" stroke-linejoin="round"/><text font-family="'Segoe UI','Noto Sans',sans-serif" font-size="22" fill="#1a1a1a" text-anchor="middle"><tspan x="300.0" y="1814.0">(3) works only on high-dim</tspan><tspan x="300.0" y="1841.5">deceptive terrain. CPU: all miss</tspan></text></g><g transform="translate(0.00,0.00) scale(1)"><path d="M 48.00,2060.00 L 470.00,2060.00 L 470.00,2178.00 L 48.00,2178.00 Z" fill="#efe7d2" stroke="#1a1a1a" stroke-width="2" stroke-linejoin="round"/><text font-family="'Segoe UI','Noto Sans',sans-serif" font-size="16" fill="#1a1a1a" text-anchor="middle"><tspan x="259.0" y="2083.0">A result that goes too well is an alarm</tspan><tspan x="259.0" y="2113.0">Doubt your own result first</tspan><tspan x="259.0" y="2143.0">Honesty moves research forward</tspan></text></g><g transform="translate(0.00,0.00) scale(1)"><path d="M 376.00,2228.00 L 384.00,2228.00 L 384.00,2232.00 L 376.00,2232.00 Z" fill="#f5efe2" stroke="none" stroke-width="3" stroke-linejoin="round"/><text font-family="'Segoe UI','Noto Sans',sans-serif" font-size="18" fill="#6a645a" text-anchor="middle"><tspan x="380.0" y="2245.0">Read the full record of all six bouts</tspan></text></g><g transform="translate(0.00,0.00) scale(1)"><path d="M 376.00,2272.00 L 384.00,2272.00 L 384.00,2276.00 L 376.00,2276.00 Z" fill="#f5efe2" stroke="none" stroke-width="3" stroke-linejoin="round"/><text font-family="'Segoe UI','Noto Sans',sans-serif" font-size="13" fill="#8a8474" text-anchor="middle"><tspan x="380.0" y="2284.0">mangamd L1 / FullSense</tspan></text></g>
</svg>
