<svg xmlns="http://www.w3.org/2000/svg" viewBox="0 0 1000 640" font-family="Segoe UI, Hiragino Sans, Meiryo, sans-serif">
<rect width="1000" height="640" fill="#fff"/>
<rect x="120" y="100" width="600" height="348.5" fill="#fdecea"/>
<rect x="120" y="448.5" width="600" height="61.5" fill="#e8f5e9"/>
<line x1="120" y1="489.5" x2="720" y2="489.5" stroke="#dddddd" stroke-width="1"/>
<text x="108" y="494.5" font-size="15" fill="#555" text-anchor="end">0.8</text>
<line x1="120" y1="448.5" x2="720" y2="448.5" stroke="#dddddd" stroke-width="1"/>
<text x="108" y="453.5" font-size="15" fill="#555" text-anchor="end">1.0</text>
<line x1="120" y1="366.5" x2="720" y2="366.5" stroke="#dddddd" stroke-width="1"/>
<text x="108" y="371.5" font-size="15" fill="#555" text-anchor="end">1.4</text>
<line x1="120" y1="284.5" x2="720" y2="284.5" stroke="#dddddd" stroke-width="1"/>
<text x="108" y="289.5" font-size="15" fill="#555" text-anchor="end">1.8</text>
<line x1="120" y1="202.5" x2="720" y2="202.5" stroke="#dddddd" stroke-width="1"/>
<text x="108" y="207.5" font-size="15" fill="#555" text-anchor="end">2.2</text>
<line x1="120" y1="120.5" x2="720" y2="120.5" stroke="#dddddd" stroke-width="1"/>
<text x="108" y="125.5" font-size="15" fill="#555" text-anchor="end">2.6</text>
<line x1="120" y1="448.5" x2="720" y2="448.5" stroke="#b00020" stroke-width="3"/>
<text x="712" y="438.5" font-size="16" fill="#b00020" text-anchor="end" font-weight="bold">安定の境界 ρ = 1</text>
<text x="132" y="124" font-size="15" fill="#c0392b" font-weight="bold">↑ 越境（不安定）ほど上</text>
<line x1="120.0" y1="510" x2="120.0" y2="516" stroke="#888" stroke-width="1.5"/>
<text x="120.0" y="538" font-size="17" fill="#333" text-anchor="middle">8</text>
<line x1="270.0" y1="510" x2="270.0" y2="516" stroke="#888" stroke-width="1.5"/>
<text x="270.0" y="538" font-size="17" fill="#333" text-anchor="middle">32</text>
<line x1="420.0" y1="510" x2="420.0" y2="516" stroke="#888" stroke-width="1.5"/>
<text x="420.0" y="538" font-size="17" fill="#333" text-anchor="middle">64</text>
<line x1="570.0" y1="510" x2="570.0" y2="516" stroke="#888" stroke-width="1.5"/>
<text x="570.0" y="538" font-size="17" fill="#333" text-anchor="middle">128</text>
<line x1="720.0" y1="510" x2="720.0" y2="516" stroke="#888" stroke-width="1.5"/>
<text x="720.0" y="538" font-size="17" fill="#333" text-anchor="middle">256</text>
<line x1="120" y1="100" x2="120" y2="510" stroke="#333" stroke-width="2"/>
<line x1="120" y1="510" x2="720" y2="510" stroke="#333" stroke-width="2"/>
<polyline points="120.0,436.1 270.0,329.7 420.0,266.8 570.0,201.2 720.0,118.0" fill="none" stroke="#d62728" stroke-width="3.5" stroke-dasharray="7 5" stroke-linejoin="round"/>
<circle cx="120.0" cy="436.1" r="5.5" fill="#d62728" stroke="#fff" stroke-width="1.5"/>
<circle cx="270.0" cy="329.7" r="5.5" fill="#d62728" stroke="#fff" stroke-width="1.5"/>
<circle cx="420.0" cy="266.8" r="5.5" fill="#d62728" stroke="#fff" stroke-width="1.5"/>
<circle cx="570.0" cy="201.2" r="5.5" fill="#d62728" stroke="#fff" stroke-width="1.5"/>
<circle cx="720.0" cy="118.0" r="5.5" fill="#d62728" stroke="#fff" stroke-width="1.5"/>
<text x="730.0" y="123.0" font-size="15" fill="#d62728" font-weight="bold">null ρ≈2.61</text>
<polyline points="120.0,434.8 270.0,406.9 420.0,404.1 570.0,362.7 720.0,253.1" fill="none" stroke="#2c7fb8" stroke-width="3.5" stroke-linejoin="round"/>
<circle cx="120.0" cy="434.8" r="5.5" fill="#2c7fb8" stroke="#fff" stroke-width="1.5"/>
<circle cx="270.0" cy="406.9" r="5.5" fill="#2c7fb8" stroke="#fff" stroke-width="1.5"/>
<circle cx="420.0" cy="404.1" r="5.5" fill="#2c7fb8" stroke="#fff" stroke-width="1.5"/>
<circle cx="570.0" cy="362.7" r="5.5" fill="#2c7fb8" stroke="#fff" stroke-width="1.5"/>
<circle cx="720.0" cy="253.1" r="5.5" fill="#2c7fb8" stroke="#fff" stroke-width="1.5"/>
<text x="730.0" y="258.1" font-size="15" fill="#2c7fb8" font-weight="bold">本物 ρ≈1.95</text>
<rect x="138" y="360" width="360" height="132" rx="8" fill="#ffffff" fill-opacity="0.92" stroke="#cccccc"/>
<text x="152" y="386" font-size="14.5" fill="#333">null（青でなく赤破線）= 本物をシャッフルし</text>
<text x="152" y="408" font-size="14.5" fill="#333">「学ぶ構造」をゼロにした対照データ。</text>
<text x="152" y="430" font-size="14.5" fill="#333">なのに越境は本物より強い（ρ 2.61 > 1.95）、</text>
<text x="152" y="452" font-size="14.5" fill="#333">しかも CE 改善はゼロ。</text>
<text x="152" y="474" font-size="14.5" fill="#b00020" font-weight="bold">→ 越境は『賢くなるため』でなく、ただの幾何。</text>
<line x1="138" y1="152" x2="172" y2="152" stroke="#2c7fb8" stroke-width="3.5"/>
<text x="180" y="157" font-size="15" fill="#333">本物コーパス (real)</text>
<line x1="138" y1="176" x2="172" y2="176" stroke="#d62728" stroke-width="3.5" stroke-dasharray="7 5"/>
<text x="180" y="181" font-size="15" fill="#333">シャッフル (null=学ぶ構造ゼロ)</text>
<text x="500" y="40" font-size="25" fill="#1a1a1a" text-anchor="middle" font-weight="bold">越境は「学習」でなく「幾何」だった — null 対照</text>
<text x="500" y="66" font-size="14.5" fill="#666" text-anchor="middle">ゲートなし勾配学習の ρ vs 次元 n ／ 本物 vs シャッフル（HD-1, 4 seed 平均）</text>
<text x="420" y="566" font-size="17" fill="#333" text-anchor="middle">記憶コアの次元 n →</text>
<text x="34" y="305" font-size="16" fill="#333" text-anchor="middle" transform="rotate(-90 34 305)">ρ（縮約係数）— 1 未満で安定</text>
</svg>