<svg xmlns="http://www.w3.org/2000/svg" width="900" height="640" viewBox="0 0 900 640" font-family="system-ui, sans-serif">
  <defs>
    <marker id="down" markerWidth="10" markerHeight="10" refX="3" refY="8" orient="auto">
      <path d="M0,0 L6,0 L3,8 Z" fill="#94a3b8"/>
    </marker>
    <marker id="bi" markerWidth="9" markerHeight="9" refX="7" refY="3" orient="auto">
      <path d="M0,0 L7,3 L0,6 Z" fill="#6366f1"/>
    </marker>
  </defs>
  <rect x="0" y="0" width="900" height="640" fill="#f8fafc"/>
  <text x="450" y="34" text-anchor="middle" font-size="20" font-weight="700" fill="#0f172a">&#51064;&#44036;&#51032; &#49324;&#44256; &#54620;&#47476; &#8596; llive &#47588;&#54551;</text>

  <text x="230" y="66" text-anchor="middle" font-size="16" font-weight="700" fill="#3730a3">[&#51064;&#44036;]</text>
  <text x="670" y="66" text-anchor="middle" font-size="16" font-weight="700" fill="#15803d">[llive]</text>

  <rect x="40" y="80" width="380" height="42" rx="9" fill="#e0e7ff" stroke="#6366f1" stroke-width="1.4"/>
  <text x="230" y="107" text-anchor="middle" font-size="15" fill="#312e81">Brief (&#47928;&#51228; &#51221;&#51032;)</text>
  <rect x="480" y="80" width="380" height="42" rx="9" fill="#dcfce7" stroke="#22c55e" stroke-width="1.4"/>
  <text x="670" y="107" text-anchor="middle" font-size="15" fill="#14532d">Brief API (&#44396;&#54788;)</text>
  <line x1="420" y1="101" x2="480" y2="101" stroke="#6366f1" stroke-width="2" marker-start="url(#bi)" marker-end="url(#bi)"/>

  <rect x="40" y="158" width="380" height="42" rx="9" fill="#e0e7ff" stroke="#6366f1" stroke-width="1.4"/>
  <text x="230" y="185" text-anchor="middle" font-size="15" fill="#312e81">KJ&#48277; (&#54869;&#49328; + &#52828;&#54868;)</text>
  <rect x="480" y="158" width="380" height="42" rx="9" fill="#dcfce7" stroke="#22c55e" stroke-width="1.4"/>
  <text x="670" y="185" text-anchor="middle" font-size="14" fill="#14532d">CREAT-01 KJ&#48277; &#45432;&#46300; (&#44228;&#54925;)</text>
  <line x1="420" y1="179" x2="480" y2="179" stroke="#6366f1" stroke-width="2" marker-start="url(#bi)" marker-end="url(#bi)"/>

  <rect x="40" y="236" width="380" height="42" rx="9" fill="#e0e7ff" stroke="#6366f1" stroke-width="1.4"/>
  <text x="230" y="263" text-anchor="middle" font-size="15" fill="#312e81">MindMap (&#44396;&#51312;&#54868;)</text>
  <rect x="480" y="236" width="380" height="42" rx="9" fill="#dcfce7" stroke="#22c55e" stroke-width="1.4"/>
  <text x="670" y="263" text-anchor="middle" font-size="14" fill="#14532d">CREAT-02 MindMap &#45432;&#46300; (&#44228;&#54925;)</text>
  <line x1="420" y1="257" x2="480" y2="257" stroke="#6366f1" stroke-width="2" marker-start="url(#bi)" marker-end="url(#bi)"/>

  <rect x="40" y="314" width="380" height="42" rx="9" fill="#e0e7ff" stroke="#6366f1" stroke-width="1.4"/>
  <text x="230" y="341" text-anchor="middle" font-size="15" fill="#312e81">TRIZ (&#47784;&#49692; &#54644;&#44208;)</text>
  <rect x="480" y="314" width="380" height="42" rx="9" fill="#dcfce7" stroke="#22c55e" stroke-width="1.4"/>
  <text x="670" y="341" text-anchor="middle" font-size="14" fill="#14532d">&#44592;&#51316; FR-23&#8211;27 + CREAT-05 &#50976;&#52628;</text>
  <line x1="420" y1="335" x2="480" y2="335" stroke="#6366f1" stroke-width="2" marker-start="url(#bi)" marker-end="url(#bi)"/>

  <rect x="40" y="392" width="380" height="42" rx="9" fill="#e0e7ff" stroke="#6366f1" stroke-width="1.4"/>
  <text x="230" y="419" text-anchor="middle" font-size="15" fill="#312e81">Six Hats (&#45796;&#49884;&#51216; &#44160;&#51613;)</text>
  <rect x="480" y="392" width="380" height="42" rx="9" fill="#dcfce7" stroke="#22c55e" stroke-width="1.4"/>
  <text x="670" y="419" text-anchor="middle" font-size="14" fill="#14532d">CREAT-04 + EpistemicType (&#44228;&#54925;)</text>
  <line x1="420" y1="413" x2="480" y2="413" stroke="#6366f1" stroke-width="2" marker-start="url(#bi)" marker-end="url(#bi)"/>

  <rect x="40" y="470" width="380" height="42" rx="9" fill="#e0e7ff" stroke="#6366f1" stroke-width="1.4"/>
  <text x="230" y="497" text-anchor="middle" font-size="15" fill="#312e81">&#50836;&#44144; &#51221;&#51032; (&#44396;&#51312;&#54868; &#48320;&#54872;)</text>
  <rect x="480" y="470" width="380" height="42" rx="9" fill="#dcfce7" stroke="#22c55e" stroke-width="1.4"/>
  <text x="670" y="497" text-anchor="middle" font-size="14" fill="#14532d">CREAT-03 &#44396;&#51312;&#54868; &#48320;&#54872; (&#44228;&#54925;)</text>
  <line x1="420" y1="491" x2="480" y2="491" stroke="#6366f1" stroke-width="2" marker-start="url(#bi)" marker-end="url(#bi)"/>

  <rect x="40" y="548" width="380" height="42" rx="9" fill="#c7d2fe" stroke="#6366f1" stroke-width="1.6"/>
  <text x="230" y="575" text-anchor="middle" font-size="15" font-weight="700" fill="#312e81">&#44396;&#54788;</text>
  <rect x="480" y="548" width="380" height="42" rx="9" fill="#bbf7d0" stroke="#22c55e" stroke-width="1.6"/>
  <text x="670" y="575" text-anchor="middle" font-size="13" font-weight="700" fill="#14532d">BriefRunner.submit → Loop (&#44396;&#54788;)</text>
  <line x1="420" y1="569" x2="480" y2="569" stroke="#6366f1" stroke-width="2" marker-start="url(#bi)" marker-end="url(#bi)"/>

  <line x1="230" y1="122" x2="230" y2="156" stroke="#94a3b8" stroke-width="1.8" marker-end="url(#down)"/>
  <line x1="230" y1="200" x2="230" y2="234" stroke="#94a3b8" stroke-width="1.8" marker-end="url(#down)"/>
  <line x1="230" y1="278" x2="230" y2="312" stroke="#94a3b8" stroke-width="1.8" marker-end="url(#down)"/>
  <line x1="230" y1="356" x2="230" y2="390" stroke="#94a3b8" stroke-width="1.8" marker-end="url(#down)"/>
  <line x1="230" y1="434" x2="230" y2="468" stroke="#94a3b8" stroke-width="1.8" marker-end="url(#down)"/>
  <line x1="230" y1="512" x2="230" y2="546" stroke="#94a3b8" stroke-width="1.8" marker-end="url(#down)"/>
</svg>
